# This file uses centimeters as units for non-parametric coordinates.

mtllib bowl.mtl
g default
v 0.300184 0.009090 -0.219251
v 0.114660 0.009090 -0.354042
v -0.114660 0.009090 -0.354042
v -0.300184 0.009090 -0.219251
v -0.371048 0.009090 -0.001155
v -0.300184 0.009090 0.216942
v -0.114660 0.009090 0.351733
v 0.114660 0.009090 0.351733
v 0.300184 0.009090 0.216942
v 0.371048 0.009090 -0.001155
v 0.417663 0.255686 -0.304605
v 0.159533 0.255686 -0.492147
v -0.159533 0.255686 -0.492147
v -0.417663 0.255686 -0.304605
v -0.516260 0.255686 -0.001155
v -0.417663 0.255686 0.302296
v -0.159533 0.255686 0.489838
v 0.159533 0.255686 0.489838
v 0.417663 0.255686 0.302296
v 0.516260 0.255686 -0.001155
v -0.000000 0.009090 -0.001155
v 0.672992 0.325866 -0.490112
v 0.257060 0.325866 -0.792304
v -0.257060 0.325866 -0.792304
v -0.672992 0.325866 -0.490112
v -0.831864 0.325866 -0.001155
v -0.672992 0.325866 0.487803
v -0.257060 0.325866 0.789995
v 0.257060 0.325866 0.789995
v 0.672992 0.325866 0.487803
v 0.831864 0.325866 -0.001155
v 0.672992 0.349576 -0.490112
v 0.257060 0.349576 -0.792304
v -0.257060 0.349576 -0.792304
v -0.672992 0.349576 -0.490112
v -0.831864 0.349576 -0.001155
v -0.672992 0.349576 0.487803
v -0.257060 0.349576 0.789995
v 0.257060 0.349576 0.789995
v 0.672992 0.349576 0.487803
v 0.831864 0.349576 -0.001155
v 0.429548 0.298306 -0.313240
v 0.164073 0.298306 -0.506119
v -0.164073 0.298306 -0.506119
v -0.429548 0.298306 -0.313240
v -0.530951 0.298306 -0.001155
v -0.429548 0.298306 0.310931
v -0.164073 0.298306 0.503810
v 0.164073 0.298306 0.503810
v 0.429548 0.298306 0.310931
v 0.530951 0.298306 -0.001155
v 0.294023 0.048322 -0.214775
v 0.112307 0.048322 -0.346799
v 0.000000 0.048322 -0.001155
v -0.112307 0.048322 -0.346799
v -0.294023 0.048322 -0.214775
v -0.363432 0.048322 -0.001155
v -0.294023 0.048322 0.212466
v -0.112307 0.048322 0.344490
v 0.112307 0.048322 0.344490
v 0.294023 0.048322 0.212466
v 0.363432 0.048322 -0.001155
vt 0.449828 0.793371
vt 0.525427 0.793371
vt 0.487628 0.671047
vt 0.388666 0.746647
vt 0.365304 0.671047
vt 0.388666 0.595448
vt 0.449828 0.548724
vt 0.525427 0.548724
vt 0.586589 0.595448
vt 0.609951 0.671047
vt 0.749829 0.004425
vt 0.840347 0.282624
vt 0.749829 0.282624
vt 0.025689 0.004425
vt 0.025689 0.282624
vt 0.116207 0.004425
vt 0.116207 0.282624
vt 0.206724 0.004425
vt 0.206724 0.282624
vt 0.297242 0.004425
vt 0.297242 0.282624
vt 0.387759 0.004425
vt 0.387759 0.282624
vt 0.478277 0.004425
vt 0.478277 0.282624
vt 0.568794 0.004425
vt 0.568794 0.282624
vt 0.659312 0.004425
vt 0.659312 0.282624
vt 0.586589 0.746647
vt 0.611521 0.765693
vt 0.534950 0.824188
vt 0.574601 0.952499
vt 0.715327 0.844994
vt 0.440305 0.824188
vt 0.400654 0.952499
vt 0.363734 0.765693
vt 0.259928 0.844994
vt 0.334487 0.671047
vt 0.206176 0.671047
vt 0.121546 0.873377
vt 0.955599 0.210700
vt 0.956783 0.116634
vt 0.988488 0.117033
vt 0.987305 0.211099
vt 0.946135 0.963231
vt 0.977840 0.963629
vt 0.947318 0.869165
vt 0.979023 0.869563
vt 0.948501 0.775098
vt 0.980206 0.775497
vt 0.949684 0.681032
vt 0.981389 0.681431
vt 0.950867 0.586966
vt 0.982572 0.587364
vt 0.952050 0.492899
vt 0.983756 0.493298
vt 0.953233 0.398833
vt 0.984939 0.399232
vt 0.954416 0.304767
vt 0.986122 0.305166
vt 0.749829 0.330707
vt 0.840347 0.330707
vt 0.840347 0.048685
vt 0.749829 0.048685
vt 0.025689 0.330707
vt 0.025689 0.048685
vt 0.116207 0.330707
vt 0.116207 0.048685
vt 0.206724 0.330707
vt 0.206724 0.048685
vt 0.200627 0.934743
vt 0.151753 0.970252
vt 0.091340 0.970252
vt 0.042466 0.934743
vt 0.023798 0.877287
vt 0.042466 0.819832
vt 0.091340 0.784323
vt 0.151753 0.784323
vt 0.200627 0.819832
vt 0.219295 0.877287
vt 0.363734 0.576402
vt 0.259929 0.497101
vt 0.440305 0.517907
vt 0.400654 0.389596
vt 0.534950 0.517907
vt 0.574601 0.389596
vt 0.611521 0.576402
vt 0.715327 0.497101
vt 0.640768 0.671047
vt 0.769079 0.671047
vt 0.740685 0.864366
vt 0.584287 0.983844
vt 0.541717 0.846086
vt 0.629237 0.779227
vt 0.390968 0.983844
vt 0.433538 0.846086
vt 0.234570 0.864366
vt 0.346018 0.779227
vt 0.174831 0.671047
vt 0.312589 0.671047
vt 0.234570 0.477729
vt 0.346019 0.562868
vt 0.390968 0.358251
vt 0.433538 0.496009
vt 0.584287 0.358251
vt 0.541717 0.496009
vt 0.740685 0.477729
vt 0.629237 0.562868
vt 0.800424 0.671047
vt 0.662666 0.671047
vt 0.297242 0.330707
vt 0.297242 0.048685
vt 0.387759 0.330707
vt 0.387759 0.048685
vt 0.478277 0.330707
vt 0.478277 0.048685
vt 0.568794 0.330707
vt 0.568794 0.048685
vt 0.659312 0.330707
vt 0.659312 0.048685
vt 0.840347 0.004425
vt 0.930864 0.004425
vt 0.930864 0.282624
vt 0.957966 0.022568
vt 0.989671 0.022967
vt 0.930864 0.330707
vt 0.930864 0.048685
vn 0.512836 -0.488635 -0.705858
vn 0.512836 -0.488635 -0.705858
vn 0.512836 -0.488635 -0.705858
vn 0.512836 -0.488635 -0.705858
vn -0.000000 -0.488635 -0.872488
vn -0.000000 -0.488635 -0.872488
vn -0.000000 -0.488635 -0.872488
vn -0.000000 -0.488635 -0.872488
vn -0.512836 -0.488635 -0.705858
vn -0.512836 -0.488635 -0.705858
vn -0.512836 -0.488635 -0.705858
vn -0.512836 -0.488635 -0.705858
vn -0.829786 -0.488635 -0.269613
vn -0.829786 -0.488635 -0.269613
vn -0.829786 -0.488635 -0.269613
vn -0.829786 -0.488635 -0.269613
vn -0.829786 -0.488635 0.269614
vn -0.829786 -0.488635 0.269614
vn -0.829786 -0.488635 0.269614
vn -0.829786 -0.488635 0.269614
vn -0.512836 -0.488635 0.705858
vn -0.512836 -0.488635 0.705858
vn -0.512836 -0.488635 0.705858
vn -0.512836 -0.488635 0.705858
vn 0.000000 -0.488635 0.872488
vn 0.000000 -0.488635 0.872488
vn 0.000000 -0.488635 0.872488
vn 0.000000 -0.488635 0.872488
vn 0.512836 -0.488635 0.705858
vn 0.512836 -0.488635 0.705858
vn 0.512836 -0.488635 0.705858
vn 0.512836 -0.488635 0.705858
vn 0.829786 -0.488635 0.269614
vn 0.829786 -0.488635 0.269614
vn 0.829785 -0.488635 0.269614
vn 0.829785 -0.488635 0.269614
vn 0.829786 -0.488635 -0.269614
vn 0.829786 -0.488635 -0.269613
vn 0.829786 -0.488635 -0.269613
vn 0.829786 -0.488635 -0.269613
vn 0.000000 -1.000000 -0.000000
vn 0.000000 -1.000000 0.000000
vn 0.000000 -1.000000 -0.000000
vn 0.000000 -1.000000 -0.000000
vn 0.000000 -1.000000 -0.000000
vn 0.000000 -1.000000 -0.000000
vn 0.000000 -1.000000 0.000000
vn 0.000000 -1.000000 -0.000000
vn 0.000000 -1.000000 -0.000000
vn 0.000000 -1.000000 -0.000000
vn 0.000000 -1.000000 0.000000
vn 0.000000 1.000000 -0.000000
vn 0.000000 1.000000 -0.000000
vn 0.000000 1.000000 0.000000
vn 0.000000 1.000000 0.000000
vn -0.000000 1.000000 0.000000
vn -0.000000 1.000000 0.000000
vn 0.000000 1.000000 0.000000
vn -0.000000 1.000000 -0.000000
vn -0.000000 1.000000 -0.000000
vn -0.000000 1.000000 -0.000000
vn 0.000000 1.000000 -0.000000
vn 0.175612 -0.976157 -0.127589
vn 0.067078 -0.976157 -0.206444
vn 0.067078 -0.976157 -0.206444
vn 0.175612 -0.976157 -0.127589
vn -0.067078 -0.976157 -0.206444
vn -0.067078 -0.976157 -0.206444
vn -0.175612 -0.976157 -0.127589
vn -0.175612 -0.976157 -0.127589
vn -0.217068 -0.976157 0.000000
vn -0.217068 -0.976156 0.000000
vn -0.175612 -0.976157 0.127589
vn -0.175612 -0.976156 0.127589
vn -0.067078 -0.976157 0.206444
vn -0.067078 -0.976157 0.206444
vn 0.067078 -0.976156 0.206444
vn 0.067078 -0.976157 0.206444
vn 0.175612 -0.976156 0.127589
vn 0.175612 -0.976157 0.127589
vn 0.217068 -0.976156 0.000000
vn 0.217068 -0.976156 0.000000
vn 0.587786 0.000000 -0.809017
vn 0.587786 0.000000 -0.809017
vn 0.587786 0.000000 -0.809017
vn 0.587786 0.000000 -0.809017
vn 0.000000 0.000000 -1.000000
vn 0.000000 0.000000 -1.000000
vn 0.000000 0.000000 -1.000000
vn 0.000000 0.000000 -1.000000
vn -0.587785 0.000000 -0.809017
vn -0.587785 0.000000 -0.809017
vn -0.587785 0.000000 -0.809017
vn -0.587785 0.000000 -0.809017
vn -0.951057 0.000000 -0.309017
vn -0.951057 0.000000 -0.309017
vn -0.951057 0.000000 -0.309017
vn -0.951057 0.000000 -0.309017
vn -0.951056 -0.000000 0.309017
vn -0.951056 -0.000000 0.309017
vn -0.951056 -0.000000 0.309017
vn -0.951056 -0.000000 0.309017
vn -0.587785 0.000000 0.809017
vn -0.587785 0.000000 0.809017
vn -0.587785 0.000000 0.809017
vn -0.587785 0.000000 0.809017
vn 0.000000 0.000000 1.000000
vn 0.000000 0.000000 1.000000
vn 0.000000 0.000000 1.000000
vn 0.000000 0.000000 1.000000
vn 0.587785 0.000000 0.809017
vn 0.587785 0.000000 0.809017
vn 0.587785 0.000000 0.809017
vn 0.587785 0.000000 0.809017
vn 0.951057 0.000000 0.309017
vn 0.951056 0.000000 0.309017
vn 0.951056 0.000000 0.309017
vn 0.951056 0.000000 0.309017
vn 0.951057 0.000000 -0.309017
vn 0.951057 0.000000 -0.309017
vn 0.951057 0.000000 -0.309017
vn 0.951057 0.000000 -0.309017
vn -0.135884 0.985793 0.098726
vn -0.051903 0.985793 0.159741
vn -0.051903 0.985793 0.159741
vn -0.135884 0.985793 0.098726
vn 0.051903 0.985793 0.159741
vn 0.051903 0.985793 0.159741
vn 0.135884 0.985793 0.098726
vn 0.135884 0.985793 0.098726
vn 0.167962 0.985793 -0.000000
vn 0.167962 0.985793 -0.000000
vn 0.135884 0.985793 -0.098726
vn 0.135884 0.985793 -0.098726
vn 0.051903 0.985793 -0.159741
vn 0.051903 0.985793 -0.159741
vn -0.051903 0.985793 -0.159741
vn -0.051903 0.985793 -0.159741
vn -0.135884 0.985793 -0.098726
vn -0.135884 0.985793 -0.098726
vn -0.167962 0.985793 -0.000000
vn -0.167962 0.985793 0.000000
vn -0.672071 0.556683 0.488288
vn -0.256708 0.556683 0.790066
vn -0.256708 0.556683 0.790066
vn -0.672071 0.556683 0.488288
vn 0.256708 0.556683 0.790066
vn 0.256708 0.556683 0.790066
vn 0.672071 0.556683 0.488288
vn 0.672071 0.556683 0.488288
vn 0.830725 0.556683 -0.000000
vn 0.830725 0.556683 -0.000000
vn 0.672071 0.556683 -0.488288
vn 0.672071 0.556683 -0.488288
vn 0.256708 0.556683 -0.790067
vn 0.256708 0.556683 -0.790067
vn -0.256708 0.556683 -0.790067
vn -0.256708 0.556683 -0.790067
vn -0.672071 0.556683 -0.488288
vn -0.672071 0.556683 -0.488288
vn -0.830725 0.556683 -0.000000
vn -0.830725 0.556683 0.000000
s off
g Bowl1
usemtl initialShadingGroup
f 1/11/1 2/122/2 12/12/3 11/13/4
f 2/122/5 3/123/6 13/124/7 12/12/8
f 3/14/9 4/16/10 14/17/11 13/15/12
f 4/16/13 5/18/14 15/19/15 14/17/16
f 5/18/17 6/20/18 16/21/19 15/19/20
f 6/20/21 7/22/22 17/23/23 16/21/24
f 7/22/25 8/24/26 18/25/27 17/23/28
f 8/24/29 9/26/30 19/27/31 18/25/32
f 9/26/33 10/28/34 20/29/35 19/27/36
f 10/28/37 1/11/38 11/13/39 20/29/40
s 1
f 3/1/41 2/2/42 21/3/43 4/4/44
f 5/5/45 4/4/44 21/3/43 6/6/46
f 7/7/47 6/6/46 21/3/43 8/8/48
f 9/9/49 8/8/48 21/3/43 10/10/50
f 1/30/51 10/10/50 21/3/43 2/2/42
s 2
f 54/41/52 52/72/53 53/73/54 55/74/55
f 54/41/52 55/74/55 56/75/56 57/76/57
f 54/41/52 57/76/57 58/77/58 59/78/59
f 54/41/52 59/78/59 60/79/60 61/80/61
f 54/41/52 61/80/61 62/81/62 52/72/53
s 3
f 11/31/63 12/32/64 23/33/65 22/34/66
f 12/32/64 13/35/67 24/36/68 23/33/65
f 13/35/67 14/37/69 25/38/70 24/36/68
f 14/37/69 15/39/71 26/40/72 25/38/70
f 15/39/71 16/82/73 27/83/74 26/40/72
f 16/82/73 17/84/75 28/85/76 27/83/74
f 17/84/75 18/86/77 29/87/78 28/85/76
f 18/86/77 19/88/79 30/89/80 29/87/78
f 19/88/79 20/90/81 31/91/82 30/89/80
f 20/90/81 11/31/63 22/34/66 31/91/82
s off
f 22/42/83 23/43/84 33/44/85 32/45/86
f 23/43/87 24/125/88 34/126/89 33/44/90
f 24/46/91 25/48/92 35/49/93 34/47/94
f 25/48/95 26/50/96 36/51/97 35/49/98
f 26/50/99 27/52/100 37/53/101 36/51/102
f 27/52/103 28/54/104 38/55/105 37/53/106
f 28/54/107 29/56/108 39/57/109 38/55/110
f 29/56/111 30/58/112 40/59/113 39/57/114
f 30/58/115 31/60/116 41/61/117 40/59/118
f 31/60/119 22/42/120 32/45/121 41/61/122
s 4
f 32/92/123 33/93/124 43/94/125 42/95/126
f 33/93/124 34/96/127 44/97/128 43/94/125
f 34/96/127 35/98/129 45/99/130 44/97/128
f 35/98/129 36/100/131 46/101/132 45/99/130
f 36/100/131 37/102/133 47/103/134 46/101/132
f 37/102/133 38/104/135 48/105/136 47/103/134
f 38/104/135 39/106/137 49/107/138 48/105/136
f 39/106/137 40/108/139 50/109/140 49/107/138
f 40/108/139 41/110/141 51/111/142 50/109/140
f 41/110/141 32/92/123 42/95/126 51/111/142
s 5
f 42/62/143 43/63/144 53/64/145 52/65/146
f 43/63/144 44/127/147 55/128/148 53/64/145
f 44/66/147 45/68/149 56/69/150 55/67/148
f 45/68/149 46/70/151 57/71/152 56/69/150
f 46/70/151 47/112/153 58/113/154 57/71/152
f 47/112/153 48/114/155 59/115/156 58/113/154
f 48/114/155 49/116/157 60/117/158 59/115/156
f 49/116/157 50/118/159 61/119/160 60/117/158
f 50/118/159 51/120/161 62/121/162 61/119/160
f 51/120/161 42/62/143 52/65/146 62/121/162
