# This file uses centimeters as units for non-parametric coordinates.

mtllib bowl_full.mtl
g default
v -0.195516 0.138991 0.178575
v -0.091042 0.138991 0.242223
v 0.078947 0.138991 0.242223
v 0.183421 0.138991 0.178575
v -0.261032 0.138991 0.077080
v -0.069204 0.138991 0.055865
v 0.057108 0.138991 0.055865
v 0.248936 0.138991 0.077080
v -0.261032 0.138991 -0.088062
v -0.069204 0.138991 -0.066846
v 0.057108 0.138991 -0.066846
v 0.248936 0.138991 -0.088062
v -0.195516 0.138991 -0.189557
v -0.091042 0.138991 -0.253204
v 0.078947 0.138991 -0.253204
v 0.183421 0.138991 -0.189557
vt 0.805910 0.875732
vt 0.837806 0.875732
vt 0.869702 0.875732
vt 0.901598 0.875732
vt 0.805910 0.907628
vt 0.837806 0.907628
vt 0.869702 0.907628
vt 0.901598 0.907628
vt 0.805910 0.939524
vt 0.837806 0.939524
vt 0.869702 0.939524
vt 0.901598 0.939524
vt 0.805910 0.971420
vt 0.837806 0.971420
vt 0.869702 0.971420
vt 0.901598 0.971420
vn 0.000000 1.000000 0.000000
vn 0.000000 1.000000 0.000000
vn -0.000000 1.000000 0.000000
vn -0.000000 1.000000 0.000000
vn -0.000000 1.000000 0.000000
vn 0.000000 1.000000 0.000000
vn -0.000000 1.000000 0.000000
vn 0.000000 1.000000 0.000000
vn -0.000000 1.000000 0.000000
vn -0.000000 1.000000 0.000000
vn 0.000000 1.000000 0.000000
vn 0.000000 1.000000 0.000000
vn 0.000000 1.000000 0.000000
vn 0.000000 1.000000 0.000000
vn -0.000000 1.000000 0.000000
vn -0.000000 1.000000 0.000000
s 1
g pPlane3 Bowl2
usemtl initialShadingGroup
f 1/1/1 2/2/2 6/6/3 5/5/4
f 2/2/2 3/3/5 7/7/6 6/6/3
f 3/3/5 4/4/7 8/8/8 7/7/6
f 5/5/4 6/6/3 10/10/9 9/9/10
f 6/6/3 7/7/6 11/11/11 10/10/9
f 7/7/6 8/8/8 12/12/12 11/11/11
f 9/9/10 10/10/9 14/14/13 13/13/14
f 10/10/9 11/11/11 15/15/15 14/14/13
f 11/11/11 12/12/12 16/16/16 15/15/15
g default
v 0.145297 0.004400 -0.106719
v 0.055498 0.004400 -0.171961
v -0.055498 0.004400 -0.171961
v -0.145297 0.004400 -0.106719
v -0.179597 0.004400 -0.001155
v -0.145297 0.004400 0.104410
v -0.055498 0.004400 0.169652
v 0.055498 0.004400 0.169652
v 0.145297 0.004400 0.104410
v 0.179597 0.004400 -0.001155
v 0.202160 0.123758 -0.148032
v 0.077218 0.123758 -0.238808
v -0.077218 0.123758 -0.238808
v -0.202160 0.123758 -0.148032
v -0.249883 0.123758 -0.001155
v -0.202160 0.123758 0.145723
v -0.077218 0.123758 0.236499
v 0.077218 0.123758 0.236499
v 0.202160 0.123758 0.145723
v 0.249883 0.123758 -0.001155
v -0.000000 0.004400 -0.001155
v 0.325745 0.157728 -0.237822
v 0.124424 0.157728 -0.384091
v -0.124424 0.157728 -0.384091
v -0.325745 0.157728 -0.237822
v -0.402643 0.157728 -0.001155
v -0.325745 0.157728 0.235513
v -0.124424 0.157728 0.381782
v 0.124424 0.157728 0.381782
v 0.325745 0.157728 0.235513
v 0.402643 0.157728 -0.001155
v 0.325745 0.169204 -0.237822
v 0.124424 0.169204 -0.384091
v -0.124424 0.169204 -0.384091
v -0.325745 0.169204 -0.237822
v -0.402643 0.169204 -0.001155
v -0.325745 0.169204 0.235513
v -0.124424 0.169204 0.381782
v 0.124424 0.169204 0.381782
v 0.325745 0.169204 0.235513
v 0.402643 0.169204 -0.001155
v 0.207912 0.144388 -0.152212
v 0.079415 0.144388 -0.245570
v -0.079416 0.144388 -0.245570
v -0.207912 0.144388 -0.152212
v -0.256994 0.144388 -0.001155
v -0.207912 0.144388 0.149903
v -0.079415 0.144388 0.243261
v 0.079415 0.144388 0.243261
v 0.207912 0.144388 0.149903
v 0.256994 0.144388 -0.001155
v 0.142315 0.023389 -0.104552
v 0.054359 0.023389 -0.168456
v 0.000000 0.023389 -0.001155
v -0.054359 0.023389 -0.168456
v -0.142315 0.023389 -0.104552
v -0.175911 0.023389 -0.001155
v -0.142315 0.023389 0.102243
v -0.054359 0.023389 0.166146
v 0.054359 0.023389 0.166146
v 0.142315 0.023389 0.102243
v 0.175911 0.023389 -0.001155
vt 0.449828 0.793371
vt 0.525427 0.793371
vt 0.487628 0.671047
vt 0.388666 0.746647
vt 0.365304 0.671047
vt 0.388666 0.595448
vt 0.449828 0.548724
vt 0.525427 0.548724
vt 0.586589 0.595448
vt 0.609951 0.671047
vt 0.749829 0.004425
vt 0.840347 0.282624
vt 0.749829 0.282624
vt 0.025689 0.004425
vt 0.025689 0.282624
vt 0.116207 0.004425
vt 0.116207 0.282624
vt 0.206724 0.004425
vt 0.206724 0.282624
vt 0.297242 0.004425
vt 0.297242 0.282624
vt 0.387759 0.004425
vt 0.387759 0.282624
vt 0.478277 0.004425
vt 0.478277 0.282624
vt 0.568794 0.004425
vt 0.568794 0.282624
vt 0.659312 0.004425
vt 0.659312 0.282624
vt 0.586589 0.746647
vt 0.611521 0.765693
vt 0.534950 0.824188
vt 0.574601 0.952499
vt 0.715327 0.844994
vt 0.440305 0.824188
vt 0.400654 0.952499
vt 0.363734 0.765693
vt 0.259928 0.844994
vt 0.334487 0.671047
vt 0.206176 0.671047
vt 0.121546 0.873377
vt 0.955599 0.210700
vt 0.956783 0.116634
vt 0.988488 0.117033
vt 0.987305 0.211099
vt 0.946135 0.963231
vt 0.977840 0.963629
vt 0.947318 0.869165
vt 0.979023 0.869563
vt 0.948501 0.775098
vt 0.980206 0.775497
vt 0.949684 0.681032
vt 0.981389 0.681431
vt 0.950867 0.586966
vt 0.982572 0.587364
vt 0.952050 0.492899
vt 0.983756 0.493298
vt 0.953233 0.398833
vt 0.984939 0.399232
vt 0.954416 0.304767
vt 0.986122 0.305166
vt 0.749829 0.330707
vt 0.840347 0.330707
vt 0.840347 0.048685
vt 0.749829 0.048685
vt 0.025689 0.330707
vt 0.025689 0.048685
vt 0.116207 0.330707
vt 0.116207 0.048685
vt 0.206724 0.330707
vt 0.206724 0.048685
vt 0.200627 0.934743
vt 0.151753 0.970252
vt 0.091340 0.970252
vt 0.042466 0.934743
vt 0.023798 0.877287
vt 0.042466 0.819832
vt 0.091340 0.784323
vt 0.151753 0.784323
vt 0.200627 0.819832
vt 0.219295 0.877287
vt 0.363734 0.576402
vt 0.259929 0.497101
vt 0.440305 0.517907
vt 0.400654 0.389596
vt 0.534950 0.517907
vt 0.574601 0.389596
vt 0.611521 0.576402
vt 0.715327 0.497101
vt 0.640768 0.671047
vt 0.769079 0.671047
vt 0.740685 0.864366
vt 0.584287 0.983844
vt 0.541717 0.846086
vt 0.629237 0.779227
vt 0.390968 0.983844
vt 0.433538 0.846086
vt 0.234570 0.864366
vt 0.346018 0.779227
vt 0.174831 0.671047
vt 0.312589 0.671047
vt 0.234570 0.477729
vt 0.346019 0.562868
vt 0.390968 0.358251
vt 0.433538 0.496009
vt 0.584287 0.358251
vt 0.541717 0.496009
vt 0.740685 0.477729
vt 0.629237 0.562868
vt 0.800424 0.671047
vt 0.662666 0.671047
vt 0.297242 0.330707
vt 0.297242 0.048685
vt 0.387759 0.330707
vt 0.387759 0.048685
vt 0.478277 0.330707
vt 0.478277 0.048685
vt 0.568794 0.330707
vt 0.568794 0.048685
vt 0.659312 0.330707
vt 0.659312 0.048685
vt 0.840347 0.004425
vt 0.930864 0.004425
vt 0.930864 0.282624
vt 0.957966 0.022568
vt 0.989671 0.022967
vt 0.930864 0.330707
vt 0.930864 0.048685
vn 0.512836 -0.488635 -0.705858
vn 0.512836 -0.488635 -0.705858
vn 0.512836 -0.488635 -0.705858
vn 0.512836 -0.488635 -0.705858
vn -0.000000 -0.488635 -0.872488
vn -0.000000 -0.488635 -0.872488
vn -0.000000 -0.488635 -0.872488
vn -0.000000 -0.488635 -0.872488
vn -0.512836 -0.488635 -0.705858
vn -0.512836 -0.488635 -0.705858
vn -0.512836 -0.488635 -0.705858
vn -0.512836 -0.488635 -0.705858
vn -0.829786 -0.488635 -0.269614
vn -0.829786 -0.488635 -0.269614
vn -0.829786 -0.488635 -0.269614
vn -0.829786 -0.488635 -0.269614
vn -0.829786 -0.488635 0.269614
vn -0.829786 -0.488635 0.269614
vn -0.829786 -0.488635 0.269614
vn -0.829786 -0.488635 0.269614
vn -0.512836 -0.488635 0.705858
vn -0.512836 -0.488635 0.705858
vn -0.512836 -0.488635 0.705858
vn -0.512836 -0.488635 0.705858
vn 0.000000 -0.488635 0.872488
vn 0.000000 -0.488635 0.872488
vn 0.000000 -0.488635 0.872488
vn 0.000000 -0.488635 0.872488
vn 0.512836 -0.488635 0.705858
vn 0.512836 -0.488635 0.705858
vn 0.512836 -0.488635 0.705858
vn 0.512836 -0.488635 0.705858
vn 0.829786 -0.488635 0.269614
vn 0.829786 -0.488635 0.269614
vn 0.829786 -0.488635 0.269614
vn 0.829786 -0.488635 0.269614
vn 0.829786 -0.488635 -0.269614
vn 0.829786 -0.488635 -0.269614
vn 0.829786 -0.488635 -0.269614
vn 0.829786 -0.488635 -0.269614
vn 0.000000 -1.000000 -0.000000
vn 0.000000 -1.000000 0.000000
vn 0.000000 -1.000000 -0.000000
vn 0.000000 -1.000000 -0.000000
vn 0.000000 -1.000000 -0.000000
vn 0.000000 -1.000000 -0.000000
vn 0.000000 -1.000000 0.000000
vn 0.000000 -1.000000 -0.000000
vn 0.000000 -1.000000 -0.000000
vn 0.000000 -1.000000 -0.000000
vn 0.000000 -1.000000 0.000000
vn 0.000000 1.000000 -0.000000
vn 0.000000 1.000000 -0.000000
vn 0.000000 1.000000 0.000000
vn 0.000000 1.000000 0.000000
vn -0.000000 1.000000 0.000000
vn -0.000000 1.000000 0.000000
vn 0.000000 1.000000 0.000000
vn -0.000000 1.000000 -0.000000
vn -0.000000 1.000000 -0.000000
vn -0.000000 1.000000 -0.000000
vn 0.000000 1.000000 -0.000000
vn 0.175612 -0.976157 -0.127589
vn 0.067078 -0.976157 -0.206444
vn 0.067078 -0.976156 -0.206444
vn 0.175612 -0.976156 -0.127589
vn -0.067078 -0.976157 -0.206444
vn -0.067078 -0.976157 -0.206444
vn -0.175612 -0.976157 -0.127589
vn -0.175612 -0.976157 -0.127589
vn -0.217068 -0.976157 0.000000
vn -0.217068 -0.976156 0.000000
vn -0.175612 -0.976157 0.127589
vn -0.175612 -0.976156 0.127589
vn -0.067078 -0.976157 0.206444
vn -0.067078 -0.976157 0.206444
vn 0.067078 -0.976156 0.206444
vn 0.067078 -0.976157 0.206444
vn 0.175612 -0.976156 0.127589
vn 0.175612 -0.976157 0.127589
vn 0.217068 -0.976156 0.000000
vn 0.217068 -0.976156 0.000000
vn 0.587786 0.000000 -0.809017
vn 0.587786 0.000000 -0.809017
vn 0.587786 0.000000 -0.809017
vn 0.587786 0.000000 -0.809017
vn 0.000000 0.000000 -1.000000
vn 0.000000 0.000000 -1.000000
vn 0.000000 0.000000 -1.000000
vn 0.000000 0.000000 -1.000000
vn -0.587785 0.000000 -0.809017
vn -0.587785 0.000000 -0.809017
vn -0.587785 0.000000 -0.809017
vn -0.587785 0.000000 -0.809017
vn -0.951057 0.000000 -0.309017
vn -0.951057 0.000000 -0.309017
vn -0.951057 0.000000 -0.309017
vn -0.951057 0.000000 -0.309017
vn -0.951056 -0.000000 0.309017
vn -0.951056 -0.000000 0.309017
vn -0.951056 -0.000000 0.309017
vn -0.951056 -0.000000 0.309017
vn -0.587785 0.000000 0.809017
vn -0.587785 0.000000 0.809017
vn -0.587785 0.000000 0.809017
vn -0.587785 0.000000 0.809017
vn 0.000000 0.000000 1.000000
vn 0.000000 0.000000 1.000000
vn 0.000000 0.000000 1.000000
vn 0.000000 0.000000 1.000000
vn 0.587785 0.000000 0.809017
vn 0.587785 0.000000 0.809017
vn 0.587785 0.000000 0.809017
vn 0.587785 0.000000 0.809017
vn 0.951056 0.000000 0.309017
vn 0.951056 0.000000 0.309017
vn 0.951056 0.000000 0.309017
vn 0.951057 0.000000 0.309017
vn 0.951056 0.000000 -0.309017
vn 0.951056 0.000000 -0.309017
vn 0.951056 0.000000 -0.309017
vn 0.951056 0.000000 -0.309017
vn -0.135884 0.985794 0.098726
vn -0.051903 0.985793 0.159741
vn -0.051903 0.985793 0.159741
vn -0.135884 0.985794 0.098726
vn 0.051903 0.985793 0.159741
vn 0.051903 0.985793 0.159741
vn 0.135884 0.985794 0.098726
vn 0.135884 0.985794 0.098726
vn 0.167962 0.985793 -0.000000
vn 0.167962 0.985794 -0.000000
vn 0.135884 0.985794 -0.098726
vn 0.135884 0.985794 -0.098726
vn 0.051903 0.985793 -0.159741
vn 0.051903 0.985793 -0.159741
vn -0.051903 0.985793 -0.159741
vn -0.051903 0.985793 -0.159741
vn -0.135884 0.985794 -0.098726
vn -0.135884 0.985794 -0.098726
vn -0.167962 0.985793 -0.000000
vn -0.167962 0.985793 0.000000
vn -0.672071 0.556683 0.488288
vn -0.256708 0.556683 0.790066
vn -0.256708 0.556683 0.790066
vn -0.672071 0.556683 0.488288
vn 0.256708 0.556683 0.790066
vn 0.256708 0.556683 0.790066
vn 0.672071 0.556683 0.488288
vn 0.672071 0.556683 0.488288
vn 0.830725 0.556683 -0.000000
vn 0.830725 0.556683 -0.000000
vn 0.672071 0.556683 -0.488288
vn 0.672071 0.556683 -0.488288
vn 0.256708 0.556683 -0.790067
vn 0.256708 0.556683 -0.790067
vn -0.256708 0.556683 -0.790067
vn -0.256708 0.556683 -0.790067
vn -0.672071 0.556683 -0.488288
vn -0.672071 0.556683 -0.488288
vn -0.830725 0.556683 -0.000000
vn -0.830725 0.556683 0.000000
s off
g Bowl2 Bowl1
usemtl initialShadingGroup
f 17/27/17 18/138/18 28/28/19 27/29/20
f 18/138/21 19/139/22 29/140/23 28/28/24
f 19/30/25 20/32/26 30/33/27 29/31/28
f 20/32/29 21/34/30 31/35/31 30/33/32
f 21/34/33 22/36/34 32/37/35 31/35/36
f 22/36/37 23/38/38 33/39/39 32/37/40
f 23/38/41 24/40/42 34/41/43 33/39/44
f 24/40/45 25/42/46 35/43/47 34/41/48
f 25/42/49 26/44/50 36/45/51 35/43/52
f 26/44/53 17/27/54 27/29/55 36/45/56
s 1
f 19/17/57 18/18/58 37/19/59 20/20/60
f 21/21/61 20/20/60 37/19/59 22/22/62
f 23/23/63 22/22/62 37/19/59 24/24/64
f 25/25/65 24/24/64 37/19/59 26/26/66
f 17/46/67 26/26/66 37/19/59 18/18/58
s 2
f 70/57/68 68/88/69 69/89/70 71/90/71
f 70/57/68 71/90/71 72/91/72 73/92/73
f 70/57/68 73/92/73 74/93/74 75/94/75
f 70/57/68 75/94/75 76/95/76 77/96/77
f 70/57/68 77/96/77 78/97/78 68/88/69
s 3
f 27/47/79 28/48/80 39/49/81 38/50/82
f 28/48/80 29/51/83 40/52/84 39/49/81
f 29/51/83 30/53/85 41/54/86 40/52/84
f 30/53/85 31/55/87 42/56/88 41/54/86
f 31/55/87 32/98/89 43/99/90 42/56/88
f 32/98/89 33/100/91 44/101/92 43/99/90
f 33/100/91 34/102/93 45/103/94 44/101/92
f 34/102/93 35/104/95 46/105/96 45/103/94
f 35/104/95 36/106/97 47/107/98 46/105/96
f 36/106/97 27/47/79 38/50/82 47/107/98
s off
f 38/58/99 39/59/100 49/60/101 48/61/102
f 39/59/103 40/141/104 50/142/105 49/60/106
f 40/62/107 41/64/108 51/65/109 50/63/110
f 41/64/111 42/66/112 52/67/113 51/65/114
f 42/66/115 43/68/116 53/69/117 52/67/118
f 43/68/119 44/70/120 54/71/121 53/69/122
f 44/70/123 45/72/124 55/73/125 54/71/126
f 45/72/127 46/74/128 56/75/129 55/73/130
f 46/74/131 47/76/132 57/77/133 56/75/134
f 47/76/135 38/58/136 48/61/137 57/77/138
s 4
f 48/108/139 49/109/140 59/110/141 58/111/142
f 49/109/140 50/112/143 60/113/144 59/110/141
f 50/112/143 51/114/145 61/115/146 60/113/144
f 51/114/145 52/116/147 62/117/148 61/115/146
f 52/116/147 53/118/149 63/119/150 62/117/148
f 53/118/149 54/120/151 64/121/152 63/119/150
f 54/120/151 55/122/153 65/123/154 64/121/152
f 55/122/153 56/124/155 66/125/156 65/123/154
f 56/124/155 57/126/157 67/127/158 66/125/156
f 57/126/157 48/108/139 58/111/142 67/127/158
s 5
f 58/78/159 59/79/160 69/80/161 68/81/162
f 59/79/160 60/143/163 71/144/164 69/80/161
f 60/82/163 61/84/165 72/85/166 71/83/164
f 61/84/165 62/86/167 73/87/168 72/85/166
f 62/86/167 63/128/169 74/129/170 73/87/168
f 63/128/169 64/130/171 75/131/172 74/129/170
f 64/130/171 65/132/173 76/133/174 75/131/172
f 65/132/173 66/134/175 77/135/176 76/133/174
f 66/134/175 67/136/177 78/137/178 77/135/176
f 67/136/177 58/78/159 68/81/162 78/137/178
