# This file uses centimeters as units for non-parametric coordinates.

mtllib celery.mtl
g default
v -0.008906 -0.003046 0.051515
v -0.020971 -0.003046 0.033944
v -0.015801 0.634795 0.044737
v -0.023413 0.634795 0.033652
v -0.024802 -0.003046 0.019121
v -0.028006 0.634795 0.015451
v -0.013981 -0.003046 0.000122
v -0.018805 0.634795 -0.002591
v 0.005009 -0.003046 -0.007050
v -0.001862 0.634795 -0.011216
v 0.015708 0.634795 -0.008032
v 0.041277 -0.003046 0.021514
v 0.037392 0.634795 0.011541
v 0.026506 0.634795 0.018498
v -0.037854 -0.003046 0.045536
v -0.015179 0.634795 0.016989
v -0.030550 -0.003046 -0.011916
v -0.012763 0.634795 0.026339
v -0.045135 -0.003046 0.016685
v 0.044581 -0.003046 -0.006012
v 0.058532 -0.003046 0.010485
v -0.005151 0.634795 0.037424
v 0.003627 0.634795 0.000478
v -0.025787 -0.003046 0.063107
v -0.003692 -0.003046 -0.025587
v 0.024160 -0.003046 -0.020540
v -0.008354 0.634795 0.005003
vt 0.375000 0.250000
vt 0.625000 0.250000
vt 0.375000 0.500000
vt 0.625000 0.500000
vt 0.625000 0.750000
vt 0.375000 0.750000
vt 0.375000 1.000000
vt 0.625000 1.000000
vt 0.875000 0.000000
vt 0.875000 0.000000
vt 0.625000 0.000000
vt 0.625000 0.000000
vt 0.875000 0.250000
vt 0.875000 0.250000
vt 0.625000 0.250000
vt 0.875000 0.000000
vt 0.625000 0.000000
vt 0.875000 0.250000
vt 0.625000 0.250000
vt 0.875000 0.000000
vt 0.625000 0.000000
vt 0.875000 0.250000
vt 0.625000 0.250000
vt 0.875000 0.000000
vt 0.875000 0.250000
vt 0.875000 0.000000
vt 0.625000 0.000000
vt 0.875000 0.250000
vt 0.625000 0.250000
vt 0.875000 0.000000
vt 0.375000 0.000000
vt 0.125000 0.000000
vt 0.125000 0.250000
vn 0.000000 1.000000 0.000000
vn 0.000000 1.000000 0.000000
vn 0.000000 1.000000 0.000000
vn 0.000000 1.000000 0.000000
vn 0.000000 1.000000 0.000000
vn 0.000000 1.000000 0.000000
vn -0.928888 0.027910 0.369308
vn -0.916852 0.028177 0.398231
vn -0.824003 0.029197 0.565832
vn 0.000000 -1.000000 0.000000
vn 0.000000 -1.000000 0.000000
vn 0.000000 -1.000000 0.000000
vn 0.000000 -1.000000 0.000000
vn 0.000000 -1.000000 0.000000
vn 0.000000 -1.000000 0.000000
vn 0.000000 -1.000000 0.000000
vn 0.000001 -1.000000 -0.000001
vn 0.000000 -1.000000 0.000000
vn 0.000000 -1.000000 0.000000
vn 0.000001 -1.000000 -0.000001
vn 0.000000 -1.000000 0.000000
vn -0.916852 0.028177 0.398231
vn -0.928888 0.027910 0.369308
vn -0.969252 0.026501 0.244639
vn 0.000000 1.000000 0.000000
vn 0.000000 1.000000 0.000000
vn -0.000001 1.000000 0.000000
vn -0.000001 1.000000 0.000000
vn 0.000000 1.000000 0.000000
vn 0.000001 1.000000 -0.000001
vn 0.000001 -1.000000 -0.000001
vn 0.000000 -1.000000 0.000000
vn 0.000000 -1.000000 0.000000
vn 0.000000 -1.000000 0.000000
vn 0.000000 -1.000000 0.000000
vn -0.000001 -1.000000 0.000001
vn -0.000001 1.000000 0.000000
vn 0.000001 1.000000 -0.000001
vn 0.000000 1.000000 0.000000
vn 0.000000 1.000000 0.000000
vn 0.000001 1.000000 -0.000001
vn 0.000002 1.000000 -0.000001
vn 0.000000 -1.000000 0.000000
vn 0.000000 -1.000000 0.000000
vn -0.000001 -1.000000 0.000001
vn -0.000001 -1.000000 0.000001
vn 0.000000 -1.000000 0.000000
vn 0.000000 -1.000000 0.000000
vn 0.000000 1.000000 0.000000
vn 0.000002 1.000000 -0.000001
vn 0.000000 1.000000 0.000000
vn 0.000000 1.000000 0.000000
vn 0.000002 1.000000 -0.000001
vn 0.000000 1.000000 0.000000
vn 0.000000 -1.000000 0.000000
vn 0.000000 -1.000000 0.000000
vn 0.000000 -1.000000 0.000000
vn 0.000000 1.000000 0.000000
vn 0.000000 1.000000 0.000000
vn 0.000000 1.000000 0.000000
vn 0.000000 -1.000000 0.000000
vn 0.000000 -1.000000 0.000000
vn 0.000000 -1.000000 0.000000
vn 0.000000 -1.000000 0.000000
vn 0.000000 -1.000000 0.000000
vn 0.000000 -1.000000 0.000000
vn 0.000000 1.000000 0.000000
vn 0.000000 1.000000 0.000000
vn 0.000002 1.000000 -0.000002
vn 0.000002 1.000000 -0.000002
vn 0.000000 1.000000 0.000000
vn 0.000004 1.000000 -0.000002
vn -0.382319 -0.011734 0.923956
vn -0.364189 -0.011780 0.931251
vn -0.618694 -0.010612 0.785560
vn 0.000000 -1.000000 0.000000
vn 0.000000 -1.000000 0.000000
vn 0.000000 -1.000000 0.000000
vn 0.868910 -0.011454 0.494837
vn 0.868910 -0.011454 0.494837
vn 0.868910 -0.011454 0.494837
vn 0.968076 -0.015441 -0.250182
vn 0.890379 -0.016882 -0.454907
vn 0.968076 -0.015441 -0.250182
vn 0.538521 0.016454 0.842451
vn 0.538521 0.016454 0.842451
vn 0.538521 0.016454 0.842451
vn 0.968076 -0.015441 -0.250182
vn 0.895407 -0.016828 -0.444930
vn 0.890379 -0.016882 -0.454907
vn 0.824230 -0.017355 -0.565989
vn 0.890379 -0.016882 -0.454907
vn 0.895407 -0.016828 -0.444930
vn -0.890602 0.023038 -0.454200
vn -0.890602 0.023038 -0.454200
vn -0.890602 0.023038 -0.454200
vn -0.453550 0.021376 -0.890975
vn -0.453550 0.021376 -0.890975
vn -0.150161 0.022701 -0.988401
vn 0.824230 -0.017355 -0.565989
vn 0.895407 -0.016828 -0.444930
vn 0.824231 -0.017355 -0.565988
vn 0.566011 0.014878 0.824263
vn 0.566011 0.014878 0.824263
vn 0.566011 0.014878 0.824263
vn -0.969252 0.026501 0.244639
vn -0.928888 0.027910 0.369308
vn -0.969252 0.026501 0.244639
vn -0.890602 0.023038 -0.454200
vn -0.890602 0.023038 -0.454200
vn -0.890602 0.023038 -0.454200
vn 0.660332 0.028093 -0.750448
vn 0.418331 0.024940 -0.907952
vn 0.669921 0.025620 -0.741990
vn 0.763298 0.026366 -0.645509
vn 0.660332 0.028093 -0.750448
vn 0.669921 0.025620 -0.741990
vn 0.538521 0.016454 0.842451
vn 0.538521 0.016454 0.842451
vn 0.538521 0.016454 0.842451
vn -0.382319 -0.011734 0.923956
vn 0.353240 -0.010276 0.935476
vn -0.364189 -0.011780 0.931251
vn -0.824003 0.029197 0.565832
vn -0.928888 0.027910 0.369308
vn -0.824003 0.029197 0.565832
vn 0.353240 -0.010276 0.935476
vn 0.353240 -0.010276 0.935476
vn -0.382319 -0.011734 0.923956
vn 0.868910 -0.011454 0.494837
vn 0.868910 -0.011454 0.494837
vn 0.868910 -0.011454 0.494837
vn 0.566011 0.014878 0.824263
vn 0.566011 0.014878 0.824263
vn 0.566011 0.014878 0.824263
vn -0.150161 0.022701 -0.988401
vn -0.453550 0.021376 -0.890975
vn -0.159117 0.022695 -0.986999
vn 0.418331 0.024940 -0.907952
vn -0.150161 0.022701 -0.988401
vn 0.466963 0.023522 -0.883964
vn 0.466963 0.023522 -0.883964
vn -0.150161 0.022701 -0.988401
vn -0.159117 0.022695 -0.986999
vn 0.669921 0.025620 -0.741990
vn 0.418331 0.024940 -0.907952
vn 0.466963 0.023522 -0.883964
vn -0.618695 -0.010612 0.785560
vn -0.382319 -0.011734 0.923956
vn -0.618694 -0.010612 0.785560
s off
g pCube1
usemtl initialShadingGroup
f 22/1/1 18/2/2 3/3/3
f 3/3/4 18/2/5 4/4/6
f 4/4/7 15/5/8 24/6/9
f 24/6/10 15/5/11 1/7/12
f 1/7/13 15/5/14 2/8/15
f 15/9/16 19/10/17 2/11/18
f 2/11/19 19/10/20 5/12/21
f 15/9/22 4/13/23 19/10/24
f 4/13/25 18/2/26 6/14/27
f 6/14/28 18/2/29 16/15/30
f 19/10/31 17/16/32 5/12/33
f 5/12/34 17/16/35 7/17/36
f 6/14/37 16/15/38 8/18/39
f 8/18/40 16/15/41 27/19/42
f 17/16/43 25/20/44 7/17/45
f 7/17/46 25/20/47 9/21/48
f 8/18/49 27/19/50 10/22/51
f 10/22/52 27/19/53 23/23/54
f 25/20/55 26/24/56 9/21/57
f 10/22/58 23/23/59 11/25/60
f 26/24/61 20/26/62 9/21/63
f 9/21/64 20/26/65 12/27/66
f 11/25/67 23/23/68 13/28/69
f 13/28/70 23/23/71 14/29/72
f 23/23/73 9/21/74 12/27/75
f 20/26/76 21/30/77 12/27/78
f 7/17/79 16/15/80 5/12/81
f 16/15/82 2/11/83 5/12/84
f 12/27/85 21/30/86 14/29/87
f 16/15/88 18/2/89 2/11/90
f 1/31/91 2/11/92 18/2/93
f 17/16/94 19/10/95 8/18/96
f 17/16/97 8/18/98 25/20/99
f 1/31/100 18/2/101 22/1/102
f 24/32/103 1/31/104 22/1/105
f 19/10/106 4/13/107 6/14/108
f 19/10/109 6/14/110 8/18/111
f 20/26/112 26/24/113 13/28/114
f 21/30/115 20/26/116 13/28/117
f 21/30/118 13/28/119 14/29/120
f 23/23/121 7/17/122 9/21/123
f 3/3/124 4/4/125 24/6/126
f 27/19/127 7/17/128 23/23/129
f 27/19/130 16/15/131 7/17/132
f 24/32/133 22/1/134 3/33/135
f 25/20/136 8/18/137 10/22/138
f 26/24/139 25/20/140 11/25/141
f 11/25/142 25/20/143 10/22/144
f 13/28/145 26/24/146 11/25/147
f 14/29/148 23/23/149 12/27/150
