# This file uses centimeters as units for non-parametric coordinates.

mtllib chicken.mtl
g default
v 0.022910 -0.070581 -0.173314
v -0.042901 -0.070581 -0.173314
v -0.116479 -0.070581 0.000000
v -0.042901 -0.070581 0.173314
v 0.096488 -0.070581 0.000000
v 0.108576 -0.053132 0.147429
v 0.129394 -0.031145 -0.173314
v 0.043247 -0.031145 -0.280427
v -0.063237 -0.031145 -0.280427
v -0.149385 -0.031145 -0.173313
v -0.182290 -0.031145 0.000000
v -0.149385 -0.031145 0.173314
v -0.063237 -0.031145 0.280427
v 0.043247 -0.031145 0.280427
v 0.162299 -0.031145 0.000000
v 0.129394 -0.031145 0.173313
v 0.136567 -0.006772 -0.182233
v 0.045986 -0.006772 -0.294859
v -0.065977 -0.006772 -0.294859
v -0.156558 -0.006772 -0.182233
v -0.191157 -0.006772 0.000000
v -0.060139 -0.006772 0.270756
v 0.040149 -0.006772 0.270756
v 0.171166 -0.006772 0.000000
v 0.129394 0.017601 -0.173314
v 0.043247 0.017601 -0.280427
v -0.063237 0.017601 -0.280427
v -0.149385 0.017601 -0.173313
v -0.182290 0.017601 0.000000
v -0.149385 0.017601 0.173314
v -0.063237 0.017601 0.280427
v 0.043247 0.017601 0.280427
v 0.129394 0.017601 0.173313
v 0.162299 0.017601 0.000000
v -0.055286 0.039588 0.238546
v 0.076152 0.057037 -0.107114
v -0.042901 0.057037 -0.173314
v -0.116479 0.057037 0.000000
v -0.096143 0.057037 0.107114
v 0.022910 0.057037 0.173313
v 0.096488 0.057037 0.000000
v -0.009995 0.072101 0.000000
v -0.009995 -0.085644 0.000000
v 0.019671 -0.020353 -0.488608
v -0.039662 -0.020353 -0.488608
v 0.021198 -0.006772 -0.496649
v -0.041189 -0.006772 -0.496649
v 0.019671 0.006809 -0.488608
v -0.039662 0.006809 -0.488608
v 0.043115 -0.031085 -0.532902
v -0.063106 -0.031085 -0.532902
v 0.045848 -0.006772 -0.547298
v -0.065839 -0.006772 -0.547298
v 0.043115 0.017541 -0.532902
v -0.063106 0.017541 -0.532902
vt 0.000000 0.200000
vt 0.100000 0.200000
vt 0.200000 0.200000
vt 0.400000 0.200000
vt 0.600000 0.200000
vt 0.900000 0.200000
vt 0.800000 0.300000
vt 0.000000 0.400000
vt 0.100000 0.400000
vt 0.200000 0.400000
vt 0.300000 0.400000
vt 0.400000 0.400000
vt 0.500000 0.400000
vt 0.600000 0.400000
vt 0.700000 0.400000
vt 0.900000 0.400000
vt 1.000000 0.400000
vt 0.800000 0.400000
vt 0.000000 0.500000
vt 0.100000 0.500000
vt 0.200000 0.500000
vt 0.300000 0.500000
vt 0.400000 0.500000
vt 0.500000 0.500000
vt 0.800000 0.500000
vt 0.900000 0.500000
vt 1.000000 0.500000
vt 0.000000 0.600000
vt 0.100000 0.600000
vt 0.200000 0.600000
vt 0.300000 0.600000
vt 0.400000 0.600000
vt 0.500000 0.600000
vt 0.600000 0.600000
vt 0.700000 0.600000
vt 0.800000 0.600000
vt 0.900000 0.600000
vt 1.000000 0.600000
vt 0.600000 0.700000
vt 0.000000 0.800000
vt 0.200000 0.800000
vt 0.400000 0.800000
vt 0.500000 0.800000
vt 0.700000 0.800000
vt 0.900000 0.800000
vt 1.000000 0.800000
vt 0.650000 1.000000
vt 0.050000 0.000000
vt 0.150000 0.000000
vt 0.350000 0.000000
vt 0.550000 0.000000
vt 0.850000 0.000000
vt 0.050000 1.000000
vt 0.250000 1.000000
vt 0.450000 1.000000
vt 0.750000 1.000000
vt 0.950000 1.000000
vt 0.100000 0.400000
vt 0.200000 0.400000
vt 0.100000 0.500000
vt 0.200000 0.500000
vt 0.100000 0.600000
vt 0.200000 0.600000
vt 0.100000 0.400000
vt 0.200000 0.400000
vt 0.100000 0.500000
vt 0.200000 0.500000
vt 0.100000 0.600000
vt 0.200000 0.600000
vn 0.132388 -0.984992 0.110745
vn 0.132388 -0.984992 0.110745
vn 0.132388 -0.984992 0.110745
vn 0.139291 -0.984656 0.105120
vn 0.139291 -0.984656 0.105120
vn 0.139291 -0.984656 0.105120
vn 0.343583 -0.927725 -0.145865
vn 0.341207 -0.921311 -0.186450
vn 0.340743 -0.920057 -0.193365
vn 0.334494 -0.903184 -0.269020
vn 0.000000 -0.938419 -0.345500
vn -0.000000 -0.938419 -0.345500
vn -0.000000 -0.938419 -0.345500
vn -0.000000 -0.938419 -0.345500
vn -0.334494 -0.903184 -0.269020
vn -0.334494 -0.903184 -0.269020
vn -0.334494 -0.903184 -0.269020
vn -0.343583 -0.927725 -0.145865
vn -0.402235 -0.906281 -0.129850
vn -0.411916 -0.902313 -0.127108
vn -0.511585 -0.853725 -0.097130
vn -0.511585 -0.853725 0.097130
vn -0.511585 -0.853725 0.097130
vn -0.511585 -0.853725 0.097130
vn -0.343583 -0.927725 0.145865
vn -0.341207 -0.921311 0.186450
vn -0.340743 -0.920057 0.193365
vn -0.334494 -0.903184 0.269020
vn 0.000000 -0.938419 0.345500
vn 0.000000 -0.938419 0.345500
vn 0.000000 -0.938419 0.345500
vn 0.150453 -0.960829 0.232748
vn 0.150453 -0.960829 0.232748
vn 0.150453 -0.960829 0.232748
vn 0.513112 -0.856273 0.059275
vn 0.513112 -0.856273 0.059275
vn 0.513112 -0.856273 0.059275
vn 0.511585 -0.853725 -0.097130
vn 0.511585 -0.853725 -0.097130
vn 0.511585 -0.853725 -0.097130
vn 0.437160 -0.827814 0.351590
vn 0.437160 -0.827814 0.351590
vn 0.437160 -0.827814 0.351590
vn 0.644732 -0.754544 0.122409
vn 0.644732 -0.754544 0.122409
vn 0.644732 -0.754544 0.122409
vn 0.708292 -0.416918 -0.569651
vn 0.708291 -0.416919 -0.569651
vn 0.708291 -0.416918 -0.569651
vn 0.708291 -0.416919 -0.569651
vn 0.000000 -0.509485 -0.860480
vn 0.000000 -0.509486 -0.860479
vn 0.000000 -0.509485 -0.860479
vn 0.000000 -0.509486 -0.860479
vn -0.708292 -0.416918 -0.569651
vn -0.708291 -0.416919 -0.569651
vn -0.708291 -0.416919 -0.569651
vn -0.708292 -0.416919 -0.569651
vn -0.925137 -0.336556 -0.175646
vn -0.925137 -0.336556 -0.175646
vn -0.925137 -0.336556 -0.175646
vn -0.925137 -0.336555 -0.175646
vn -0.925137 -0.336556 0.175647
vn -0.550044 0.798434 0.244855
vn -0.831932 0.485436 0.268779
vn -0.486973 0.841029 0.235643
vn -0.736016 0.328446 0.591949
vn -0.736016 0.328446 0.591949
vn -0.736016 0.328446 0.591949
vn 0.000001 0.368836 0.929495
vn 0.000001 0.368836 0.929495
vn 0.000001 0.368836 0.929495
vn 0.000001 0.368836 0.929495
vn 0.736016 0.328446 0.591949
vn 0.736016 0.328446 0.591949
vn 0.736016 0.328446 0.591949
vn 0.325109 0.943660 0.061725
vn 0.904792 0.162702 0.393548
vn 0.631571 0.744053 0.217953
vn 0.855452 -0.311204 0.413949
vn 0.925137 -0.336556 -0.175647
vn 0.925137 -0.336557 -0.175646
vn 0.925137 -0.336556 -0.175646
vn 0.925136 -0.336558 -0.175646
vn 0.708291 0.416918 -0.569651
vn 0.708291 0.416919 -0.569651
vn 0.708292 0.416918 -0.569651
vn 0.708291 0.416919 -0.569651
vn 0.000000 0.509485 -0.860480
vn 0.000000 0.509486 -0.860479
vn 0.000000 0.509485 -0.860479
vn 0.000000 0.509486 -0.860479
vn -0.708291 0.416919 -0.569651
vn -0.708292 0.416919 -0.569651
vn -0.708291 0.416919 -0.569651
vn -0.708292 0.416918 -0.569651
vn -0.925137 0.336556 -0.175646
vn -0.925137 0.336556 -0.175646
vn -0.925137 0.336556 -0.175646
vn -0.925137 0.336556 -0.175646
vn -0.855452 0.311206 0.413948
vn -0.631571 -0.744053 0.217953
vn -0.904792 -0.162701 0.393548
vn -0.325109 -0.943660 0.061725
vn -0.736016 -0.328446 0.591949
vn -0.736016 -0.328446 0.591949
vn -0.736016 -0.328446 0.591949
vn 0.000001 -0.368836 0.929495
vn 0.000001 -0.368836 0.929495
vn 0.000001 -0.368836 0.929495
vn 0.000001 -0.368836 0.929495
vn 0.736016 -0.328446 0.591949
vn 0.736016 -0.328446 0.591949
vn 0.736016 -0.328446 0.591949
vn 0.486972 -0.841029 0.235643
vn 0.831931 -0.485436 0.268778
vn 0.550044 -0.798434 0.244855
vn 0.925137 0.336556 0.175647
vn 0.925137 0.336557 -0.175646
vn 0.925137 0.336556 -0.175646
vn 0.925137 0.336557 -0.175646
vn 0.925137 0.336556 -0.175646
vn -0.437160 0.827814 0.351590
vn -0.437160 0.827814 0.351590
vn -0.437160 0.827814 0.351590
vn 0.000000 0.885404 0.464823
vn 0.000000 0.885404 0.464823
vn 0.000000 0.885404 0.464823
vn 0.334494 0.903184 -0.269020
vn 0.214593 0.942757 -0.255261
vn 0.203263 0.945666 -0.253771
vn 0.135824 0.960150 -0.244263
vn -0.000000 0.938419 -0.345500
vn -0.000000 0.938419 -0.345500
vn -0.000000 0.938419 -0.345500
vn -0.334494 0.903184 -0.269020
vn -0.340743 0.920057 -0.193365
vn -0.341207 0.921311 -0.186450
vn -0.343583 0.927725 -0.145865
vn -0.511585 0.853725 -0.097130
vn -0.511585 0.853725 -0.097130
vn -0.511585 0.853725 -0.097130
vn -0.511585 0.853725 0.097130
vn -0.511585 0.853725 0.097130
vn -0.511585 0.853725 0.097130
vn -0.511585 0.853725 0.097130
vn -0.372689 0.897698 0.235034
vn -0.372689 0.897698 0.235034
vn -0.372689 0.897698 0.235034
vn 0.068181 0.940363 0.333271
vn 0.068181 0.940363 0.333271
vn 0.068181 0.940363 0.333271
vn 0.334494 0.903184 0.269020
vn 0.340743 0.920057 0.193365
vn 0.341208 0.921311 0.186450
vn 0.343583 0.927725 0.145865
vn 0.511585 0.853725 0.097130
vn 0.511585 0.853725 0.097130
vn 0.511585 0.853725 0.097130
vn 0.511585 0.853725 -0.097130
vn 0.511585 0.853725 -0.097130
vn 0.511585 0.853725 -0.097130
vn 0.511585 0.853725 -0.097130
vn -0.006992 0.990992 0.133739
vn -0.006992 0.990992 0.133739
vn -0.006992 0.990992 0.133739
vn -0.128177 0.985632 0.110001
vn -0.128177 0.985632 0.110001
vn -0.128177 0.985632 0.110001
vn 0.139820 -0.988396 -0.059359
vn 0.139820 -0.988396 -0.059359
vn 0.139820 -0.988396 -0.059359
vn -0.000000 -0.996244 -0.086587
vn -0.000000 -0.996244 -0.086587
vn -0.000000 -0.996244 -0.086587
vn -0.139820 -0.988396 -0.059359
vn -0.139820 -0.988396 -0.059359
vn -0.139820 -0.988396 -0.059359
vn -0.139820 -0.988396 0.059359
vn -0.139820 -0.988396 0.059359
vn -0.139820 -0.988396 0.059359
vn 0.053702 0.993876 -0.096577
vn 0.053702 0.993876 -0.096577
vn 0.053702 0.993876 -0.096577
vn -0.139820 0.988396 -0.059359
vn -0.139820 0.988396 -0.059359
vn -0.139820 0.988396 -0.059359
vn -0.140017 0.989792 0.026584
vn -0.140017 0.989792 0.026584
vn -0.140017 0.989792 0.026584
vn 0.139820 0.988396 0.059359
vn 0.139820 0.988396 0.059359
vn 0.139820 0.988396 0.059359
vn 0.140017 0.989792 -0.026584
vn 0.140017 0.989792 -0.026584
vn 0.140017 0.989792 -0.026584
vn 0.000000 -0.998659 -0.051771
vn 0.000000 -0.998659 -0.051771
vn 0.000000 -0.998659 -0.051771
vn 0.000000 -0.998659 -0.051771
vn 0.976192 -0.180745 -0.119917
vn 0.976192 -0.180744 -0.119917
vn 0.976192 -0.180745 -0.119917
vn 0.976192 -0.180743 -0.119917
vn -0.976192 -0.180745 -0.119917
vn -0.976192 -0.180745 -0.119917
vn -0.976192 -0.180744 -0.119917
vn -0.976192 -0.180743 -0.119917
vn 0.976192 0.180745 -0.119917
vn 0.976192 0.180745 -0.119917
vn 0.976192 0.180744 -0.119917
vn 0.976192 0.180743 -0.119917
vn -0.976192 0.180745 -0.119917
vn -0.976192 0.180744 -0.119917
vn -0.976192 0.180745 -0.119917
vn -0.976192 0.180743 -0.119917
vn 0.000000 0.998659 -0.051771
vn 0.000000 0.998659 -0.051771
vn 0.000000 0.998659 -0.051771
vn 0.000000 0.998659 -0.051771
vn 0.000000 -0.971881 0.235474
vn 0.000000 -0.971881 0.235474
vn 0.000000 -0.971881 0.235474
vn 0.000000 -0.971881 0.235474
vn 0.888143 0.156088 0.432247
vn 0.888144 0.156088 0.432247
vn 0.888144 0.156088 0.432247
vn 0.888143 0.156088 0.432247
vn -0.888143 0.156089 0.432247
vn -0.888144 0.156089 0.432247
vn -0.888144 0.156089 0.432247
vn -0.888144 0.156089 0.432247
vn 0.888144 -0.156088 0.432247
vn 0.888144 -0.156088 0.432247
vn 0.888144 -0.156088 0.432247
vn 0.888143 -0.156088 0.432247
vn -0.888144 -0.156089 0.432246
vn -0.888144 -0.156089 0.432247
vn -0.888144 -0.156089 0.432247
vn -0.888143 -0.156089 0.432247
vn 0.000000 0.971881 0.235474
vn 0.000000 0.971881 0.235474
vn 0.000000 0.971881 0.235474
vn 0.000000 0.971881 0.235474
s off
g pSphere57
usemtl initialShadingGroup
f 4/5/1 43/52/2 6/7/3
f 43/52/4 5/6/5 6/7/6
s 1
f 5/1/7 1/2/8 7/8/9
f 7/8/9 1/2/8 8/9/10
s 2
f 1/2/11 2/3/12 8/9/13
f 8/9/13 2/3/12 9/10/14
s off
f 9/10/15 2/3/16 10/11/17
s 3
f 2/3/18 3/4/19 10/11/20
f 10/11/20 3/4/19 11/12/21
s off
f 11/12/22 3/4/23 12/13/24
s 4
f 3/4/25 4/5/26 12/13/27
f 12/13/27 4/5/26 13/14/28
s off
f 13/14/29 4/5/30 14/15/31
f 4/5/32 6/7/33 14/15/34
f 6/7/35 5/6/36 15/16/37
f 15/16/38 5/6/39 7/17/40
f 14/15/41 6/7/42 16/18/43
f 6/7/44 15/16/45 16/18/46
s 5
f 7/8/47 8/9/48 17/19/49
f 17/19/49 8/9/48 18/20/50
s 6
f 50/64/51 51/65/52 52/66/53
f 52/66/53 51/65/52 53/67/54
s 7
f 9/10/55 10/11/56 19/21/57
f 19/21/57 10/11/56 20/22/58
s 8
f 10/11/59 11/12/60 20/22/61
f 20/22/61 11/12/60 21/23/62
s 9
f 11/12/63 12/13/64 21/23/65
f 21/23/65 12/13/64 22/24/66
s off
f 12/13/67 13/14/68 22/24/69
s 10
f 13/14/70 14/15/71 22/24/72
f 22/24/72 14/15/71 23/25/73
s off
f 14/15/74 16/18/75 23/25/76
s 11
f 16/18/77 15/16/78 23/25/79
f 23/25/79 15/16/78 24/26/80
s 12
f 15/16/81 7/17/82 24/26/83
f 24/26/83 7/17/82 17/27/84
s 13
f 17/19/85 18/20/86 25/28/87
f 25/28/87 18/20/86 26/29/88
s 14
f 52/66/89 53/67/90 54/68/91
f 54/68/91 53/67/90 55/69/92
s 15
f 19/21/93 20/22/94 27/30/95
f 27/30/95 20/22/94 28/31/96
s 16
f 20/22/97 21/23/98 28/31/99
f 28/31/99 21/23/98 29/32/100
s 17
f 21/23/101 22/24/102 29/32/103
f 29/32/103 22/24/102 30/33/104
s off
f 30/33/105 22/24/106 31/34/107
s 18
f 22/24/108 23/25/109 31/34/110
f 31/34/110 23/25/109 32/35/111
s off
f 32/35/112 23/25/113 33/36/114
s 19
f 23/25/115 24/26/116 33/36/117
f 33/36/117 24/26/116 34/37/118
s 20
f 24/26/119 17/27/120 34/37/121
f 34/37/121 17/27/120 25/38/122
s off
f 30/33/123 31/34/124 35/39/125
f 31/34/126 32/35/127 35/39/128
s 21
f 25/28/129 26/29/130 36/40/131
f 36/40/131 26/29/130 37/41/132
s off
f 26/29/133 27/30/134 37/41/135
s 22
f 27/30/136 28/31/137 37/41/138
f 37/41/138 28/31/137 38/42/139
s off
f 28/31/140 29/32/141 38/42/142
s 23
f 29/32/143 30/33/144 38/42/145
f 38/42/145 30/33/144 39/43/146
s off
f 30/33/147 35/39/148 39/43/149
f 35/39/150 32/35/151 40/44/152
s 24
f 32/35/153 33/36/154 40/44/155
f 40/44/155 33/36/154 41/45/156
s off
f 33/36/157 34/37/158 41/45/159
s 25
f 34/37/160 25/38/161 41/45/162
f 41/45/162 25/38/161 36/46/163
s off
f 39/43/164 35/39/165 42/47/166
f 35/39/167 40/44/168 42/47/169
f 1/2/170 5/1/171 43/48/172
f 2/3/173 1/2/174 43/49/175
f 3/4/176 2/3/177 43/50/178
f 4/5/179 3/4/180 43/51/181
f 36/40/182 37/41/183 42/53/184
f 37/41/185 38/42/186 42/54/187
f 38/42/188 39/43/189 42/55/190
f 40/44/191 41/45/192 42/56/193
f 41/45/194 36/46/195 42/57/196
s 26
f 8/9/197 9/10/198 44/58/199
f 44/58/199 9/10/198 45/59/200
s 27
f 8/9/201 44/58/202 18/20/203
f 18/20/203 44/58/202 46/60/204
s 28
f 9/10/205 19/21/206 45/59/207
f 45/59/207 19/21/206 47/61/208
s 29
f 26/29/209 18/20/210 48/62/211
f 48/62/211 18/20/210 46/60/212
s 30
f 27/30/213 49/63/214 19/21/215
f 19/21/215 49/63/214 47/61/216
s 31
f 27/30/217 26/29/218 49/63/219
f 49/63/219 26/29/218 48/62/220
s 32
f 44/58/221 45/59/222 50/64/223
f 50/64/223 45/59/222 51/65/224
s 33
f 46/60/225 44/58/226 52/66/227
f 52/66/227 44/58/226 50/64/228
s 34
f 47/61/229 53/67/230 45/59/231
f 45/59/231 53/67/230 51/65/232
s 35
f 46/60/233 52/66/234 48/62/235
f 48/62/235 52/66/234 54/68/236
s 36
f 47/61/237 49/63/238 53/67/239
f 53/67/239 49/63/238 55/69/240
s 37
f 49/63/241 48/62/242 55/69/243
f 55/69/243 48/62/242 54/68/244
