# This file uses centimeters as units for non-parametric coordinates.

mtllib customerService.mtl
g default1
v -2.932926 1.742746 -0.399431
v 2.932926 1.742746 -0.399431
v -2.932926 1.894311 -0.399431
v 2.932926 1.894311 -0.399431
v -2.932926 1.894311 -1.100569
v 2.932926 1.894311 -1.100569
v -2.932926 1.742746 -1.100569
v 2.932926 1.742746 -1.100569
v -2.932926 1.742746 1.100569
v 2.932926 1.742746 1.100569
v -2.932926 1.894311 1.100569
v 2.932926 1.894311 1.100569
v -2.932926 1.894311 0.399431
v 2.932926 1.894311 0.399431
v -2.932926 1.742746 0.399431
v 2.932926 1.742746 0.399431
v -2.132672 0.011873 0.997918
v -2.132672 1.730745 -0.136892
v -2.284237 0.011873 0.997918
v -2.284237 1.730745 -0.136892
v -2.284237 0.011704 0.457115
v -2.284237 1.730575 -0.677695
v -2.132672 0.011704 0.457115
v -2.132672 1.730575 -0.677695
v 1.971846 0.011873 -0.992723
v 1.971846 1.730745 0.142087
v 2.123411 0.011873 -0.992723
v 2.123411 1.730745 0.142087
v 2.123411 0.011704 -0.451919
v 2.123411 1.730575 0.682890
v 1.971846 0.011704 -0.451919
v 1.971846 1.730575 0.682890
v 2.012442 6.675675 -1.100085
v 2.012442 0.004352 -1.100085
v 2.012442 6.675675 -1.276223
v 2.012442 0.004352 -1.276223
v 1.674914 6.675675 -1.276223
v 1.674914 0.004352 -1.276223
v 1.674914 6.675675 -1.100085
v 1.674914 0.004352 -1.100085
v 2.432452 4.496847 -1.259320
v -2.446382 4.496847 -1.259320
v 2.432452 4.496847 -1.435458
v -2.446382 4.496847 -1.435458
v 2.432452 6.299988 -1.435458
v -2.446382 6.299988 -1.435458
v 2.432452 6.299988 -1.259320
v -2.446382 6.299988 -1.259320
v -2.124233 0.011873 -1.004298
v -2.124233 1.730745 0.130511
v -1.972668 0.011873 -1.004298
v -1.972668 1.730745 0.130511
v -1.972668 0.011704 -0.463495
v -1.972668 1.730575 0.671315
v -2.124233 0.011704 -0.463495
v -2.124233 1.730575 0.671315
v -1.691733 6.675675 -1.100085
v -1.691733 0.004352 -1.100085
v -1.691733 6.675675 -1.276223
v -1.691733 0.004352 -1.276223
v -2.029260 6.675675 -1.276223
v -2.029260 0.004352 -1.276223
v -2.029260 6.675675 -1.100085
v -2.029260 0.004352 -1.100085
v 2.283415 0.011873 0.997415
v 2.283415 1.730745 -0.137394
v 2.131850 0.011873 0.997415
v 2.131850 1.730745 -0.137394
v 2.131850 0.011704 0.456612
v 2.131850 1.730575 -0.678198
v 2.283416 0.011704 0.456612
v 2.283415 1.730575 -0.678198
v -2.932926 1.742746 0.350569
v 2.932926 1.742746 0.350569
v -2.932926 1.894311 0.350569
v 2.932926 1.894311 0.350569
v -2.932926 1.894311 -0.350569
v 2.932926 1.894311 -0.350569
v -2.932926 1.742746 -0.350569
v 2.932926 1.742746 -0.350569
v -1.407255 1.939592 1.169308
v 1.407255 1.939592 1.169308
v -1.407255 1.965718 1.169308
v 1.407255 1.965718 1.169308
v -1.407255 1.965718 -1.169308
v 1.407255 1.965718 -1.169308
v -1.407255 1.939592 -1.169308
v 1.407255 1.939592 -1.169308
v -1.407255 1.965718 1.144269
v 1.407255 1.965718 1.144269
v 1.407255 1.939592 1.144268
v -1.407255 1.939592 1.144268
v -1.407255 1.939592 -1.152734
v 1.407255 1.939592 -1.152734
v 1.407255 1.965718 -1.152733
v -1.407255 1.965718 -1.152733
v 1.407255 1.432332 1.144268
v -1.407255 1.432332 1.144268
v 1.407255 1.432332 1.169308
v -1.407255 1.432332 1.169308
v -1.407255 1.432332 -1.169308
v 1.407255 1.432332 -1.169308
v 1.407255 1.432332 -1.152734
v -1.407255 1.432332 -1.152734
vt 0.375000 0.000000
vt 0.625000 0.000000
vt 0.375000 0.250000
vt 0.625000 0.250000
vt 0.375000 0.500000
vt 0.625000 0.500000
vt 0.375000 0.750000
vt 0.625000 0.750000
vt 0.375000 1.000000
vt 0.625000 1.000000
vt 0.875000 0.000000
vt 0.875000 0.250000
vt 0.125000 0.000000
vt 0.125000 0.250000
vt 0.375000 0.000000
vt 0.625000 0.000000
vt 0.375000 0.250000
vt 0.625000 0.250000
vt 0.375000 0.500000
vt 0.625000 0.500000
vt 0.375000 0.750000
vt 0.625000 0.750000
vt 0.375000 1.000000
vt 0.625000 1.000000
vt 0.875000 0.000000
vt 0.875000 0.250000
vt 0.125000 0.000000
vt 0.125000 0.250000
vt 0.375000 0.000000
vt 0.625000 0.000000
vt 0.375000 0.250000
vt 0.625000 0.250000
vt 0.375000 0.500000
vt 0.625000 0.500000
vt 0.375000 0.750000
vt 0.625000 0.750000
vt 0.375000 1.000000
vt 0.625000 1.000000
vt 0.875000 0.000000
vt 0.875000 0.250000
vt 0.125000 0.000000
vt 0.125000 0.250000
vt 0.375000 0.000000
vt 0.625000 0.000000
vt 0.375000 0.250000
vt 0.625000 0.250000
vt 0.375000 0.500000
vt 0.625000 0.500000
vt 0.375000 0.750000
vt 0.625000 0.750000
vt 0.375000 1.000000
vt 0.625000 1.000000
vt 0.875000 0.000000
vt 0.875000 0.250000
vt 0.125000 0.000000
vt 0.125000 0.250000
vt 0.375000 0.000000
vt 0.625000 0.000000
vt 0.375000 0.250000
vt 0.625000 0.250000
vt 0.375000 0.500000
vt 0.625000 0.500000
vt 0.375000 0.750000
vt 0.625000 0.750000
vt 0.375000 1.000000
vt 0.625000 1.000000
vt 0.875000 0.000000
vt 0.875000 0.250000
vt 0.125000 0.000000
vt 0.125000 0.250000
vt 0.375000 0.000000
vt 0.625000 0.000000
vt 0.375000 0.250000
vt 0.625000 0.250000
vt 0.375000 0.500000
vt 0.625000 0.500000
vt 0.375000 0.750000
vt 0.625000 0.750000
vt 0.375000 1.000000
vt 0.625000 1.000000
vt 0.875000 0.000000
vt 0.875000 0.250000
vt 0.125000 0.000000
vt 0.125000 0.250000
vt 0.375000 0.000000
vt 0.625000 0.000000
vt 0.375000 0.250000
vt 0.625000 0.250000
vt 0.375000 0.500000
vt 0.625000 0.500000
vt 0.375000 0.750000
vt 0.625000 0.750000
vt 0.375000 1.000000
vt 0.625000 1.000000
vt 0.875000 0.000000
vt 0.875000 0.250000
vt 0.125000 0.000000
vt 0.125000 0.250000
vt 0.375000 0.000000
vt 0.625000 0.000000
vt 0.375000 0.250000
vt 0.625000 0.250000
vt 0.375000 0.500000
vt 0.625000 0.500000
vt 0.375000 0.750000
vt 0.625000 0.750000
vt 0.375000 1.000000
vt 0.625000 1.000000
vt 0.875000 0.000000
vt 0.875000 0.250000
vt 0.125000 0.000000
vt 0.125000 0.250000
vt 0.375000 0.000000
vt 0.625000 0.000000
vt 0.375000 0.250000
vt 0.625000 0.250000
vt 0.375000 0.500000
vt 0.625000 0.500000
vt 0.375000 0.750000
vt 0.625000 0.750000
vt 0.375000 1.000000
vt 0.625000 1.000000
vt 0.875000 0.000000
vt 0.875000 0.250000
vt 0.125000 0.000000
vt 0.125000 0.250000
vt 0.375000 0.000000
vt 0.625000 0.000000
vt 0.375000 0.250000
vt 0.625000 0.250000
vt 0.375000 0.500000
vt 0.625000 0.500000
vt 0.375000 0.750000
vt 0.625000 0.750000
vt 0.375000 1.000000
vt 0.625000 1.000000
vt 0.875000 0.000000
vt 0.875000 0.250000
vt 0.125000 0.000000
vt 0.125000 0.250000
vt 0.375000 0.000000
vt 0.625000 0.000000
vt 0.375000 0.250000
vt 0.625000 0.250000
vt 0.375000 0.500000
vt 0.625000 0.500000
vt 0.375000 0.750000
vt 0.625000 0.750000
vt 0.375000 1.000000
vt 0.625000 1.000000
vt 0.875000 0.000000
vt 0.875000 0.250000
vt 0.125000 0.000000
vt 0.125000 0.250000
vt 0.372323 0.250000
vt 0.375000 0.252677
vt 0.625000 0.252677
vt 0.627677 0.250000
vt 0.625000 0.997323
vt 0.627677 0.000000
vt 0.372323 0.000000
vt 0.375000 0.997323
vt 0.126772 0.000000
vt 0.375000 0.751772
vt 0.625000 0.751772
vt 0.873228 0.000000
vt 0.625000 0.498228
vt 0.873228 0.250000
vt 0.126772 0.250000
vt 0.375000 0.498228
vt 0.375000 0.997323
vt 0.625000 0.997323
vt 0.625000 1.000000
vt 0.375000 1.000000
vt 0.375000 0.750000
vt 0.625000 0.750000
vt 0.625000 0.751772
vt 0.375000 0.751772
vn 0.000000 0.000000 1.000000
vn 0.000000 0.000000 1.000000
vn 0.000000 0.000000 1.000000
vn 0.000000 0.000000 1.000000
vn 0.000000 1.000000 0.000000
vn 0.000000 1.000000 0.000000
vn 0.000000 1.000000 0.000000
vn 0.000000 1.000000 0.000000
vn 0.000000 0.000000 -1.000000
vn 0.000000 0.000000 -1.000000
vn 0.000000 0.000000 -1.000000
vn 0.000000 0.000000 -1.000000
vn 0.000000 -1.000000 0.000000
vn 0.000000 -1.000000 0.000000
vn 0.000000 -1.000000 0.000000
vn 0.000000 -1.000000 0.000000
vn 1.000000 0.000000 0.000000
vn 1.000000 0.000000 0.000000
vn 1.000000 0.000000 0.000000
vn 1.000000 0.000000 0.000000
vn -1.000000 0.000000 0.000000
vn -1.000000 0.000000 0.000000
vn -1.000000 0.000000 0.000000
vn -1.000000 0.000000 0.000000
vn 0.000000 0.000000 1.000000
vn 0.000000 0.000000 1.000000
vn 0.000000 0.000000 1.000000
vn 0.000000 0.000000 1.000000
vn 0.000000 1.000000 0.000000
vn 0.000000 1.000000 0.000000
vn 0.000000 1.000000 0.000000
vn 0.000000 1.000000 0.000000
vn 0.000000 0.000000 -1.000000
vn 0.000000 0.000000 -1.000000
vn 0.000000 0.000000 -1.000000
vn 0.000000 0.000000 -1.000000
vn 0.000000 -1.000000 0.000000
vn 0.000000 -1.000000 0.000000
vn 0.000000 -1.000000 0.000000
vn 0.000000 -1.000000 0.000000
vn 1.000000 0.000000 0.000000
vn 1.000000 0.000000 0.000000
vn 1.000000 0.000000 0.000000
vn 1.000000 0.000000 0.000000
vn -1.000000 0.000000 0.000000
vn -1.000000 0.000000 0.000000
vn -1.000000 0.000000 0.000000
vn -1.000000 0.000000 0.000000
vn 0.000000 0.550962 0.834530
vn 0.000000 0.550962 0.834530
vn 0.000000 0.550962 0.834530
vn 0.000000 0.550962 0.834530
vn -1.000000 -0.000001 0.000000
vn -1.000000 -0.000001 0.000000
vn -1.000000 -0.000001 0.000000
vn -1.000000 -0.000001 0.000000
vn 0.000000 -0.550962 -0.834531
vn 0.000000 -0.550962 -0.834530
vn 0.000000 -0.550962 -0.834530
vn 0.000000 -0.550962 -0.834531
vn 1.000000 0.000000 0.000000
vn 1.000000 0.000000 0.000000
vn 1.000000 0.000000 0.000000
vn 1.000000 0.000000 0.000000
vn 0.000000 1.000000 -0.000314
vn 0.000000 1.000000 -0.000314
vn 0.000000 1.000000 -0.000314
vn 0.000000 1.000000 -0.000314
vn 0.000000 -1.000000 0.000312
vn 0.000000 -1.000000 0.000312
vn 0.000000 -1.000000 0.000312
vn 0.000000 -1.000000 0.000312
vn 0.000000 0.550962 -0.834530
vn 0.000000 0.550962 -0.834530
vn 0.000000 0.550962 -0.834530
vn 0.000000 0.550962 -0.834530
vn 1.000000 0.000000 0.000000
vn 1.000000 0.000000 0.000000
vn 1.000000 0.000000 0.000000
vn 1.000000 0.000000 0.000000
vn 0.000000 -0.550962 0.834530
vn 0.000000 -0.550962 0.834530
vn 0.000000 -0.550962 0.834530
vn 0.000000 -0.550962 0.834530
vn -1.000000 0.000000 0.000000
vn -1.000000 0.000000 0.000000
vn -1.000000 0.000000 0.000000
vn -1.000000 0.000000 0.000000
vn 0.000000 1.000000 0.000314
vn 0.000000 1.000000 0.000314
vn 0.000000 1.000000 0.000314
vn 0.000000 1.000000 0.000314
vn 0.000000 -1.000000 -0.000312
vn 0.000000 -1.000000 -0.000312
vn 0.000000 -1.000000 -0.000312
vn 0.000000 -1.000000 -0.000312
vn 1.000000 0.000000 0.000000
vn 1.000000 0.000000 0.000000
vn 1.000000 0.000000 0.000000
vn 1.000000 0.000000 0.000000
vn 0.000000 0.000000 -1.000000
vn 0.000000 0.000000 -1.000000
vn 0.000000 0.000000 -1.000000
vn 0.000000 0.000000 -1.000000
vn -1.000000 0.000000 0.000000
vn -1.000000 0.000000 0.000000
vn -1.000000 0.000000 0.000000
vn -1.000000 0.000000 0.000000
vn 0.000000 0.000000 1.000000
vn 0.000000 0.000000 1.000000
vn 0.000000 0.000000 1.000000
vn 0.000000 0.000000 1.000000
vn 0.000000 -1.000000 0.000000
vn 0.000000 -1.000000 0.000000
vn 0.000000 -1.000000 0.000000
vn 0.000000 -1.000000 0.000000
vn 0.000000 1.000000 0.000000
vn 0.000000 1.000000 0.000000
vn 0.000000 1.000000 0.000000
vn 0.000000 1.000000 0.000000
vn 0.000000 -1.000000 0.000000
vn 0.000000 -1.000000 0.000000
vn 0.000000 -1.000000 0.000000
vn 0.000000 -1.000000 0.000000
vn 0.000000 0.000000 -1.000000
vn 0.000000 0.000000 -1.000000
vn 0.000000 0.000000 -1.000000
vn 0.000000 0.000000 -1.000000
vn 0.000000 1.000000 0.000000
vn 0.000000 1.000000 0.000000
vn 0.000000 1.000000 0.000000
vn 0.000000 1.000000 0.000000
vn 0.000000 0.000000 1.000000
vn 0.000000 0.000000 1.000000
vn 0.000000 0.000000 1.000000
vn 0.000000 0.000000 1.000000
vn -1.000000 0.000000 0.000000
vn -1.000000 0.000000 0.000000
vn -1.000000 0.000000 0.000000
vn -1.000000 0.000000 0.000000
vn 1.000000 0.000000 0.000000
vn 1.000000 0.000000 0.000000
vn 1.000000 0.000000 0.000000
vn 1.000000 0.000000 0.000000
vn 0.000000 0.550962 -0.834531
vn 0.000000 0.550962 -0.834531
vn 0.000000 0.550962 -0.834531
vn 0.000000 0.550962 -0.834531
vn 1.000000 0.000000 0.000000
vn 1.000000 0.000000 0.000000
vn 1.000000 0.000000 0.000000
vn 1.000000 0.000000 0.000000
vn 0.000000 -0.550962 0.834530
vn 0.000000 -0.550962 0.834530
vn 0.000000 -0.550962 0.834530
vn 0.000000 -0.550962 0.834530
vn -1.000000 0.000000 -0.000000
vn -1.000000 0.000000 -0.000000
vn -1.000000 0.000000 -0.000000
vn -1.000000 0.000000 -0.000000
vn 0.000000 1.000000 0.000314
vn 0.000000 1.000000 0.000314
vn 0.000000 1.000000 0.000314
vn 0.000000 1.000000 0.000314
vn 0.000000 -1.000000 -0.000312
vn 0.000000 -1.000000 -0.000312
vn 0.000000 -1.000000 -0.000312
vn 0.000000 -1.000000 -0.000312
vn 1.000000 -0.000000 0.000000
vn 1.000000 -0.000000 0.000000
vn 1.000000 -0.000000 0.000000
vn 1.000000 -0.000000 0.000000
vn 0.000000 0.000000 -1.000000
vn 0.000000 0.000000 -1.000000
vn 0.000000 0.000000 -1.000000
vn 0.000000 0.000000 -1.000000
vn -1.000000 0.000000 0.000000
vn -1.000000 0.000000 0.000000
vn -1.000000 0.000000 0.000000
vn -1.000000 0.000000 0.000000
vn 0.000000 0.000000 1.000000
vn 0.000000 0.000000 1.000000
vn 0.000000 0.000000 1.000000
vn 0.000000 0.000000 1.000000
vn 0.000000 -1.000000 0.000000
vn 0.000000 -1.000000 0.000000
vn 0.000000 -1.000000 0.000000
vn 0.000000 -1.000000 0.000000
vn 0.000000 1.000000 0.000000
vn 0.000000 1.000000 0.000000
vn 0.000000 1.000000 0.000000
vn 0.000000 1.000000 0.000000
vn 0.000000 0.550962 0.834530
vn 0.000000 0.550962 0.834530
vn 0.000000 0.550962 0.834530
vn 0.000000 0.550962 0.834530
vn -1.000000 0.000000 0.000000
vn -1.000000 0.000000 0.000000
vn -1.000000 0.000000 0.000000
vn -1.000000 0.000000 0.000000
vn 0.000000 -0.550962 -0.834530
vn 0.000000 -0.550962 -0.834530
vn 0.000000 -0.550962 -0.834530
vn 0.000000 -0.550962 -0.834530
vn 1.000000 0.000000 0.000000
vn 1.000000 0.000000 0.000000
vn 1.000000 0.000000 0.000000
vn 1.000000 0.000000 0.000000
vn 0.000000 1.000000 -0.000314
vn 0.000000 1.000000 -0.000314
vn 0.000000 1.000000 -0.000314
vn 0.000000 1.000000 -0.000314
vn 0.000000 -1.000000 0.000312
vn 0.000000 -1.000000 0.000312
vn 0.000000 -1.000000 0.000312
vn 0.000000 -1.000000 0.000312
vn 0.000000 0.000000 1.000000
vn 0.000000 0.000000 1.000000
vn 0.000000 0.000000 1.000000
vn 0.000000 0.000000 1.000000
vn 0.000000 1.000000 0.000000
vn 0.000000 1.000000 0.000000
vn 0.000000 1.000000 0.000000
vn 0.000000 1.000000 0.000000
vn 0.000000 0.000000 -1.000000
vn 0.000000 0.000000 -1.000000
vn 0.000000 0.000000 -1.000000
vn 0.000000 0.000000 -1.000000
vn 0.000000 -1.000000 0.000000
vn 0.000000 -1.000000 0.000000
vn 0.000000 -1.000000 0.000000
vn 0.000000 -1.000000 0.000000
vn 1.000000 0.000000 0.000000
vn 1.000000 0.000000 0.000000
vn 1.000000 0.000000 0.000000
vn 1.000000 0.000000 0.000000
vn -1.000000 0.000000 0.000000
vn -1.000000 0.000000 0.000000
vn -1.000000 0.000000 0.000000
vn -1.000000 0.000000 0.000000
vn 0.000000 0.000000 1.000000
vn 0.000000 0.000000 1.000000
vn 0.000000 0.000000 1.000000
vn 0.000000 0.000000 1.000000
vn 0.000000 1.000000 0.000000
vn 0.000000 1.000000 0.000000
vn 0.000000 1.000000 0.000000
vn 0.000000 1.000000 0.000000
vn 0.000000 0.000000 -1.000000
vn 0.000000 0.000000 -1.000000
vn 0.000000 0.000000 -1.000000
vn 0.000000 0.000000 -1.000000
vn 0.000000 -1.000000 0.000000
vn 0.000000 -1.000000 0.000000
vn 0.000000 -1.000000 0.000000
vn 0.000000 -1.000000 0.000000
vn 1.000000 0.000004 0.000000
vn 1.000000 0.000003 0.000000
vn 1.000000 0.000003 0.000000
vn 1.000000 0.000004 0.000000
vn -1.000000 0.000004 0.000000
vn -1.000000 0.000003 0.000000
vn -1.000000 0.000003 0.000000
vn -1.000000 0.000004 0.000000
vn 0.000000 1.000000 0.000000
vn 0.000000 1.000000 0.000000
vn 0.000000 1.000000 0.000000
vn 0.000000 1.000000 0.000000
vn 1.000000 0.000000 0.000000
vn 1.000000 0.000003 0.000000
vn 1.000000 0.000004 0.000000
vn 1.000000 0.000000 0.000000
vn 0.000000 -1.000000 0.000000
vn 0.000000 -1.000000 0.000000
vn 0.000000 -1.000000 0.000000
vn 0.000000 -1.000000 0.000000
vn -1.000000 0.000004 0.000000
vn -1.000000 0.000003 0.000000
vn -1.000000 0.000000 0.000000
vn -1.000000 0.000000 0.000000
vn 0.000000 -1.000000 0.000000
vn 0.000000 -1.000000 0.000000
vn 0.000000 -1.000000 0.000000
vn 0.000000 -1.000000 0.000000
vn 1.000000 0.000004 0.000000
vn 1.000000 0.000003 0.000000
vn 1.000000 0.000000 0.000000
vn 1.000000 0.000000 0.000000
vn 0.000000 1.000000 0.000000
vn 0.000000 1.000000 0.000000
vn 0.000000 1.000000 0.000000
vn 0.000000 1.000000 0.000000
vn -1.000000 0.000000 0.000000
vn -1.000000 0.000003 0.000000
vn -1.000000 0.000004 0.000000
vn -1.000000 0.000000 0.000000
vn 0.000000 0.000000 -1.000000
vn 0.000000 0.000000 -1.000000
vn 0.000000 0.000000 -1.000000
vn 0.000000 0.000000 -1.000000
vn 1.000000 0.000003 0.000000
vn 1.000000 0.000000 0.000000
vn 1.000000 0.000000 0.000000
vn 1.000000 0.000000 0.000000
vn 0.000000 0.000000 1.000000
vn 0.000000 0.000000 1.000000
vn 0.000000 0.000000 1.000000
vn 0.000000 0.000000 1.000000
vn -1.000000 0.000000 0.000000
vn -1.000000 0.000003 0.000000
vn -1.000000 0.000000 0.000000
vn -1.000000 0.000000 0.000000
vn 0.000000 0.000000 -1.000000
vn 0.000000 0.000000 -1.000000
vn 0.000000 0.000000 -1.000000
vn 0.000000 0.000000 -1.000000
vn 1.000000 0.000000 0.000000
vn 1.000000 0.000003 0.000000
vn 1.000000 0.000000 0.000000
vn 1.000000 0.000000 0.000000
vn 0.000000 0.000000 1.000000
vn 0.000000 0.000000 1.000000
vn 0.000000 0.000000 1.000000
vn 0.000000 0.000000 1.000000
vn -1.000000 0.000003 0.000000
vn -1.000000 0.000000 0.000000
vn -1.000000 0.000000 0.000000
vn -1.000000 0.000000 0.000000
s off
g tableTop2_GEO1 table_GEO polySurface1
usemtl initialShadingGroup
f 1/1/1 2/2/2 4/4/3 3/3/4
f 3/3/5 4/4/6 6/6/7 5/5/8
f 5/5/9 6/6/10 8/8/11 7/7/12
f 7/7/13 8/8/14 2/10/15 1/9/16
f 2/2/17 8/11/18 6/12/19 4/4/20
f 7/13/21 1/1/22 3/3/23 5/14/24
g tableTop2_GEO table_GEO polySurface1
f 9/15/25 10/16/26 12/18/27 11/17/28
f 11/17/29 12/18/30 14/20/31 13/19/32
f 13/19/33 14/20/34 16/22/35 15/21/36
f 15/21/37 16/22/38 10/24/39 9/23/40
f 10/16/41 16/25/42 14/26/43 12/18/44
f 15/27/45 9/15/46 11/17/47 13/28/48
g legL1_GEO table_GEO polySurface1
f 17/29/49 18/30/50 20/32/51 19/31/52
f 19/31/53 20/32/54 22/34/55 21/33/56
f 21/33/57 22/34/58 24/36/59 23/35/60
f 23/35/61 24/36/62 18/38/63 17/37/64
f 18/30/65 24/39/66 22/40/67 20/32/68
f 23/41/69 17/29/70 19/31/71 21/42/72
g legR1_GEO table_GEO polySurface1
f 25/43/73 26/44/74 28/46/75 27/45/76
f 27/45/77 28/46/78 30/48/79 29/47/80
f 29/47/81 30/48/82 32/50/83 31/49/84
f 31/49/85 32/50/86 26/52/87 25/51/88
f 26/44/89 32/53/90 30/54/91 28/46/92
f 31/55/93 25/43/94 27/45/95 29/56/96
g signBeam2_GEO sign_GEO polySurface1
f 33/57/97 34/58/98 36/60/99 35/59/100
f 35/59/101 36/60/102 38/62/103 37/61/104
f 37/61/105 38/62/106 40/64/107 39/63/108
f 39/63/109 40/64/110 34/66/111 33/65/112
f 34/58/113 40/67/114 38/68/115 36/60/116
f 39/69/117 33/57/118 35/59/119 37/70/120
g sign_GEO polySurface1
f 41/71/121 42/72/122 44/74/123 43/73/124
f 43/73/125 44/74/126 46/76/127 45/75/128
f 45/75/129 46/76/130 48/78/131 47/77/132
f 47/77/133 48/78/134 42/80/135 41/79/136
f 42/72/137 48/81/138 46/82/139 44/74/140
f 47/83/141 41/71/142 43/73/143 45/84/144
g legL2_GEO table_GEO polySurface1
f 49/85/145 50/86/146 52/88/147 51/87/148
f 51/87/149 52/88/150 54/90/151 53/89/152
f 53/89/153 54/90/154 56/92/155 55/91/156
f 55/91/157 56/92/158 50/94/159 49/93/160
f 50/86/161 56/95/162 54/96/163 52/88/164
f 55/97/165 49/85/166 51/87/167 53/98/168
g signBeam1_GEO sign_GEO polySurface1
f 57/99/169 58/100/170 60/102/171 59/101/172
f 59/101/173 60/102/174 62/104/175 61/103/176
f 61/103/177 62/104/178 64/106/179 63/105/180
f 63/105/181 64/106/182 58/108/183 57/107/184
f 58/100/185 64/109/186 62/110/187 60/102/188
f 63/111/189 57/99/190 59/101/191 61/112/192
g legR2_GEO table_GEO polySurface1
f 65/113/193 66/114/194 68/116/195 67/115/196
f 67/115/197 68/116/198 70/118/199 69/117/200
f 69/117/201 70/118/202 72/120/203 71/119/204
f 71/119/205 72/120/206 66/122/207 65/121/208
f 66/114/209 72/123/210 70/124/211 68/116/212
f 71/125/213 65/113/214 67/115/215 69/126/216
g tableTop3_GEO table_GEO polySurface1
f 73/127/217 74/128/218 76/130/219 75/129/220
f 75/129/221 76/130/222 78/132/223 77/131/224
f 77/131/225 78/132/226 80/134/227 79/133/228
f 79/133/229 80/134/230 74/136/231 73/135/232
f 74/128/233 80/137/234 78/138/235 76/130/236
f 79/139/237 73/127/238 75/129/239 77/140/240
g tableCloth_GEO table_GEO polySurface1
f 81/141/241 82/142/242 84/144/243 83/143/244
f 89/156/245 90/157/246 95/167/247 96/170/248
f 85/145/249 86/146/250 88/148/251 87/147/252
f 93/164/253 94/165/254 91/159/255 92/162/256
f 90/158/257 91/160/258 94/166/259 95/168/260
f 96/169/261 93/163/262 92/161/263 89/155/264
f 83/143/265 84/144/266 90/157/267 89/156/268
f 82/142/269 91/160/270 90/158/271 84/144/272
f 98/171/273 97/172/274 99/173/275 100/174/276
f 89/155/277 92/161/278 81/141/279 83/143/280
f 101/175/281 102/176/282 103/177/283 104/178/284
f 95/168/285 94/166/286 88/151/287 86/152/288
f 96/170/289 95/167/290 86/146/291 85/145/292
f 87/153/293 93/163/294 96/169/295 85/154/296
f 92/162/297 91/159/298 97/172/299 98/171/300
f 91/159/301 82/150/302 99/173/303 97/172/304
f 82/150/305 81/149/306 100/174/307 99/173/308
f 81/149/309 92/162/310 98/171/311 100/174/312
f 87/147/313 88/148/314 102/176/315 101/175/316
f 88/148/317 94/165/318 103/177/319 102/176/320
f 94/165/321 93/164/322 104/178/323 103/177/324
f 93/164/325 87/147/326 101/175/327 104/178/328
