# This file uses centimeters as units for non-parametric coordinates.

mtllib cuttingBoard.mtl
g default
v -22.611697 22.123667 28.963345
v -6.773819 22.123667 28.963345
v -22.611697 23.123667 28.963345
v -6.773819 23.123667 28.963345
v -22.611697 23.123667 17.497042
v -6.773819 23.123667 17.497042
v -22.611697 22.123667 17.497042
v -6.773819 22.123667 17.497042
v -22.611697 22.851807 28.963345
v -22.611697 22.851807 17.497042
v -6.773819 22.851807 17.497042
v -6.773819 22.851807 28.963345
v -22.611697 22.420264 28.963345
v -22.611697 22.420264 17.497042
v -6.773819 22.420264 17.497042
v -6.773819 22.420264 28.963345
v -21.633100 23.123667 28.963345
v -21.633100 23.123667 17.497042
v -21.633100 22.851807 17.497042
v -21.633100 22.420264 17.497042
v -21.633100 22.123667 17.497042
v -21.633100 22.123667 28.963345
v -21.633100 22.420264 28.963345
v -21.633100 22.851807 28.963345
v -7.750351 23.123667 28.963345
v -7.750351 23.123667 17.497042
v -7.750351 22.851807 17.497042
v -7.750351 22.420264 17.497042
v -7.750351 22.123667 17.497042
v -7.750351 22.123667 28.963345
v -7.750351 22.420264 28.963345
v -7.750351 22.851807 28.963345
v -22.611697 23.123667 27.731490
v -22.611697 22.851807 27.731490
v -22.611697 22.420264 27.731490
v -22.611697 22.123667 27.731490
v -21.633100 22.123667 27.731490
v -7.750351 22.123667 27.731490
v -6.773819 22.123667 27.731490
v -6.773819 22.420264 27.731490
v -6.773819 22.851807 27.731490
v -6.773819 23.123667 27.731490
v -7.750351 23.123667 27.731490
v -21.633100 23.123667 27.731490
v -22.611697 23.123667 18.469276
v -22.611697 22.851807 18.469276
v -22.611697 22.420264 18.469276
v -22.611697 22.123667 18.469276
v -21.633100 22.123667 18.469276
v -7.750351 22.123667 18.469276
v -6.773819 22.123667 18.469276
v -6.773819 22.420264 18.469276
v -6.773819 22.851807 18.469276
v -6.773819 23.123667 18.469276
v -7.750351 23.123667 18.469276
v -21.633100 23.123667 18.469276
vt 0.375000 0.000000
vt 0.625000 0.000000
vt 0.375000 0.250000
vt 0.625000 0.250000
vt 0.375000 0.500000
vt 0.625000 0.500000
vt 0.375000 0.750000
vt 0.625000 0.750000
vt 0.375000 1.000000
vt 0.625000 1.000000
vt 0.875000 0.000000
vt 0.875000 0.250000
vt 0.125000 0.000000
vt 0.125000 0.250000
vt 0.375000 0.224689
vt 0.125000 0.224689
vt 0.375000 0.525311
vt 0.625000 0.525311
vt 0.875000 0.224689
vt 0.625000 0.224689
vt 0.375000 0.021575
vt 0.125000 0.021575
vt 0.375000 0.728425
vt 0.625000 0.728425
vt 0.875000 0.021575
vt 0.625000 0.021575
vt 0.376432 0.250000
vt 0.376432 0.500000
vt 0.376432 0.525311
vt 0.376432 0.728425
vt 0.376432 0.750000
vt 0.376432 0.000000
vt 0.376432 1.000000
vt 0.376432 0.021575
vt 0.376432 0.224689
vt 0.621951 0.250000
vt 0.621951 0.500000
vt 0.621951 0.525311
vt 0.621951 0.728425
vt 0.621951 0.750000
vt 0.621951 0.000000
vt 0.621951 1.000000
vt 0.621951 0.021575
vt 0.621951 0.224689
vt 0.373101 0.250000
vt 0.375000 0.251899
vt 0.373101 0.224689
vt 0.373101 0.021575
vt 0.373101 0.000000
vt 0.375000 0.998101
vt 0.376432 0.998101
vt 0.621951 0.998101
vt 0.625000 0.998101
vt 0.626899 0.000000
vt 0.626899 0.021575
vt 0.626899 0.224689
vt 0.625000 0.251899
vt 0.626899 0.250000
vt 0.621951 0.251899
vt 0.376432 0.251899
vt 0.126602 0.250000
vt 0.375000 0.498398
vt 0.126602 0.224689
vt 0.126602 0.021575
vt 0.126602 0.000000
vt 0.375000 0.751602
vt 0.376432 0.751602
vt 0.621951 0.751602
vt 0.625000 0.751602
vt 0.873398 0.000000
vt 0.873398 0.021575
vt 0.873398 0.224689
vt 0.625000 0.498398
vt 0.873398 0.250000
vt 0.621951 0.498398
vt 0.376432 0.498398
vn 0.000000 0.000000 1.000000
vn 0.000000 0.000000 1.000000
vn 0.000000 0.000000 1.000000
vn 0.000000 0.000000 1.000000
vn 0.000000 1.000000 0.000000
vn 0.000000 1.000000 0.000000
vn 0.000000 1.000000 0.000000
vn 0.000000 1.000000 0.000000
vn 0.000000 0.000000 -1.000000
vn 0.000000 0.000000 -1.000000
vn 0.000000 0.000000 -1.000000
vn 0.000000 0.000000 -1.000000
vn 0.000000 -1.000000 0.000000
vn 0.000000 -1.000000 0.000000
vn 0.000000 -1.000000 0.000000
vn 0.000000 -1.000000 0.000000
vn 1.000000 0.000000 0.000000
vn 1.000000 0.000000 0.000000
vn 1.000000 0.000000 0.000000
vn 1.000000 0.000000 0.000000
vn -1.000000 0.000000 0.000000
vn -1.000000 0.000000 0.000000
vn -1.000000 0.000000 0.000000
vn -1.000000 0.000000 0.000000
vn -1.000000 0.000000 0.000000
vn -1.000000 0.000000 0.000000
vn -1.000000 0.000000 0.000000
vn -1.000000 0.000000 0.000000
vn 0.000000 0.000000 -1.000000
vn 0.000000 0.000000 -1.000000
vn 0.000000 0.000000 -1.000000
vn 0.000000 0.000000 -1.000000
vn 1.000000 0.000000 0.000000
vn 1.000000 0.000000 0.000000
vn 1.000000 0.000000 0.000000
vn 1.000000 0.000000 0.000000
vn 0.000000 0.000000 1.000000
vn 0.000000 0.000000 1.000000
vn 0.000000 0.000000 1.000000
vn 0.000000 0.000000 1.000000
vn 0.000000 1.000000 0.000000
vn 0.000000 1.000000 0.000000
vn 0.000000 0.000000 -1.000000
vn 0.000000 0.000000 -1.000000
vn 0.000000 0.000000 -1.000000
vn 0.000000 0.000000 -1.000000
vn 0.000000 -1.000000 0.000000
vn 0.000000 -1.000000 0.000000
vn 0.000000 0.000000 1.000000
vn 0.000000 0.000000 1.000000
vn 0.000000 0.000000 1.000000
vn 0.000000 0.000000 1.000000
vn 0.000000 1.000000 0.000000
vn 0.000000 1.000000 0.000000
vn 0.000000 0.000000 -1.000000
vn 0.000000 0.000000 -1.000000
vn 0.000000 0.000000 -1.000000
vn 0.000000 0.000000 -1.000000
vn 0.000000 -1.000000 0.000000
vn 0.000000 -1.000000 0.000000
vn 0.000000 0.000000 1.000000
vn 0.000000 0.000000 1.000000
vn 0.000000 0.000000 1.000000
vn 0.000000 0.000000 1.000000
vn -1.000000 0.000000 0.000000
vn -1.000000 0.000000 0.000000
vn -1.000000 0.000000 0.000000
vn -1.000000 0.000000 0.000000
vn 0.000000 -1.000000 0.000000
vn 0.000000 -1.000000 0.000000
vn 0.000000 -1.000000 0.000000
vn 0.000000 -1.000000 0.000000
vn 1.000000 0.000000 0.000000
vn 1.000000 0.000000 0.000000
vn 1.000000 0.000000 0.000000
vn 1.000000 0.000000 0.000000
vn 0.000000 1.000000 0.000000
vn 0.000000 1.000000 0.000000
vn 0.000000 1.000000 0.000000
vn 0.000000 1.000000 0.000000
vn -1.000000 0.000000 0.000000
vn -1.000000 0.000000 0.000000
vn -1.000000 0.000000 0.000000
vn -1.000000 0.000000 0.000000
vn 0.000000 -1.000000 0.000000
vn 0.000000 -1.000000 0.000000
vn 0.000000 -1.000000 0.000000
vn 0.000000 -1.000000 0.000000
vn 1.000000 0.000000 0.000000
vn 1.000000 0.000000 0.000000
vn 1.000000 0.000000 0.000000
vn 1.000000 0.000000 0.000000
vn 0.000000 1.000000 0.000000
vn 0.000000 1.000000 0.000000
vn 0.000000 1.000000 0.000000
vn 0.000000 1.000000 0.000000
s 1
g cutingBoard
usemtl lambert4SG
f 1/1/1 22/32/2 23/34/3 13/21/4
s 2
f 3/3/5 17/27/6 44/60/7 33/46/8
s 3
f 14/23/9 20/30/10 21/31/11 7/7/12
s 4
f 36/50/13 37/51/14 22/33/15 1/9/16
s 5
f 2/2/17 39/54/18 40/55/19 16/26/20
s 6
f 36/49/21 1/1/22 13/21/23 35/48/24
f 34/47/25 9/15/26 3/3/27 33/45/28
s 3
f 5/5/29 18/28/30 19/29/31 10/17/32
s 5
f 12/20/33 41/56/34 42/58/35 4/4/36
s 1
f 9/15/37 24/35/38 17/27/39 3/3/40
s 6
f 35/48/24 13/21/23 9/15/26 34/47/25
s 3
f 10/17/32 19/29/31 20/30/10 14/23/9
s 5
f 16/26/20 40/55/19 41/56/34 12/20/33
s 1
f 13/21/4 23/34/3 24/35/38 9/15/37
s 2
f 17/27/6 25/36/41 43/59/42 44/60/7
s 3
f 19/29/31 18/28/30 26/37/43 27/38/44
f 20/30/10 19/29/31 27/38/44 28/39/45
f 21/31/11 20/30/10 28/39/45 29/40/46
s 4
f 22/33/15 37/51/14 38/52/47 30/42/48
s 1
f 23/34/3 22/32/2 30/41/49 31/43/50
f 24/35/38 23/34/3 31/43/50 32/44/51
f 17/27/39 24/35/38 32/44/51 25/36/52
s 2
f 25/36/41 4/4/53 42/57/54 43/59/42
s 3
f 27/38/44 26/37/43 6/6/55 11/18/56
f 28/39/45 27/38/44 11/18/56 15/24/57
f 29/40/46 28/39/45 15/24/57 8/8/58
s 4
f 30/42/48 38/52/47 39/53/59 2/10/60
s 1
f 31/43/50 30/41/49 2/2/61 16/26/62
f 32/44/51 31/43/50 16/26/62 12/20/63
f 25/36/52 32/44/51 12/20/63 4/4/64
s 6
f 46/63/65 34/47/25 33/45/28 45/61/66
f 47/64/67 35/48/24 34/47/25 46/63/65
f 48/65/68 36/49/21 35/48/24 47/64/67
s 4
f 48/66/69 49/67/70 37/51/14 36/50/13
f 38/52/47 37/51/14 49/67/70 50/68/71
f 39/53/59 38/52/47 50/68/71 51/69/72
s 5
f 40/55/19 39/54/18 51/70/73 52/71/74
f 41/56/34 40/55/19 52/71/74 53/72/75
f 42/58/35 41/56/34 53/72/75 54/74/76
s 2
f 43/59/42 42/57/54 54/73/77 55/75/78
f 44/60/7 43/59/42 55/75/78 56/76/79
f 33/46/8 44/60/7 56/76/79 45/62/80
s 6
f 10/16/81 46/63/65 45/61/66 5/14/82
f 14/22/83 47/64/67 46/63/65 10/16/81
f 7/13/84 48/65/68 47/64/67 14/22/83
s 4
f 7/7/85 21/31/86 49/67/70 48/66/69
f 50/68/71 49/67/70 21/31/86 29/40/87
f 51/69/72 50/68/71 29/40/87 8/8/88
s 5
f 52/71/74 51/70/73 8/11/89 15/25/90
f 53/72/75 52/71/74 15/25/90 11/19/91
f 54/74/76 53/72/75 11/19/91 6/12/92
s 2
f 55/75/78 54/73/77 6/6/93 26/37/94
f 56/76/79 55/75/78 26/37/94 18/28/95
f 45/62/80 56/76/79 18/28/95 5/5/96
