# This file uses centimeters as units for non-parametric coordinates.

mtllib cuttingBoard.mtl
g default
v 0.846847 0.007596 -0.497760
v 0.846847 0.056660 -0.497760
v 0.923710 0.056660 -0.463317
v 0.923710 0.007596 -0.463317
v 0.846847 0.007596 -0.391315
v 0.943228 0.007596 -0.391315
v -0.825932 0.007596 0.492722
v -0.825931 0.007596 0.397853
v 0.846846 0.007596 0.397853
v 0.846847 0.007596 0.502240
v 0.846846 0.056660 -0.391315
v 0.943228 0.056660 -0.391315
v -0.825932 0.056660 0.397853
v -0.825932 0.056660 0.492722
v 0.846847 0.056660 0.502240
v 0.846847 0.056660 0.397853
v 0.932021 0.007596 0.397853
v 0.932021 0.056660 0.397853
v 0.916590 0.007596 0.477407
v 0.916590 0.056660 0.477407
v -0.909525 0.007596 0.466900
v -0.909525 0.056660 0.466900
v -0.825932 0.056660 -0.497760
v -0.825931 0.056660 -0.391315
v -0.939639 0.056660 0.397853
v -0.825932 0.007596 -0.391315
v -0.825932 0.007596 -0.497760
v -0.939639 0.007596 0.397853
v -0.692679 0.007596 0.176483
v -0.716791 0.007596 0.200595
v -0.716791 0.056660 0.200595
v -0.692679 0.056660 0.176483
v -0.765025 0.007596 0.200595
v -0.765025 0.056660 0.200595
v -0.789138 0.007596 0.176483
v -0.789138 0.056660 0.176483
v -0.692679 0.007596 -0.172002
v -0.692679 0.056660 -0.172002
v -0.789138 0.007596 -0.172002
v -0.789138 0.056660 -0.172002
v -0.955231 0.056660 -0.391315
v -0.716791 0.056660 -0.196115
v -0.716791 0.007596 -0.196115
v -0.955231 0.007596 -0.391315
v -0.765025 0.056660 -0.196115
v -0.765025 0.007596 -0.196115
v -0.926448 0.056660 -0.470473
v -0.926448 0.007596 -0.470473
vt 0.610709 0.750000
vt 0.610709 0.500000
vt 0.625000 0.500000
vt 0.625000 0.750000
vt 0.610709 0.776611
vt 0.625000 0.776611
vt 0.390003 1.000000
vt 0.390003 0.973903
vt 0.610709 0.973903
vt 0.610709 1.000000
vt 0.610709 0.473389
vt 0.625000 0.473389
vt 0.390003 0.276097
vt 0.390003 0.250000
vt 0.610709 0.250000
vt 0.610709 0.276097
vt 0.848389 0.250000
vt 0.848389 0.000000
vt 0.875000 0.000000
vt 0.875000 0.250000
vt 0.390003 0.000000
vt 0.610709 0.000000
vt 0.625000 0.973903
vt 0.625000 0.276097
vt 0.651097 0.250000
vt 0.651097 0.000000
vt 0.625000 1.000000
vt 0.625000 0.250000
vt 0.625000 0.000000
vt 0.375000 0.000000
vt 0.375000 0.250000
vt 0.390003 0.500000
vt 0.390003 0.473389
vt 0.375000 0.276097
vt 0.390003 0.776611
vt 0.390003 0.750000
vt 0.375000 0.973903
vt 0.375000 1.000000
vt 0.348903 0.250000
vt 0.348903 0.000000
vt 0.640195 0.093634
vt 0.562506 0.093634
vt 0.562506 0.163929
vt 0.640195 0.163929
vt 0.437494 0.093634
vt 0.437494 0.163929
vt 0.359805 0.093634
vt 0.359805 0.163929
vt 0.859805 0.093634
vt 0.859805 0.163929
vt 0.140195 0.093634
vt 0.140195 0.163929
vt 0.375000 0.473389
vt 0.625000 0.586071
vt 0.562506 0.586071
vt 0.562506 0.656366
vt 0.625000 0.656366
vt 0.375000 0.776611
vt 0.437494 0.586071
vt 0.437494 0.656366
vt 0.151611 0.250000
vt 0.151611 0.000000
vt 0.375000 0.586071
vt 0.375000 0.656366
vt 0.375000 0.500000
vt 0.375000 0.750000
vt 0.125000 0.000000
vt 0.125000 0.250000
vt 0.404403 0.924589
vt 0.407584 0.918561
vt 0.407584 0.831439
vt 0.404402 0.825411
vt 0.398038 0.825411
vt 0.398038 0.424589
vt 0.404403 0.424589
vt 0.407584 0.418561
vt 0.407584 0.331439
vt 0.404402 0.325411
vt 0.394857 0.831439
vt 0.394857 0.918561
vt 0.398039 0.924589
vt 0.398038 0.325411
vt 0.394857 0.331439
vt 0.394857 0.418561
vn 0.019682 0.000000 -0.999806
vn 0.019682 0.000000 -0.999806
vn 0.408928 0.000000 -0.912567
vn 0.408928 0.000000 -0.912567
vn 0.000000 -1.000000 0.000000
vn 0.000000 -1.000000 0.000000
vn 0.000000 -1.000000 0.000000
vn 0.000000 -1.000000 0.000000
vn 0.000000 -1.000000 0.000000
vn 0.000000 -1.000000 -0.000000
vn 0.000000 -1.000000 0.000000
vn 0.000000 -1.000000 0.000000
vn 0.000000 1.000000 0.000000
vn 0.000000 1.000000 0.000000
vn 0.000000 1.000000 -0.000000
vn 0.000000 1.000000 0.000000
vn 0.000000 1.000000 -0.000000
vn 0.000000 1.000000 -0.000000
vn 0.000000 1.000000 0.000000
vn 0.000000 1.000000 -0.000000
vn 0.999954 0.000000 -0.009650
vn 0.999954 0.000000 -0.009650
vn 0.965169 0.000000 -0.261626
vn 0.965169 0.000000 -0.261626
vn -0.020117 0.000000 0.999798
vn -0.020117 0.000000 0.999798
vn 0.008789 0.000000 0.999961
vn 0.008789 0.000000 0.999961
vn 0.000000 -1.000000 0.000000
vn 0.000000 1.000000 -0.000000
vn 0.999530 0.000000 0.030649
vn 0.999530 0.000000 0.030649
vn 0.000000 -1.000000 0.000000
vn 0.000000 1.000000 0.000000
vn 0.981702 0.000000 0.190426
vn 0.981702 0.000000 0.190426
vn 0.335442 0.000000 0.942061
vn 0.335442 0.000000 0.942061
vn -0.295135 0.000000 0.955456
vn -0.295135 0.000000 0.955456
vn 0.000000 1.000000 0.000000
vn 0.000000 1.000000 0.000000
vn 0.000000 1.000000 -0.000000
vn 0.000000 1.000000 0.000000
vn 0.000000 -1.000000 -0.000000
vn 0.000000 -1.000000 -0.000000
vn 0.000000 -1.000000 -0.000000
vn 0.000000 -1.000000 -0.000000
vn -0.015386 0.000000 -0.999882
vn -0.015386 0.000000 -0.999882
vn -0.998585 0.000000 0.053182
vn -0.998585 0.000000 0.053182
vn -0.916613 0.000000 0.399775
vn -0.916613 0.000000 0.399775
vn -0.707106 0.000000 -0.707107
vn -0.707106 0.000000 -0.707107
vn -0.707106 0.000000 -0.707107
vn -0.707106 0.000000 -0.707107
vn 0.000000 0.000000 -1.000000
vn 0.000000 0.000000 -1.000000
vn 0.000000 0.000000 -1.000000
vn 0.000000 0.000000 -1.000000
vn 0.707106 0.000000 -0.707107
vn 0.707106 0.000000 -0.707107
vn 0.707106 0.000000 -0.707107
vn 0.707106 0.000000 -0.707107
vn -1.000000 0.000000 0.000000
vn -1.000000 0.000000 0.000000
vn -1.000000 0.000000 0.000000
vn -1.000000 0.000000 0.000000
vn 1.000000 0.000000 0.000000
vn 1.000000 0.000000 0.000000
vn 1.000000 0.000000 0.000000
vn 1.000000 0.000000 0.000000
vn 0.000000 1.000000 0.000000
vn -0.707106 0.000000 0.707107
vn -0.707106 0.000000 0.707107
vn -0.707106 0.000000 0.707107
vn -0.707106 0.000000 0.707107
vn 0.000000 -1.000000 -0.000000
vn 0.000000 0.000000 1.000000
vn 0.000000 0.000000 1.000000
vn 0.000000 0.000000 1.000000
vn 0.000000 0.000000 1.000000
vn -0.999885 0.000000 -0.015190
vn -0.999885 0.000000 -0.015190
vn 0.707106 0.000000 0.707107
vn 0.707106 0.000000 0.707107
vn 0.707106 0.000000 0.707107
vn 0.707106 0.000000 0.707107
vn 0.000000 1.000000 0.000000
vn 0.000000 -1.000000 -0.000000
vn -0.261987 0.000000 -0.965071
vn -0.261987 0.000000 -0.965071
vn -0.939800 0.000000 -0.341724
vn -0.939800 0.000000 -0.341724
vn 0.000000 -1.000000 -0.000000
vn 0.000000 -1.000000 0.000000
vn 0.000000 -1.000000 0.000000
vn 0.000000 -1.000000 0.000000
vn 0.000000 -1.000000 -0.000000
vn 0.000000 1.000000 -0.000000
vn 0.000000 1.000000 -0.000000
vn 0.000000 1.000000 -0.000000
vn 0.000000 1.000000 -0.000000
vn 0.000000 1.000000 -0.000000
vn 0.000000 -1.000000 -0.000000
vn 0.000000 -1.000000 -0.000000
vn 0.000000 -1.000000 -0.000000
vn 0.000000 1.000000 0.000000
vn 0.000000 1.000000 0.000000
vn 0.000000 1.000000 0.000000
s 1
g cuttingBoard_GEO
usemtl initialShadingGroup
f 1/1/1 2/2/2 3/3/3 4/4/4
s 2
f 5/5/5 1/1/6 4/4/7 6/6/8
f 7/7/9 8/8/10 9/9/11 10/10/12
s 4
f 2/2/13 11/11/14 12/12/15 3/3/16
f 13/13/17 14/14/18 15/15/19 16/16/20
s 6
f 12/17/21 6/18/22 4/19/23 3/20/24
s 7
f 14/14/25 7/21/26 10/22/27 15/15/28
s 2
f 9/9/11 5/5/5 6/6/8 17/23/29
s 4
f 11/11/14 16/16/20 18/24/30 12/12/15
s 6
f 18/25/31 17/26/32 6/18/22 12/17/21
s 2
f 10/10/12 9/9/11 17/23/29 19/27/33
s 4
f 16/16/20 15/15/19 20/28/34 18/24/30
s 6
f 19/29/35 17/26/32 18/25/31 20/28/36
s 7
f 15/15/28 10/22/27 19/29/37 20/28/38
f 21/30/39 7/21/26 14/14/25 22/31/40
s 4
f 23/32/41 24/33/42 11/11/14 2/2/13
f 22/31/43 14/14/18 13/13/17 25/34/44
s 2
f 26/35/45 27/36/46 1/1/6 5/5/5
f 28/37/47 8/8/10 7/7/9 21/38/48
s 1
f 27/36/49 23/32/50 2/2/2 1/1/1
s 8
f 25/39/51 28/40/52 21/30/53 22/31/54
s off
f 29/41/55 30/42/56 31/43/57 32/44/58
f 30/42/59 33/45/60 34/46/61 31/43/62
f 33/45/63 35/47/64 36/48/65 34/46/66
f 37/49/67 29/41/68 32/44/69 38/50/70
f 35/47/71 39/51/72 40/52/73 36/48/74
s 4
f 25/34/44 13/13/17 24/33/42 41/53/75
s off
f 38/54/76 42/55/77 43/56/78 37/57/79
s 2
f 44/58/80 26/35/45 8/8/10 28/37/47
s off
f 42/55/81 45/59/82 46/60/83 43/56/84
s 8
f 41/61/85 44/62/86 28/40/52 25/39/51
s off
f 45/59/87 40/63/88 39/64/89 46/60/90
s 4
f 41/53/75 24/33/42 23/32/41 47/65/91
s 2
f 48/66/92 27/36/46 26/35/45 44/58/80
s 1
f 47/65/93 23/32/50 27/36/49 48/66/94
s 8
f 48/67/95 44/62/86 41/61/85 47/68/96
s 2
f 30/69/97 29/70/98 37/71/99 43/72/100 46/73/101 26/35/45 5/5/5 9/9/11
s 4
f 24/33/42 45/74/102 42/75/103 38/76/104 32/77/105 31/78/106 13/13/17 16/16/20 11/11/14
s 2
f 8/8/10 26/35/45 46/73/101 39/79/107 35/80/108 33/81/109 30/69/97 9/9/11
s 4
f 31/78/106 34/82/110 36/83/111 40/84/112 45/74/102 24/33/42 13/13/17
