# This file uses centimeters as units for non-parametric coordinates.

mtllib garlic.mtl
g default
v -8.470502 23.249654 20.093537
v -9.027124 23.249654 20.005377
v -9.425621 23.249654 20.403874
v -9.463590 23.233157 20.761232
v -9.200148 23.249654 21.097808
v -8.643526 23.249654 21.185969
v -8.245029 23.249654 20.787471
v -8.424555 23.179483 20.462205
v -7.930816 23.502675 20.301780
v -8.373085 23.533341 20.003057
v -8.541432 23.502675 19.691164
v -8.835325 23.502675 19.644616
v -9.394342 23.502675 19.826252
v -9.604746 23.502675 20.036656
v -9.629271 23.533341 20.337704
v -9.786382 23.502675 20.595673
v -9.604746 23.502675 21.154690
v -9.129218 23.502675 21.500181
v -8.835325 23.502675 21.546729
v -8.276308 23.502675 21.365094
v -8.065904 23.502675 21.154690
v -7.884268 23.502675 20.595673
v -7.930816 24.004431 20.301780
v -8.373085 23.973765 20.003057
v -8.541432 24.004431 19.691164
v -8.835325 24.004431 19.644616
v -9.093294 23.973765 19.801726
v -9.394342 24.004431 19.826252
v -9.604746 24.004431 20.036656
v -9.629271 23.973765 20.337704
v -9.786382 24.004431 20.595673
v -9.604746 24.004431 21.154690
v -9.326011 23.973765 21.271044
v -9.129218 24.004431 21.500181
v -8.835325 24.004431 21.546729
v -8.577356 23.973765 21.389619
v -8.276308 24.004431 21.365094
v -8.065904 24.004431 21.154690
v -8.041379 23.973765 20.853641
v -7.884268 24.004431 20.595673
v -8.162826 24.327623 20.377165
v -8.601094 24.377004 20.273282
v -8.616817 24.327623 19.923174
v -8.835325 24.327623 19.888566
v -9.027124 24.257452 20.005377
v -9.250952 24.327623 20.023611
v -9.407387 24.327623 20.180046
v -9.425621 24.257452 20.403874
v -9.542432 24.327623 20.595673
v -9.407387 24.327623 21.011300
v -9.200148 24.257452 21.097808
v -9.053833 24.327623 21.268171
v -8.835325 24.327623 21.302780
v -8.643526 24.257452 21.185969
v -8.419698 24.327623 21.167734
v -8.263264 24.327623 21.011300
v -8.245029 24.257452 20.787471
v -9.214318 24.377004 20.472530
v -8.835325 24.490202 20.370185
v -9.023563 24.421333 20.534510
v -9.017749 24.490202 20.728211
v -8.702787 24.490202 20.778096
v -8.620873 24.490202 20.525993
v -8.965917 24.913027 20.553241
v -8.743375 24.985608 20.722231
v -8.835325 24.985608 20.439238
v -8.835325 23.144442 20.595673
vt 0.436622 0.251112
vt 0.430423 0.094911
vt 0.525748 0.208254
vt 0.693520 0.220225
vt 0.274322 0.021829
vt 0.270869 0.098134
vt 0.292174 0.158238
vt 0.329517 0.207398
vt 0.364351 0.250941
vt 0.408443 0.221753
vt 0.413584 0.408124
vt 0.373654 0.343097
vt 0.441591 0.438632
vt 0.476825 0.449079
vt 0.578688 0.420084
vt 0.648349 0.411498
vt 0.163454 0.034685
vt 0.192740 0.087807
vt 0.229862 0.158396
vt 0.266081 0.209191
vt 0.281529 0.227921
vt 0.312482 0.264104
vt 0.326491 0.281065
vt 0.357516 0.321051
vt 0.388887 0.453317
vt 0.352248 0.387133
vt 0.415321 0.483914
vt 0.445720 0.501369
vt 0.488954 0.509999
vt 0.541689 0.520546
vt 0.599777 0.543656
vt 0.082690 0.104285
vt 0.127917 0.143746
vt 0.186146 0.200093
vt 0.211160 0.225641
vt 0.232944 0.246351
vt 0.250924 0.264225
vt 0.269325 0.283621
vt 0.286865 0.302036
vt 0.302202 0.319573
vt 0.318804 0.340513
vt 0.336151 0.363404
vt 0.339037 0.489908
vt 0.331107 0.417729
vt 0.393262 0.507434
vt 0.415732 0.527451
vt 0.442942 0.550175
vt 0.481646 0.580395
vt 0.516571 0.619849
vt 0.038053 0.193502
vt 0.089999 0.209748
vt 0.154090 0.246056
vt 0.181029 0.267743
vt 0.206650 0.283654
vt 0.225660 0.299322
vt 0.244468 0.318899
vt 0.264414 0.335524
vt 0.280072 0.352481
vt 0.296448 0.374546
vt 0.029044 0.275582
vt 0.317712 0.557963
vt 0.332516 0.688910
vt 0.038190 0.341240
vt 0.118515 0.354036
vt 0.218261 0.403727
vt 0.276555 0.471648
vt 0.080121 0.490559
vt 0.156686 0.497084
vt 0.178116 0.556057
vt 0.169061 0.605805
vt 0.430146 0.711762
vt 0.554898 0.687497
vt 0.678623 0.591184
vt 0.737247 0.407697
vn -0.110748 -0.933572 -0.340848
vn 0.292337 -0.893633 -0.340528
vn -0.320557 -0.925073 -0.203673
vn -0.012197 -0.999911 0.005467
vn -0.397912 -0.909232 0.122325
vn -0.171861 -0.921102 0.349334
vn 0.110748 -0.933572 0.340849
vn 0.374283 -0.912390 0.165700
vn 0.291783 -0.939549 -0.179193
vn 0.694067 -0.314543 -0.647560
vn 0.689388 -0.468483 -0.552510
vn 0.527086 -0.361023 -0.769313
vn -0.105765 -0.417269 -0.902608
vn -0.444974 -0.417269 -0.792392
vn -0.814230 -0.401711 -0.419116
vn -0.914832 -0.265245 -0.304512
vn -0.949939 -0.311687 0.021594
vn -0.770362 -0.310054 0.557144
vn -0.408174 -0.352488 0.842108
vn 0.105765 -0.417269 0.902608
vn 0.444974 -0.417269 0.792392
vn 0.825198 -0.352488 0.441361
vn 0.909476 -0.400639 0.111094
vn 0.677608 0.272797 -0.682956
vn 0.750187 0.250663 -0.611872
vn 0.580845 0.255707 -0.772808
vn -0.185102 0.270167 -0.944853
vn -0.293490 0.251365 -0.922323
vn -0.396343 0.265193 -0.878968
vn -0.873203 0.270167 -0.405620
vn -0.919744 0.254166 -0.299116
vn -0.965101 0.260221 0.029409
vn -0.800803 0.268592 0.535325
vn -0.573666 0.251365 0.779566
vn -0.478136 0.265193 0.837292
vn 0.185102 0.270167 0.944853
vn 0.293490 0.251365 0.922323
vn 0.396342 0.265193 0.878969
vn 0.873203 0.270167 0.405620
vn 0.918219 0.260505 0.298347
vn 0.922565 0.330989 0.198291
vn 0.396706 0.812019 -0.428076
vn 0.498331 0.810951 -0.306634
vn 0.538620 0.744329 -0.394794
vn -0.219091 0.790886 -0.571400
vn -0.194222 0.740635 -0.643224
vn -0.170458 0.807394 -0.564853
vn -0.570730 0.799504 -0.187243
vn -0.677039 0.703534 -0.216004
vn -0.607854 0.793579 -0.027330
vn -0.468365 0.794556 0.386414
vn -0.406219 0.740635 0.535206
vn -0.356783 0.807394 0.469915
vn 0.241008 0.837170 0.490980
vn 0.172911 0.807953 0.563306
vn 0.151170 0.800790 0.579555
vn 0.581772 0.801562 0.137988
vn 0.602227 0.789556 0.118004
vn -0.273320 0.957815 -0.088807
vn 0.668424 0.727259 -0.155893
vn -0.095829 0.730737 -0.675900
vn -0.553651 0.791138 -0.259944
vn -0.418494 0.809524 0.411744
vn 0.298676 0.727368 0.617841
vn 0.452956 0.563563 -0.690816
vn -0.886395 0.449972 0.108765
vn 0.551364 0.663586 0.505620
s 1
g garlic
usemtl lambert2SG
f 2/3/1 1/1/2 3/4/3
f 3/4/3 1/1/2 67/2/4
f 4/6/5 3/5/3 67/2/4
f 4/6/5 67/2/4 5/7/6
f 6/8/7 5/7/6 7/9/8
f 7/9/8 5/7/6 67/2/4
f 67/2/4 8/10/9 7/9/8
f 8/10/9 67/2/4 1/1/2
f 1/1/2 10/11/10 8/10/9
f 8/10/9 10/11/10 9/12/11
f 1/1/2 11/13/12 10/11/10
f 1/1/2 12/14/13 11/13/12
f 13/15/14 12/14/13 2/3/1
f 2/3/1 12/14/13 1/1/2
f 3/4/3 13/15/14 2/3/1
f 3/4/3 14/16/15 13/15/14
f 15/74/16 14/16/15 3/4/3
f 4/6/5 16/18/17 3/5/3
f 3/5/3 16/18/17 15/17/16
f 17/19/18 16/18/17 4/6/5
f 5/7/6 17/19/18 4/6/5
f 18/20/19 17/19/18 5/7/6
f 5/7/6 19/21/20 18/20/19
f 20/22/21 19/21/20 6/8/7
f 6/8/7 19/21/20 5/7/6
f 7/9/8 20/22/21 6/8/7
f 7/9/8 21/23/22 20/22/21
f 22/24/23 21/23/22 7/9/8
f 8/10/9 22/24/23 7/9/8
f 8/10/9 9/12/11 22/24/23
f 10/11/10 24/25/24 9/12/11
f 9/12/11 24/25/24 23/26/25
f 11/13/12 25/27/26 10/11/10
f 10/11/10 25/27/26 24/25/24
f 12/14/13 26/28/27 11/13/12
f 11/13/12 26/28/27 25/27/26
f 13/15/14 27/29/28 12/14/13
f 12/14/13 27/29/28 26/28/27
f 13/15/14 28/30/29 27/29/28
f 14/16/15 29/31/30 13/15/14
f 13/15/14 29/31/30 28/30/29
f 15/74/16 30/73/31 14/16/15
f 14/16/15 30/73/31 29/31/30
f 16/18/17 31/33/32 15/17/16
f 15/17/16 31/33/32 30/32/31
f 17/19/18 31/33/32 16/18/17
f 17/19/18 32/34/33 31/33/32
f 18/20/19 33/35/34 17/19/18
f 17/19/18 33/35/34 32/34/33
f 18/20/19 34/36/35 33/35/34
f 19/21/20 35/37/36 18/20/19
f 18/20/19 35/37/36 34/36/35
f 20/22/21 36/38/37 19/21/20
f 19/21/20 36/38/37 35/37/36
f 20/22/21 37/39/38 36/38/37
f 21/23/22 38/40/39 20/22/21
f 20/22/21 38/40/39 37/39/38
f 22/24/23 39/41/40 21/23/22
f 21/23/22 39/41/40 38/40/39
f 22/24/23 40/42/41 39/41/40
f 9/12/11 23/26/25 22/24/23
f 22/24/23 23/26/25 40/42/41
f 42/43/42 41/44/43 24/25/24
f 24/25/24 41/44/43 23/26/25
f 25/27/26 43/45/44 24/25/24
f 24/25/24 43/45/44 42/43/42
f 26/28/27 44/46/45 25/27/26
f 25/27/26 44/46/45 43/45/44
f 27/29/28 45/47/46 26/28/27
f 26/28/27 45/47/46 44/46/45
f 28/30/29 46/48/47 27/29/28
f 27/29/28 46/48/47 45/47/46
f 29/31/30 47/49/48 28/30/29
f 28/30/29 47/49/48 46/48/47
f 30/73/31 48/72/49 29/31/30
f 29/31/30 48/72/49 47/49/48
f 31/33/32 49/51/50 30/32/31
f 30/32/31 49/51/50 48/50/49
f 32/34/33 50/52/51 31/33/32
f 31/33/32 50/52/51 49/51/50
f 33/35/34 51/53/52 32/34/33
f 32/34/33 51/53/52 50/52/51
f 34/36/35 52/54/53 33/35/34
f 33/35/34 52/54/53 51/53/52
f 35/37/36 53/55/54 34/36/35
f 34/36/35 53/55/54 52/54/53
f 36/38/37 54/56/55 35/37/36
f 35/37/36 54/56/55 53/55/54
f 37/39/38 55/57/56 36/38/37
f 36/38/37 55/57/56 54/56/55
f 38/40/39 56/58/57 37/39/38
f 37/39/38 56/58/57 55/57/56
f 39/41/40 57/59/58 38/40/39
f 38/40/39 57/59/58 56/58/57
f 40/42/41 57/59/58 39/41/40
f 23/26/25 41/44/43 40/42/41
f 40/42/41 41/44/43 57/59/58
f 58/71/59 47/49/48 48/72/49
f 48/50/49 49/51/50 58/60/59
f 41/44/43 42/43/42 63/66/60
f 43/45/44 59/61/61 42/43/42
f 42/43/42 59/61/61 63/66/60
f 43/45/44 44/46/45 59/61/61
f 44/46/45 45/47/46 59/61/61
f 46/48/47 59/61/61 45/47/46
f 46/48/47 47/49/48 59/61/61
f 59/61/61 47/49/48 60/62/62
f 47/49/48 58/71/59 60/62/62
f 49/51/50 60/63/62 58/60/59
f 60/63/62 49/51/50 61/64/63
f 49/51/50 50/52/51 61/64/63
f 50/52/51 51/53/52 61/64/63
f 52/54/53 61/64/63 51/53/52
f 52/54/53 53/55/54 61/64/63
f 53/55/54 54/56/55 61/64/63
f 61/64/63 54/56/55 62/65/64
f 55/57/56 62/65/64 54/56/55
f 55/57/56 56/58/57 62/65/64
f 56/58/57 57/59/58 62/65/64
f 57/59/58 63/66/60 62/65/64
f 57/59/58 41/44/43 63/66/60
f 63/66/60 59/61/61 66/69/65
f 60/62/62 66/69/65 59/61/61
f 60/62/62 64/70/66 66/69/65
f 60/63/62 61/64/63 64/67/66
f 61/64/63 65/68/67 64/67/66
f 62/65/64 65/68/67 61/64/63
f 62/65/64 63/66/60 65/68/67
f 65/68/67 63/66/60 66/69/65
f 65/68/67 66/69/65 64/67/66
