# This file uses centimeters as units for non-parametric coordinates.

mtllib garlic_chop_3.mtl
g default
v 0.166069 0.003030 -0.100161
v 0.091326 0.003030 -0.173715
v -0.006083 0.003030 -0.143944
v -0.087717 0.003030 -0.146178
v -0.147935 0.003030 -0.085410
v -0.170821 0.003030 0.000000
v -0.130473 0.003030 0.072200
v -0.085410 0.003030 0.147935
v 0.000000 0.003030 0.170821
v 0.085410 0.003030 0.147935
v 0.121102 0.003030 0.066495
v 0.170821 0.003030 0.000000
v 0.129733 0.046271 -0.079113
v 0.069349 0.046271 -0.138088
v -0.000367 0.064182 0.001075
v -0.007577 0.046271 -0.092478
v -0.076027 0.046271 -0.105789
v -0.108973 0.046271 -0.061629
v -0.125775 0.046271 0.001075
v -0.088277 0.046271 0.048122
v -0.063071 0.046271 0.109681
v -0.000367 0.046271 0.126483
v 0.062337 0.046271 0.109681
v 0.076437 0.046271 0.041360
v 0.125041 0.046271 0.001075
vt 0.311278 0.755293
vt 0.252114 0.696130
vt 0.171296 0.674475
vt 0.090477 0.696130
vt 0.031314 0.755293
vt 0.009659 0.836112
vt 0.031314 0.916930
vt 0.090477 0.976094
vt 0.171296 0.997749
vt 0.252114 0.976094
vt 0.311278 0.916930
vt 0.332933 0.836112
vt 0.267274 0.880996
vt 0.224678 0.922248
vt 0.175499 0.824905
vt 0.170413 0.890344
vt 0.122128 0.899655
vt 0.098887 0.868766
vt 0.087035 0.824905
vt 0.113486 0.791996
vt 0.131267 0.748937
vt 0.175499 0.737184
vt 0.219732 0.748937
vt 0.229677 0.796727
vt 0.263964 0.824905
vt 0.314346 0.907945
vt 0.251855 0.968925
vt 0.170413 0.944242
vt 0.102161 0.946095
vt 0.051814 0.895715
vt 0.032680 0.824905
vt 0.066414 0.765047
vt 0.104090 0.702259
vt 0.175499 0.683286
vt 0.246909 0.702259
vt 0.276750 0.769778
vt 0.318319 0.824905
vn 0.000000 -1.000000 0.000000
vn 0.000000 -1.000000 0.000000
vn 0.000000 -1.000000 0.000000
vn 0.000000 -1.000000 0.000000
vn 0.000000 -1.000000 0.000000
vn 0.000000 -1.000000 0.000000
vn 0.000000 -1.000000 0.000000
vn 0.000000 -1.000000 0.000000
vn 0.000000 -1.000000 0.000000
vn 0.000000 -1.000000 0.000000
vn 0.000000 -1.000000 0.000000
vn 0.000000 -1.000000 0.000000
vn 0.083795 0.992782 -0.085798
vn 0.083795 0.992783 -0.085798
vn 0.083795 0.992782 -0.085798
vn -0.106175 0.978089 -0.179076
vn -0.106175 0.978089 -0.179076
vn -0.106175 0.978089 -0.179076
vn 0.037078 0.980955 -0.190665
vn 0.037078 0.980955 -0.190665
vn 0.037078 0.980955 -0.190665
vn -0.114092 0.989817 -0.085121
vn -0.114092 0.989817 -0.085121
vn -0.114092 0.989817 -0.085121
vn -0.141286 0.989245 -0.037858
vn -0.141286 0.989245 -0.037858
vn -0.141286 0.989245 -0.037858
vn -0.140498 0.983728 0.111981
vn -0.140498 0.983728 0.111981
vn -0.140498 0.983728 0.111981
vn -0.164461 0.984082 0.067339
vn -0.164461 0.984082 0.067339
vn -0.164461 0.984082 0.067339
vn -0.037857 0.989245 0.141286
vn -0.037857 0.989245 0.141286
vn -0.037857 0.989245 0.141286
vn 0.037857 0.989245 0.141286
vn 0.037857 0.989245 0.141286
vn 0.037857 0.989245 0.141286
vn 0.205733 0.977687 0.042456
vn 0.205733 0.977687 0.042456
vn 0.205733 0.977687 0.042456
vn 0.139374 0.975857 0.168159
vn 0.139374 0.975857 0.168159
vn 0.139374 0.975857 0.168159
vn 0.141382 0.989920 0.008273
vn 0.141382 0.989920 0.008273
vn 0.141382 0.989920 0.008273
vn 0.510186 0.684917 -0.520191
vn 0.510186 0.684917 -0.520191
vn 0.510186 0.684917 -0.520191
vn 0.510186 0.684917 -0.520191
vn -0.307401 0.632526 -0.710926
vn -0.307401 0.632525 -0.710926
vn -0.307400 0.632526 -0.710926
vn -0.307401 0.632525 -0.710926
vn 0.071255 0.722265 -0.687936
vn 0.071255 0.722265 -0.687936
vn 0.071255 0.722265 -0.687936
vn 0.071255 0.722265 -0.687936
vn -0.547409 0.681255 -0.486041
vn -0.547409 0.681255 -0.486041
vn -0.547409 0.681255 -0.486041
vn -0.547409 0.681255 -0.486041
vn -0.678699 0.711545 -0.181857
vn -0.678699 0.711545 -0.181857
vn -0.678699 0.711545 -0.181857
vn -0.678699 0.711545 -0.181857
vn -0.595039 0.703590 0.388445
vn -0.595039 0.703590 0.388445
vn -0.595039 0.703590 0.388445
vn -0.595039 0.703590 0.388445
vn -0.631768 0.704497 0.323347
vn -0.631768 0.704497 0.323347
vn -0.631768 0.704497 0.323347
vn -0.631768 0.704497 0.323347
vn -0.184093 0.702907 0.687045
vn -0.184093 0.702907 0.687045
vn -0.184093 0.702907 0.687045
vn -0.184093 0.702907 0.687045
vn 0.183690 0.704481 0.685539
vn 0.183690 0.704481 0.685539
vn 0.183690 0.704481 0.685539
vn 0.183690 0.704481 0.685539
vn 0.679602 0.697917 0.225946
vn 0.679602 0.697917 0.225946
vn 0.679602 0.697917 0.225946
vn 0.679602 0.697917 0.225946
vn 0.531264 0.691702 0.489190
vn 0.531264 0.691702 0.489190
vn 0.531264 0.691702 0.489190
vn 0.531264 0.691702 0.489190
vn 0.725150 0.688592 -0.000237
vn 0.725149 0.688592 -0.000237
vn 0.725149 0.688591 -0.000237
vn 0.725149 0.688591 -0.000237
s off
g Minced Garlic2
usemtl initialShadingGroup
f 1/1/1 12/12/2 11/11/3 10/10/4 9/9/5 8/8/6 7/7/7 6/6/8 5/5/9 4/4/10 3/3/11 2/2/12
f 13/13/13 14/14/14 15/15/15
f 14/14/16 16/16/17 15/15/18
f 16/16/19 17/17/20 15/15/21
f 17/17/22 18/18/23 15/15/24
f 18/18/25 19/19/26 15/15/27
f 19/19/28 20/20/29 15/15/30
f 20/20/31 21/21/32 15/15/33
f 21/21/34 22/22/35 15/15/36
f 22/22/37 23/23/38 15/15/39
f 23/23/40 24/24/41 15/15/42
f 24/24/43 25/25/44 15/15/45
f 25/25/46 13/13/47 15/15/48
f 1/26/49 2/27/50 14/14/51 13/13/52
f 2/27/53 3/28/54 16/16/55 14/14/56
f 3/28/57 4/29/58 17/17/59 16/16/60
f 4/29/61 5/30/62 18/18/63 17/17/64
f 5/30/65 6/31/66 19/19/67 18/18/68
f 6/31/69 7/32/70 20/20/71 19/19/72
f 7/32/73 8/33/74 21/21/75 20/20/76
f 8/33/77 9/34/78 22/22/79 21/21/80
f 9/34/81 10/35/82 23/23/83 22/22/84
f 10/35/85 11/36/86 24/24/87 23/23/88
f 11/36/89 12/37/90 25/25/91 24/24/92
f 12/37/93 1/26/94 13/13/95 25/25/96
