# This file uses centimeters as units for non-parametric coordinates.

mtllib garlic_chop_2.mtl
g default
v -0.009320 0.032755 -0.033063
v -0.018329 0.031007 -0.021134
v -0.047011 -0.000549 -0.080421
v -0.066848 -0.004398 -0.054153
v -0.101622 0.014815 -0.118245
v -0.121458 0.010967 -0.091977
v -0.135616 0.045012 -0.131804
v -0.150365 0.042151 -0.112274
v -0.149389 0.070295 -0.130982
v -0.158858 0.068457 -0.118442
v -0.004632 0.026763 -0.061166
v -0.042202 0.019474 -0.011415
v -0.031978 0.020242 -0.097021
v -0.082509 0.010438 -0.030107
v -0.079913 0.033728 -0.130222
v -0.130444 0.023924 -0.063308
v -0.114320 0.057623 -0.137138
v -0.151890 0.050334 -0.087388
v -0.130996 0.077064 -0.131137
v -0.155117 0.072384 -0.099195
v -0.135134 0.093168 -0.111667
v -0.130682 0.090290 -0.115075
v -0.139837 0.092256 -0.105440
v -0.142662 0.087965 -0.099210
vt 0.853008 0.309329
vt 0.853727 0.223396
vt 0.896008 0.227625
vt 0.892743 0.308738
vt 0.870473 0.158420
vt 0.904370 0.167784
vt 0.937980 0.229420
vt 0.933577 0.310279
vt 0.867861 0.371480
vt 0.898584 0.396982
vt 0.893120 0.118753
vt 0.912316 0.130481
vt 0.935635 0.169205
vt 0.891395 0.821922
vt 0.918380 0.827590
vt 0.898858 0.974188
vt 0.893538 0.977401
vt 0.946720 0.859814
vt 0.956419 0.915784
vt 0.940574 0.955664
vt 0.951911 0.122510
vt 0.931413 0.131280
vt 0.877251 0.822317
vt 0.886154 0.977607
vt 0.919090 0.398616
vt 0.975267 0.315259
vt 0.952353 0.376211
vt 0.920933 0.087707
vt 0.968116 0.164222
vt 0.909554 0.091202
vt 0.979812 0.229128
vt 0.850642 0.829550
vt 0.878564 0.974781
vt 0.824203 0.863350
vt 0.857211 0.976655
vt 0.835852 0.958688
vt 0.817739 0.919785
vt 0.920284 0.974829
vt 0.939956 0.093235
vt 0.931943 0.088885
vn 0.457631 -0.856637 0.238215
vn 0.280322 -0.933795 -0.222365
vn 0.498176 -0.858541 0.121354
vn 0.407586 -0.731327 -0.546840
vn 0.476824 -0.852648 0.213613
vn -0.000131 -0.990299 0.138951
vn -0.271790 -0.888022 0.370874
vn 0.372603 -0.884925 0.279420
vn -0.089601 -0.822178 -0.562134
vn 0.129216 -0.618447 -0.775130
vn -0.427253 -0.899270 -0.093636
vn -0.577656 -0.796433 0.178906
vn -0.359647 -0.499220 -0.788311
vn -0.089591 -0.214238 -0.972664
vn -0.749909 -0.619793 -0.231288
vn -0.855852 -0.507270 0.100969
vn -0.528696 0.244025 -0.812977
vn -0.187245 0.496938 -0.847344
vn -0.953972 0.111793 -0.278281
vn -0.940849 0.317245 0.118989
vn -0.457519 0.730872 -0.506461
vn 0.012349 0.771775 -0.635776
vn -0.702845 0.679731 -0.209700
vn -0.778860 0.622625 0.075602
vn 0.242126 0.916933 0.317189
vn 0.242126 0.916933 0.317189
vn 0.242125 0.916933 0.317189
vn 0.242125 0.916933 0.317190
vn -0.087563 0.741665 0.665030
vn -0.010069 0.785641 0.618601
vn -0.086628 0.742244 0.664507
vn 0.046464 0.812692 0.580837
vn 0.482928 0.869367 -0.104796
vn 0.482927 0.869368 -0.104793
vn 0.482825 0.869473 -0.104390
vn 0.482700 0.869601 -0.103901
vn 0.551415 0.638663 -0.536703
vn 0.551415 0.638663 -0.536703
vn 0.551415 0.638663 -0.536703
vn 0.551415 0.638663 -0.536703
vn 0.551415 0.638664 -0.536703
vn 0.551415 0.638664 -0.536703
vn -0.457789 0.366711 0.809909
vn -0.457789 0.366711 0.809909
vn -0.457789 0.366711 0.809909
vn -0.457789 0.366711 0.809909
vn -0.457788 0.366711 0.809909
vn -0.457788 0.366711 0.809909
s 1
g polySurface2 chop_1 Garlic4 Garlic2
usemtl initialShadingGroup
f 1/25/1 3/8/2 11/27/3
f 11/27/3 3/8/2 13/26/4
f 2/10/5 4/4/6 1/25/1
f 1/25/1 4/4/6 3/8/2
f 14/1/7 4/4/6 12/9/8
f 12/9/8 4/4/6 2/10/5
f 3/8/2 5/7/9 13/26/4
f 13/26/4 5/7/9 15/31/10
f 4/4/6 6/3/11 3/8/2
f 3/8/2 6/3/11 5/7/9
f 14/1/7 16/2/12 4/4/6
f 4/4/6 16/2/12 6/3/11
f 5/7/9 7/13/13 15/31/10
f 15/31/10 7/13/13 17/29/14
f 6/3/11 8/6/15 5/7/9
f 5/7/9 8/6/15 7/13/13
f 16/2/12 18/5/16 6/3/11
f 6/3/11 18/5/16 8/6/15
f 7/13/13 9/22/17 17/29/14
f 17/29/14 9/22/17 19/21/18
f 8/6/15 10/12/19 7/13/13
f 7/13/13 10/12/19 9/22/17
f 20/11/20 10/12/19 18/5/16
f 18/5/16 10/12/19 8/6/15
f 9/22/17 21/40/21 19/21/18
f 19/21/18 21/40/21 22/39/22
f 10/12/19 23/28/23 9/22/17
f 9/22/17 23/28/23 21/40/21
f 10/12/19 20/11/20 23/28/23
f 23/28/23 20/11/20 24/30/24
s 5
f 2/23/25 1/14/26 23/24/27
f 23/24/27 1/14/26 21/17/28
s 6
f 2/23/29 23/24/30 12/32/31
f 12/32/31 23/24/30 24/33/32
s 7
f 1/14/33 11/15/34 21/17/35
f 21/17/35 11/15/34 22/16/36
s 8
f 11/15/37 13/18/38 22/16/39
f 13/18/38 15/19/40 22/16/39
f 22/16/39 15/19/40 19/38/41
f 15/19/40 17/20/42 19/38/41
s 9
f 12/32/43 24/33/44 14/34/45
f 14/34/45 24/33/44 16/37/46
f 24/33/44 20/35/47 16/37/46
f 20/35/47 18/36/48 16/37/46
g default
v 0.017702 0.032755 -0.075949
v 0.002784 0.031007 -0.075003
v 0.029039 -0.000549 -0.135403
v -0.003811 -0.004398 -0.133319
v 0.022117 0.014815 -0.201472
v -0.010734 0.010967 -0.199388
v 0.010235 0.045012 -0.236088
v -0.014189 0.042151 -0.234539
v 0.000633 0.070295 -0.245995
v -0.015048 0.068457 -0.245000
v 0.042068 0.026763 -0.090715
v -0.020150 0.019474 -0.086768
v 0.051427 0.020242 -0.134827
v -0.032255 0.010438 -0.129518
v 0.045351 0.033728 -0.192820
v -0.038331 0.023924 -0.187511
v 0.028164 0.057623 -0.223418
v -0.034054 0.050334 -0.219471
v 0.012742 0.077064 -0.232150
v -0.027204 0.072384 -0.229616
v -0.004719 0.093168 -0.222594
v 0.000768 0.090290 -0.221440
v -0.012508 0.092256 -0.222100
v -0.019073 0.087965 -0.220182
vt 0.853008 0.309329
vt 0.853727 0.223396
vt 0.896008 0.227625
vt 0.892743 0.308738
vt 0.870473 0.158420
vt 0.904370 0.167784
vt 0.937980 0.229420
vt 0.933577 0.310279
vt 0.867861 0.371480
vt 0.898584 0.396982
vt 0.893120 0.118753
vt 0.912316 0.130481
vt 0.935635 0.169205
vt 0.891395 0.821922
vt 0.918380 0.827590
vt 0.898858 0.974188
vt 0.893538 0.977401
vt 0.946720 0.859814
vt 0.956419 0.915784
vt 0.940574 0.955664
vt 0.951911 0.122510
vt 0.931413 0.131280
vt 0.877251 0.822317
vt 0.886154 0.977607
vt 0.919090 0.398616
vt 0.975267 0.315259
vt 0.952352 0.376211
vt 0.920933 0.087707
vt 0.968116 0.164222
vt 0.909554 0.091202
vt 0.979812 0.229128
vt 0.850642 0.829550
vt 0.878564 0.974781
vt 0.824203 0.863350
vt 0.857211 0.976655
vt 0.835852 0.958688
vt 0.817739 0.919785
vt 0.920284 0.974829
vt 0.939956 0.093235
vt 0.931943 0.088885
vn 0.117722 -0.856637 0.502309
vn 0.351367 -0.933795 0.067588
vn 0.232767 -0.858541 0.456866
vn 0.680374 -0.731327 -0.047454
vn 0.148889 -0.852648 0.500823
vn -0.105447 -0.990299 0.090489
vn -0.458413 -0.888022 0.035702
vn 0.031043 -0.884925 0.464698
vn 0.367831 -0.822178 -0.434423
vn 0.671995 -0.618447 -0.407364
vn -0.207546 -0.899270 -0.385016
vn -0.512260 -0.796433 -0.321378
vn 0.363276 -0.499220 -0.786645
vn 0.679127 -0.214238 -0.702060
vn -0.313524 -0.619793 -0.719416
vn -0.634532 -0.507270 -0.583135
vn 0.271769 0.244025 -0.930910
vn 0.520437 0.496938 -0.694405
vn -0.410929 0.111793 -0.904787
vn -0.703610 0.317245 -0.635837
vn 0.085753 0.730872 -0.677106
vn 0.490137 0.771775 -0.405129
vn -0.299211 0.679731 -0.669656
vn -0.565102 0.622625 -0.541293
vn -0.082660 0.916933 0.390386
vn -0.082660 0.916933 0.390386
vn -0.082660 0.916933 0.390386
vn -0.082660 0.916933 0.390386
vn -0.561355 0.741665 0.367169
vn -0.475627 0.785641 0.395661
vn -0.560349 0.742244 0.367537
vn -0.410136 0.812692 0.413907
vn 0.394307 0.869367 0.297865
vn 0.394304 0.869368 0.297866
vn 0.393932 0.869473 0.298051
vn 0.393480 0.869601 0.298276
vn 0.766456 0.638663 0.068216
vn 0.766456 0.638663 0.068216
vn 0.766457 0.638663 0.068216
vn 0.766456 0.638664 0.068216
vn 0.766456 0.638664 0.068216
vn 0.766456 0.638664 0.068216
vn -0.912579 0.366711 0.180894
vn -0.912579 0.366711 0.180894
vn -0.912579 0.366711 0.180894
vn -0.912579 0.366711 0.180894
vn -0.912579 0.366711 0.180894
vn -0.912579 0.366711 0.180895
s 1
g chop_1 Garlic4 Garlic2 polySurface8
usemtl initialShadingGroup
f 25/65/49 27/48/50 35/67/51
f 35/67/51 27/48/50 37/66/52
f 26/50/53 28/44/54 25/65/49
f 25/65/49 28/44/54 27/48/50
f 38/41/55 28/44/54 36/49/56
f 36/49/56 28/44/54 26/50/53
f 27/48/50 29/47/57 37/66/52
f 37/66/52 29/47/57 39/71/58
f 28/44/54 30/43/59 27/48/50
f 27/48/50 30/43/59 29/47/57
f 38/41/55 40/42/60 28/44/54
f 28/44/54 40/42/60 30/43/59
f 29/47/57 31/53/61 39/71/58
f 39/71/58 31/53/61 41/69/62
f 30/43/59 32/46/63 29/47/57
f 29/47/57 32/46/63 31/53/61
f 40/42/60 42/45/64 30/43/59
f 30/43/59 42/45/64 32/46/63
f 31/53/61 33/62/65 41/69/62
f 41/69/62 33/62/65 43/61/66
f 32/46/63 34/52/67 31/53/61
f 31/53/61 34/52/67 33/62/65
f 44/51/68 34/52/67 42/45/64
f 42/45/64 34/52/67 32/46/63
f 33/62/65 45/80/69 43/61/66
f 43/61/66 45/80/69 46/79/70
f 34/52/67 47/68/71 33/62/65
f 33/62/65 47/68/71 45/80/69
f 34/52/67 44/51/68 47/68/71
f 47/68/71 44/51/68 48/70/72
s 5
f 26/63/73 25/54/74 47/64/75
f 47/64/75 25/54/74 45/57/76
s 6
f 26/63/77 47/64/78 36/72/79
f 36/72/79 47/64/78 48/73/80
s 7
f 25/54/81 35/55/82 45/57/83
f 45/57/83 35/55/82 46/56/84
s 8
f 35/55/85 37/58/86 46/56/87
f 37/58/86 39/59/88 46/56/87
f 46/56/87 39/59/88 43/78/89
f 39/59/88 41/60/90 43/78/89
s 9
f 36/72/91 48/73/92 38/74/93
f 38/74/93 48/73/92 40/77/94
f 48/73/92 44/75/95 40/77/94
f 44/75/95 42/76/96 40/77/94
g default
v 0.029209 0.003030 0.055907
v -0.008124 0.003030 0.061586
v -0.095548 0.003030 0.088306
v -0.168813 0.003030 0.086301
v -0.222858 0.003030 0.076701
v -0.243397 0.003030 0.110540
v -0.207186 0.003030 0.175339
v -0.166743 0.003030 0.243310
v -0.090088 0.003030 0.263849
v -0.013433 0.003030 0.243310
v 0.018600 0.003030 0.170218
v 0.063222 0.003030 0.110540
v -0.090417 0.064182 0.160164
v -0.202969 0.046271 0.111504
v -0.169315 0.046271 0.153729
v -0.146693 0.046271 0.208978
v -0.090417 0.046271 0.224057
v -0.034141 0.046271 0.208978
v -0.021487 0.046271 0.147660
v 0.022135 0.046271 0.111504
vt 0.311278 0.755293
vt 0.252114 0.696130
vt 0.171296 0.674475
vt 0.090477 0.696130
vt 0.031314 0.755293
vt 0.009659 0.836112
vt 0.031314 0.916930
vt 0.090477 0.976094
vt 0.171296 0.997749
vt 0.252114 0.976094
vt 0.311278 0.916930
vt 0.332933 0.836112
vt 0.175499 0.824905
vt 0.087035 0.824905
vt 0.113486 0.791996
vt 0.131267 0.748937
vt 0.175499 0.737184
vt 0.219732 0.748937
vt 0.229677 0.796727
vt 0.263964 0.824905
vt 0.032680 0.824905
vt 0.066414 0.765047
vt 0.104090 0.702259
vt 0.175499 0.683286
vt 0.246909 0.702259
vt 0.276750 0.769778
vt 0.318319 0.824905
vn 0.000000 -1.000000 0.000000
vn 0.000000 -1.000000 0.000000
vn 0.000000 -1.000000 0.000000
vn 0.000000 -1.000000 0.000000
vn 0.000000 -1.000000 -0.000000
vn 0.000000 -1.000000 -0.000000
vn 0.000000 -1.000000 -0.000000
vn 0.000000 -1.000000 0.000000
vn 0.000000 -1.000000 0.000000
vn 0.000000 -1.000000 -0.000000
vn 0.000000 -1.000000 0.000000
vn 0.000000 -1.000000 -0.000001
vn -0.231879 0.955027 0.184814
vn -0.231879 0.955027 0.184814
vn -0.231879 0.955027 0.184814
vn -0.227641 0.969274 0.093209
vn -0.227641 0.969274 0.093209
vn -0.227641 0.969274 0.093209
vn -0.072138 0.960373 0.269222
vn -0.072138 0.960373 0.269222
vn -0.072138 0.960373 0.269222
vn 0.072138 0.960373 0.269221
vn 0.072138 0.960373 0.269221
vn 0.072138 0.960373 0.269221
vn 0.260243 0.964048 0.053705
vn 0.260243 0.964048 0.053705
vn 0.260243 0.964048 0.053705
vn 0.294978 0.886748 0.355901
vn 0.294979 0.886748 0.355901
vn 0.294979 0.886748 0.355901
vn -0.679901 0.627196 0.379948
vn -0.624819 0.664966 0.409172
vn -0.634442 0.658778 0.404344
vn -0.553964 0.705818 0.441525
vn -0.669605 0.626809 0.398421
vn -0.665943 0.657596 0.352259
vn -0.664051 0.668557 0.334766
vn -0.654422 0.707058 0.267959
vn -0.193633 0.663542 0.722647
vn -0.193633 0.663541 0.722647
vn -0.193633 0.663542 0.722647
vn -0.193632 0.663542 0.722647
vn 0.193254 0.665186 0.721235
vn 0.193254 0.665186 0.721235
vn 0.193254 0.665186 0.721235
vn 0.193254 0.665186 0.721235
vn 0.730150 0.603726 0.319994
vn 0.711746 0.664816 0.226796
vn 0.717873 0.648399 0.253449
vn 0.687906 0.711781 0.141960
vn 0.641440 0.598775 0.479607
vn 0.569343 0.645209 0.509463
vn 0.553094 0.654575 0.515382
vn 0.452756 0.704706 0.546261
vn 0.656957 0.633342 -0.409006
vn 0.285451 0.773779 -0.565495
vn 0.013027 0.792950 -0.609147
vn -0.159312 0.791944 -0.589444
vn -0.664009 0.629804 -0.403037
vn 0.112254 0.641574 -0.758803
vn -0.252840 0.674544 -0.693586
vn 0.150276 0.661522 -0.734714
vn -0.056966 0.745161 -0.664447
vn -0.087555 0.767132 -0.635486
s 1
g Garlic4 Garlic2 Minced1
usemtl initialShadingGroup
f 60/92/97 59/91/98 49/81/99
f 49/81/99 59/91/98 50/82/100
f 50/82/100 59/91/98 51/83/101
f 59/91/98 58/90/102 51/83/101
f 58/90/102 57/89/103 51/83/101
f 57/89/103 56/88/104 51/83/101
f 56/88/104 55/87/105 51/83/101
f 51/83/101 55/87/105 52/84/106
f 55/87/105 54/86/107 52/84/106
f 54/86/107 53/85/108 52/84/106
s off
f 62/94/109 63/95/110 61/93/111
f 63/95/112 64/96/113 61/93/114
f 64/96/115 65/97/116 61/93/117
f 65/97/118 66/98/119 61/93/120
f 66/98/121 67/99/122 61/93/123
f 67/99/124 68/100/125 61/93/126
s 2
f 54/101/127 55/102/128 62/94/129
f 62/94/129 55/102/128 63/95/130
s 3
f 56/103/131 64/96/132 55/102/133
f 55/102/133 64/96/132 63/95/134
s 4
f 57/104/135 65/97/136 56/103/137
f 56/103/137 65/97/136 64/96/138
s 5
f 58/105/139 66/98/140 57/104/141
f 57/104/141 66/98/140 65/97/142
s 6
f 58/105/143 59/106/144 66/98/145
f 66/98/145 59/106/144 67/99/146
s 7
f 60/107/147 68/100/148 59/106/149
f 59/106/149 68/100/148 67/99/150
s 8
f 60/92/151 49/81/152 68/100/153
f 49/81/152 50/82/154 68/100/153
f 54/101/155 62/94/156 53/85/157
f 53/85/157 62/94/156 52/84/158
f 62/94/156 61/93/159 52/84/158
f 52/84/158 61/93/159 51/83/160
f 61/93/159 68/100/153 51/83/160
f 50/82/154 51/83/160 68/100/153
g default
v 0.055170 0.032755 -0.044326
v 0.044456 0.031007 -0.054750
v 0.106852 -0.000549 -0.075827
v 0.083258 -0.004398 -0.098780
v 0.151182 0.014815 -0.125303
v 0.127588 0.010967 -0.148256
v 0.168868 0.045012 -0.157345
v 0.151326 0.042151 -0.174410
v 0.169766 0.070295 -0.171112
v 0.158504 0.068457 -0.182069
v 0.082470 0.026763 -0.036175
v 0.037785 0.019474 -0.079647
v 0.121451 0.020242 -0.058844
v 0.061350 0.010438 -0.117313
v 0.160363 0.033728 -0.102272
v 0.100261 0.023924 -0.160742
v 0.171509 0.057623 -0.135550
v 0.126823 0.050334 -0.179022
v 0.167630 0.077064 -0.152843
v 0.138941 0.072384 -0.180754
v 0.148828 0.093168 -0.159373
v 0.151655 0.090290 -0.154531
v 0.143234 0.092256 -0.164815
v 0.137405 0.087965 -0.168394
vt 0.853008 0.309329
vt 0.853727 0.223396
vt 0.896008 0.227625
vt 0.892743 0.308738
vt 0.870473 0.158420
vt 0.904370 0.167784
vt 0.937980 0.229420
vt 0.933577 0.310279
vt 0.867861 0.371480
vt 0.898584 0.396982
vt 0.893120 0.118753
vt 0.912316 0.130481
vt 0.935635 0.169205
vt 0.891395 0.821922
vt 0.918380 0.827590
vt 0.898858 0.974188
vt 0.893538 0.977401
vt 0.946720 0.859814
vt 0.956419 0.915784
vt 0.940574 0.955664
vt 0.951911 0.122510
vt 0.931413 0.131280
vt 0.877251 0.822317
vt 0.886154 0.977607
vt 0.919090 0.398616
vt 0.975267 0.315259
vt 0.952352 0.376211
vt 0.920933 0.087707
vt 0.968116 0.164222
vt 0.909554 0.091202
vt 0.979812 0.229128
vt 0.850642 0.829550
vt 0.878564 0.974781
vt 0.824203 0.863350
vt 0.857211 0.976655
vt 0.835852 0.958688
vt 0.817739 0.919785
vt 0.920284 0.974829
vt 0.939956 0.093235
vt 0.931943 0.088885
vn -0.293342 -0.856637 0.424409
vn 0.185731 -0.933795 0.305828
vn -0.182438 -0.858541 0.479190
vn 0.491836 -0.731327 0.472502
vn -0.271321 -0.852648 0.446516
vn -0.137853 -0.990299 -0.017431
vn -0.334147 -0.888022 -0.315853
vn -0.323639 -0.884925 0.334912
vn 0.568916 -0.822178 -0.018911
vn 0.753009 -0.618447 0.224723
vn 0.146105 -0.899270 -0.412270
vn -0.105589 -0.796433 -0.595437
vn 0.826956 -0.499220 -0.258695
vn 0.976250 -0.214238 0.032214
vn 0.322860 -0.619793 -0.715275
vn 0.006380 -0.507270 -0.861763
vn 0.872480 0.244026 -0.423357
vn 0.864064 0.496938 -0.080284
vn 0.394896 0.111793 -0.911899
vn -0.000917 0.317245 -0.948343
vn 0.559486 0.730872 -0.390898
vn 0.629291 0.771775 0.091415
vn 0.295580 0.679731 -0.671266
vn 0.021963 0.622625 -0.782212
vn -0.344868 0.916933 0.200748
vn -0.344868 0.916933 0.200748
vn -0.344869 0.916933 0.200748
vn -0.344869 0.916933 0.200748
vn -0.648953 0.741665 -0.169685
vn -0.612533 0.785641 -0.087013
vn -0.648550 0.742244 -0.168693
vn -0.582103 0.812692 -0.026219
vn 0.043851 0.869367 0.492218
vn 0.043848 0.869368 0.492217
vn 0.043461 0.869473 0.492065
vn 0.042991 0.869601 0.491881
vn 0.463869 0.638663 0.613950
vn 0.463869 0.638663 0.613950
vn 0.463869 0.638663 0.613950
vn 0.463869 0.638664 0.613950
vn 0.463869 0.638664 0.613950
vn 0.463869 0.638664 0.613950
vn -0.746607 0.366711 -0.555069
vn -0.746607 0.366711 -0.555069
vn -0.746607 0.366711 -0.555069
vn -0.746607 0.366711 -0.555069
vn -0.746607 0.366711 -0.555069
vn -0.746607 0.366711 -0.555068
s 1
g chop_1 Garlic4 Garlic2 polySurface7
usemtl initialShadingGroup
f 69/132/161 71/115/162 79/134/163
f 79/134/163 71/115/162 81/133/164
f 70/117/165 72/111/166 69/132/161
f 69/132/161 72/111/166 71/115/162
f 82/108/167 72/111/166 80/116/168
f 80/116/168 72/111/166 70/117/165
f 71/115/162 73/114/169 81/133/164
f 81/133/164 73/114/169 83/138/170
f 72/111/166 74/110/171 71/115/162
f 71/115/162 74/110/171 73/114/169
f 82/108/167 84/109/172 72/111/166
f 72/111/166 84/109/172 74/110/171
f 73/114/169 75/120/173 83/138/170
f 83/138/170 75/120/173 85/136/174
f 74/110/171 76/113/175 73/114/169
f 73/114/169 76/113/175 75/120/173
f 84/109/172 86/112/176 74/110/171
f 74/110/171 86/112/176 76/113/175
f 75/120/173 77/129/177 85/136/174
f 85/136/174 77/129/177 87/128/178
f 76/113/175 78/119/179 75/120/173
f 75/120/173 78/119/179 77/129/177
f 88/118/180 78/119/179 86/112/176
f 86/112/176 78/119/179 76/113/175
f 77/129/177 89/147/181 87/128/178
f 87/128/178 89/147/181 90/146/182
f 78/119/179 91/135/183 77/129/177
f 77/129/177 91/135/183 89/147/181
f 78/119/179 88/118/180 91/135/183
f 91/135/183 88/118/180 92/137/184
s 5
f 70/130/185 69/121/186 91/131/187
f 91/131/187 69/121/186 89/124/188
s 6
f 70/130/189 91/131/190 80/139/191
f 80/139/191 91/131/190 92/140/192
s 7
f 69/121/193 79/122/194 89/124/195
f 89/124/195 79/122/194 90/123/196
s 8
f 79/122/197 81/125/198 90/123/199
f 81/125/198 83/126/200 90/123/199
f 90/123/199 83/126/200 87/145/201
f 83/126/200 85/127/202 87/145/201
s 9
f 80/139/203 92/140/204 82/141/205
f 82/141/205 92/140/204 84/144/206
f 92/140/204 88/142/207 84/144/206
f 88/142/207 86/143/208 84/144/206
g default
v 0.069424 0.032755 -0.000559
v 0.071214 0.031007 -0.015400
v 0.125814 -0.000549 0.021429
v 0.129755 -0.004398 -0.011251
v 0.192037 0.014815 0.026670
v 0.195978 0.010967 -0.006010
v 0.228240 0.045012 0.021300
v 0.231170 0.042151 -0.002997
v 0.239731 0.070295 0.013665
v 0.241613 0.068457 -0.001935
v 0.079500 0.026763 0.026091
v 0.086964 0.019474 -0.035803
v 0.121165 0.020242 0.043337
v 0.131204 0.010438 -0.039910
v 0.179293 0.033728 0.047937
v 0.189333 0.023924 -0.035310
v 0.212513 0.057623 0.036617
v 0.219977 0.050334 -0.025277
v 0.223910 0.077064 0.023046
v 0.228702 0.072384 -0.016692
v 0.217699 0.093168 0.004136
v 0.215564 0.090290 0.009320
v 0.218633 0.092256 -0.003612
v 0.217944 0.087965 -0.010417
vt 0.853008 0.309329
vt 0.853727 0.223396
vt 0.896008 0.227625
vt 0.892743 0.308738
vt 0.870473 0.158420
vt 0.904370 0.167784
vt 0.937980 0.229420
vt 0.933577 0.310279
vt 0.867861 0.371480
vt 0.898584 0.396982
vt 0.893120 0.118753
vt 0.912316 0.130481
vt 0.935635 0.169205
vt 0.891395 0.821922
vt 0.918380 0.827590
vt 0.898858 0.974188
vt 0.893538 0.977401
vt 0.946720 0.859814
vt 0.956419 0.915784
vt 0.940574 0.955664
vt 0.951911 0.122510
vt 0.931413 0.131280
vt 0.877251 0.822317
vt 0.886154 0.977607
vt 0.919090 0.398616
vt 0.975267 0.315259
vt 0.952352 0.376211
vt 0.920933 0.087707
vt 0.968116 0.164222
vt 0.909554 0.091202
vt 0.979812 0.229128
vt 0.850642 0.829550
vt 0.878564 0.974781
vt 0.824203 0.863350
vt 0.857211 0.976655
vt 0.835852 0.958688
vt 0.817739 0.919785
vt 0.920284 0.974829
vt 0.939956 0.093235
vt 0.931943 0.088885
vn -0.515353 -0.856637 0.024156
vn -0.130524 -0.933795 0.333152
vn -0.491650 -0.858541 0.145558
vn -0.077403 -0.731327 0.677620
vn -0.519575 -0.852648 0.055072
vn -0.069745 -0.990299 -0.120179
vn 0.048485 -0.888022 -0.457237
vn -0.462568 -0.884925 -0.054211
vn 0.360069 -0.822178 0.440878
vn 0.278001 -0.618447 0.735009
vn 0.416406 -0.899270 -0.133862
vn 0.409397 -0.796433 -0.445071
vn 0.707216 -0.499220 0.500625
vn 0.566456 -0.214238 0.795757
vn 0.764524 -0.619793 -0.177088
vn 0.689061 -0.507270 -0.517564
vn 0.865748 0.244025 0.436958
vn 0.587866 0.496938 0.638331
vn 0.964548 0.111793 -0.239059
vn 0.753475 0.317245 -0.575874
vn 0.650118 0.730872 0.207781
vn 0.308964 0.771775 0.555792
vn 0.712988 0.679731 -0.172088
vn 0.635260 0.622625 -0.456928
vn -0.368769 0.916933 -0.152458
vn -0.368769 0.916933 -0.152458
vn -0.368769 0.916933 -0.152458
vn -0.368769 0.916933 -0.152458
vn -0.258655 0.741665 -0.618894
vn -0.302300 0.785641 -0.539799
vn -0.259200 0.742244 -0.617972
vn -0.332183 0.812692 -0.478733
vn -0.364770 0.869367 0.333383
vn -0.364771 0.869368 0.333380
vn -0.364885 0.869473 0.332980
vn -0.365023 0.869601 0.332495
vn -0.206830 0.638663 0.741168
vn -0.206830 0.638663 0.741168
vn -0.206830 0.638663 0.741168
vn -0.206830 0.638664 0.741168
vn -0.206830 0.638664 0.741168
vn -0.206830 0.638664 0.741168
vn -0.011459 0.366711 -0.930265
vn -0.011459 0.366711 -0.930264
vn -0.011459 0.366711 -0.930265
vn -0.011459 0.366711 -0.930264
vn -0.011459 0.366711 -0.930264
vn -0.011460 0.366711 -0.930264
s 1
g chop_1 Garlic4 Garlic2 polySurface6
usemtl initialShadingGroup
f 93/172/209 95/155/210 103/174/211
f 103/174/211 95/155/210 105/173/212
f 94/157/213 96/151/214 93/172/209
f 93/172/209 96/151/214 95/155/210
f 106/148/215 96/151/214 104/156/216
f 104/156/216 96/151/214 94/157/213
f 95/155/210 97/154/217 105/173/212
f 105/173/212 97/154/217 107/178/218
f 96/151/214 98/150/219 95/155/210
f 95/155/210 98/150/219 97/154/217
f 106/148/215 108/149/220 96/151/214
f 96/151/214 108/149/220 98/150/219
f 97/154/217 99/160/221 107/178/218
f 107/178/218 99/160/221 109/176/222
f 98/150/219 100/153/223 97/154/217
f 97/154/217 100/153/223 99/160/221
f 108/149/220 110/152/224 98/150/219
f 98/150/219 110/152/224 100/153/223
f 99/160/221 101/169/225 109/176/222
f 109/176/222 101/169/225 111/168/226
f 100/153/223 102/159/227 99/160/221
f 99/160/221 102/159/227 101/169/225
f 112/158/228 102/159/227 110/152/224
f 110/152/224 102/159/227 100/153/223
f 101/169/225 113/187/229 111/168/226
f 111/168/226 113/187/229 114/186/230
f 102/159/227 115/175/231 101/169/225
f 101/169/225 115/175/231 113/187/229
f 102/159/227 112/158/228 115/175/231
f 115/175/231 112/158/228 116/177/232
s 5
f 94/170/233 93/161/234 115/171/235
f 115/171/235 93/161/234 113/164/236
s 6
f 94/170/237 115/171/238 104/179/239
f 104/179/239 115/171/238 116/180/240
s 7
f 93/161/241 103/162/242 113/164/243
f 113/164/243 103/162/242 114/163/244
s 8
f 103/162/245 105/165/246 114/163/247
f 105/165/246 107/166/248 114/163/247
f 114/163/247 107/166/248 111/185/249
f 107/166/248 109/167/250 111/185/249
s 9
f 104/179/251 116/180/252 106/181/253
f 106/181/253 116/180/252 108/184/254
f 116/180/252 112/182/255 108/184/254
f 112/182/255 110/183/256 108/184/254
