# This file uses centimeters as units for non-parametric coordinates.

mtllib garlic.mtl
g default
v 0.047849 0.011957 -0.014917
v 0.042714 0.019800 -0.056121
v 0.016856 0.011957 -0.045909
v 0.001940 0.011957 -0.048272
v -0.019497 0.019800 -0.065974
v -0.026434 0.011957 -0.039053
v -0.037113 0.011957 -0.028373
v -0.064034 0.019800 -0.021436
v -0.046332 0.011957 -0.000000
v -0.068278 0.017956 0.018503
v -0.037113 0.011957 0.028373
v -0.038834 0.019800 0.056121
v -0.012977 0.011957 0.045909
v 0.001940 0.011957 0.048272
v 0.023376 0.019800 0.065974
v 0.030313 0.011957 0.039053
v 0.040992 0.011957 0.028373
v 0.067913 0.019800 0.021436
v 0.050211 0.011957 -0.000000
v 0.103031 0.048078 -0.032847
v 0.053601 0.051506 -0.066233
v 0.034786 0.048078 -0.101091
v 0.001940 0.048078 -0.106294
v -0.026892 0.051506 -0.088734
v -0.060538 0.048078 -0.085993
v -0.084054 0.048078 -0.062478
v -0.086795 0.051506 -0.028832
v -0.104354 0.048078 0.000000
v -0.099152 0.048078 0.032847
v -0.084054 0.048078 0.062478
v -0.052901 0.051506 0.075482
v -0.030907 0.048078 0.101091
v 0.001940 0.048078 0.106294
v 0.030771 0.051506 0.088734
v 0.064418 0.048078 0.085993
v 0.087933 0.048078 0.062478
v 0.090674 0.051506 0.028832
v 0.108233 0.048078 0.000000
v 0.103031 0.104157 -0.032847
v 0.053601 0.100729 -0.066233
v 0.034786 0.104157 -0.101091
v 0.001940 0.104157 -0.106294
v -0.026892 0.100729 -0.088734
v -0.060538 0.104157 -0.085993
v -0.084054 0.104157 -0.062478
v -0.086795 0.100729 -0.028832
v -0.104354 0.104157 0.000000
v -0.099152 0.104157 0.032847
v -0.084054 0.104157 0.062478
v -0.052901 0.100729 0.075482
v -0.030907 0.104157 0.101091
v 0.001940 0.104157 0.106294
v 0.030771 0.100729 0.088734
v 0.064418 0.104157 0.085993
v 0.087933 0.104157 0.062478
v 0.090674 0.100729 0.028832
v 0.108233 0.104157 0.000000
v 0.077101 0.140278 -0.024421
v 0.039534 0.132435 -0.046872
v 0.026361 0.140278 -0.075161
v 0.001940 0.140278 -0.079029
v -0.019497 0.132435 -0.065974
v -0.044512 0.140278 -0.063936
v -0.061996 0.140278 -0.046452
v -0.064034 0.132435 -0.021436
v -0.077089 0.140278 0.000000
v -0.073221 0.140278 0.024421
v -0.061996 0.140278 0.046452
v -0.038834 0.132435 0.056121
v -0.022482 0.140278 0.075161
v 0.001940 0.140278 0.079029
v 0.023376 0.132435 0.065974
v 0.048392 0.140278 0.063936
v 0.065875 0.140278 0.046452
v 0.067913 0.132435 0.021436
v 0.080969 0.140278 0.000000
v 0.050196 0.155679 -0.015679
v 0.028118 0.145797 -0.036032
v 0.017619 0.155679 -0.048256
v 0.001940 0.155679 -0.050740
v -0.011823 0.145797 -0.042358
v -0.027884 0.155679 -0.041049
v -0.039110 0.155679 -0.029824
v -0.040418 0.145797 -0.013763
v -0.048800 0.155679 0.000000
v -0.046317 0.155679 0.015679
v -0.039110 0.155679 0.029824
v -0.024239 0.145797 0.036032
v -0.013740 0.155679 0.048256
v 0.001940 0.155679 0.050740
v 0.015703 0.145797 0.042358
v 0.031764 0.155679 0.041049
v 0.042989 0.155679 0.029824
v 0.044297 0.145797 0.013763
v 0.052679 0.155679 0.000000
v 0.025908 0.158448 -0.007788
v 0.014942 0.150751 -0.017896
v 0.009727 0.158448 -0.023968
v 0.001940 0.158448 -0.025201
v -0.004896 0.150751 -0.021038
v -0.012873 0.158448 -0.020388
v -0.018449 0.158448 -0.014813
v -0.019099 0.150751 -0.006836
v -0.023262 0.158448 -0.000000
v -0.022028 0.158448 0.007788
v -0.018449 0.158448 0.014813
v -0.011063 0.150751 0.017896
v -0.005848 0.158448 0.023968
v 0.001940 0.158448 0.025201
v 0.008775 0.150751 0.021038
v 0.016753 0.158448 0.020388
v 0.022328 0.158448 0.014813
v 0.022978 0.150751 0.006836
v 0.027141 0.158448 -0.000000
v 0.018568 0.213817 -0.005403
v 0.010960 0.205705 -0.012416
v 0.007342 0.209522 -0.016628
v 0.001940 0.213817 -0.017484
v -0.002803 0.205705 -0.014595
v -0.008337 0.213817 -0.014145
v -0.012205 0.209001 -0.010277
v -0.012656 0.205705 -0.004742
v -0.015544 0.209546 0.000000
v -0.014688 0.213817 0.005403
v -0.012205 0.209368 0.010277
v -0.007081 0.205705 0.012416
v -0.003463 0.208539 0.016628
v 0.001940 0.213817 0.017484
v 0.006682 0.205705 0.014595
v 0.012216 0.213817 0.014145
v 0.016084 0.208526 0.010277
v 0.016535 0.205705 0.004742
v 0.019423 0.210390 0.000000
v 0.001940 0.008041 -0.000000
v 0.001940 0.215007 -0.000000
vt 0.537903 0.677178
vt 0.575534 0.642940
vt 0.543844 0.763462
vt 0.512024 0.682329
vt 0.464474 0.662360
vt 0.470991 0.714132
vt 0.459994 0.738464
vt 0.416240 0.766857
vt 0.461936 0.792805
vt 0.436886 0.838511
vt 0.495742 0.836003
vt 0.509785 0.886332
vt 0.548190 0.850584
vt 0.574502 0.844928
vt 0.623023 0.864004
vt 0.616057 0.812238
vt 0.627125 0.787649
vt 0.670919 0.758630
vt 0.625495 0.732349
vt 0.612602 0.708484
vt 0.876035 0.447132
vt 0.834519 0.359509
vt 0.913545 0.502493
vt 0.934086 0.554228
vt 0.943933 0.608781
vt 0.965329 0.660922
vt 0.975107 0.714704
vt 0.282696 0.017300
vt 0.338392 0.020706
vt 0.391704 0.034914
vt 0.443960 0.053641
vt 0.491780 0.081988
vt 0.545808 0.100133
vt 0.593548 0.128688
vt 0.634879 0.165945
vt 0.684236 0.194438
vt 0.725364 0.231885
vt 0.758511 0.276596
vt 0.801358 0.314365
vt 0.790549 0.494857
vt 0.746979 0.417891
vt 0.817670 0.545430
vt 0.835644 0.589648
vt 0.851502 0.636636
vt 0.862453 0.685160
vt 0.871605 0.733009
vt 0.262492 0.115095
vt 0.312327 0.124812
vt 0.359518 0.136409
vt 0.405267 0.151740
vt 0.451483 0.170197
vt 0.495123 0.193297
vt 0.536633 0.217286
vt 0.578048 0.244519
vt 0.616149 0.275800
vt 0.652029 0.307511
vt 0.687185 0.342329
vt 0.718252 0.380294
vt 0.388111 0.558543
vt 0.452783 0.463932
vt 0.345330 0.631289
vt 0.284826 0.654639
vt 0.213564 0.651162
vt 0.141928 0.641615
vt 0.086664 0.603933
vt 0.049030 0.541252
vt 0.013829 0.477112
vt 0.009605 0.410501
vt 0.029294 0.347233
vt 0.076574 0.294233
vt 0.127755 0.244653
vt 0.189379 0.224450
vt 0.258648 0.232119
vt 0.327590 0.243512
vt 0.380006 0.280258
vt 0.415322 0.339794
vt 0.448369 0.400451
vt 0.337488 0.528165
vt 0.369892 0.457266
vt 0.301764 0.560350
vt 0.267419 0.574708
vt 0.220076 0.574799
vt 0.173283 0.565739
vt 0.142218 0.544602
vt 0.117582 0.503102
vt 0.095412 0.460023
vt 0.091553 0.422554
vt 0.100666 0.386460
vt 0.130256 0.348929
vt 0.165703 0.318025
vt 0.199997 0.305369
vt 0.246912 0.307989
vt 0.292373 0.318420
vt 0.322688 0.338688
vt 0.348558 0.377767
vt 0.367742 0.420473
vt 0.722507 0.169358
vt 0.759190 0.186516
vt 0.730437 0.142054
vt 0.721797 0.126186
vt 0.694496 0.118244
vt 0.705434 0.092000
vt 0.698493 0.075318
vt 0.915913 0.350402
vt 0.909120 0.322794
vt 0.893700 0.313377
vt 0.878610 0.303440
vt 0.850737 0.309051
vt 0.848269 0.280726
vt 0.834501 0.269026
vt 0.806171 0.271439
vt 0.806933 0.243017
vt 0.794452 0.229952
vt 0.766032 0.229135
vt 0.770014 0.200983
vt 0.984110 0.099721
vt 0.989603 0.074348
vt 0.960772 0.111558
vt 0.835107 0.050945
vt 0.940453 0.111603
vt 0.832281 0.022648
vt 0.916781 0.099815
vt 0.982473 0.197359
vt 0.911305 0.073619
vt 0.960554 0.184043
vt 0.917019 0.047497
vt 0.938408 0.170372
vt 0.940847 0.035924
vt 0.913147 0.158052
vt 0.961190 0.036152
vt 0.899351 0.133574
vt 0.984653 0.048151
vt 0.886579 0.110319
vt 0.950562 0.073795
vt 0.856648 0.070178
vt 0.182637 0.468834
vt 0.334360 0.768992
vt 0.308261 0.433372
vt 0.308578 0.451934
vt 0.292750 0.409544
vt 0.281233 0.383813
vt 0.265745 0.373839
vt 0.237490 0.371354
vt 0.210644 0.364983
vt 0.194142 0.372861
vt 0.174643 0.394068
vt 0.155266 0.411783
vt 0.153739 0.430099
vt 0.156188 0.448442
vt 0.672262 0.064348
vt 0.183566 0.500404
vt 0.196892 0.511978
vt 0.222624 0.512391
vt 0.252354 0.514405
vt 0.270318 0.509154
vt 0.286183 0.486235
vt 0.749231 0.689078
vt 0.719171 0.631309
vt 0.752761 0.756692
vt 0.753229 0.824630
vt 0.725761 0.883940
vt 0.673314 0.928067
vt 0.618161 0.969067
vt 0.553775 0.981511
vt 0.487285 0.965085
vt 0.421110 0.945308
vt 0.371443 0.897813
vt 0.337864 0.837465
vt 0.975081 0.768549
vt 0.334154 0.700480
vt 0.362255 0.641150
vt 0.415611 0.597420
vt 0.471973 0.557134
vt 0.537164 0.546323
vt 0.613653 0.578473
vt 0.989762 0.061838
vt 0.886734 0.094487
vt 0.885182 0.128618
vt 0.976275 0.039611
vt 0.918817 0.132478
vt 0.951293 0.015348
vt 0.938347 0.150904
vt 0.925669 0.039093
vt 0.944158 0.184259
vt 0.911216 0.059350
vt 0.977951 0.180567
vt 0.911151 0.087598
vt 0.989040 0.212733
vt 0.819565 0.013332
vt 0.926149 0.108291
vt 0.849599 0.029124
vt 0.950708 0.132273
vt 0.861192 0.053343
vt 0.974054 0.108222
vt 0.854697 0.086738
vt 0.656606 0.430944
vt 0.681713 0.465337
vt 0.632664 0.393144
vt 0.596304 0.365405
vt 0.565280 0.337061
vt 0.534550 0.304947
vt 0.493533 0.285034
vt 0.457593 0.263459
vt 0.421204 0.238183
vt 0.377259 0.227115
vt 0.337928 0.213852
vt 0.298105 0.203053
vt 0.257291 0.189904
vt 0.791260 0.741822
vt 0.784527 0.700781
vt 0.780146 0.656689
vt 0.760298 0.615489
vt 0.745814 0.575795
vt 0.723840 0.526581
vt 0.878716 0.783708
vt 0.801751 0.785035
vn 0.196794 -0.913185 -0.356884
vn 0.443374 -0.776162 -0.448321
vn -0.002262 -0.999874 -0.015712
vn 0.021591 -0.935168 -0.353547
vn -0.180607 -0.811424 -0.555852
vn -0.225277 -0.935168 -0.273335
vn -0.353139 -0.916743 -0.186748
vn -0.556198 -0.812866 -0.172893
vn -0.415274 -0.903153 -0.108916
vn -0.482345 -0.863914 0.144900
vn -0.271926 -0.915069 0.297834
vn -0.345178 -0.817322 0.461343
vn -0.175928 -0.916743 0.358652
vn -0.021591 -0.935168 0.353547
vn 0.180607 -0.811424 0.555852
vn 0.225277 -0.935168 0.273335
vn 0.353139 -0.916743 0.186748
vn 0.569591 -0.800556 0.186215
vn 0.347373 -0.937718 0.004154
vn 0.341460 -0.908105 -0.242384
vn 0.674574 -0.305273 -0.672129
vn 0.759752 -0.356409 -0.543829
vn 0.496031 -0.369963 -0.785545
vn -0.118267 -0.401406 -0.908233
vn -0.289395 -0.350667 -0.890665
vn -0.438166 -0.401406 -0.804291
vn -0.804291 -0.401406 -0.438166
vn -0.890665 -0.350666 -0.289394
vn -0.919487 -0.353703 -0.171573
vn -0.870430 -0.397581 0.290313
vn -0.643748 -0.383891 0.661979
vn -0.550461 -0.350666 0.757645
vn -0.393138 -0.401406 0.827234
vn 0.118267 -0.401406 0.908233
vn 0.289395 -0.350667 0.890665
vn 0.438166 -0.401406 0.804291
vn 0.804291 -0.401406 0.438166
vn 0.890665 -0.350666 0.289394
vn 0.908232 -0.401406 0.118268
vn 0.695071 0.223422 -0.683344
vn 0.751651 0.245709 -0.612085
vn 0.586310 0.248209 -0.771124
vn -0.189876 0.258244 -0.947237
vn -0.300424 0.234180 -0.924611
vn -0.403159 0.258244 -0.877937
vn -0.877937 0.258244 -0.403159
vn -0.924611 0.234180 -0.300424
vn -0.947237 0.258244 -0.189876
vn -0.919959 0.253626 0.298913
vn -0.654724 0.258244 0.710385
vn -0.571441 0.234180 0.786521
vn -0.473295 0.258244 0.842201
vn 0.189876 0.258244 0.947237
vn 0.300424 0.234180 0.924611
vn 0.403159 0.258244 0.877937
vn 0.877937 0.258244 0.403159
vn 0.924611 0.234180 0.300424
vn 0.947236 0.258244 0.189877
vn 0.553388 0.610806 -0.566285
vn 0.533473 0.671574 -0.514194
vn 0.508857 0.671308 -0.538897
vn -0.216973 0.700429 -0.679943
vn -0.232484 0.658783 -0.715511
vn -0.224126 0.700429 -0.677619
vn -0.677619 0.700429 -0.224126
vn -0.715511 0.658783 -0.232484
vn -0.679943 0.700429 -0.216973
vn -0.679852 0.699289 0.220897
vn -0.422552 0.700429 0.575195
vn -0.442210 0.658783 0.608650
vn -0.416467 0.700429 0.579616
vn 0.216973 0.700428 0.679943
vn 0.232484 0.658783 0.715511
vn 0.224126 0.700428 0.677619
vn 0.677619 0.700428 0.224126
vn 0.715511 0.658783 0.232484
vn 0.679943 0.700428 0.216973
vn 0.410149 0.831224 -0.375292
vn 0.247959 0.887441 -0.388542
vn 0.403444 0.885444 -0.230697
vn -0.287387 0.897827 -0.333641
vn -0.147373 0.878953 -0.453566
vn 0.036391 0.897827 -0.438843
vn -0.438843 0.897827 0.036391
vn -0.453566 0.878953 -0.147373
vn -0.333641 0.897827 -0.287387
vn -0.361773 0.924826 0.117547
vn -0.101000 0.897827 0.428610
vn -0.280319 0.878953 0.385827
vn -0.376422 0.897827 0.228504
vn 0.287387 0.897827 0.333641
vn 0.147373 0.878953 0.453567
vn -0.036391 0.897827 0.438843
vn 0.438843 0.897827 -0.036391
vn 0.453566 0.878953 0.147373
vn 0.333641 0.897826 0.287387
vn 0.462348 0.724313 -0.511473
vn 0.507980 0.619747 -0.598223
vn 0.631050 0.592105 -0.501186
vn -0.444541 0.587852 -0.675880
vn -0.203294 0.753128 -0.625675
vn -0.037829 0.588821 -0.807378
vn -0.804021 0.593608 -0.034357
vn -0.613617 0.763626 -0.200870
vn -0.671707 0.592037 -0.445312
vn -0.672619 0.706808 0.219104
vn -0.281498 0.592548 0.754749
vn -0.377241 0.764367 0.522907
vn -0.629578 0.594944 0.499673
vn 0.443445 0.589682 0.675005
vn 0.203294 0.753128 0.625676
vn 0.038009 0.589706 0.806723
vn 0.803012 0.594982 0.034182
vn 0.613032 0.763189 0.204290
vn 0.673308 0.589616 0.446104
vn 0.684351 0.188585 -0.704343
vn 0.764588 0.373037 -0.525593
vn 0.520554 0.305342 -0.797365
vn 0.027976 0.508900 -0.860371
vn -0.305245 0.155777 -0.939446
vn -0.525399 0.519122 -0.674143
vn -0.893117 0.297642 -0.337270
vn -0.919537 0.246836 -0.305815
vn -0.919135 0.305664 -0.248518
vn -0.812438 0.519877 0.263956
vn -0.597227 0.303178 0.742566
vn -0.560323 0.251529 0.789159
vn -0.527610 0.290071 0.798427
vn -0.029801 0.527262 0.849180
vn 0.305245 0.155777 0.939446
vn 0.523191 0.527480 0.669355
vn 0.896237 0.289849 0.335779
vn 0.914791 0.245295 0.320918
vn 0.917394 0.315554 0.242517
vn -0.000448 0.999905 0.013805
s 1
g pSphere1
usemtl initialShadingGroup
f 3/1/1 2/2/2 134/3/3 4/4/4
f 5/5/5 4/4/4 134/3/3 6/6/6
f 7/7/7 6/6/6 134/3/3 8/8/8
f 9/9/9 8/8/8 134/3/3 10/10/10
f 11/11/11 10/10/10 134/3/3 12/12/12
f 13/13/13 12/12/12 134/3/3 14/14/14
f 15/15/15 14/14/14 134/3/3 16/16/16
f 17/17/17 16/16/16 134/3/3 18/18/18
f 134/3/3 19/19/19 18/18/18
f 1/20/20 19/19/19 134/3/3 2/2/2
f 2/2/2 21/175/21 20/158/22 1/20/20
f 3/1/1 22/174/23 21/175/21 2/2/2
f 4/4/4 23/173/24 22/174/23 3/1/1
f 5/5/5 24/172/25 23/173/24 4/4/4
f 6/6/6 25/171/26 24/172/25 5/5/5
f 7/7/7 26/170/27 25/171/26 6/6/6
f 8/8/8 27/137/28 26/170/27 7/7/7
f 9/9/9 28/168/29 27/137/28 8/8/8
f 10/10/10 29/167/30 28/168/29 9/9/9
f 11/11/11 30/166/31 29/167/30 10/10/10
f 12/12/12 31/165/32 30/166/31 11/11/11
f 13/13/13 32/164/33 31/165/32 12/12/12
f 14/14/14 33/163/34 32/164/33 13/13/13
f 15/15/15 34/162/35 33/163/34 14/14/14
f 16/16/16 35/161/36 34/162/35 15/15/15
f 17/17/17 36/160/37 35/161/36 16/16/16
f 18/18/18 37/159/38 36/160/37 17/17/17
f 19/19/19 38/157/39 37/159/38 18/18/18
f 1/20/20 20/158/22 38/157/39 19/19/19
f 21/21/21 40/40/40 39/41/41 20/22/22
f 22/23/23 41/42/42 40/40/40 21/21/21
f 23/24/24 42/43/43 41/42/42 22/23/23
f 24/25/25 43/44/44 42/43/43 23/24/24
f 25/26/26 44/45/45 43/44/44 24/25/25
f 26/27/27 45/46/46 44/45/45 25/26/26
f 27/169/28 46/215/47 45/46/46 26/27/27
f 28/29/29 47/48/48 46/47/47 27/28/28
f 29/30/30 48/49/49 47/48/48 28/29/29
f 30/31/31 49/50/50 48/49/49 29/30/30
f 31/32/32 50/51/51 49/50/50 30/31/31
f 32/33/33 51/52/52 50/51/51 31/32/32
f 33/34/34 52/53/53 51/52/52 32/33/33
f 34/35/35 53/54/54 52/53/53 33/34/34
f 35/36/36 54/55/55 53/54/54 34/35/35
f 36/37/37 55/56/56 54/55/55 35/36/36
f 37/38/38 56/57/57 55/56/56 36/37/37
f 38/39/39 57/58/58 56/57/57 37/38/38
f 20/22/22 39/41/41 57/58/58 38/39/39
f 40/40/40 59/214/59 58/197/60 39/41/41
f 41/42/42 60/213/61 59/214/59 40/40/40
f 42/43/43 61/212/62 60/213/61 41/42/42
f 43/44/44 62/211/63 61/212/62 42/43/43
f 44/45/45 63/210/64 62/211/63 43/44/44
f 45/46/46 64/209/65 63/210/64 44/45/45
f 46/215/47 65/216/66 64/209/65 45/46/46
f 47/48/48 66/207/67 65/208/66 46/47/47
f 48/49/49 67/206/68 66/207/67 47/48/48
f 49/50/50 68/205/69 67/206/68 48/49/49
f 50/51/51 69/204/70 68/205/69 49/50/50
f 51/52/52 70/203/71 69/204/70 50/51/51
f 52/53/53 71/202/72 70/203/71 51/52/52
f 53/54/54 72/201/73 71/202/72 52/53/53
f 54/55/55 73/200/74 72/201/73 53/54/54
f 55/56/56 74/199/75 73/200/74 54/55/55
f 56/57/57 75/198/76 74/199/75 55/56/56
f 57/58/58 76/196/77 75/198/76 56/57/57
f 39/41/41 58/197/60 76/196/77 57/58/58
f 59/59/59 78/78/78 77/79/79 58/60/60
f 60/61/61 79/80/80 78/78/78 59/59/59
f 61/62/62 80/81/81 79/80/80 60/61/61
f 62/63/63 81/82/82 80/81/81 61/62/62
f 63/64/64 82/83/83 81/82/82 62/63/63
f 64/65/65 83/84/84 82/83/83 63/64/64
f 65/66/66 84/85/85 83/84/84 64/65/65
f 66/67/67 85/86/86 84/85/85 65/66/66
f 67/68/68 86/87/87 85/86/86 66/67/67
f 68/69/69 87/88/88 86/87/87 67/68/68
f 69/70/70 88/89/89 87/88/88 68/69/69
f 70/71/71 89/90/90 88/89/89 69/70/70
f 71/72/72 90/91/91 89/90/90 70/71/71
f 72/73/73 91/92/92 90/91/91 71/72/72
f 73/74/74 92/93/93 91/92/92 72/73/73
f 74/75/75 93/94/94 92/93/93 73/74/74
f 75/76/76 94/95/95 93/94/94 74/75/75
f 76/77/77 95/96/96 94/95/95 75/76/76
f 58/60/60 77/79/79 95/96/96 76/77/77
f 77/79/79 78/78/78 97/156/97 96/139/98
f 78/78/78 79/80/80 98/155/99 97/156/97
f 79/80/80 80/81/81 99/154/100 98/155/99
f 80/81/81 81/82/82 100/153/101 99/154/100
f 81/82/82 82/83/83 101/152/102 100/153/101
f 82/83/83 83/84/84 102/151/103 101/152/102
f 83/84/84 84/85/85 103/136/104 102/151/103
f 84/85/85 85/86/86 104/149/105 103/136/104
f 85/86/86 86/87/87 105/148/106 104/149/105
f 86/87/87 87/88/88 106/147/107 105/148/106
f 87/88/88 88/89/89 107/146/108 106/147/107
f 88/89/89 89/90/90 108/145/109 107/146/108
f 89/90/90 90/91/91 109/144/110 108/145/109
f 90/91/91 91/92/92 110/143/111 109/144/110
f 91/92/92 92/93/93 111/142/112 110/143/111
f 92/93/93 93/94/94 112/141/113 111/142/112
f 93/94/94 94/95/95 113/140/114 112/141/113
f 94/95/95 95/96/96 114/138/115 113/140/114
f 95/96/96 77/79/79 96/139/98 114/138/115
f 96/98/98 97/97/97 116/195/116 115/177/117
f 97/97/97 98/99/99 117/135/118 116/195/116
f 98/99/99 99/100/100 118/193/119 117/135/118
f 99/100/100 100/101/101 119/119/120 118/193/119
f 100/101/101 101/102/102 120/191/121 119/119/120
f 101/102/102 102/103/103 121/121/122 120/191/121
f 102/103/103 103/150/104 122/189/123 121/121/122
f 103/104/104 104/105/105 123/123/124 122/188/123
f 104/105/105 105/106/106 124/186/125 123/123/124
f 105/106/106 106/107/107 125/125/126 124/186/125
f 106/107/107 107/108/108 126/184/127 125/125/126
f 107/108/108 108/109/109 127/127/128 126/184/127
f 108/109/109 109/110/110 128/182/129 127/127/128
f 109/110/110 110/111/111 129/129/130 128/182/129
f 110/111/111 111/112/112 130/180/131 129/129/130
f 111/112/112 112/113/113 131/131/132 130/180/131
f 112/113/113 113/114/114 132/178/133 131/131/132
f 113/114/114 114/115/115 133/133/134 132/178/133
f 114/115/115 96/98/98 115/177/117 133/133/134
f 135/134/135 115/117/117 116/116/116
f 135/134/135 116/116/116 117/194/118 118/118/119
f 135/134/135 118/118/119 119/192/120 120/120/121
f 135/134/135 120/120/121 121/190/122 122/122/123
f 135/134/135 122/122/123 123/187/124 124/124/125
f 135/134/135 124/124/125 125/185/126 126/126/127
f 135/134/135 126/126/127 127/183/128 128/128/129
f 135/134/135 128/128/129 129/181/130 130/130/131
f 135/134/135 130/130/131 131/179/132 132/132/133
f 135/134/135 132/132/133 133/176/134 115/117/117
