# This file uses centimeters as units for non-parametric coordinates.

mtllib ingredient.mtl
g default
v 0.006959 -0.001728 -0.071076
v 0.006959 -0.001728 0.071939
v 0.051205 0.113954 0.000431
v -0.036728 0.014982 -0.071076
v -0.036728 0.014982 0.071939
v 0.007518 0.130663 0.000431
v 0.085130 0.012574 0.000431
v -0.085403 0.077800 0.000431
vt 0.000000 0.333333
vt 0.333333 0.333333
vt 0.666667 0.333333
vt 1.000000 0.333333
vt 0.000000 0.666667
vt 0.333333 0.666667
vt 0.666667 0.666667
vt 1.000000 0.666667
vt 0.166667 0.000000
vt 0.500000 0.000000
vt 0.833333 0.000000
vt 0.166667 1.000000
vt 0.500000 1.000000
vt 0.833333 1.000000
vn -0.357241 -0.934012 0.000000
vn -0.357241 -0.934012 0.000000
vn -0.357241 -0.934012 0.000000
vn -0.357241 -0.934012 0.000000
vn 0.178620 0.467006 0.866025
vn 0.178620 0.467006 0.866025
vn 0.178620 0.467006 0.866025
vn 0.178620 0.467006 0.866025
vn 0.178620 0.467006 -0.866026
vn 0.178620 0.467006 -0.866026
vn 0.178620 0.467006 -0.866026
vn 0.178620 0.467006 -0.866026
vn 0.179970 -0.983672 0.000000
vn 0.179970 -0.983672 0.000000
vn 0.179970 -0.983672 0.000000
vn 0.637850 0.213452 0.739990
vn 0.637850 0.213452 0.739990
vn 0.637850 0.213452 0.739990
vn 0.637851 0.213453 -0.739989
vn 0.637851 0.213453 -0.739989
vn 0.637851 0.213453 -0.739989
vn -0.790475 -0.612494 0.000000
vn -0.790475 -0.612494 0.000000
vn -0.790475 -0.612494 0.000000
vn -0.332598 0.584630 0.739990
vn -0.332598 0.584630 0.739990
vn -0.332598 0.584630 0.739990
vn -0.332597 0.584631 -0.739990
vn -0.332597 0.584631 -0.739991
vn -0.332597 0.584631 -0.739991
s off
g ingredient_GEO
usemtl initialShadingGroup
f 1/1/1 2/2/2 5/6/3 4/5/4
f 2/2/5 3/3/6 6/7/7 5/6/8
f 3/3/9 1/4/10 4/8/11 6/7/12
f 2/2/13 1/1/14 7/9/15
f 3/3/16 2/2/17 7/10/18
f 1/4/19 3/3/20 7/11/21
f 4/5/22 5/6/23 8/12/24
f 5/6/25 6/7/26 8/13/27
f 6/7/28 4/8/29 8/14/30
