# This file uses centimeters as units for non-parametric coordinates.

mtllib knife2.mtl
g knife2:default1
v -0.059692 0.005162 -0.325371
v 0.048767 0.009229 -0.325371
v -0.003674 0.005162 -1.607431
v 0.048767 0.009229 -1.607431
v -0.003674 -0.005162 -1.607431
v 0.048767 -0.009229 -1.607431
v -0.059692 -0.005162 -0.325371
v 0.048767 -0.009229 -0.325371
v -0.055814 -0.000000 -1.699843
v 0.074671 -0.000000 -1.873903
v 0.099783 -0.000000 -0.325371
v -0.192170 -0.000000 -0.325371
v -0.059692 0.005162 -1.365112
v 0.048767 0.009229 -1.365112
v 0.099783 -0.000000 -1.581218
v 0.048767 -0.009229 -1.365112
v -0.059692 -0.005162 -1.365112
v -0.167271 -0.000000 -1.318281
v -0.059692 0.005162 -0.956782
v 0.048767 0.009229 -0.956782
v 0.099783 -0.000000 -1.088018
v 0.048767 -0.009229 -0.956782
v -0.059692 -0.005162 -0.956782
v -0.197710 -0.000000 -0.956782
v 0.075843 -0.041242 0.281868
v 0.037796 -0.068067 0.281868
v -0.009234 -0.068067 0.281868
v -0.063318 -0.041242 0.281868
v -0.093989 0.002162 0.281868
v -0.063318 0.045566 0.281868
v -0.009234 0.072392 0.281868
v 0.037796 0.072392 0.281868
v 0.075843 0.045566 0.281868
v 0.090376 0.002162 0.281868
v 0.058952 -0.029332 0.154441
v 0.031344 -0.048798 0.154441
v -0.002782 -0.048798 0.154441
v -0.030390 -0.029332 0.154441
v -0.040935 0.002162 0.154441
v -0.030390 0.033658 0.154441
v -0.002782 0.053122 0.154441
v 0.031344 0.053122 0.154441
v 0.058952 0.033658 0.154441
v 0.069497 0.002162 0.154441
v 0.059102 -0.029439 0.316619
v 0.031401 -0.048969 0.316619
v 0.014281 0.002162 0.316619
v -0.002839 -0.048969 0.316619
v -0.030540 -0.029438 0.316619
v -0.056423 0.002162 0.316619
v -0.030540 0.033763 0.316619
v -0.002839 0.053294 0.316619
v 0.031401 0.053294 0.316619
v 0.059102 0.033763 0.316619
v 0.069683 0.002162 0.316619
v 0.062745 -0.027418 -0.143397
v 0.036815 -0.045699 -0.143397
v 0.004765 -0.045699 -0.143397
v -0.021165 -0.027418 -0.143397
v -0.031069 0.002162 -0.143397
v -0.021165 0.031743 -0.143397
v 0.004765 0.050024 -0.143397
v 0.036815 0.050024 -0.143397
v 0.062745 0.031743 -0.143397
v 0.072649 0.002162 -0.143397
v 0.072876 -0.017271 -0.334381
v 0.039758 -0.028996 -0.334380
v 0.027791 0.002162 -0.334381
v -0.001504 -0.028695 -0.334381
v -0.035098 -0.016778 -0.334381
v -0.047973 0.002162 -0.334380
v -0.035098 0.021102 -0.334381
v -0.001504 0.033019 -0.334381
v 0.039758 0.033322 -0.334380
v 0.072876 0.021595 -0.334380
v 0.085453 0.002162 -0.334380
v -0.238837 0.015648 -0.293059
v 0.079367 0.049938 -0.293059
v -0.238837 0.014984 -0.369154
v 0.079367 0.040866 -0.369154
v -0.238837 -0.014984 -0.369154
v 0.079367 -0.040866 -0.369154
v -0.238837 -0.024056 -0.293059
v 0.079367 -0.040866 -0.293059
v -0.271722 -0.000000 -0.369154
v 0.117119 -0.000000 -0.369154
v 0.117119 -0.000000 -0.293059
v -0.271722 -0.004204 -0.293059
vt 0.119610 0.671437
vt 0.189650 0.671437
vt 0.189650 0.827920
vt 0.155785 0.827920
vt 0.122114 0.887597
vt 0.206378 1.000000
vt 0.189650 0.827920
vt 0.155785 0.827920
vt 0.189650 0.671437
vt 0.119610 0.671437
vt 0.119610 0.000000
vt 0.189650 0.000000
vt 0.222595 0.000000
vt 0.034059 0.000000
vt 0.222595 0.810992
vt 0.050138 0.641195
vt 0.189650 0.000000
vt 0.119610 0.000000
vt 0.119610 0.407748
vt 0.189650 0.407748
vt 0.222595 0.492497
vt 0.189650 0.407748
vt 0.119610 0.407748
vt 0.030481 0.407748
vt 1.455995 -0.890642
vt 1.518511 -0.890888
vt 1.038875 -0.697905
vt 1.415587 -0.707105
vt 1.430068 -0.950133
vt 1.483416 -0.954921
vt 1.036179 -0.886388
vt 1.079675 -0.702160
vt 1.063702 -0.280970
vt 1.404222 -0.286430
vt 1.062040 -0.945515
vt 1.101572 -0.282607
vt 1.067602 -0.009841
vt 1.417176 -0.015346
vt 1.374086 -0.708893
vt 1.366385 -0.287134
vt 1.121219 -0.704563
vt 1.139413 -0.284240
vt 1.095260 -0.011387
vt 1.198247 -0.888226
vt 1.245558 -0.889047
vt 1.247781 -0.708187
vt 1.205463 -0.707288
vt 1.198375 -0.941855
vt 1.245148 -0.942916
vt 1.292965 -0.889630
vt 1.290067 -0.708845
vt 1.252931 -0.284955
vt 1.215078 -0.284859
vt 1.150506 -0.887459
vt 1.163220 -0.706149
vt 1.152030 -0.940552
vt 1.292053 -0.943593
vt 1.340977 -0.889988
vt 1.332230 -0.709185
vt 1.290773 -0.285834
vt 1.256220 -0.013793
vt 1.228236 -0.014277
vt 1.177246 -0.284962
vt 1.338800 -0.944110
vt 1.328574 -0.286904
vt 1.284183 -0.014969
vt 1.935366 -0.745501
vt 1.961148 -0.780987
vt 2.002865 -0.723570
vt 2.002865 -0.794542
vt 1.935366 -0.701638
vt 2.044581 -0.780987
vt 1.961148 -0.666152
vt 2.070363 -0.745501
vt 2.002865 -0.632994
vt 2.070363 -0.701638
vt 2.044581 -0.666152
vt 1.917400 -0.953015
vt 1.932879 -0.910589
vt 1.891746 -0.895259
vt 1.932481 -0.857731
vt 1.891747 -0.969127
vt 1.916749 -0.814695
vt 1.866093 -0.953015
vt 1.891746 -0.798202
vt 1.850612 -0.910589
vt 1.866744 -0.814695
vt 1.851012 -0.857731
vt 1.390205 -0.890458
vt 1.384979 -0.945363
vt 1.374829 -0.016461
vt 1.325914 -0.016327
vt 1.101689 -0.887411
vt 1.106610 -0.939750
vt 1.186482 -0.014603
vt 1.137572 -0.013535
vt 1.442103 -0.285709
vt 1.444864 -0.014473
vt 1.456383 -0.703384
vt 0.973761 -0.886811
vt 1.009149 -0.950887
vt -0.448136 1.085963
vt -0.246540 0.948468
vt -0.791115 0.354931
vt -0.957623 0.533315
vt -0.332147 0.822827
vt -0.518897 0.982213
vt -0.604217 0.529386
vt -0.560329 0.576906
vt -0.731591 0.751183
vt -0.766817 0.713344
vt -0.516377 0.624366
vt -0.696429 0.789081
vt -0.776690 1.332075
vt 0.223310 1.332075
vt 0.126220 1.429923
vt -0.692119 1.367953
vt -0.692119 1.389675
vt 0.126220 1.429923
vt 0.223310 1.332075
vt -0.776690 1.342141
vt -0.692119 1.296197
vt 0.126220 1.234226
vt 0.126220 1.212505
vt -0.692119 1.294607
vt -1.049427 0.447623
vt -0.882919 0.269239
vn -0.039846 0.999205 -0.001065
vn -0.041452 0.999139 -0.001784
vn -0.050487 0.998708 -0.005836
vn -0.050487 0.998708 -0.005836
vn -0.843370 -0.000000 -0.537333
vn -0.843370 -0.000000 -0.537333
vn -0.056337 -0.997766 -0.035894
vn -0.056337 -0.997766 -0.035894
vn -0.050487 -0.998708 -0.005836
vn -0.050487 -0.998708 -0.005836
vn -0.041452 -0.999139 -0.001784
vn -0.039846 -0.999205 -0.001065
vn 0.000000 0.000007 1.000000
vn 0.000000 0.000007 1.000000
vn 0.000000 0.000004 1.000000
vn 0.000000 0.000004 1.000000
vn 0.998900 -0.000000 -0.046888
vn 0.999775 -0.000000 -0.021202
vn 0.179183 -0.983813 -0.002331
vn 0.182272 -0.983211 -0.008556
vn -0.050681 -0.998679 -0.008514
vn -0.995946 -0.000001 -0.089955
vn -0.965808 -0.000002 -0.259260
vn -0.059929 -0.998073 -0.016087
vn -0.056337 0.997766 -0.035894
vn -0.056337 0.997766 -0.035894
vn -0.843370 -0.000000 -0.537333
vn -0.843370 -0.000000 -0.537333
vn 0.179183 0.983813 -0.002331
vn 0.999775 -0.000000 -0.021202
vn 0.998900 -0.000000 -0.046888
vn 0.182272 0.983211 -0.008556
vn 0.000000 0.000004 1.000000
vn 0.000000 0.000004 1.000000
vn 0.000000 0.000000 1.000000
vn 0.000000 0.000000 1.000000
vn -0.965808 -0.000002 -0.259260
vn -0.995946 -0.000001 -0.089955
vn -0.050681 0.998679 -0.008514
vn -0.059929 0.998073 -0.016087
vn -0.037471 0.999298 -0.000000
vn -0.037471 0.999298 -0.000000
vn -0.041452 0.999139 -0.001784
vn -0.039846 0.999205 -0.001065
vn 0.178024 0.984026 -0.000000
vn 1.000000 0.000000 0.000000
vn 0.999775 -0.000000 -0.021202
vn 0.179183 0.983813 -0.002331
vn 0.179183 -0.983813 -0.002331
vn 0.999775 -0.000000 -0.021202
vn 1.000000 0.000000 0.000000
vn 0.178024 -0.984026 0.000000
vn -0.039846 -0.999205 -0.001065
vn -0.041452 -0.999139 -0.001784
vn -0.037471 -0.999298 0.000000
vn -0.037471 -0.999298 0.000000
vn -0.039625 -0.999214 -0.000485
vn -0.999952 -0.000000 -0.009817
vn -0.995946 -0.000001 -0.089955
vn -0.050681 -0.998679 -0.008514
vn -0.050681 0.998679 -0.008514
vn -0.995946 -0.000001 -0.089955
vn -0.999952 -0.000000 -0.009817
vn -0.039625 0.999214 -0.000485
vn -0.037471 0.999298 -0.000000
vn -0.037471 0.999298 -0.000000
vn -0.037471 0.999298 -0.000000
vn -0.037471 0.999298 -0.000000
vn 0.178024 0.984026 -0.000000
vn 1.000000 0.000000 0.000000
vn 1.000000 0.000000 0.000000
vn 0.178024 0.984026 -0.000000
vn 0.178024 -0.984026 0.000000
vn 1.000000 0.000000 0.000000
vn 1.000000 0.000000 0.000000
vn 0.178024 -0.984026 0.000000
vn -0.037471 -0.999298 0.000000
vn -0.037471 -0.999298 0.000000
vn -0.037471 -0.999298 0.000000
vn -0.037471 -0.999298 0.000000
vn -0.038143 -0.999272 0.000167
vn -0.999990 0.000000 0.004387
vn -0.999952 -0.000000 -0.009817
vn -0.039625 -0.999214 -0.000485
vn -0.039625 0.999214 -0.000485
vn -0.999952 -0.000000 -0.009817
vn -0.999990 0.000000 0.004387
vn -0.038143 0.999272 0.000167
vn 0.576207 -0.817260 -0.008516
vn 0.576207 -0.817260 -0.008516
vn 0.575434 -0.816164 -0.052457
vn 0.575454 -0.816193 -0.051794
vn -0.000000 -0.999964 -0.008430
vn -0.000000 -0.999964 -0.008430
vn 0.000000 -0.998197 -0.060030
vn 0.000000 -0.998241 -0.059286
vn -0.493008 -0.870008 -0.005424
vn -0.492754 -0.869568 -0.032320
vn -0.541430 -0.836249 -0.086841
vn -0.542906 -0.835557 -0.084245
vn -0.858756 -0.511942 -0.021292
vn -0.859733 -0.506231 -0.067750
vn -0.915520 -0.377498 -0.138991
vn -0.917068 -0.375251 -0.134807
vn -0.859733 0.506231 -0.067750
vn -0.858756 0.511942 -0.021292
vn -0.917068 0.375251 -0.134807
vn -0.915520 0.377498 -0.138991
vn -0.492754 0.869568 -0.032321
vn -0.493008 0.870008 -0.005424
vn -0.542906 0.835557 -0.084245
vn -0.541430 0.836249 -0.086841
vn 0.000000 0.999964 -0.008430
vn 0.000000 0.999964 -0.008430
vn 0.000000 0.998241 -0.059286
vn 0.000000 0.998197 -0.060030
vn 0.576207 0.817260 -0.008516
vn 0.576207 0.817260 -0.008516
vn 0.575454 0.816192 -0.051794
vn 0.575434 0.816164 -0.052457
vn 0.948222 0.317489 -0.008662
vn 0.948222 0.317489 -0.008662
vn 0.947176 0.317139 -0.047753
vn 0.947164 0.317135 -0.048024
vn 0.948222 -0.317489 -0.008662
vn 0.948222 -0.317489 -0.008662
vn 0.947164 -0.317135 -0.048024
vn 0.947176 -0.317139 -0.047753
vn 0.000000 0.000000 1.000000
vn 0.000000 0.000000 1.000000
vn 0.000000 0.000000 1.000000
vn 0.000000 0.000000 1.000000
vn 0.000000 0.000000 1.000000
vn 0.000000 0.000000 1.000000
vn 0.000000 0.000000 1.000000
vn 0.000000 0.000000 1.000000
vn 0.000000 0.000000 1.000000
vn 0.000000 0.000000 1.000000
vn 0.000000 0.000000 1.000000
vn 0.000000 0.000000 1.000000
vn 0.000000 0.000000 1.000000
vn 0.000000 0.000000 1.000000
vn 0.000000 0.000000 1.000000
vn 0.000000 0.000000 1.000000
vn 0.000000 0.000000 1.000000
vn 0.000000 0.000000 1.000000
vn 0.000000 0.000000 1.000000
vn 0.000000 0.000000 1.000000
vn 0.000000 0.000000 1.000000
vn 0.000000 0.000000 1.000000
vn 0.000000 0.000000 1.000000
vn 0.000000 0.000000 1.000000
vn 0.000000 0.000000 1.000000
vn 0.000000 0.000000 1.000000
vn 0.000000 0.000000 1.000000
vn 0.000000 0.000000 1.000000
vn 0.000000 0.000000 1.000000
vn 0.000000 0.000000 1.000000
vn 0.000000 -0.000000 -1.000000
vn 0.000000 -0.000000 -1.000000
vn 0.000001 -0.000000 -1.000000
vn 0.000000 -0.000000 -1.000000
vn 0.000000 -0.000000 -1.000000
vn 0.000001 -0.000000 -1.000000
vn 0.000000 -0.000000 -1.000000
vn -0.000001 -0.000000 -1.000000
vn 0.000001 -0.000000 -1.000000
vn -0.000001 -0.000000 -1.000000
vn -0.000001 -0.000000 -1.000000
vn 0.000001 -0.000000 -1.000000
vn -0.000001 -0.000000 -1.000000
vn -0.000001 0.000001 -1.000000
vn 0.000001 -0.000000 -1.000000
vn -0.000001 0.000001 -1.000000
vn 0.000000 0.000002 -1.000000
vn 0.000001 -0.000000 -1.000000
vn 0.000000 0.000002 -1.000000
vn 0.000001 0.000001 -1.000000
vn 0.000001 -0.000000 -1.000000
vn 0.000001 0.000001 -1.000000
vn 0.000001 0.000004 -1.000000
vn 0.000001 -0.000000 -1.000000
vn 0.000001 0.000004 -1.000000
vn 0.000001 0.000002 -1.000000
vn 0.000001 -0.000000 -1.000000
vn 0.000001 0.000002 -1.000000
vn 0.000000 -0.000000 -1.000000
vn 0.000001 -0.000000 -1.000000
vn 0.576207 -0.817260 -0.008516
vn 0.576207 -0.817260 -0.008516
vn 0.503792 -0.714551 0.485397
vn 0.503792 -0.714551 0.485397
vn -0.000000 -0.999964 -0.008430
vn -0.000000 -0.999964 -0.008430
vn 0.000000 -0.876376 0.481628
vn 0.000000 -0.876376 0.481628
vn -0.492754 -0.869568 -0.032320
vn -0.493008 -0.870008 -0.005424
vn -0.410650 -0.724513 0.553577
vn -0.410650 -0.724513 0.553577
vn -0.859733 -0.506231 -0.067750
vn -0.858756 -0.511942 -0.021292
vn -0.590432 -0.445196 0.673194
vn -0.590432 -0.445196 0.673194
vn -0.858756 0.511942 -0.021292
vn -0.859733 0.506231 -0.067750
vn -0.590432 0.445196 0.673194
vn -0.590432 0.445196 0.673194
vn -0.493008 0.870008 -0.005424
vn -0.492754 0.869568 -0.032321
vn -0.410650 0.724513 0.553577
vn -0.410650 0.724513 0.553577
vn 0.000000 0.999964 -0.008430
vn 0.000000 0.999964 -0.008430
vn 0.000000 0.876376 0.481628
vn 0.000000 0.876376 0.481628
vn 0.576207 0.817260 -0.008516
vn 0.576207 0.817260 -0.008516
vn 0.503792 0.714551 0.485397
vn 0.503792 0.714551 0.485397
vn 0.948222 0.317489 -0.008662
vn 0.948222 0.317489 -0.008662
vn 0.825716 0.276471 0.491687
vn 0.825716 0.276471 0.491687
vn 0.948222 -0.317489 -0.008662
vn 0.948222 -0.317489 -0.008662
vn 0.825716 -0.276471 0.491687
vn 0.825716 -0.276471 0.491687
vn 0.575454 -0.816193 -0.051794
vn 0.575434 -0.816164 -0.052457
vn 0.267471 -0.963051 -0.031490
vn 0.527625 -0.849289 -0.017879
vn 0.000000 -0.998241 -0.059286
vn 0.000000 -0.998197 -0.060030
vn -0.264690 -0.963582 -0.038071
vn 0.267471 -0.963051 -0.031490
vn -0.542906 -0.835557 -0.084245
vn -0.541430 -0.836249 -0.086841
vn -0.527297 -0.849143 -0.030240
vn -0.264690 -0.963582 -0.038071
vn -0.917068 -0.375251 -0.134807
vn -0.915520 -0.377498 -0.138991
vn -0.934616 -0.355656 0.001020
vn -0.935073 -0.354454 -0.000010
vn -0.915520 0.377498 -0.138991
vn -0.917068 0.375251 -0.134807
vn -0.935073 0.354456 -0.000010
vn -0.934616 0.355658 0.001019
vn -0.541430 0.836249 -0.086841
vn -0.542906 0.835557 -0.084245
vn -0.264694 0.963581 -0.038071
vn -0.527299 0.849142 -0.030240
vn 0.000000 0.998197 -0.060030
vn 0.000000 0.998241 -0.059286
vn 0.267471 0.963051 -0.031489
vn -0.264694 0.963581 -0.038071
vn 0.575434 0.816164 -0.052457
vn 0.575454 0.816192 -0.051794
vn 0.527629 0.849287 -0.017879
vn 0.267471 0.963051 -0.031489
vn 0.947164 0.317135 -0.048024
vn 0.947176 0.317139 -0.047753
vn 0.935409 0.352891 0.021846
vn 0.935889 0.351642 0.021427
vn 0.947176 -0.317139 -0.047753
vn 0.947164 -0.317135 -0.048024
vn 0.935889 -0.351643 0.021427
vn 0.935409 -0.352892 0.021847
vn 0.527625 -0.849289 -0.017879
vn 0.267471 -0.963051 -0.031490
vn 0.222161 -0.972480 -0.070196
vn 0.452544 -0.890497 -0.047109
vn 0.267471 -0.963051 -0.031490
vn -0.264690 -0.963582 -0.038071
vn -0.229105 -0.971122 -0.066578
vn 0.222161 -0.972480 -0.070196
vn -0.264690 -0.963582 -0.038071
vn -0.527297 -0.849143 -0.030240
vn -0.452065 -0.891061 -0.040583
vn -0.229105 -0.971122 -0.066578
vn -0.935073 -0.354454 -0.000010
vn -0.934616 -0.355656 0.001020
vn -0.903517 -0.424171 0.061126
vn -0.903517 -0.424171 0.061126
vn -0.934616 0.355658 0.001019
vn -0.935073 0.354456 -0.000010
vn -0.903515 0.424176 0.061125
vn -0.903515 0.424176 0.061125
vn -0.527299 0.849142 -0.030240
vn -0.264694 0.963581 -0.038071
vn -0.229113 0.971120 -0.066578
vn -0.452069 0.891059 -0.040584
vn -0.264694 0.963581 -0.038071
vn 0.267471 0.963051 -0.031489
vn 0.222161 0.972480 -0.070195
vn -0.229113 0.971120 -0.066578
vn 0.267471 0.963051 -0.031489
vn 0.527629 0.849287 -0.017879
vn 0.452554 0.890492 -0.047107
vn 0.222161 0.972480 -0.070195
vn 0.935889 0.351642 0.021427
vn 0.935409 0.352891 0.021846
vn 0.908089 0.416516 0.043459
vn 0.908089 0.416516 0.043459
vn 0.935409 -0.352892 0.021847
vn 0.935889 -0.351643 0.021427
vn 0.908087 -0.416521 0.043460
vn 0.908087 -0.416521 0.043460
vn -0.093937 0.993547 -0.063559
vn -0.093937 0.993547 -0.063559
vn -0.093937 0.993547 -0.063559
vn -0.093937 0.993547 -0.063559
vn 0.000000 -0.000000 -1.000000
vn 0.000000 -0.000000 -1.000000
vn 0.000000 -0.000000 -1.000000
vn 0.000000 -0.000000 -1.000000
vn -0.066812 -0.995998 -0.059371
vn -0.066812 -0.995998 -0.059371
vn -0.066812 -0.995998 -0.059371
vn -0.066812 -0.995998 -0.059371
vn 0.000000 0.000000 1.000000
vn 0.000000 0.000000 1.000000
vn 0.000000 0.000000 1.000000
vn 0.000000 0.000000 1.000000
vn 0.999660 -0.000000 -0.026078
vn 0.999660 -0.000000 -0.026078
vn 0.734529 -0.678578 0.000000
vn 0.734529 -0.678578 0.000000
vn -0.466679 -0.881081 -0.076860
vn -0.996401 -0.056391 -0.063287
vn -0.996936 0.053284 -0.057260
vn -0.466679 -0.881081 -0.076860
vn 0.000000 -0.000000 -1.000000
vn 0.000000 -0.000000 -1.000000
vn 0.000000 -0.000000 -1.000000
vn 0.000000 -0.000000 -1.000000
vn 0.768345 0.638902 -0.038085
vn 0.999660 -0.000000 -0.026078
vn 0.999660 -0.000000 -0.026078
vn 0.768345 0.638902 -0.038085
vn 0.000000 0.000000 1.000000
vn 0.000000 0.000000 1.000000
vn 0.000000 0.000000 1.000000
vn 0.000000 0.000000 1.000000
vn -0.996936 0.053284 -0.057260
vn -0.996401 -0.056391 -0.063287
vn -0.467965 0.883508 0.020552
vn -0.467965 0.883508 0.020552
s off
g knife2:Blade knife2:Knife1 knife2:polySurface1
usemtl knife2:initialShadingGroup
f 13/1/1 14/2/2 4/3/3 3/4/4
f 9/5/5 10/6/6 6/7/7 5/8/8
f 5/8/9 6/7/10 16/9/11 17/10/12
f 7/11/13 8/12/14 11/13/15 12/14/16
f 10/6/17 15/15/18 16/9/19 6/7/20
f 17/10/21 18/16/22 9/5/23 5/8/24
f 3/4/25 4/3/26 10/6/27 9/5/28
f 14/2/29 15/15/30 10/6/31 4/3/32
f 12/14/33 11/13/34 2/17/35 1/18/36
f 9/5/37 18/16/38 13/1/39 3/4/40
f 19/19/41 20/20/42 14/2/43 13/1/44
f 20/20/45 21/21/46 15/15/47 14/2/48
f 16/9/49 15/15/50 21/21/51 22/22/52
f 17/10/53 16/9/54 22/22/55 23/23/56
f 23/23/57 24/24/58 18/16/59 17/10/60
f 13/1/61 18/16/62 24/24/63 19/19/64
f 1/18/65 2/17/66 20/20/67 19/19/68
f 2/17/69 11/13/70 21/21/71 20/20/72
f 22/22/73 21/21/74 11/13/75 8/12/76
f 23/23/77 22/22/78 8/12/79 7/11/80
f 7/11/81 12/14/82 24/24/83 23/23/84
f 19/19/85 24/24/86 12/14/87 1/18/88
g knife2:Grip knife2:Knife1 knife2:polySurface1
f 25/50/89 26/58/90 36/59/91 35/51/92
f 26/58/93 27/89/94 37/39/95 36/59/96
f 27/89/97 28/25/98 38/28/99 37/39/100
f 28/25/101 29/26/102 39/99/103 38/28/104
f 29/100/105 30/31/106 40/32/107 39/27/108
f 30/31/109 31/93/110 41/41/111 40/32/112
f 31/93/113 32/54/114 42/55/115 41/41/116
f 32/54/117 33/44/118 43/47/119 42/55/120
f 33/44/121 34/45/122 44/46/123 43/47/124
f 34/45/125 25/50/126 35/51/127 44/46/128
f 46/67/129 45/68/130 47/69/131
f 48/71/132 46/67/133 47/69/134
f 49/73/135 48/71/136 47/69/137
f 50/75/138 49/73/139 47/69/140
f 51/77/141 50/75/142 47/69/143
f 52/76/144 51/77/145 47/69/146
f 53/74/147 52/76/148 47/69/149
f 54/72/150 53/74/151 47/69/152
f 55/70/153 54/72/154 47/69/155
f 45/68/156 55/70/157 47/69/158
f 66/78/159 67/79/160 68/80/161
f 67/79/162 69/81/163 68/80/164
f 69/81/165 70/83/166 68/80/167
f 70/83/168 71/85/169 68/80/170
f 71/85/171 72/87/172 68/80/173
f 72/87/174 73/88/175 68/80/176
f 73/88/177 74/86/178 68/80/179
f 74/86/180 75/84/181 68/80/182
f 75/84/183 76/82/184 68/80/185
f 76/82/186 66/78/187 68/80/188
f 26/58/189 25/50/190 45/57/191 46/64/192
f 27/89/193 26/58/194 46/64/195 48/90/196
f 28/25/197 27/89/198 48/90/199 49/29/200
f 29/26/201 28/25/202 49/29/203 50/30/204
f 30/31/205 29/100/206 50/101/207 51/35/208
f 31/93/209 30/31/210 51/35/211 52/94/212
f 32/54/213 31/93/214 52/94/215 53/56/216
f 33/44/217 32/54/218 53/56/219 54/48/220
f 34/45/221 33/44/222 54/48/223 55/49/224
f 25/50/225 34/45/226 55/49/227 45/57/228
f 35/51/229 36/59/230 57/65/231 56/60/232
f 36/59/233 37/39/234 58/40/235 57/65/236
f 37/39/237 38/28/238 59/34/239 58/40/240
f 38/28/241 39/99/242 60/97/243 59/34/244
f 39/27/245 40/32/246 61/36/247 60/33/248
f 40/32/249 41/41/250 62/42/251 61/36/252
f 41/41/253 42/55/254 63/63/255 62/42/256
f 42/55/257 43/47/258 64/53/259 63/63/260
f 43/47/261 44/46/262 65/52/263 64/53/264
f 44/46/265 35/51/266 56/60/267 65/52/268
f 56/60/269 57/65/270 67/92/271 66/66/272
f 57/65/273 58/40/274 69/91/275 67/92/276
f 58/40/277 59/34/278 70/38/279 69/91/280
f 59/34/281 60/97/282 71/98/283 70/38/284
f 60/33/285 61/36/286 72/43/287 71/37/288
f 61/36/289 62/42/290 73/96/291 72/43/292
f 62/42/293 63/63/294 74/95/295 73/96/296
f 63/63/297 64/53/298 75/62/299 74/95/300
f 64/53/301 65/52/302 76/61/303 75/62/304
f 65/52/305 56/60/306 66/66/307 76/61/308
g knife2:Hilt knife2:Knife1 knife2:polySurface1
f 77/112/309 78/106/310 80/107/311 79/113/312
f 85/114/313 86/115/314 82/116/315 81/117/316
f 81/111/317 82/105/318 84/104/319 83/108/320
f 83/118/321 84/119/322 87/120/323 88/121/324
f 86/126/325 87/127/326 84/104/327 82/105/328
f 83/108/329 88/109/330 85/110/331 81/111/332
f 79/122/333 80/123/334 86/115/335 85/114/336
f 78/106/337 87/103/338 86/102/339 80/107/340
f 88/121/341 87/120/342 78/124/343 77/125/344
f 85/110/345 88/109/346 77/112/347 79/113/348
