# This file uses centimeters as units for non-parametric coordinates.

mtllib knife2.mtl
g default
v -0.081267 0.898192 0.007028
v 0.066394 0.898192 0.012565
v -0.005002 2.643642 0.007028
v 0.066394 2.643642 0.012565
v -0.005002 2.643642 -0.007028
v 0.066394 2.643642 -0.012565
v -0.081267 0.898192 -0.007028
v 0.066394 0.898192 -0.012565
v -0.075988 2.769455 0.000000
v 0.101660 3.006427 0.000000
v 0.135849 0.898192 0.000000
v -0.261628 0.898192 0.000000
v -0.081267 2.313738 0.007028
v 0.066394 2.313738 0.012565
v 0.135849 2.607954 0.000000
v 0.066394 2.313738 -0.012565
v -0.081267 2.313738 -0.007028
v -0.227729 2.249981 0.000000
v -0.081267 1.757821 0.007028
v 0.066394 1.757821 0.012565
v 0.135849 1.936491 0.000000
v 0.066394 1.757821 -0.012565
v -0.081267 1.757821 -0.007028
v -0.269171 1.757821 0.000000
vt 0.119610 0.671437
vt 0.189650 0.671437
vt 0.189650 0.827920
vt 0.155785 0.827920
vt 0.122114 0.887597
vt 0.206378 1.000000
vt 0.189650 0.827920
vt 0.155785 0.827920
vt 0.189650 0.671437
vt 0.119610 0.671437
vt 0.119610 0.000000
vt 0.189650 0.000000
vt 0.222595 0.000000
vt 0.034059 0.000000
vt 0.222595 0.810992
vt 0.050138 0.641195
vt 0.189650 0.000000
vt 0.119610 0.000000
vt 0.119610 0.407748
vt 0.189650 0.407748
vt 0.222595 0.492497
vt 0.189650 0.407748
vt 0.119610 0.407748
vt 0.030481 0.407748
vn -0.039846 0.001065 0.999205
vn -0.041452 0.001784 0.999139
vn -0.050487 0.005836 0.998708
vn -0.050487 0.005836 0.998708
vn -0.843370 0.537333 0.000000
vn -0.843370 0.537333 0.000000
vn -0.056337 0.035894 -0.997766
vn -0.056337 0.035894 -0.997766
vn -0.050487 0.005836 -0.998708
vn -0.050487 0.005836 -0.998708
vn -0.041452 0.001784 -0.999139
vn -0.039846 0.001065 -0.999205
vn 0.000000 -1.000000 0.000007
vn 0.000000 -1.000000 0.000007
vn 0.000000 -1.000000 0.000004
vn 0.000000 -1.000000 0.000004
vn 0.998900 0.046888 0.000000
vn 0.999775 0.021202 0.000000
vn 0.179183 0.002331 -0.983813
vn 0.182272 0.008556 -0.983211
vn -0.050681 0.008514 -0.998679
vn -0.995946 0.089955 -0.000001
vn -0.965807 0.259260 -0.000002
vn -0.059929 0.016087 -0.998073
vn -0.056337 0.035894 0.997766
vn -0.056337 0.035894 0.997766
vn 0.179183 0.002331 0.983813
vn 0.182272 0.008556 0.983211
vn 0.000000 -1.000000 0.000000
vn 0.000000 -1.000000 0.000000
vn -0.050681 0.008514 0.998679
vn -0.059929 0.016087 0.998073
vn -0.037471 0.000000 0.999298
vn -0.037471 0.000000 0.999298
vn 0.178024 0.000000 0.984026
vn 1.000000 0.000000 0.000000
vn 0.178024 0.000000 -0.984026
vn -0.037471 0.000000 -0.999298
vn -0.037471 0.000000 -0.999298
vn -0.039625 0.000485 -0.999215
vn -0.999952 0.009817 0.000000
vn -0.039625 0.000485 0.999215
vn -0.037471 0.000000 0.999298
vn -0.037471 0.000000 0.999298
vn 0.178024 0.000000 0.984026
vn 1.000000 0.000000 0.000000
vn 0.178024 0.000000 -0.984026
vn -0.037471 0.000000 -0.999298
vn -0.037471 0.000000 -0.999298
vn -0.038143 -0.000167 -0.999272
vn -0.999990 -0.004387 0.000000
vn -0.038143 -0.000167 0.999272
s 1
g Blade Knife1
usemtl initialShadingGroup
f 13/1/1 14/2/2 4/3/3 3/4/4
s 2
f 9/5/5 10/6/6 6/7/7 5/8/8
s 3
f 5/8/9 6/7/10 16/9/11 17/10/12
s 4
f 7/11/13 8/12/14 11/13/15 12/14/16
s 5
f 10/6/17 15/15/18 16/9/19 6/7/20
s 6
f 17/10/21 18/16/22 9/5/23 5/8/24
s 2
f 3/4/25 4/3/26 10/6/6 9/5/5
s 5
f 14/2/27 15/15/18 10/6/17 4/3/28
s 4
f 12/14/16 11/13/15 2/17/29 1/18/30
s 6
f 9/5/23 18/16/22 13/1/31 3/4/32
s 1
f 19/19/33 20/20/34 14/2/2 13/1/1
s 5
f 20/20/35 21/21/36 15/15/18 14/2/27
f 16/9/19 15/15/18 21/21/36 22/22/37
s 3
f 17/10/12 16/9/11 22/22/38 23/23/39
s 6
f 23/23/40 24/24/41 18/16/22 17/10/21
f 13/1/31 18/16/22 24/24/41 19/19/42
s 1
f 1/18/43 2/17/44 20/20/34 19/19/33
s 5
f 2/17/45 11/13/46 21/21/36 20/20/35
f 22/22/37 21/21/36 11/13/46 8/12/47
s 3
f 23/23/39 22/22/38 8/12/48 7/11/49
s 6
f 7/11/50 12/14/51 24/24/41 23/23/40
f 19/19/42 24/24/41 12/14/51 1/18/52
g default
v 0.103256 0.071472 -0.056148
v 0.051457 0.071472 -0.092669
v -0.012571 0.071472 -0.092669
v -0.086204 0.071472 -0.056148
v -0.127961 0.071472 0.002944
v -0.086204 0.071472 0.062036
v -0.012571 0.071472 0.098557
v 0.051457 0.071472 0.098557
v 0.103256 0.071472 0.062036
v 0.123041 0.071472 0.002944
v 0.080259 0.244957 -0.039934
v 0.042673 0.244957 -0.066435
v -0.003787 0.244957 -0.066435
v -0.041374 0.244957 -0.039934
v -0.055730 0.244957 0.002944
v -0.041374 0.244957 0.045823
v -0.003787 0.244957 0.072323
v 0.042673 0.244957 0.072323
v 0.080259 0.244957 0.045823
v 0.094616 0.244957 0.002944
v 0.080464 0.024161 -0.040079
v 0.042751 0.024161 -0.066668
v 0.019443 0.024161 0.002944
v -0.003865 0.024161 -0.066668
v -0.041578 0.024161 -0.040078
v -0.076817 0.024161 0.002944
v -0.041578 0.024161 0.045967
v -0.003865 0.024161 0.072556
v 0.042751 0.024161 0.072556
v 0.080464 0.024161 0.045967
v 0.094869 0.024161 0.002944
v 0.085424 0.650445 -0.037328
v 0.050122 0.650445 -0.062217
v 0.006487 0.650445 -0.062217
v -0.028815 0.650445 -0.037328
v -0.042299 0.650445 0.002944
v -0.028815 0.650445 0.043216
v 0.006487 0.650445 0.068105
v 0.050122 0.650445 0.068105
v 0.085424 0.650445 0.043216
v 0.098908 0.650445 0.002944
v 0.099217 0.910459 -0.023513
v 0.054128 0.910458 -0.039477
v 0.037836 0.910459 0.002944
v -0.002048 0.910459 -0.039066
v -0.047784 0.910459 -0.022842
v -0.065312 0.910458 0.002944
v -0.047784 0.910459 0.028729
v -0.002048 0.910459 0.044954
v 0.054128 0.910458 0.045366
v 0.099217 0.910458 0.029401
v 0.116339 0.910458 0.002943
vt 1.455995 -0.890642
vt 1.518511 -0.890888
vt 1.038875 -0.697905
vt 1.415587 -0.707105
vt 1.430068 -0.950133
vt 1.483416 -0.954921
vt 1.036179 -0.886388
vt 1.079675 -0.702160
vt 1.063702 -0.280970
vt 1.404222 -0.286430
vt 1.062040 -0.945515
vt 1.101572 -0.282607
vt 1.067602 -0.009841
vt 1.417176 -0.015346
vt 1.374086 -0.708893
vt 1.366385 -0.287134
vt 1.121219 -0.704563
vt 1.139413 -0.284240
vt 1.095260 -0.011387
vt 1.198247 -0.888226
vt 1.245558 -0.889047
vt 1.247781 -0.708187
vt 1.205463 -0.707288
vt 1.198375 -0.941855
vt 1.245148 -0.942916
vt 1.292965 -0.889630
vt 1.290067 -0.708845
vt 1.252931 -0.284955
vt 1.215078 -0.284859
vt 1.150506 -0.887459
vt 1.163220 -0.706149
vt 1.152030 -0.940552
vt 1.292053 -0.943593
vt 1.340977 -0.889988
vt 1.332230 -0.709185
vt 1.290773 -0.285834
vt 1.256220 -0.013793
vt 1.228236 -0.014277
vt 1.177246 -0.284962
vt 1.338800 -0.944110
vt 1.328574 -0.286904
vt 1.284183 -0.014969
vt 1.935366 -0.745501
vt 1.961148 -0.780987
vt 2.002865 -0.723570
vt 2.002865 -0.794542
vt 1.935366 -0.701638
vt 2.044581 -0.780987
vt 1.961148 -0.666152
vt 2.070363 -0.745501
vt 2.002865 -0.632994
vt 2.070363 -0.701638
vt 2.044581 -0.666152
vt 1.917400 -0.953015
vt 1.932879 -0.910589
vt 1.891746 -0.895259
vt 1.932481 -0.857731
vt 1.891747 -0.969127
vt 1.916749 -0.814695
vt 1.866093 -0.953015
vt 1.891746 -0.798202
vt 1.850612 -0.910589
vt 1.866744 -0.814695
vt 1.851012 -0.857731
vt 1.390205 -0.890458
vt 1.384979 -0.945363
vt 1.374829 -0.016461
vt 1.325914 -0.016327
vt 1.101689 -0.887411
vt 1.106610 -0.939750
vt 1.186482 -0.014603
vt 1.137572 -0.013535
vt 1.442103 -0.285709
vt 1.444864 -0.014473
vt 1.456383 -0.703384
vt 0.973761 -0.886811
vt 1.009149 -0.950887
vn 0.576207 0.008516 -0.817260
vn 0.576207 0.008516 -0.817260
vn 0.575434 0.052457 -0.816164
vn 0.575454 0.051794 -0.816193
vn -0.000000 0.008430 -0.999964
vn -0.000000 0.008430 -0.999964
vn 0.000000 0.060030 -0.998197
vn 0.000000 0.059286 -0.998241
vn -0.493008 0.005424 -0.870008
vn -0.492754 0.032320 -0.869568
vn -0.541430 0.086841 -0.836249
vn -0.542906 0.084245 -0.835557
vn -0.858756 0.021292 -0.511942
vn -0.859733 0.067750 -0.506231
vn -0.915520 0.138991 -0.377498
vn -0.917068 0.134807 -0.375251
vn -0.859733 0.067750 0.506231
vn -0.858756 0.021292 0.511942
vn -0.917068 0.134807 0.375251
vn -0.915520 0.138991 0.377498
vn -0.492754 0.032321 0.869568
vn -0.493008 0.005424 0.870008
vn -0.542906 0.084245 0.835557
vn -0.541430 0.086841 0.836249
vn 0.000000 0.008430 0.999964
vn 0.000000 0.008430 0.999964
vn 0.000000 0.059286 0.998241
vn 0.000000 0.060030 0.998197
vn 0.576207 0.008516 0.817260
vn 0.576207 0.008516 0.817260
vn 0.575454 0.051794 0.816192
vn 0.575434 0.052457 0.816164
vn 0.948222 0.008662 0.317489
vn 0.948222 0.008662 0.317489
vn 0.947176 0.047753 0.317139
vn 0.947164 0.048024 0.317135
vn 0.948222 0.008662 -0.317489
vn 0.948222 0.008662 -0.317489
vn 0.947164 0.048024 -0.317135
vn 0.947176 0.047753 -0.317139
vn 0.000000 -1.000000 -0.000000
vn 0.000000 -1.000000 0.000000
vn 0.000000 -1.000000 0.000000
vn 0.000000 -1.000000 -0.000000
vn 0.000000 -1.000000 -0.000000
vn 0.000000 -1.000000 0.000000
vn 0.000000 -1.000000 -0.000000
vn 0.000000 -1.000000 0.000000
vn 0.000000 -1.000000 0.000000
vn 0.000000 -1.000000 0.000000
vn 0.000000 -1.000000 0.000000
vn 0.000000 1.000000 0.000000
vn 0.000000 1.000000 -0.000000
vn 0.000001 1.000000 0.000000
vn 0.000000 1.000000 -0.000000
vn -0.000001 1.000000 0.000000
vn -0.000001 1.000000 0.000000
vn -0.000001 1.000000 0.000001
vn 0.000000 1.000000 0.000002
vn 0.000001 1.000000 0.000001
vn 0.000001 1.000000 0.000004
vn 0.000001 1.000000 0.000002
vn 0.503792 -0.485397 -0.714551
vn 0.503792 -0.485397 -0.714551
vn -0.000000 -0.481628 -0.876376
vn -0.000000 -0.481628 -0.876376
vn -0.410650 -0.553577 -0.724513
vn -0.410650 -0.553577 -0.724513
vn -0.590432 -0.673194 -0.445196
vn -0.590432 -0.673194 -0.445196
vn -0.590432 -0.673194 0.445196
vn -0.590432 -0.673194 0.445196
vn -0.410650 -0.553577 0.724513
vn -0.410650 -0.553577 0.724513
vn 0.000000 -0.481628 0.876376
vn 0.000000 -0.481628 0.876376
vn 0.503792 -0.485397 0.714551
vn 0.503792 -0.485397 0.714551
vn 0.825716 -0.491687 0.276471
vn 0.825716 -0.491687 0.276471
vn 0.825716 -0.491687 -0.276471
vn 0.825716 -0.491687 -0.276471
vn 0.267471 0.031490 -0.963051
vn 0.527625 0.017879 -0.849289
vn -0.264690 0.038071 -0.963582
vn -0.527297 0.030240 -0.849143
vn -0.934616 -0.001020 -0.355656
vn -0.935073 0.000010 -0.354454
vn -0.935073 0.000010 0.354456
vn -0.934616 -0.001019 0.355658
vn -0.264694 0.038071 0.963581
vn -0.527299 0.030240 0.849142
vn 0.267471 0.031489 0.963051
vn 0.527629 0.017879 0.849287
vn 0.935410 -0.021846 0.352891
vn 0.935889 -0.021427 0.351642
vn 0.935889 -0.021427 -0.351643
vn 0.935409 -0.021847 -0.352892
vn 0.222161 0.070196 -0.972480
vn 0.452544 0.047109 -0.890497
vn -0.229105 0.066578 -0.971122
vn -0.452065 0.040583 -0.891061
vn -0.903517 -0.061126 -0.424171
vn -0.903517 -0.061126 -0.424171
vn -0.903515 -0.061125 0.424176
vn -0.903515 -0.061125 0.424176
vn -0.229113 0.066578 0.971120
vn -0.452069 0.040584 0.891059
vn 0.222161 0.070195 0.972480
vn 0.452554 0.047107 0.890492
vn 0.908089 -0.043459 0.416516
vn 0.908089 -0.043459 0.416516
vn 0.908087 -0.043460 -0.416521
vn 0.908087 -0.043460 -0.416521
s 1
g Knife1 Grip
usemtl initialShadingGroup
f 25/50/53 26/58/54 36/59/55 35/51/56
f 26/58/57 27/89/58 37/39/59 36/59/60
f 27/89/61 28/25/62 38/28/63 37/39/64
s 4
f 28/25/65 29/26/66 39/99/67 38/28/68
s 5
f 29/100/69 30/31/70 40/32/71 39/27/72
s 6
f 30/31/73 31/93/74 41/41/75 40/32/76
f 31/93/77 32/54/78 42/55/79 41/41/80
f 32/54/81 33/44/82 43/47/83 42/55/84
s 9
f 33/44/85 34/45/86 44/46/87 43/47/88
s 10
f 34/45/89 25/50/90 35/51/91 44/46/92
s 11
f 46/67/93 45/68/94 47/69/95
f 48/71/96 46/67/93 47/69/95
f 49/73/97 48/71/96 47/69/95
f 50/75/98 49/73/97 47/69/95
f 51/77/99 50/75/98 47/69/95
f 52/76/100 51/77/99 47/69/95
f 53/74/101 52/76/100 47/69/95
f 54/72/102 53/74/101 47/69/95
f 55/70/103 54/72/102 47/69/95
f 45/68/94 55/70/103 47/69/95
s 12
f 66/78/104 67/79/105 68/80/106
f 67/79/105 69/81/107 68/80/106
f 69/81/107 70/83/108 68/80/106
f 70/83/108 71/85/109 68/80/106
f 71/85/109 72/87/110 68/80/106
f 72/87/110 73/88/111 68/80/106
f 73/88/111 74/86/112 68/80/106
f 74/86/112 75/84/113 68/80/106
f 75/84/113 76/82/114 68/80/106
f 76/82/114 66/78/104 68/80/106
s 1
f 26/58/54 25/50/53 45/57/115 46/64/116
f 27/89/58 26/58/57 46/64/117 48/90/118
f 28/25/62 27/89/61 48/90/119 49/29/120
s 4
f 29/26/66 28/25/65 49/29/121 50/30/122
s 5
f 30/31/70 29/100/69 50/101/123 51/35/124
s 6
f 31/93/74 30/31/73 51/35/125 52/94/126
f 32/54/78 31/93/77 52/94/127 53/56/128
f 33/44/82 32/54/81 53/56/129 54/48/130
s 9
f 34/45/86 33/44/85 54/48/131 55/49/132
s 10
f 25/50/90 34/45/89 55/49/133 45/57/134
s 1
f 35/51/56 36/59/55 57/65/135 56/60/136
f 36/59/60 37/39/59 58/40/137 57/65/135
f 37/39/64 38/28/63 59/34/138 58/40/137
s 4
f 38/28/68 39/99/67 60/97/139 59/34/140
s 5
f 39/27/72 40/32/71 61/36/141 60/33/142
s 6
f 40/32/76 41/41/75 62/42/143 61/36/144
f 41/41/80 42/55/79 63/63/145 62/42/143
f 42/55/84 43/47/83 64/53/146 63/63/145
s 9
f 43/47/88 44/46/87 65/52/147 64/53/148
s 10
f 44/46/92 35/51/91 56/60/149 65/52/150
s 1
f 56/60/136 57/65/135 67/92/151 66/66/152
f 57/65/135 58/40/137 69/91/153 67/92/151
f 58/40/137 59/34/138 70/38/154 69/91/153
s 4
f 59/34/140 60/97/139 71/98/155 70/38/156
s 5
f 60/33/142 61/36/141 72/43/157 71/37/158
s 6
f 61/36/144 62/42/143 73/96/159 72/43/160
f 62/42/143 63/63/145 74/95/161 73/96/159
f 63/63/145 64/53/146 75/62/162 74/95/161
s 9
f 64/53/148 65/52/147 76/61/163 75/62/164
s 10
f 65/52/150 56/60/149 66/66/165 76/61/166
g default
v -0.325162 0.854202 0.021304
v 0.108053 0.854202 0.067987
v -0.325162 0.957801 0.020400
v 0.108053 0.957801 0.055636
v -0.325162 0.957801 -0.020400
v 0.108053 0.957801 -0.055636
v -0.325162 0.854202 -0.032751
v 0.108053 0.854202 -0.055636
v -0.369933 0.957801 -0.000000
v 0.159451 0.957801 0.000000
v 0.159451 0.854202 0.000000
v -0.369933 0.854202 -0.005724
vt -0.448136 1.085963
vt -0.246540 0.948468
vt -0.791115 0.354931
vt -0.957623 0.533315
vt -0.332147 0.822827
vt -0.518897 0.982213
vt -0.604217 0.529386
vt -0.560329 0.576906
vt -0.731591 0.751183
vt -0.766817 0.713344
vt -0.516377 0.624366
vt -0.696429 0.789081
vt -0.776690 1.332075
vt 0.223310 1.332075
vt 0.126220 1.429923
vt -0.692119 1.367953
vt -0.692119 1.389675
vt 0.126220 1.429923
vt 0.223310 1.332075
vt -0.776690 1.342141
vt -0.692119 1.296197
vt 0.126220 1.234226
vt 0.126220 1.212505
vt -0.692119 1.294607
vt -1.049427 0.447623
vt -0.882919 0.269239
vn -0.093937 0.063559 0.993547
vn -0.093937 0.063559 0.993547
vn -0.093937 0.063559 0.993547
vn -0.093937 0.063559 0.993547
vn 0.000000 1.000000 -0.000000
vn 0.000000 1.000000 0.000000
vn 0.000000 1.000000 -0.000000
vn 0.000000 1.000000 -0.000000
vn -0.066812 0.059371 -0.995998
vn -0.066812 0.059371 -0.995998
vn -0.066812 0.059371 -0.995998
vn -0.066812 0.059371 -0.995998
vn 0.000000 -1.000000 -0.000000
vn 0.000000 -1.000000 -0.000000
vn 0.000000 -1.000000 0.000000
vn 0.000000 -1.000000 -0.000000
vn 0.999660 0.026078 0.000000
vn 0.999660 0.026078 0.000000
vn 0.734529 0.000000 -0.678578
vn 0.734529 0.000000 -0.678578
vn -0.466679 0.076860 -0.881081
vn -0.996401 0.063287 -0.056391
vn -0.996936 0.057260 0.053284
vn -0.466679 0.076860 -0.881081
vn 0.000000 1.000000 0.000000
vn 0.000000 1.000000 0.000000
vn 0.768345 0.038085 0.638902
vn 0.768345 0.038085 0.638902
vn 0.000000 -1.000000 0.000000
vn 0.000000 -1.000000 0.000000
vn -0.467965 -0.020552 0.883508
vn -0.467965 -0.020552 0.883508
s off
g Knife1 Hilt
usemtl initialShadingGroup
f 77/112/167 78/106/168 80/107/169 79/113/170
s 1
f 85/114/171 86/115/172 82/116/173 81/117/174
s off
f 81/111/175 82/105/176 84/104/177 83/108/178
s 2
f 83/118/179 84/119/180 87/120/181 88/121/182
s 3
f 86/126/183 87/127/184 84/104/185 82/105/186
s 4
f 83/108/187 88/109/188 85/110/189 81/111/190
s 1
f 79/122/191 80/123/192 86/115/172 85/114/171
s 3
f 78/106/193 87/103/184 86/102/183 80/107/194
s 2
f 88/121/182 87/120/181 78/124/195 77/125/196
s 4
f 85/110/189 88/109/188 77/112/197 79/113/198
