# This file uses centimeters as units for non-parametric coordinates.

mtllib knife.mtl
g default
v 0.082030 0.056780 -0.044606
v 0.040879 0.056780 -0.073619
v -0.009987 0.056780 -0.073619
v -0.068483 0.056780 -0.044606
v -0.101657 0.056780 0.002339
v -0.068483 0.056780 0.049284
v -0.009987 0.056780 0.078297
v 0.040879 0.056780 0.078297
v 0.082030 0.056780 0.049284
v 0.097748 0.056780 0.002339
v 0.063761 0.194603 -0.031725
v 0.033901 0.194603 -0.052778
v -0.003008 0.194603 -0.052778
v -0.032869 0.194603 -0.031725
v -0.044274 0.194603 0.002339
v -0.032869 0.194603 0.036403
v -0.003008 0.194603 0.057456
v 0.033901 0.194603 0.057456
v 0.063761 0.194603 0.036403
v 0.075166 0.194603 0.002339
v 0.063923 0.019194 -0.031840
v 0.033963 0.019194 -0.052963
v 0.015446 0.019194 0.002339
v -0.003071 0.019194 -0.052963
v -0.033031 0.019194 -0.031840
v -0.061026 0.019194 0.002339
v -0.033031 0.019194 0.036518
v -0.003071 0.019194 0.057641
v 0.033963 0.019194 0.057641
v 0.063923 0.019194 0.036518
v 0.075367 0.019194 0.002339
v 0.067864 0.516736 -0.029655
v 0.039819 0.516736 -0.049428
v 0.005153 0.516736 -0.049428
v -0.022892 0.516736 -0.029655
v -0.033604 0.516736 0.002339
v -0.022892 0.516736 0.034332
v 0.005153 0.516736 0.054105
v 0.039819 0.516736 0.054105
v 0.067864 0.516736 0.034332
v 0.078576 0.516736 0.002339
v 0.078821 0.723300 -0.018679
v 0.043001 0.723300 -0.031362
v 0.030058 0.723300 0.002339
v -0.001627 0.723300 -0.031035
v -0.037962 0.723300 -0.018146
v -0.051886 0.723300 0.002339
v -0.037962 0.723300 0.022823
v -0.001627 0.723300 0.035713
v 0.043001 0.723300 0.036041
v 0.078821 0.723300 0.023357
v 0.092424 0.723300 0.002338
vt 0.942767 0.556778
vt 0.972505 0.556661
vt 0.744348 0.648461
vt 0.923545 0.644085
vt 0.930434 0.528479
vt 0.955811 0.526201
vt 0.743065 0.558801
vt 0.763756 0.646437
vt 0.756158 0.846792
vt 0.918139 0.844195
vt 0.755367 0.530675
vt 0.774172 0.846014
vt 0.758013 0.975765
vt 0.924302 0.973147
vt 0.903804 0.643234
vt 0.900141 0.843860
vt 0.783518 0.645294
vt 0.792173 0.845237
vt 0.771169 0.975030
vt 0.820159 0.557927
vt 0.842665 0.557536
vt 0.843722 0.643570
vt 0.823592 0.643997
vt 0.820220 0.532416
vt 0.842470 0.531912
vt 0.865216 0.557259
vt 0.863837 0.643257
vt 0.846172 0.844897
vt 0.828166 0.844942
vt 0.797449 0.558292
vt 0.803497 0.644539
vt 0.798174 0.533036
vt 0.864782 0.531590
vt 0.888054 0.557089
vt 0.883894 0.643095
vt 0.864173 0.844478
vt 0.847737 0.973885
vt 0.834425 0.973655
vt 0.810169 0.844893
vt 0.887019 0.531343
vt 0.882155 0.843969
vt 0.861038 0.973326
vt 0.624385 0.600355
vt 0.645237 0.595489
vt 0.642298 0.630009
vt 0.664966 0.603809
vt 0.610376 0.616547
vt 0.676037 0.622137
vt 0.608559 0.637882
vt 0.674220 0.643471
vt 0.613369 0.663446
vt 0.660211 0.659664
vt 0.639359 0.664530
vt 0.684030 0.518010
vt 0.676194 0.538617
vt 0.656113 0.531138
vt 0.659165 0.558002
vt 0.679706 0.503869
vt 0.639612 0.568865
vt 0.665090 0.501624
vt 0.625114 0.566968
vt 0.645825 0.512341
vt 0.621152 0.552894
vt 0.629090 0.531982
vt 0.911472 0.556865
vt 0.908986 0.530748
vt 0.904157 0.972616
vt 0.880889 0.972680
vt 0.774228 0.558315
vt 0.776568 0.533418
vt 0.814563 0.973500
vt 0.791297 0.974008
vt 0.936159 0.844538
vt 0.937472 0.973562
vt 0.942952 0.645854
vt 0.713374 0.558600
vt 0.730207 0.528120
vn 0.576207 0.008516 -0.817260
vn 0.576207 0.008516 -0.817260
vn 0.575434 0.052457 -0.816164
vn 0.575454 0.051794 -0.816193
vn -0.000000 0.008430 -0.999964
vn -0.000000 0.008430 -0.999964
vn 0.000000 0.060030 -0.998197
vn 0.000000 0.059286 -0.998241
vn -0.493008 0.005424 -0.870008
vn -0.492754 0.032320 -0.869568
vn -0.541430 0.086841 -0.836249
vn -0.542906 0.084245 -0.835557
vn -0.858756 0.021292 -0.511942
vn -0.859732 0.067750 -0.506231
vn -0.915520 0.138991 -0.377498
vn -0.917068 0.134807 -0.375251
vn -0.859732 0.067750 0.506231
vn -0.858756 0.021292 0.511942
vn -0.917068 0.134807 0.375251
vn -0.915520 0.138991 0.377498
vn -0.492754 0.032321 0.869568
vn -0.493007 0.005424 0.870008
vn -0.542906 0.084245 0.835558
vn -0.541430 0.086841 0.836249
vn 0.000000 0.008430 0.999964
vn 0.000000 0.008430 0.999964
vn 0.000000 0.059286 0.998241
vn 0.000000 0.060030 0.998197
vn 0.576207 0.008516 0.817260
vn 0.576207 0.008516 0.817260
vn 0.575454 0.051794 0.816192
vn 0.575434 0.052457 0.816164
vn 0.948222 0.008662 0.317489
vn 0.948222 0.008662 0.317489
vn 0.947176 0.047753 0.317139
vn 0.947164 0.048024 0.317135
vn 0.948222 0.008662 -0.317489
vn 0.948222 0.008662 -0.317489
vn 0.947164 0.048024 -0.317135
vn 0.947176 0.047753 -0.317139
vn 0.000000 -1.000000 -0.000000
vn 0.000000 -1.000000 0.000000
vn 0.000000 -1.000000 0.000000
vn 0.000000 -1.000000 -0.000000
vn 0.000000 -1.000000 -0.000000
vn 0.000000 -1.000000 0.000000
vn 0.000000 -1.000000 -0.000000
vn 0.000000 -1.000000 0.000000
vn 0.000000 -1.000000 0.000000
vn 0.000000 -1.000000 0.000000
vn 0.000000 -1.000000 0.000000
vn 0.000000 1.000000 0.000000
vn 0.000000 1.000000 -0.000000
vn 0.000001 1.000000 0.000000
vn 0.000000 1.000000 -0.000000
vn -0.000001 1.000000 0.000000
vn -0.000001 1.000000 0.000000
vn -0.000001 1.000000 0.000001
vn 0.000000 1.000000 0.000002
vn 0.000001 1.000000 0.000001
vn 0.000001 1.000000 0.000004
vn 0.000001 1.000000 0.000002
vn 0.503792 -0.485397 -0.714551
vn 0.503792 -0.485397 -0.714551
vn -0.000000 -0.481628 -0.876376
vn -0.000000 -0.481628 -0.876376
vn -0.410650 -0.553577 -0.724513
vn -0.410650 -0.553577 -0.724513
vn -0.590432 -0.673194 -0.445196
vn -0.590432 -0.673194 -0.445196
vn -0.590432 -0.673194 0.445196
vn -0.590432 -0.673194 0.445196
vn -0.410650 -0.553577 0.724513
vn -0.410650 -0.553577 0.724513
vn 0.000000 -0.481628 0.876376
vn 0.000000 -0.481628 0.876376
vn 0.503792 -0.485397 0.714551
vn 0.503792 -0.485397 0.714551
vn 0.825716 -0.491687 0.276471
vn 0.825716 -0.491687 0.276471
vn 0.825716 -0.491687 -0.276471
vn 0.825716 -0.491687 -0.276471
vn 0.267471 0.031490 -0.963051
vn 0.527625 0.017879 -0.849289
vn -0.264690 0.038071 -0.963582
vn -0.527297 0.030240 -0.849143
vn -0.934616 -0.001020 -0.355656
vn -0.935073 0.000010 -0.354454
vn -0.935073 0.000010 0.354456
vn -0.934616 -0.001019 0.355658
vn -0.264694 0.038071 0.963581
vn -0.527299 0.030240 0.849142
vn 0.267471 0.031489 0.963051
vn 0.527628 0.017879 0.849287
vn 0.935410 -0.021846 0.352891
vn 0.935889 -0.021427 0.351642
vn 0.935889 -0.021427 -0.351643
vn 0.935409 -0.021847 -0.352892
vn 0.222161 0.070196 -0.972480
vn 0.452544 0.047109 -0.890497
vn -0.229105 0.066578 -0.971122
vn -0.452065 0.040583 -0.891061
vn -0.903517 -0.061126 -0.424172
vn -0.903517 -0.061126 -0.424171
vn -0.903515 -0.061125 0.424176
vn -0.903515 -0.061125 0.424176
vn -0.229113 0.066578 0.971120
vn -0.452069 0.040584 0.891059
vn 0.222161 0.070195 0.972480
vn 0.452554 0.047107 0.890492
vn 0.908089 -0.043459 0.416516
vn 0.908089 -0.043459 0.416516
vn 0.908087 -0.043460 -0.416521
vn 0.908087 -0.043460 -0.416521
s 1
g Grip Knife1
usemtl initialShadingGroup
f 1/26/1 2/34/2 12/35/3 11/27/4
f 2/34/5 3/65/6 13/15/7 12/35/8
f 3/65/9 4/1/10 14/4/11 13/15/12
s 4
f 4/1/13 5/2/14 15/75/15 14/4/16
s 5
f 5/76/17 6/7/18 16/8/19 15/3/20
s 6
f 6/7/21 7/69/22 17/17/23 16/8/24
f 7/69/25 8/30/26 18/31/27 17/17/28
f 8/30/29 9/20/30 19/23/31 18/31/32
s 9
f 9/20/33 10/21/34 20/22/35 19/23/36
s 10
f 10/21/37 1/26/38 11/27/39 20/22/40
s 11
f 22/43/41 21/44/42 23/45/43
f 24/47/44 22/43/41 23/45/43
f 25/49/45 24/47/44 23/45/43
f 26/51/46 25/49/45 23/45/43
f 27/53/47 26/51/46 23/45/43
f 28/52/48 27/53/47 23/45/43
f 29/50/49 28/52/48 23/45/43
f 30/48/50 29/50/49 23/45/43
f 31/46/51 30/48/50 23/45/43
f 21/44/42 31/46/51 23/45/43
s 12
f 42/54/52 43/55/53 44/56/54
f 43/55/53 45/57/55 44/56/54
f 45/57/55 46/59/56 44/56/54
f 46/59/56 47/61/57 44/56/54
f 47/61/57 48/63/58 44/56/54
f 48/63/58 49/64/59 44/56/54
f 49/64/59 50/62/60 44/56/54
f 50/62/60 51/60/61 44/56/54
f 51/60/61 52/58/62 44/56/54
f 52/58/62 42/54/52 44/56/54
s 1
f 2/34/2 1/26/1 21/33/63 22/40/64
f 3/65/6 2/34/5 22/40/65 24/66/66
f 4/1/10 3/65/9 24/66/67 25/5/68
s 4
f 5/2/14 4/1/13 25/5/69 26/6/70
s 5
f 6/7/18 5/76/17 26/77/71 27/11/72
s 6
f 7/69/22 6/7/21 27/11/73 28/70/74
f 8/30/26 7/69/25 28/70/75 29/32/76
f 9/20/30 8/30/29 29/32/77 30/24/78
s 9
f 10/21/34 9/20/33 30/24/79 31/25/80
s 10
f 1/26/38 10/21/37 31/25/81 21/33/82
s 1
f 11/27/4 12/35/3 33/41/83 32/36/84
f 12/35/8 13/15/7 34/16/85 33/41/83
f 13/15/12 14/4/11 35/10/86 34/16/85
s 4
f 14/4/16 15/75/15 36/73/87 35/10/88
s 5
f 15/3/20 16/8/19 37/12/89 36/9/90
s 6
f 16/8/24 17/17/23 38/18/91 37/12/92
f 17/17/28 18/31/27 39/39/93 38/18/91
f 18/31/32 19/23/31 40/29/94 39/39/93
s 9
f 19/23/36 20/22/35 41/28/95 40/29/96
s 10
f 20/22/40 11/27/39 32/36/97 41/28/98
s 1
f 32/36/84 33/41/83 43/68/99 42/42/100
f 33/41/83 34/16/85 45/67/101 43/68/99
f 34/16/85 35/10/86 46/14/102 45/67/101
s 4
f 35/10/88 36/73/87 47/74/103 46/14/104
s 5
f 36/9/90 37/12/89 48/19/105 47/13/106
s 6
f 37/12/92 38/18/91 49/72/107 48/19/108
f 38/18/91 39/39/93 50/71/109 49/72/107
f 39/39/93 40/29/94 51/38/110 50/71/109
s 9
f 40/29/96 41/28/95 52/37/111 51/38/112
s 10
f 41/28/98 32/36/97 42/42/113 52/37/114
g default
v -0.258320 0.678608 0.016924
v 0.085841 0.678608 0.054011
v -0.258320 0.760910 0.016206
v 0.085841 0.760910 0.044199
v -0.258320 0.760910 -0.016206
v 0.085841 0.760910 -0.044199
v -0.258320 0.678608 -0.026018
v 0.085841 0.678608 -0.044199
v -0.293888 0.760910 -0.000000
v 0.126673 0.760910 0.000000
v 0.126673 0.678608 0.000000
v -0.293888 0.678608 -0.004547
vt 0.642395 0.957964
vt 0.686899 0.967655
vt 0.697504 0.817679
vt 0.651958 0.817989
vt 0.692950 0.939931
vt 0.647383 0.935060
vt 0.697829 0.865399
vt 0.697017 0.877445
vt 0.651418 0.876585
vt 0.652029 0.866954
vt 0.696221 0.889493
vt 0.650791 0.886214
vt 0.592394 0.949249
vt 0.623060 0.691074
vt 0.645344 0.719141
vt 0.604250 0.928515
vt 0.610839 0.935064
vt 0.646325 0.725023
vt 0.624040 0.696956
vt 0.595973 0.955440
vt 0.585725 0.926315
vt 0.594821 0.713139
vt 0.590193 0.718356
vt 0.586295 0.932148
vt 0.651798 0.794550
vt 0.697344 0.794239
vn -0.093937 0.063559 0.993547
vn -0.093937 0.063559 0.993547
vn -0.093937 0.063559 0.993547
vn -0.093937 0.063559 0.993547
vn 0.000000 1.000000 -0.000000
vn 0.000000 1.000000 0.000000
vn 0.000000 1.000000 -0.000000
vn 0.000000 1.000000 -0.000000
vn -0.066812 0.059371 -0.995998
vn -0.066812 0.059371 -0.995998
vn -0.066812 0.059371 -0.995998
vn -0.066812 0.059371 -0.995998
vn 0.000000 -1.000000 -0.000000
vn 0.000000 -1.000000 -0.000000
vn 0.000000 -1.000000 0.000000
vn 0.000000 -1.000000 -0.000000
vn 0.999660 0.026078 0.000000
vn 0.999660 0.026078 0.000000
vn 0.734529 0.000000 -0.678578
vn 0.734529 0.000000 -0.678578
vn -0.466679 0.076860 -0.881081
vn -0.996401 0.063287 -0.056391
vn -0.996936 0.057260 0.053284
vn -0.466679 0.076860 -0.881081
vn 0.000000 1.000000 0.000000
vn 0.000000 1.000000 0.000000
vn 0.768345 0.038085 0.638902
vn 0.768345 0.038085 0.638902
vn 0.000000 -1.000000 0.000000
vn 0.000000 -1.000000 0.000000
vn -0.467965 -0.020552 0.883508
vn -0.467965 -0.020552 0.883508
s off
g Knife1 Hilt
usemtl initialShadingGroup
f 53/88/115 54/82/116 56/83/117 55/89/118
s 1
f 61/90/119 62/91/120 58/92/121 57/93/122
s off
f 57/87/123 58/81/124 60/80/125 59/84/126
s 2
f 59/94/127 60/95/128 63/96/129 64/97/130
s 3
f 62/102/131 63/103/132 60/80/133 58/81/134
s 4
f 59/84/135 64/85/136 61/86/137 57/87/138
s 1
f 55/98/139 56/99/140 62/91/120 61/90/119
s 3
f 54/82/141 63/79/132 62/78/131 56/83/142
s 2
f 64/97/130 63/96/129 54/100/143 53/101/144
s 4
f 61/86/137 64/85/136 53/88/145 55/89/146
g default
v -0.064562 0.713556 0.005584
v 0.052746 0.713556 0.009982
v -0.003974 2.100202 0.005584
v 0.052746 2.100202 0.009982
v -0.003974 2.100202 -0.005584
v 0.052746 2.100202 -0.009982
v -0.064562 0.713556 -0.005584
v 0.052746 0.713556 -0.009982
v -0.060368 2.200152 0.000000
v 0.080762 2.388411 0.000000
v 0.107924 0.713556 0.000000
v -0.207847 0.713556 0.000000
v -0.064562 1.838115 0.005584
v 0.052746 1.838115 0.009982
v 0.107924 2.071850 0.000000
v 0.052746 1.838115 -0.009982
v -0.064562 1.838115 -0.005584
v -0.180916 1.787464 0.000000
v -0.064562 1.396475 0.005584
v 0.052746 1.396475 0.009982
v 0.107924 1.538417 0.000000
v 0.052746 1.396475 -0.009982
v -0.064562 1.396475 -0.005584
v -0.213839 1.396475 0.000000
vt 0.286129 0.636010
vt 0.344063 0.694578
vt 0.213212 0.824013
vt 0.185200 0.795695
vt 0.107448 0.816901
vt 0.083156 0.980336
vt 0.213212 0.824013
vt 0.185200 0.795695
vt 0.344063 0.694578
vt 0.286129 0.636010
vt 0.847580 0.080632
vt 0.905514 0.139199
vt 0.932764 0.166747
vt 0.776817 0.009095
vt 0.254618 0.837559
vt 0.253954 0.552905
vt 0.905514 0.139199
vt 0.847580 0.080632
vt 0.506624 0.417900
vt 0.564558 0.476468
vt 0.520941 0.574116
vt 0.564558 0.476468
vt 0.506624 0.417900
vt 0.432901 0.343372
vn -0.039846 0.001065 0.999205
vn -0.041452 0.001784 0.999139
vn -0.050487 0.005836 0.998708
vn -0.050487 0.005836 0.998708
vn -0.843370 0.537333 0.000000
vn -0.843370 0.537333 0.000000
vn -0.056337 0.035894 -0.997766
vn -0.056337 0.035894 -0.997766
vn -0.050487 0.005836 -0.998708
vn -0.050487 0.005836 -0.998708
vn -0.041452 0.001784 -0.999139
vn -0.039846 0.001065 -0.999205
vn 0.000000 -1.000000 0.000007
vn 0.000000 -1.000000 0.000007
vn 0.000000 -1.000000 0.000004
vn 0.000000 -1.000000 0.000004
vn 0.998900 0.046888 0.000000
vn 0.999775 0.021202 0.000000
vn 0.179183 0.002331 -0.983813
vn 0.182272 0.008556 -0.983211
vn -0.050681 0.008514 -0.998679
vn -0.995946 0.089955 -0.000001
vn -0.965807 0.259260 -0.000002
vn -0.059929 0.016087 -0.998073
vn -0.056337 0.035894 0.997766
vn -0.056337 0.035894 0.997766
vn 0.179183 0.002331 0.983813
vn 0.182272 0.008556 0.983211
vn 0.000000 -1.000000 0.000000
vn 0.000000 -1.000000 0.000000
vn -0.050681 0.008514 0.998679
vn -0.059929 0.016087 0.998073
vn -0.037471 0.000000 0.999298
vn -0.037471 0.000000 0.999298
vn 0.178024 0.000000 0.984026
vn 1.000000 0.000000 0.000000
vn 0.178024 0.000000 -0.984026
vn -0.037471 0.000000 -0.999298
vn -0.037471 0.000000 -0.999298
vn -0.039625 0.000485 -0.999215
vn -0.999952 0.009817 0.000000
vn -0.039625 0.000485 0.999215
vn -0.037471 0.000000 0.999298
vn -0.037471 0.000000 0.999298
vn 0.178024 0.000000 0.984026
vn 1.000000 0.000000 0.000000
vn 0.178024 0.000000 -0.984026
vn -0.037471 0.000000 -0.999298
vn -0.037471 0.000000 -0.999298
vn -0.038143 -0.000167 -0.999272
vn -0.999990 -0.004387 0.000000
vn -0.038143 -0.000167 0.999272
s 1
g Knife1 Blade
usemtl initialShadingGroup
f 77/104/147 78/105/148 68/106/149 67/107/150
s 2
f 73/108/151 74/109/152 70/110/153 69/111/154
s 3
f 69/111/155 70/110/156 80/112/157 81/113/158
s 4
f 71/114/159 72/115/160 75/116/161 76/117/162
s 5
f 74/109/163 79/118/164 80/112/165 70/110/166
s 6
f 81/113/167 82/119/168 73/108/169 69/111/170
s 2
f 67/107/171 68/106/172 74/109/152 73/108/151
s 5
f 78/105/173 79/118/164 74/109/163 68/106/174
s 4
f 76/117/162 75/116/161 66/120/175 65/121/176
s 6
f 73/108/169 82/119/168 77/104/177 67/107/178
s 1
f 83/122/179 84/123/180 78/105/148 77/104/147
s 5
f 84/123/181 85/124/182 79/118/164 78/105/173
f 80/112/165 79/118/164 85/124/182 86/125/183
s 3
f 81/113/158 80/112/157 86/125/184 87/126/185
s 6
f 87/126/186 88/127/187 82/119/168 81/113/167
f 77/104/177 82/119/168 88/127/187 83/122/188
s 1
f 65/121/189 66/120/190 84/123/180 83/122/179
s 5
f 66/120/191 75/116/192 85/124/182 84/123/181
f 86/125/183 85/124/182 75/116/192 72/115/193
s 3
f 87/126/185 86/125/184 72/115/194 71/114/195
s 6
f 71/114/196 76/117/197 88/127/187 87/126/186
f 83/122/188 88/127/187 76/117/197 65/121/198
