# This file uses centimeters as units for non-parametric coordinates.

mtllib onion.mtl
g default
v -0.991963 0.310348 -0.002965
v -0.985458 0.309956 -0.008882
v -0.976379 0.309422 -0.012364
v -0.966181 0.308748 -0.012947
v -0.954375 0.308658 -0.010186
v -0.946452 0.309306 -0.004709
v -0.943516 0.310247 0.001994
v -0.943744 0.310573 0.008730
v -0.946983 0.310250 0.015179
v -0.954769 0.310021 0.020250
v -0.966302 0.310449 0.022715
v -0.976277 0.311136 0.022024
v -0.985412 0.311287 0.018315
v -0.991758 0.311095 0.012106
v -0.994128 0.310738 0.004555
v -1.012016 0.299095 -0.011621
v -1.004188 0.259098 -0.084634
v -0.947653 0.297587 -0.027567
v -0.926475 0.299643 0.013278
v -0.965291 0.267893 0.083930
v -1.019767 0.287240 0.047988
v -1.067447 0.266888 0.000337
v -1.036105 0.284404 -0.023626
v -1.048709 0.240521 -0.083479
v -0.964182 0.237431 -0.104928
v -0.881199 0.263115 -0.013435
v -0.896743 0.266193 0.051752
v -0.926358 0.267126 0.072659
v -1.059733 0.264809 -0.036741
v -0.920565 0.237416 -0.088290
v -0.865971 0.241185 0.023152
v -1.010372 0.243523 0.095888
v -1.037551 0.267777 0.064841
v -1.059724 0.267536 0.036379
v -1.075667 0.242453 -0.046235
v -1.009235 0.238394 -0.104230
v -0.886166 0.237742 -0.057683
v -0.866806 0.239410 -0.018587
v -1.084238 0.219456 -0.049835
v -0.878909 0.165539 0.065589
v -0.911107 0.190458 0.091543
v -0.961902 0.190397 0.107553
v -1.060772 0.191227 0.087281
v -1.089884 0.194135 0.049965
v -1.099750 0.195324 0.001598
v -1.088569 0.194808 -0.050235
v -1.057437 0.168401 -0.093719
v -1.014207 0.167218 -0.119406
v -0.966447 0.166865 -0.121885
v -0.924880 0.166625 -0.105623
v -0.888661 0.167029 -0.073426
v -0.865655 0.167164 -0.026421
v -0.860060 0.191577 0.023826
v -1.013185 0.140339 0.107507
v -1.086987 0.170145 -0.048288
v -1.047906 0.119349 0.080923
v -0.883581 0.119691 -0.023007
v -0.881270 0.120035 0.022528
v -1.071082 0.121869 -0.038811
v -1.043307 0.100270 -0.065283
v -0.974523 0.116163 -0.104436
v -0.907657 0.117264 -0.063633
v -0.915758 0.101782 0.054113
v -0.944032 0.099879 0.078690
v -0.977002 0.098768 0.092022
v -1.011223 0.099771 0.089926
v -1.079920 0.123648 0.004791
v -1.009861 0.085996 -0.067331
v -0.974154 0.076103 -0.029936
v -1.033034 0.089012 0.056320
v -1.048513 0.089858 -0.026186
v -1.009705 0.076073 -0.025133
v -0.998372 0.075985 -0.032269
v -0.944713 0.078995 -0.010725
v -1.009121 0.086889 0.071820
v -1.017657 0.077495 0.014118
v -1.017626 0.076402 -0.013474
v -0.964731 0.076313 -0.020758
v -0.959606 0.076571 -0.007901
v -0.959730 0.076836 0.006421
v -0.966532 0.077265 0.019631
v -0.974129 0.077783 0.029331
v -0.998331 0.077711 0.032491
v -1.009756 0.077661 0.025469
v -1.020467 0.076916 0.000364
v -0.963647 0.370392 0.003380
v -0.960314 0.367734 0.001045
v -0.958433 0.361543 0.008217
v -0.957244 0.364552 0.000475
v -0.954499 0.359919 0.001406
v -0.952448 0.356409 0.003395
v -0.951370 0.354021 0.005772
v -0.951137 0.353155 0.008134
v -0.951822 0.353188 0.010367
v -0.953378 0.353827 0.012377
v -0.955941 0.355752 0.014095
v -0.963443 0.362475 0.015053
v -0.966194 0.365449 0.013426
v -0.967186 0.368856 0.010479
v -0.966146 0.370801 0.006847
v -0.978064 0.317849 0.000313
v -0.974720 0.318312 0.010759
v -0.964367 0.316656 -0.004533
v -1.008919 0.062294 -0.009335
v -1.003267 0.062059 -0.017641
v -0.989280 0.064624 -0.000098
v -0.987112 0.061285 -0.023915
v -0.979470 0.061377 -0.021053
v -0.971200 0.063582 -0.014564
v -0.967568 0.062694 -0.005472
v -0.967667 0.064448 0.004704
v -0.995989 0.065067 0.023171
v -1.003411 0.065735 0.018189
v -1.008985 0.063068 0.010216
v -1.010944 0.064716 0.000520
v -0.953140 0.339493 0.008636
v -0.959435 0.358567 0.015108
v -0.968628 0.338466 -0.002221
v -0.970294 0.336890 0.005991
v -0.961102 0.336204 -0.004414
v -0.966778 0.349498 0.000312
v -0.964680 0.334167 0.011656
v -0.964020 0.317686 0.012939
v -0.953421 0.318479 0.002818
v -0.973469 0.325785 -0.002644
v -1.006839 0.069794 -0.010666
v -0.994283 0.062279 -0.022708
v -0.985928 0.075974 -0.033981
v -0.971236 0.064751 0.014138
v -0.977839 0.065120 0.020982
v -0.987024 0.065040 0.024142
v -0.985853 0.077671 0.033867
vt 0.000000 0.066667
vt 0.066667 0.066667
vt 0.133333 0.066667
vt 0.200000 0.066667
vt 0.266667 0.066667
vt 0.333333 0.066667
vt 0.400000 0.066667
vt 0.466667 0.066667
vt 0.533333 0.066667
vt 0.600000 0.066667
vt 0.666667 0.066667
vt 0.733333 0.066667
vt 0.800000 0.066667
vt 0.866667 0.066667
vt 0.933333 0.066667
vt 1.000000 0.066667
vt 0.000000 0.133333
vt 0.133333 0.266667
vt 0.266667 0.133333
vt 0.466667 0.133333
vt 0.666667 0.266667
vt 0.800000 0.200000
vt 0.933333 0.266667
vt 1.000000 0.133333
vt 0.000000 0.200000
vt 0.066667 0.333333
vt 0.200000 0.333333
vt 0.400000 0.266667
vt 0.533333 0.266667
vt 0.600000 0.266667
vt 1.000000 0.200000
vt 0.000000 0.266667
vt 0.266667 0.333333
vt 0.466667 0.333333
vt 0.733333 0.333333
vt 0.800000 0.266667
vt 0.866667 0.266667
vt 1.000000 0.266667
vt 0.000000 0.333333
vt 0.133333 0.333333
vt 0.333333 0.333333
vt 0.400000 0.333333
vt 1.000000 0.333333
vt 0.000000 0.400000
vt 0.533333 0.533333
vt 0.600000 0.466667
vt 0.666667 0.466667
vt 0.800000 0.466667
vt 0.866667 0.466667
vt 0.933333 0.466667
vt 1.000000 0.400000
vt 0.000000 0.466667
vt 0.066667 0.533333
vt 0.133333 0.533333
vt 0.200000 0.533333
vt 0.266667 0.533333
vt 0.333333 0.533333
vt 0.400000 0.533333
vt 0.466667 0.466667
vt 0.733333 0.600000
vt 1.000000 0.466667
vt 0.000000 0.533333
vt 0.800000 0.666667
vt 1.000000 0.533333
vt 0.400000 0.666667
vt 0.466667 0.666667
vt 0.000000 0.666667
vt 0.066667 0.733333
vt 0.200000 0.666667
vt 0.333333 0.666667
vt 0.533333 0.733333
vt 0.600000 0.733333
vt 0.666667 0.733333
vt 0.733333 0.733333
vt 0.933333 0.666667
vt 1.000000 0.666667
vt 0.000000 0.800000
vt 0.133333 0.800000
vt 0.266667 0.933333
vt 0.800000 0.800000
vt 1.000000 0.800000
vt 0.066667 0.933333
vt 0.133333 0.933333
vt 0.400000 0.866667
vt 0.733333 0.800000
vt 0.866667 0.933333
vt 0.000000 0.933333
vt 0.333333 0.933333
vt 0.400000 0.933333
vt 0.466667 0.933333
vt 0.533333 0.933333
vt 0.600000 0.933333
vt 0.733333 0.933333
vt 0.800000 0.933333
vt 0.933333 0.933333
vt 1.000000 0.933333
vt 0.033333 0.000000
vt 0.100000 0.000000
vt 0.166667 0.000000
vt 0.233333 0.000000
vt 0.300000 0.000000
vt 0.366667 0.000000
vt 0.433333 0.000000
vt 0.500000 0.000000
vt 0.566667 0.000000
vt 0.633333 0.000000
vt 0.700000 0.000000
vt 0.766667 0.000000
vt 0.833333 0.000000
vt 0.900000 0.000000
vt 0.966667 0.000000
vt 0.033333 1.000000
vt 0.100000 1.000000
vt 0.166667 1.000000
vt 0.233333 1.000000
vt 0.300000 1.000000
vt 0.366667 1.000000
vt 0.433333 1.000000
vt 0.500000 1.000000
vt 0.566667 1.000000
vt 0.633333 1.000000
vt 0.700000 1.000000
vt 0.766667 1.000000
vt 0.833333 1.000000
vt 0.900000 1.000000
vt 0.966667 1.000000
vt 0.066667 0.066667
vt 0.000000 0.066667
vt 0.133333 0.066667
vt 0.200000 0.066667
vt 0.266667 0.066667
vt 0.333333 0.066667
vt 0.400000 0.066667
vt 0.466667 0.066667
vt 0.533333 0.066667
vt 0.600000 0.066667
vt 0.733333 0.066667
vt 0.800000 0.066667
vt 0.866667 0.066667
vt 0.933333 0.066667
vt 1.000000 0.066667
vt 0.000000 0.066667
vt 1.000000 0.066667
vt 0.800000 0.066667
vt 0.200000 0.066667
vt 0.000000 0.933333
vt 0.066667 0.933333
vt 0.200000 0.933333
vt 0.266667 0.933333
vt 0.333333 0.933333
vt 0.400000 0.933333
vt 0.466667 0.933333
vt 0.733333 0.933333
vt 0.800000 0.933333
vt 0.866667 0.933333
vt 0.933333 0.933333
vt 1.000000 0.933333
vt 0.000000 0.066667
vt 0.466667 0.066667
vt 0.666667 0.066667
vt 0.000000 0.066667
vt 1.000000 0.066667
vt 0.866667 0.066667
vt 0.133333 0.066667
vt 1.000000 0.066667
vt 1.000000 0.066667
vt 0.733333 0.066667
vt 0.666667 0.066667
vt 0.400000 0.066667
vt 0.000000 0.066667
vt 1.000000 0.933333
vt 0.000000 0.933333
vt 0.133333 0.933333
vt 0.200000 0.933333
vt 0.533333 0.933333
vt 0.600000 0.933333
vt 0.666667 0.933333
vt 0.666667 0.933333
vn -0.364338 0.881118 -0.301479
vn -0.267851 0.825081 -0.497490
vn -0.373743 0.857346 -0.353941
vn -0.058061 0.829599 -0.555333
vn -0.127192 0.810383 -0.571928
vn 0.055605 0.799447 -0.598157
vn 0.175368 0.859679 -0.479789
vn 0.323663 0.778359 -0.537958
vn 0.462585 0.778832 -0.423599
vn 0.513250 0.790292 -0.334683
vn 0.503820 0.852922 0.136709
vn 0.588055 0.800639 0.114752
vn 0.365601 0.814125 0.451149
vn 0.204996 0.811750 0.546844
vn 0.088750 0.818527 0.567571
vn 0.081943 0.582931 0.808379
vn -0.122481 0.803292 0.582855
vn -0.138984 0.828530 0.542421
vn -0.324749 0.846022 0.422831
vn -0.442213 0.866658 0.230982
vn -0.513475 0.851629 0.105222
vn -0.790873 0.608419 0.065925
vn -0.539462 0.448118 -0.712861
vn -0.384052 0.853324 -0.352623
vn 0.180813 0.515806 -0.837407
vn 0.616806 0.744226 -0.256279
vn 0.667605 0.545001 0.507225
vn 0.361502 0.545527 0.756120
vn -0.556319 0.746723 -0.364573
vn 0.460881 0.509788 -0.726433
vn 0.859998 0.351610 0.369830
vn -0.217508 0.358107 0.907992
vn -0.538176 0.539314 0.647693
vn -0.754659 0.558464 0.344397
vn -0.811252 0.486919 -0.323697
vn -0.236441 0.347627 -0.907332
vn 0.748143 0.314246 -0.584407
vn 0.942303 0.204794 -0.264810
vn -0.876588 0.304356 -0.372774
vn 0.745267 -0.196269 0.637225
vn 0.484947 0.031853 0.873963
vn 0.140172 0.045018 0.989103
vn -0.573649 0.108235 0.811919
vn -0.911865 0.047620 0.407720
vn -0.994349 0.088388 0.058807
vn -0.638396 -0.136860 -0.757443
vn -0.904704 0.059774 -0.421826
vn -0.323044 -0.103309 -0.940728
vn 0.158172 -0.022063 -0.987165
vn 0.518729 -0.118744 -0.846652
vn 0.790044 -0.095722 -0.605532
vn 0.960134 -0.155941 -0.232001
vn 0.988399 -0.053669 0.142078
vn -0.160484 -0.113792 0.980457
vn -0.914771 -0.264826 -0.305059
vn -0.741964 -0.403862 0.535151
vn 0.718508 -0.665828 -0.201047
vn 0.775295 -0.606899 0.174906
vn -0.832414 -0.437874 -0.339639
vn -0.517745 -0.583033 -0.626109
vn 0.105554 -0.671117 -0.733799
vn 0.506626 -0.710718 -0.488069
vn 0.553862 -0.714753 0.427041
vn 0.428412 -0.548870 0.717778
vn 0.236593 -0.448122 0.862097
vn -0.278714 -0.570569 0.772509
vn -0.870757 -0.466941 0.154105
vn -0.134052 -0.780478 -0.610642
vn -0.584553 -0.771847 0.250099
vn -0.615946 -0.786264 -0.048982
vn 0.314331 -0.848426 -0.425874
vn -0.027709 -0.933330 0.357950
vn -0.296027 -0.930742 -0.214683
vn -0.093321 -0.965033 -0.244954
vn 0.072902 -0.939512 -0.334669
vn 0.446809 -0.880631 -0.157641
vn -0.417943 -0.902988 0.099676
vn -0.352982 -0.927382 -0.123958
vn 0.208300 -0.965289 -0.157571
vn 0.158542 -0.987290 -0.011081
vn 0.357903 -0.911798 0.201322
vn 0.325026 -0.917898 0.227646
vn 0.198287 -0.934000 0.297199
vn 0.131342 -0.940731 0.312690
vn -0.072216 -0.975492 0.207847
vn -0.202293 -0.959940 0.193890
vn -0.469826 -0.880194 0.067246
vn 0.715866 0.610364 0.339104
vn 0.686615 0.615778 0.386493
vn 0.693089 0.624075 0.360774
vn 0.738676 0.582186 0.339730
vn 0.763506 0.568988 0.305470
vn 0.744780 0.606068 0.279257
vn 0.745856 0.634301 0.203374
vn 0.741432 0.643021 0.191843
vn 0.721840 0.639359 0.264892
vn 0.695938 0.635888 0.333642
vn 0.680565 0.645226 0.347151
vn 0.643810 0.663969 0.380334
vn 0.613181 0.706660 0.353043
vn 0.623348 0.640700 0.448264
vn 0.628834 0.599482 0.495166
vn 0.649521 0.608561 0.455825
vn 0.039712 -0.985631 0.164179
vn 0.076326 -0.993504 0.084403
vn 0.009380 -0.997003 0.076789
vn -0.010775 -0.994359 0.105523
vn -0.073948 -0.988509 0.131837
vn 0.041983 -0.984177 0.172143
vn -0.000754 -0.997483 0.070896
vn -0.074153 -0.995561 0.057968
vn -0.030332 -0.994522 0.100030
vn -0.017047 -0.999389 0.030519
vn -0.003155 -0.999676 0.025245
vn 0.005006 -0.999848 0.016699
vn -0.045002 -0.998969 0.006049
vn 0.053946 -0.993317 0.102039
vn 0.086775 -0.996107 0.015498
vn -0.003247 -0.999345 0.036027
vn 0.519240 0.064355 -0.852202
vn -0.346179 0.215696 -0.913036
vn -0.762413 0.183153 -0.620630
vn -0.410033 0.911741 -0.024528
vn -0.569049 0.766697 -0.297252
vn -0.405573 0.871728 -0.274956
vn -0.376957 0.914226 0.148645
vn -0.516309 0.669553 0.533969
vn -0.293614 0.870880 0.394157
vn -0.102910 0.835335 0.540023
vn 0.292524 0.435191 0.851492
vn 0.081763 0.791834 0.605238
vn 0.247407 0.808248 0.534346
vn 0.366502 0.842685 0.394408
vn 0.561508 0.810794 0.165291
vn 0.898824 0.421506 -0.120201
vn 0.617365 0.762261 -0.194470
vn 0.437936 0.745239 -0.502822
vn 0.266370 0.736933 -0.621271
vn 0.174981 0.418032 -0.891421
vn 0.084529 0.716853 -0.692082
vn -0.113808 0.810636 -0.574383
vn -0.241467 0.828746 -0.504850
vn -0.559977 -0.682897 -0.469125
vn -0.677633 -0.487415 -0.550673
vn -0.790332 -0.552454 -0.264895
vn -0.898710 0.178064 -0.400765
vn -0.293728 -0.578730 -0.760786
vn 0.221772 -0.590186 -0.776207
vn 0.064474 -0.567673 -0.820726
vn 0.541761 -0.410118 -0.733688
vn 0.582115 -0.587151 -0.562491
vn 0.617725 -0.523772 -0.586582
vn 0.809133 -0.575341 -0.119527
vn 0.848575 -0.510937 -0.137347
vn 0.905769 -0.341807 0.250501
vn 0.750801 -0.510383 0.419293
vn 0.111880 -0.607029 0.786764
vn -0.006040 -0.623982 0.781415
vn -0.413773 -0.372287 0.830779
vn -0.417424 -0.635690 0.649350
vn -0.448597 -0.565738 0.691882
vn -0.728541 -0.600095 0.330324
vn -0.757470 -0.550336 0.351241
vn -0.726134 -0.686759 -0.033045
vn -0.842925 -0.512067 -0.165118
vn -0.341317 0.187947 -0.920966
vn -0.679946 0.205289 -0.703938
vn 0.098973 0.156038 -0.982780
vn 0.515671 0.066052 -0.854237
vn 0.734935 -0.053533 -0.676021
vn 0.873824 -0.233476 -0.426521
vn 0.892510 -0.075317 -0.444694
vn 0.603541 -0.160514 0.781008
vn 0.853603 -0.145397 0.500222
vn 0.435346 -0.239080 0.867937
vn -0.229519 0.068342 0.970902
vn 0.227490 -0.199777 0.953067
vn -0.050564 -0.129222 0.990326
vn -0.520689 -0.111643 0.846415
vn -0.886571 0.207606 0.413390
vn -0.868037 -0.004658 0.496477
vn -0.991494 0.093879 -0.090150
vn -0.892151 0.156465 -0.423775
vn -0.483214 0.113244 -0.868147
vn -0.485262 -0.859761 -0.159158
vn -0.288536 -0.604151 -0.742798
vn 0.004923 -0.999831 0.017729
vn 0.713847 -0.504763 0.485425
vn 0.760993 -0.632569 0.144036
vn 0.468805 -0.583634 0.663018
vn 0.462977 -0.562373 0.685120
vn -0.004781 -0.999878 0.014844
s 1
g pSphere10
usemtl initialShadingGroup
f 1/1/1 2/2/2 16/17/3
f 3/3/4 17/18/5 2/2/2
f 3/3/4 4/4/6 17/18/5
f 5/5/7 18/19/8 4/4/6
f 5/5/7 6/6/9 18/19/8
f 6/6/9 7/7/10 18/19/8
f 8/8/11 19/20/12 7/7/10
f 8/8/11 9/9/13 19/20/12
f 10/10/14 11/11/15 20/21/16
f 11/11/15 12/12/17 20/21/16
f 12/12/17 13/13/18 20/21/16
f 20/21/16 13/13/18 21/22/19
f 13/13/18 14/14/20 21/22/19
f 14/14/20 15/15/21 21/22/19
f 21/22/19 15/15/21 22/23/22
f 1/16/1 16/24/3 15/15/21
f 15/15/21 16/24/3 22/23/22
f 2/2/2 24/26/23 16/17/3
f 16/17/3 24/26/23 23/25/24
f 2/2/2 17/18/5 24/26/23
f 4/4/6 25/27/25 17/18/5
f 4/4/6 18/19/8 25/27/25
f 7/7/10 26/28/26 18/19/8
f 7/7/10 19/20/12 26/28/26
f 9/9/13 27/29/27 19/20/12
f 10/10/14 28/30/28 9/9/13
f 9/9/13 28/30/28 27/29/27
f 10/10/14 20/21/16 28/30/28
f 22/23/22 16/24/3 23/31/24
f 23/25/24 24/26/23 29/32/29
f 25/27/25 18/19/8 30/33/30
f 18/19/8 26/28/26 30/33/30
f 19/20/12 31/34/31 26/28/26
f 19/20/12 27/29/27 31/34/31
f 20/21/16 21/22/19 32/35/32
f 32/35/32 21/22/19 33/36/33
f 33/36/33 21/22/19 34/37/34
f 21/22/19 22/23/22 34/37/34
f 22/23/22 23/31/24 29/38/29
f 29/32/29 24/26/23 35/39/35
f 24/26/23 17/18/5 36/40/36
f 17/18/5 25/27/25 36/40/36
f 26/28/26 37/41/37 30/33/30
f 26/28/26 38/42/38 37/41/37
f 26/28/26 31/34/31 38/42/38
f 22/23/22 29/38/29 35/43/35
f 35/39/35 24/26/23 39/44/39
f 27/29/27 40/45/40 31/34/31
f 28/30/28 41/46/41 27/29/27
f 27/29/27 41/46/41 40/45/40
f 20/21/16 42/47/42 28/30/28
f 28/30/28 42/47/42 41/46/41
f 20/21/16 32/35/32 42/47/42
f 32/35/32 33/36/33 43/48/43
f 33/36/33 34/37/34 43/48/43
f 43/48/43 34/37/34 44/49/44
f 34/37/34 22/23/22 44/49/44
f 44/49/44 22/23/22 45/50/45
f 35/43/35 39/51/39 22/23/22
f 22/23/22 39/51/39 45/50/45
f 24/26/23 47/53/46 39/44/39
f 39/44/39 47/53/46 46/52/47
f 24/26/23 36/40/36 47/53/46
f 47/53/46 36/40/36 48/54/48
f 25/27/25 49/55/49 36/40/36
f 36/40/36 49/55/49 48/54/48
f 30/33/30 50/56/50 25/27/25
f 25/27/25 50/56/50 49/55/49
f 37/41/37 51/57/51 30/33/30
f 30/33/30 51/57/51 50/56/50
f 38/42/38 52/58/52 37/41/37
f 37/41/37 52/58/52 51/57/51
f 31/34/31 53/59/53 38/42/38
f 38/42/38 53/59/53 52/58/52
f 31/34/31 40/45/40 53/59/53
f 42/47/42 32/35/32 54/60/54
f 32/35/32 43/48/43 54/60/54
f 39/51/39 46/61/47 45/50/45
f 46/52/47 47/53/46 55/62/55
f 43/48/43 56/63/56 54/60/54
f 43/48/43 44/49/44 56/63/56
f 46/61/47 55/64/55 45/50/45
f 52/58/52 57/65/57 51/57/51
f 53/59/53 58/66/58 52/58/52
f 52/58/52 58/66/58 57/65/57
f 53/59/53 40/45/40 58/66/58
f 55/62/55 47/53/46 59/67/59
f 59/67/59 47/53/46 60/68/60
f 47/53/46 48/54/48 60/68/60
f 49/55/49 61/69/61 48/54/48
f 50/56/50 61/69/61 49/55/49
f 51/57/51 62/70/62 50/56/50
f 50/56/50 62/70/62 61/69/61
f 51/57/51 57/65/57 62/70/62
f 58/66/58 40/45/40 63/71/63
f 40/45/40 41/46/41 63/71/63
f 63/71/63 41/46/41 64/72/64
f 41/46/41 42/47/42 64/72/64
f 64/72/64 42/47/42 65/73/65
f 42/47/42 54/60/54 65/73/65
f 65/73/65 54/60/54 66/74/66
f 54/60/54 56/63/56 66/74/66
f 44/49/44 67/75/67 56/63/56
f 45/50/45 67/75/67 44/49/44
f 45/50/45 55/64/55 67/75/67
f 67/75/67 55/64/55 59/76/59
f 48/54/48 68/78/68 60/68/60
f 48/54/48 61/69/61 68/78/68
f 66/74/66 56/63/56 70/80/69
f 56/63/56 67/75/67 70/80/69
f 59/67/59 60/68/60 71/77/70
f 60/68/60 68/78/68 71/77/70
f 61/69/61 69/79/71 68/78/68
f 62/70/62 69/79/71 61/69/61
f 62/70/62 57/65/57 69/79/71
f 64/72/64 65/73/65 75/85/72
f 65/73/65 66/74/66 75/85/72
f 66/74/66 70/80/69 75/85/72
f 70/80/69 67/75/67 71/81/70
f 67/75/67 59/76/59 71/81/70
f 71/77/70 68/78/68 72/82/73
f 72/82/73 68/78/68 73/83/74
f 73/83/74 68/78/68 128/174/75
f 68/78/68 69/79/71 128/174/75
f 57/65/57 74/84/76 69/79/71
f 58/66/58 74/84/76 57/65/57
f 58/66/58 63/71/63 74/84/76
f 74/84/76 63/71/63 64/72/64
f 70/80/69 76/86/77 75/85/72
f 70/80/69 71/81/70 76/86/77
f 71/77/70 72/82/73 77/87/78
f 69/79/71 74/84/76 78/88/79
f 74/84/76 79/89/80 78/88/79
f 74/84/76 80/90/81 79/89/80
f 74/84/76 64/72/64 80/90/81
f 80/90/81 64/72/64 81/91/82
f 64/72/64 82/92/83 81/91/82
f 75/85/72 132/178/84 64/72/64
f 64/72/64 132/178/84 82/92/83
f 75/85/72 83/93/85 132/178/84
f 83/93/85 75/85/72 84/94/86
f 75/85/72 76/86/77 84/94/86
f 76/86/77 71/81/70 85/95/87
f 85/95/87 71/81/70 77/96/78
s 6
f 87/127/88 86/128/89 88/97/90
f 89/129/91 87/127/88 88/98/90
f 90/130/92 89/129/91 88/99/90
f 91/131/93 90/130/92 88/100/90
f 92/132/94 91/131/93 88/101/90
f 93/133/95 92/132/94 88/102/90
f 94/134/96 93/133/95 88/103/90
f 95/135/97 94/134/96 88/104/90
f 96/136/98 95/135/97 88/105/90
f 117/160/99 96/136/98 88/106/90
f 97/137/100 117/160/99 88/107/90
f 98/138/101 97/137/100 88/108/90
f 99/139/102 98/138/101 88/109/90
f 100/140/103 99/139/102 88/110/90
f 86/141/89 100/140/103 88/111/90
s 7
f 104/146/104 105/147/105 106/112/106
f 105/147/105 127/173/107 106/113/106
f 127/173/107 107/148/108 106/114/106
f 107/148/108 108/149/109 106/115/106
f 108/149/109 109/150/110 106/116/106
f 109/150/110 110/151/111 106/117/106
f 110/151/111 111/152/112 106/118/106
f 111/152/112 129/175/113 106/119/106
f 129/175/113 130/176/114 106/120/106
f 130/176/114 131/177/115 106/121/106
f 131/177/115 112/153/116 106/122/106
f 112/153/116 113/154/117 106/123/106
f 113/154/117 114/155/118 106/124/106
f 114/155/118 115/156/119 106/125/106
f 115/156/119 104/157/104 106/126/106
s 8
f 120/164/120 118/161/121 121/158/122
f 15/15/123 101/143/124 1/16/125
f 15/15/123 14/14/126 101/143/124
f 101/143/124 14/14/126 102/144/127
f 14/14/126 13/13/128 102/144/127
f 13/13/128 12/12/129 102/144/127
f 102/144/127 12/12/129 123/168/130
f 12/12/129 11/11/131 123/168/130
f 11/11/131 10/10/132 123/168/130
f 9/9/133 123/168/130 10/10/132
f 8/8/134 124/169/135 9/9/133
f 9/9/133 124/169/135 123/168/130
f 8/8/134 7/7/136 124/169/135
f 7/7/136 6/6/137 124/169/135
f 6/6/137 5/5/138 124/169/135
f 124/169/135 5/5/138 103/145/139
f 4/4/140 103/145/139 5/5/138
f 3/3/141 103/145/139 4/4/140
f 2/2/142 103/145/139 3/3/141
f 1/1/125 101/142/124 2/2/142
f 2/2/142 101/142/124 103/145/139
s 11
f 72/82/143 105/147/144 126/172/145
f 126/172/145 105/147/144 104/146/146
f 72/82/143 127/173/147 105/147/144
f 127/173/147 128/174/148 107/148/149
f 128/174/148 108/149/150 107/148/149
f 78/88/151 109/150/152 128/174/148
f 128/174/148 109/150/152 108/149/150
f 78/88/151 79/89/153 109/150/152
f 109/150/152 79/89/153 110/151/154
f 79/89/153 111/152/155 110/151/154
f 79/89/153 129/175/156 111/152/155
f 131/177/157 132/178/158 112/153/159
f 84/94/160 113/154/161 132/178/158
f 132/178/158 113/154/161 112/153/159
f 84/94/160 76/86/162 113/154/161
f 113/154/161 76/86/162 114/155/163
f 85/95/164 115/156/165 76/86/162
f 76/86/162 115/156/165 114/155/163
f 85/95/164 126/171/145 115/156/165
f 115/156/165 126/171/145 104/157/146
s 8
f 120/164/120 121/158/122 87/127/166
f 87/127/166 121/158/122 86/128/167
f 89/129/168 120/164/120 87/127/166
f 90/130/169 120/164/120 89/129/168
f 91/131/170 120/164/120 90/130/169
f 92/132/171 120/164/120 91/131/170
f 124/169/135 120/164/120 93/133/172
f 93/133/172 120/164/120 92/132/171
f 124/169/135 93/133/172 116/159/173
f 116/159/173 93/133/172 94/134/174
f 116/159/173 94/134/174 95/135/175
f 116/159/173 95/135/175 122/167/176
f 122/167/176 95/135/175 96/136/177
f 122/167/176 96/136/177 117/160/178
f 122/167/176 117/160/178 97/137/179
f 122/167/176 97/137/179 119/163/180
f 119/163/180 97/137/179 98/138/181
f 119/163/180 98/138/181 99/139/182
f 119/163/180 99/139/182 121/166/122
f 121/166/122 99/139/182 100/140/183
f 86/141/167 121/166/122 100/140/183
f 125/165/184 121/166/122 118/162/121
f 102/144/127 122/167/176 119/163/180
f 122/167/176 123/168/130 116/159/173
f 116/159/173 123/168/130 124/169/135
f 125/170/184 120/164/120 103/145/139
f 125/170/184 118/161/121 120/164/120
f 101/143/124 121/166/122 125/165/184
f 102/144/127 119/163/180 101/143/124
f 101/143/124 119/163/180 121/166/122
f 123/168/130 122/167/176 102/144/127
f 103/145/139 120/164/120 124/169/135
f 101/142/124 125/170/184 103/145/139
s 11
f 77/87/185 72/82/143 126/172/145
f 72/82/143 73/83/186 127/173/147
f 73/83/186 128/174/148 127/173/147
f 69/79/187 78/88/151 128/174/148
f 81/91/188 129/175/156 80/90/189
f 80/90/189 129/175/156 79/89/153
f 82/92/190 130/176/191 81/91/188
f 81/91/188 130/176/191 129/175/156
f 132/178/158 131/177/157 82/92/190
f 82/92/190 131/177/157 130/176/191
f 83/93/192 84/94/160 132/178/158
f 85/95/164 77/96/185 126/171/145
