# This file uses centimeters as units for non-parametric coordinates.

mtllib onion_chop_1.mtl
g default
v 0.051197 0.082363 0.019261
v -0.011696 0.132407 0.043114
v -0.090187 0.133357 0.072564
v -0.154293 0.084850 0.096363
v -0.179529 0.005414 0.105419
v 0.074470 0.002340 0.010117
v 0.122725 0.117063 0.069265
v 0.031747 0.189454 0.103769
v -0.081793 0.190828 0.146370
v -0.174526 0.120661 0.180796
v -0.211032 0.005753 0.193897
v 0.156391 0.001306 0.056037
v 0.178212 0.126489 0.177003
v 0.079214 0.205262 0.214549
v -0.044336 0.206757 0.260906
v -0.145244 0.130404 0.298366
v -0.184968 0.005367 0.312622
v 0.214846 0.000528 0.162609
v 0.155666 0.085090 0.281315
v 0.089494 0.137743 0.306411
v 0.006911 0.138742 0.337397
v -0.060538 0.087706 0.362436
v -0.087090 0.004129 0.371965
v 0.180153 0.000894 0.271693
v 0.094738 0.030398 0.337791
v 0.072269 0.048277 0.346313
v 0.044227 0.048617 0.356835
v 0.021324 0.031287 0.365337
v 0.012308 0.002907 0.368572
v 0.103053 0.001809 0.334524
v -0.017368 0.041190 0.002506
v -0.047115 0.064860 0.013788
v -0.084239 0.065309 0.027717
v -0.114560 0.042367 0.038973
v -0.126496 0.004795 0.043257
v -0.006360 0.003341 -0.001819
vt 0.591949 0.048274
vt 0.593934 0.044085
vt 0.594338 0.058170
vt 0.598535 0.049314
vt 0.596386 0.038857
vt 0.603720 0.038260
vt 0.598370 0.034586
vt 0.607914 0.029231
vt 0.599127 0.032904
vt 0.609514 0.025675
vt 0.591190 0.049823
vt 0.592733 0.061445
vt 0.608198 0.055867
vt 0.602127 0.068677
vt 0.615699 0.039877
vt 0.621766 0.026816
vt 0.624081 0.021671
vt 0.599806 0.073415
vt 0.626005 0.063278
vt 0.619399 0.077217
vt 0.634168 0.045879
vt 0.640770 0.031666
vt 0.643288 0.026068
vt 0.616873 0.082373
vt 0.640916 0.065266
vt 0.636500 0.074584
vt 0.646372 0.053636
vt 0.650785 0.044136
vt 0.652468 0.040395
vt 0.634812 0.078030
vt 0.569585 0.023511
vt 0.646001 0.066193
vt 0.647500 0.063030
vt 0.649353 0.059081
vt 0.650851 0.055855
vt 0.550377 0.019115
vt 0.578765 0.037838
vt 0.577719 0.052027
vt 0.535811 0.023118
vt 0.577147 0.053298
vt 0.525423 0.030348
vt 0.524667 0.032030
vt 0.522683 0.036301
vt 0.575649 0.056524
vt 0.520230 0.041529
vt 0.573796 0.060473
vt 0.518245 0.045717
vt 0.572297 0.063637
vt 0.517486 0.047266
vt 0.519029 0.058888
vt 0.526102 0.070858
vt 0.571724 0.064807
vt 0.561108 0.075473
vt 0.651423 0.054584
vt 0.645427 0.067364
vt 0.543170 0.079816
vn -0.021768 0.407734 -0.912841
vn -0.021769 0.407735 -0.912841
vn -0.021769 0.407735 -0.912841
vn -0.021769 0.407736 -0.912841
vn -0.297379 0.507142 -0.808933
vn -0.297379 0.507142 -0.808933
vn -0.297379 0.507142 -0.808933
vn -0.297379 0.507142 -0.808933
vn -0.575356 0.414435 -0.705131
vn -0.575355 0.414435 -0.705132
vn -0.575355 0.414435 -0.705132
vn -0.575354 0.414435 -0.705132
vn -0.749517 0.165027 -0.641085
vn -0.749518 0.165027 -0.641085
vn -0.749518 0.165027 -0.641085
vn -0.749518 0.165027 -0.641085
vn 0.146203 0.154185 -0.977165
vn 0.146203 0.154185 -0.977165
vn 0.146203 0.154184 -0.977165
vn 0.146203 0.154184 -0.977165
vn 0.217039 0.628695 -0.746751
vn 0.217039 0.628695 -0.746751
vn 0.217039 0.628695 -0.746751
vn 0.217040 0.628695 -0.746751
vn -0.210266 0.782815 -0.585653
vn -0.210266 0.782815 -0.585653
vn -0.210266 0.782815 -0.585653
vn -0.210266 0.782815 -0.585653
vn -0.641238 0.639082 -0.424720
vn -0.641238 0.639083 -0.424719
vn -0.641238 0.639083 -0.424719
vn -0.641238 0.639084 -0.424719
vn -0.911260 0.252401 -0.325421
vn -0.911260 0.252401 -0.325421
vn -0.911260 0.252401 -0.325421
vn -0.911260 0.252401 -0.325421
vn 0.477463 0.235592 -0.846479
vn 0.477462 0.235592 -0.846479
vn 0.477462 0.235592 -0.846479
vn 0.477462 0.235592 -0.846479
vn 0.507495 0.795553 -0.330973
vn 0.507495 0.795553 -0.330973
vn 0.507495 0.795553 -0.330973
vn 0.507495 0.795553 -0.330973
vn -0.035390 0.991361 -0.126301
vn -0.035390 0.991361 -0.126301
vn -0.035390 0.991361 -0.126301
vn -0.035390 0.991361 -0.126301
vn -0.582933 0.808752 0.078163
vn -0.582933 0.808752 0.078163
vn -0.582933 0.808752 0.078163
vn -0.582933 0.808752 0.078163
vn -0.925992 0.317478 0.204320
vn -0.925992 0.317478 0.204320
vn -0.925992 0.317478 0.204320
vn -0.925992 0.317478 0.204320
vn 0.838358 0.296123 -0.457676
vn 0.838358 0.296123 -0.457676
vn 0.838358 0.296123 -0.457676
vn 0.838358 0.296123 -0.457676
vn 0.658988 0.639353 0.396186
vn 0.658988 0.639353 0.396186
vn 0.658988 0.639353 0.396186
vn 0.658988 0.639353 0.396186
vn 0.220353 0.797558 0.561556
vn 0.220353 0.797559 0.561556
vn 0.220353 0.797559 0.561556
vn 0.220352 0.797559 0.561556
vn -0.222045 0.650016 0.726756
vn -0.222045 0.650016 0.726756
vn -0.222045 0.650016 0.726756
vn -0.222045 0.650016 0.726756
vn -0.499227 0.253082 0.828687
vn -0.499227 0.253082 0.828687
vn -0.499227 0.253082 0.828687
vn -0.499226 0.253082 0.828687
vn 0.926315 0.235828 0.293813
vn 0.926315 0.235828 0.293814
vn 0.926315 0.235828 0.293814
vn 0.926315 0.235828 0.293814
vn 0.518089 0.263218 0.813818
vn 0.518089 0.263218 0.813818
vn 0.518089 0.263219 0.813818
vn 0.518089 0.263219 0.813818
vn 0.335204 0.329181 0.882767
vn 0.335204 0.329181 0.882767
vn 0.335204 0.329181 0.882767
vn 0.335203 0.329181 0.882768
vn 0.150751 0.267665 0.951646
vn 0.150751 0.267665 0.951646
vn 0.150751 0.267665 0.951646
vn 0.150751 0.267664 0.951646
vn 0.035184 0.102167 0.994145
vn 0.035184 0.102167 0.994145
vn 0.035184 0.102167 0.994145
vn 0.035183 0.102167 0.994145
vn 0.629548 0.094973 0.771135
vn 0.629548 0.094973 0.771135
vn 0.629548 0.094973 0.771135
vn 0.629548 0.094973 0.771135
vn -0.012309 -0.999924 -0.000551
vn -0.012309 -0.999924 -0.000551
vn -0.012309 -0.999924 -0.000551
vn 0.419009 -0.852117 -0.313572
vn 0.041155 -0.998702 0.030024
vn 0.610007 -0.711082 -0.349647
vn 0.469125 -0.871373 -0.143636
vn 0.733844 -0.596105 -0.325780
vn 0.259798 -0.953974 -0.149794
vn 0.258454 -0.954418 -0.149292
vn -0.318221 -0.945640 0.067090
vn -0.319551 -0.945155 0.067592
vn -0.780644 -0.576020 0.242476
vn -0.593450 -0.802223 0.065228
vn -0.466194 -0.860052 0.207302
vn -0.038506 -0.995410 0.087619
vn -0.068104 -0.995108 0.071564
vn -0.644040 -0.755203 -0.121988
vn -0.012309 -0.999924 -0.000551
vn -0.012309 -0.999924 -0.000551
s 1
g Onion1_Whole2 Chop_1 Onion2
usemtl initialShadingGroup
f 31/1/1 32/2/2 1/3/3
f 1/3/3 32/2/2 2/4/4
s 2
f 32/2/5 33/5/6 2/4/7
f 2/4/7 33/5/6 3/6/8
s 3
f 33/5/9 34/7/10 3/6/11
f 3/6/11 34/7/10 4/8/12
s 4
f 34/7/13 35/9/14 4/8/15
f 4/8/15 35/9/14 5/10/16
s 5
f 36/11/17 31/1/18 6/12/19
f 6/12/19 31/1/18 1/3/20
s 6
f 2/4/21 8/13/22 1/3/23
f 1/3/23 8/13/22 7/14/24
s 7
f 3/6/25 9/15/26 2/4/27
f 2/4/27 9/15/26 8/13/28
s 8
f 4/8/29 10/16/30 3/6/31
f 3/6/31 10/16/30 9/15/32
s 9
f 5/10/33 11/17/34 4/8/35
f 4/8/35 11/17/34 10/16/36
s 10
f 1/3/37 7/14/38 6/12/39
f 6/12/39 7/14/38 12/18/40
s 11
f 8/13/41 14/19/42 7/14/43
f 7/14/43 14/19/42 13/20/44
s 12
f 9/15/45 15/21/46 8/13/47
f 8/13/47 15/21/46 14/19/48
s 13
f 10/16/49 16/22/50 9/15/51
f 9/15/51 16/22/50 15/21/52
s 14
f 11/17/53 17/23/54 10/16/55
f 10/16/55 17/23/54 16/22/56
s 15
f 7/14/57 13/20/58 12/18/59
f 12/18/59 13/20/58 18/24/60
s 16
f 14/19/61 20/25/62 13/20/63
f 13/20/63 20/25/62 19/26/64
s 17
f 15/21/65 21/27/66 14/19/67
f 14/19/67 21/27/66 20/25/68
s 18
f 16/22/69 22/28/70 15/21/71
f 15/21/71 22/28/70 21/27/72
s 19
f 17/23/73 23/29/74 16/22/75
f 16/22/75 23/29/74 22/28/76
s 20
f 13/20/77 19/26/78 18/24/79
f 18/24/79 19/26/78 24/30/80
s 21
f 19/26/81 20/25/82 25/32/83
f 25/32/83 20/25/82 26/33/84
s 22
f 20/25/85 21/27/86 26/33/87
f 26/33/87 21/27/86 27/34/88
s 23
f 21/27/89 22/28/90 27/34/91
f 27/34/91 22/28/90 28/35/92
s 24
f 22/28/93 23/29/94 28/35/95
f 28/35/95 23/29/94 29/54/96
s 25
f 24/30/97 19/26/98 30/55/99
f 30/55/99 19/26/98 25/32/100
s 26
f 17/31/101 11/36/102 23/37/103
f 23/37/103 11/36/102 29/38/104
f 11/36/102 5/39/105 29/38/104
f 29/38/104 5/39/105 28/40/106
f 5/39/105 35/41/107 28/40/106
f 35/41/107 34/42/108 28/40/106
f 34/42/108 33/43/109 28/40/106
f 28/40/106 33/43/109 27/44/110
f 33/43/109 32/45/111 27/44/110
f 27/44/110 32/45/111 26/46/112
f 32/45/111 31/47/113 26/46/112
f 26/46/112 31/47/113 25/48/114
f 31/47/113 36/49/115 25/48/114
f 36/49/115 6/50/116 25/48/114
f 6/50/116 12/51/117 25/48/114
f 25/48/114 12/51/117 30/52/118
f 30/52/118 12/51/117 24/53/119
f 12/51/117 18/56/120 24/53/119
g default
v 0.089196 0.084484 -0.109150
v 0.156150 0.132935 -0.095060
v 0.238161 0.131916 -0.077678
v 0.303902 0.081816 -0.063643
v 0.328264 0.001772 -0.058316
v 0.062872 0.005070 -0.114565
v 0.056575 0.120538 -0.189504
v 0.153428 0.190625 -0.169123
v 0.272061 0.189151 -0.143979
v 0.367159 0.116679 -0.123677
v 0.402399 0.000891 -0.115970
v 0.018496 0.005662 -0.197337
v 0.067954 0.130633 -0.310101
v 0.173345 0.206899 -0.287924
v 0.302436 0.205294 -0.260564
v 0.405918 0.126434 -0.238471
v 0.444264 0.000438 -0.230086
v 0.026518 0.005630 -0.318625
v 0.142120 0.088143 -0.386240
v 0.212565 0.139120 -0.371416
v 0.298852 0.138047 -0.353127
v 0.368021 0.085335 -0.338361
v 0.393652 0.001118 -0.332756
v 0.114423 0.004588 -0.391937
v 0.222616 0.031750 -0.401512
v 0.246536 0.049060 -0.396478
v 0.275836 0.048696 -0.390268
v 0.299323 0.030797 -0.385254
v 0.308026 0.002200 -0.383351
v 0.213211 0.003378 -0.403447
v 0.137052 0.041841 -0.058471
v 0.168721 0.064758 -0.051807
v 0.207510 0.064276 -0.043585
v 0.238604 0.040579 -0.036947
v 0.250126 0.002720 -0.034427
v 0.124602 0.004280 -0.061032
vt 0.592133 0.048203
vt 0.594106 0.044040
vt 0.594507 0.058036
vt 0.598678 0.049236
vt 0.596543 0.038845
vt 0.603831 0.038252
vt 0.598514 0.034601
vt 0.607998 0.029279
vt 0.599266 0.032930
vt 0.609589 0.025745
vt 0.591379 0.049742
vt 0.592912 0.061291
vt 0.608280 0.055748
vt 0.602248 0.068478
vt 0.615735 0.039859
vt 0.621763 0.026879
vt 0.624064 0.021767
vt 0.599941 0.073186
vt 0.625976 0.063113
vt 0.619411 0.076964
vt 0.634087 0.045823
vt 0.640648 0.031699
vt 0.643151 0.026136
vt 0.616901 0.082087
vt 0.640793 0.065089
vt 0.636405 0.074347
vt 0.646215 0.053532
vt 0.650600 0.044091
vt 0.652273 0.040373
vt 0.634727 0.077772
vt 0.569910 0.023596
vt 0.645846 0.066010
vt 0.647336 0.062866
vt 0.649177 0.058941
vt 0.650666 0.055736
vt 0.550823 0.019227
vt 0.579032 0.037832
vt 0.577993 0.051933
vt 0.536348 0.023205
vt 0.577425 0.053195
vt 0.526025 0.030389
vt 0.525273 0.032061
vt 0.523302 0.036305
vt 0.575936 0.056401
vt 0.520865 0.041500
vt 0.574095 0.060325
vt 0.518892 0.045662
vt 0.572605 0.063469
vt 0.518138 0.047201
vt 0.519671 0.058750
vt 0.526700 0.070645
vt 0.572035 0.064632
vt 0.561486 0.075231
vt 0.651234 0.054473
vt 0.645276 0.067172
vt 0.543660 0.079547
vn -0.463380 0.412235 0.784437
vn -0.463380 0.412236 0.784437
vn -0.463379 0.412236 0.784437
vn -0.463379 0.412237 0.784436
vn -0.172990 0.504699 0.845786
vn -0.172990 0.504699 0.845786
vn -0.172990 0.504699 0.845786
vn -0.172990 0.504699 0.845786
vn 0.115038 0.405048 0.907030
vn 0.115036 0.405048 0.907030
vn 0.115036 0.405048 0.907030
vn 0.115036 0.405048 0.907030
vn 0.290680 0.151348 0.944775
vn 0.290680 0.151348 0.944775
vn 0.290680 0.151348 0.944775
vn 0.290680 0.151348 0.944775
vn -0.645216 0.162978 0.746414
vn -0.645216 0.162977 0.746415
vn -0.645216 0.162977 0.746415
vn -0.645216 0.162977 0.746415
vn -0.570395 0.637692 0.517686
vn -0.570395 0.637692 0.517686
vn -0.570395 0.637692 0.517686
vn -0.570395 0.637692 0.517686
vn -0.120175 0.781045 0.612802
vn -0.120175 0.781045 0.612802
vn -0.120175 0.781045 0.612802
vn -0.120175 0.781045 0.612802
vn 0.326378 0.626547 0.707754
vn 0.326378 0.626547 0.707754
vn 0.326378 0.626547 0.707754
vn 0.326378 0.626548 0.707754
vn 0.598696 0.233211 0.766273
vn 0.598696 0.233211 0.766274
vn 0.598696 0.233211 0.766274
vn 0.598696 0.233211 0.766274
vn -0.852313 0.251242 0.458736
vn -0.852313 0.251243 0.458737
vn -0.852313 0.251243 0.458737
vn -0.852313 0.251243 0.458737
vn -0.587889 0.808849 0.012239
vn -0.587889 0.808849 0.012239
vn -0.587889 0.808849 0.012239
vn -0.587889 0.808849 0.012239
vn -0.015891 0.990978 0.133083
vn -0.015891 0.990978 0.133083
vn -0.015891 0.990977 0.133083
vn -0.015891 0.990978 0.133083
vn 0.551448 0.794690 0.253718
vn 0.551448 0.794690 0.253718
vn 0.551448 0.794690 0.253718
vn 0.551448 0.794690 0.253718
vn 0.897424 0.294963 0.328065
vn 0.897424 0.294963 0.328065
vn 0.897424 0.294963 0.328065
vn 0.897424 0.294962 0.328066
vn -0.946061 0.317872 -0.062655
vn -0.946061 0.317872 -0.062655
vn -0.946061 0.317872 -0.062655
vn -0.946061 0.317872 -0.062655
vn -0.328057 0.652098 -0.683481
vn -0.328057 0.652099 -0.683481
vn -0.328057 0.652099 -0.683481
vn -0.328057 0.652099 -0.683481
vn 0.134100 0.799253 -0.585844
vn 0.134100 0.799253 -0.585843
vn 0.134100 0.799253 -0.585843
vn 0.134100 0.799253 -0.585843
vn 0.592492 0.640658 -0.488374
vn 0.592493 0.640658 -0.488374
vn 0.592493 0.640658 -0.488374
vn 0.592493 0.640658 -0.488374
vn 0.872031 0.236894 -0.428303
vn 0.872031 0.236894 -0.428303
vn 0.872031 0.236894 -0.428303
vn 0.872031 0.236894 -0.428303
vn -0.617450 0.255404 -0.743992
vn -0.617450 0.255404 -0.743992
vn -0.617450 0.255404 -0.743992
vn -0.617450 0.255404 -0.743992
vn 0.006845 0.270491 -0.962698
vn 0.006845 0.270491 -0.962698
vn 0.006844 0.270491 -0.962698
vn 0.006844 0.270491 -0.962698
vn 0.199537 0.331846 -0.921989
vn 0.199537 0.331846 -0.921989
vn 0.199537 0.331846 -0.921989
vn 0.199538 0.331845 -0.921989
vn 0.390658 0.265722 -0.881350
vn 0.390658 0.265722 -0.881350
vn 0.390658 0.265721 -0.881350
vn 0.390658 0.265720 -0.881350
vn 0.507209 0.097376 -0.856304
vn 0.507209 0.097376 -0.856304
vn 0.507209 0.097376 -0.856304
vn 0.507209 0.097376 -0.856304
vn -0.113814 0.105093 -0.987928
vn -0.113814 0.105093 -0.987928
vn -0.113814 0.105093 -0.987928
vn -0.113815 0.105093 -0.987928
vn -0.012309 -0.999924 -0.000551
vn -0.012309 -0.999924 -0.000551
vn -0.012309 -0.999924 -0.000551
vn -0.540845 -0.840492 0.032567
vn -0.040903 -0.997644 -0.055068
vn -0.718063 -0.694905 -0.038641
vn -0.492136 -0.859542 -0.137801
vn -0.807027 -0.577247 -0.124472
vn -0.320870 -0.946897 -0.020685
vn -0.319478 -0.947374 -0.020389
vn 0.283108 -0.953064 0.107323
vn 0.284509 -0.952614 0.107619
vn 0.775434 -0.595159 0.210921
vn 0.517287 -0.816003 0.257978
vn 0.485135 -0.871687 0.069328
vn 0.057282 -0.996507 -0.060767
vn 0.073601 -0.996796 -0.031314
vn 0.460308 -0.769109 0.443382
vn -0.012309 -0.999924 -0.000551
vn -0.012309 -0.999924 -0.000551
s 1
g Chop_1 Onion2 Onion1_Whole3
usemtl initialShadingGroup
f 67/57/121 68/58/122 37/59/123
f 37/59/123 68/58/122 38/60/124
s 2
f 68/58/125 69/61/126 38/60/127
f 38/60/127 69/61/126 39/62/128
s 3
f 69/61/129 70/63/130 39/62/131
f 39/62/131 70/63/130 40/64/132
s 4
f 70/63/133 71/65/134 40/64/135
f 40/64/135 71/65/134 41/66/136
s 5
f 72/67/137 67/57/138 42/68/139
f 42/68/139 67/57/138 37/59/140
s 6
f 38/60/141 44/69/142 37/59/143
f 37/59/143 44/69/142 43/70/144
s 7
f 39/62/145 45/71/146 38/60/147
f 38/60/147 45/71/146 44/69/148
s 8
f 40/64/149 46/72/150 39/62/151
f 39/62/151 46/72/150 45/71/152
s 9
f 41/66/153 47/73/154 40/64/155
f 40/64/155 47/73/154 46/72/156
s 10
f 37/59/157 43/70/158 42/68/159
f 42/68/159 43/70/158 48/74/160
s 11
f 44/69/161 50/75/162 43/70/163
f 43/70/163 50/75/162 49/76/164
s 12
f 45/71/165 51/77/166 44/69/167
f 44/69/167 51/77/166 50/75/168
s 13
f 46/72/169 52/78/170 45/71/171
f 45/71/171 52/78/170 51/77/172
s 14
f 47/73/173 53/79/174 46/72/175
f 46/72/175 53/79/174 52/78/176
s 15
f 43/70/177 49/76/178 48/74/179
f 48/74/179 49/76/178 54/80/180
s 16
f 50/75/181 56/81/182 49/76/183
f 49/76/183 56/81/182 55/82/184
s 17
f 51/77/185 57/83/186 50/75/187
f 50/75/187 57/83/186 56/81/188
s 18
f 52/78/189 58/84/190 51/77/191
f 51/77/191 58/84/190 57/83/192
s 19
f 53/79/193 59/85/194 52/78/195
f 52/78/195 59/85/194 58/84/196
s 20
f 49/76/197 55/82/198 54/80/199
f 54/80/199 55/82/198 60/86/200
s 21
f 55/82/201 56/81/202 61/88/203
f 61/88/203 56/81/202 62/89/204
s 22
f 56/81/205 57/83/206 62/89/207
f 62/89/207 57/83/206 63/90/208
s 23
f 57/83/209 58/84/210 63/90/211
f 63/90/211 58/84/210 64/91/212
s 24
f 58/84/213 59/85/214 64/91/215
f 64/91/215 59/85/214 65/110/216
s 25
f 60/86/217 55/82/218 66/111/219
f 66/111/219 55/82/218 61/88/220
s 26
f 53/87/221 47/92/222 59/93/223
f 59/93/223 47/92/222 65/94/224
f 47/92/222 41/95/225 65/94/224
f 65/94/224 41/95/225 64/96/226
f 41/95/225 71/97/227 64/96/226
f 71/97/227 70/98/228 64/96/226
f 70/98/228 69/99/229 64/96/226
f 64/96/226 69/99/229 63/100/230
f 69/99/229 68/101/231 63/100/230
f 63/100/230 68/101/231 62/102/232
f 68/101/231 67/103/233 62/102/232
f 62/102/232 67/103/233 61/104/234
f 67/103/233 72/105/235 61/104/234
f 72/105/235 42/106/236 61/104/234
f 42/106/236 48/107/237 61/104/234
f 61/104/234 48/107/237 66/108/238
f 66/108/238 48/107/237 60/109/239
f 48/107/237 54/112/240 60/109/239
