# This file uses centimeters as units for non-parametric coordinates.

mtllib pot_model.mtl
g default
v 0.689589 0.000000 -0.822061
v 0.787141 0.000000 -0.761260
v 0.846607 0.000000 -0.820726
v 0.785807 0.000000 -0.918279
v 0.688765 0.000000 -0.919103
v 0.565037 0.386681 -0.720560
v 0.734994 0.413071 -0.611464
v 0.833469 0.498470 -0.709939
v 0.724373 0.524859 -0.879896
v 0.558472 0.455770 -0.886460
v 0.759582 0.000000 -0.848286
v 0.683269 0.455770 -0.761664
vt 0.548284 0.007647
vt 0.373591 0.064409
vt 0.373591 0.248091
vt 0.548284 0.304853
vt 0.656250 0.156250
vt 0.375000 0.312500
vt 0.425000 0.312500
vt 0.475000 0.312500
vt 0.525000 0.312500
vt 0.575000 0.312500
vt 0.625000 0.312500
vt 0.375000 0.688440
vt 0.425000 0.688440
vt 0.475000 0.688440
vt 0.525000 0.688440
vt 0.575000 0.688440
vt 0.625000 0.688440
vt 0.548284 0.695147
vt 0.373591 0.751909
vt 0.373591 0.935591
vt 0.548284 0.992353
vt 0.656250 0.843750
vt 0.500000 0.150000
vt 0.500000 0.837500
vn -0.475274 -0.357605 0.803886
vn -0.475274 -0.357605 0.803886
vn -0.475274 -0.357605 0.803886
vn -0.475274 -0.357605 0.803886
vn 0.736443 -0.136661 0.662552
vn 0.736444 -0.136661 0.662552
vn 0.736444 -0.136661 0.662552
vn 0.736443 -0.136661 0.662552
vn 0.842216 0.137371 -0.521345
vn 0.842216 0.137371 -0.521345
vn 0.842216 0.137371 -0.521345
vn 0.842216 0.137371 -0.521345
vn 0.008604 0.073910 -0.997228
vn 0.008604 0.073910 -0.997228
vn 0.008604 0.073910 -0.997228
vn 0.008604 0.073910 -0.997228
vn -0.958155 -0.282321 -0.047256
vn -0.958155 -0.282321 -0.047256
vn -0.958155 -0.282321 -0.047256
vn -0.958155 -0.282321 -0.047256
vn 0.000000 -1.000000 0.000000
vn 0.000000 -1.000000 0.000000
vn 0.000000 -1.000000 0.000000
vn 0.000000 -1.000000 0.000000
vn 0.000000 -1.000000 0.000000
vn 0.000000 -1.000000 0.000000
vn -0.369643 0.852484 0.369643
vn -0.369643 0.852484 0.369643
vn -0.369643 0.852483 0.369643
vn -0.369644 0.852483 0.369643
vn -0.369644 0.852483 0.369644
vn -0.369643 0.852483 0.369644
s off
g potLeg3_geo pot_grp
usemtl initialShadingGroup
f 1/6/1 2/7/2 7/13/3 6/12/4
f 2/7/5 3/8/6 8/14/7 7/13/8
f 3/8/9 4/9/10 9/15/11 8/14/12
f 4/9/13 5/10/14 10/16/15 9/15/16
f 5/10/17 1/11/18 6/17/19 10/16/20
s 1
f 2/2/21 1/1/22 11/23/23
f 3/3/24 2/2/21 11/23/23
f 4/4/25 3/3/24 11/23/23
f 5/5/26 4/4/25 11/23/23
f 1/1/22 5/5/26 11/23/23
s 2
f 6/21/27 7/20/28 12/24/29
f 7/20/28 8/19/30 12/24/29
f 8/19/30 9/18/31 12/24/29
f 9/18/31 10/22/32 12/24/29
f 10/22/32 6/21/27 12/24/29
g default
v -0.818447 0.000000 -0.769415
v -0.763736 0.000000 -0.870508
v -0.826733 0.000000 -0.926221
v -0.920378 0.000000 -0.859560
v -0.915257 0.000000 -0.762649
v -0.709509 0.386681 -0.651314
v -0.611027 0.413071 -0.827634
v -0.715348 0.498470 -0.919893
v -0.878304 0.524859 -0.800591
v -0.874696 0.455770 -0.634600
v -0.848910 0.000000 -0.837671
v -0.757777 0.455770 -0.766806
vt 0.548284 0.007647
vt 0.373591 0.064409
vt 0.373591 0.248091
vt 0.548284 0.304853
vt 0.656250 0.156250
vt 0.375000 0.312500
vt 0.425000 0.312500
vt 0.475000 0.312500
vt 0.525000 0.312500
vt 0.575000 0.312500
vt 0.625000 0.312500
vt 0.375000 0.688440
vt 0.425000 0.688440
vt 0.475000 0.688440
vt 0.525000 0.688440
vt 0.575000 0.688440
vt 0.625000 0.688440
vt 0.548284 0.695147
vt 0.373591 0.751909
vt 0.373591 0.935591
vt 0.548284 0.992353
vt 0.656250 0.843750
vt 0.500000 0.150000
vt 0.500000 0.837500
vn 0.831487 -0.357605 0.425146
vn 0.831487 -0.357605 0.425146
vn 0.831487 -0.357605 0.425146
vn 0.831487 -0.357605 0.425146
vn 0.616202 -0.136661 -0.775641
vn 0.616202 -0.136661 -0.775641
vn 0.616202 -0.136661 -0.775641
vn 0.616202 -0.136661 -0.775641
vn -0.571950 0.137371 -0.808704
vn -0.571950 0.137371 -0.808704
vn -0.571950 0.137371 -0.808704
vn -0.571950 0.137371 -0.808704
vn -0.995883 0.073909 0.052491
vn -0.995883 0.073909 0.052491
vn -0.995883 0.073909 0.052491
vn -0.995883 0.073909 0.052491
vn 0.011518 -0.282321 0.959251
vn 0.011518 -0.282321 0.959251
vn 0.011518 -0.282321 0.959251
vn 0.011518 -0.282321 0.959251
vn 0.000000 -1.000000 0.000000
vn 0.000000 -1.000000 0.000000
vn 0.000000 -1.000000 0.000000
vn 0.000000 -1.000000 0.000000
vn 0.000000 -1.000000 0.000000
vn 0.000000 -1.000000 0.000000
vn 0.391589 0.852484 0.346309
vn 0.391588 0.852484 0.346310
vn 0.391589 0.852483 0.346309
vn 0.391589 0.852483 0.346310
vn 0.391589 0.852483 0.346309
vn 0.391590 0.852483 0.346309
s off
g pot_grp potLeg2_geo
usemtl initialShadingGroup
f 13/30/33 14/31/34 19/37/35 18/36/36
f 14/31/37 15/32/38 20/38/39 19/37/40
f 15/32/41 16/33/42 21/39/43 20/38/44
f 16/33/45 17/34/46 22/40/47 21/39/48
f 17/34/49 13/35/50 18/41/51 22/40/52
s 1
f 14/26/53 13/25/54 23/47/55
f 15/27/56 14/26/53 23/47/55
f 16/28/57 15/27/56 23/47/55
f 17/29/58 16/28/57 23/47/55
f 13/25/54 17/29/58 23/47/55
s 2
f 18/45/59 19/44/60 24/48/61
f 19/44/60 20/43/62 24/48/61
f 20/43/62 21/42/63 24/48/61
f 21/42/63 22/46/64 24/48/61
f 22/46/64 18/45/59 24/48/61
g default
v 0.038238 0.000000 1.066705
v -0.073734 0.000000 1.092692
v -0.073734 0.000000 1.176790
v 0.038238 0.000000 1.202778
v 0.107440 0.000000 1.134741
v 0.054538 0.386681 0.906862
v -0.142783 0.413071 0.949897
v -0.142783 0.498470 1.089161
v 0.054538 0.524859 1.132196
v 0.176489 0.455770 1.019529
v 0.007290 0.000000 1.134741
v 0.000000 0.455770 1.019529
vt 0.548284 0.007647
vt 0.373591 0.064409
vt 0.373591 0.248091
vt 0.548284 0.304853
vt 0.656250 0.156250
vt 0.375000 0.312500
vt 0.425000 0.312500
vt 0.475000 0.312500
vt 0.525000 0.312500
vt 0.575000 0.312500
vt 0.625000 0.312500
vt 0.375000 0.688440
vt 0.425000 0.688440
vt 0.475000 0.688440
vt 0.525000 0.688440
vt 0.575000 0.688440
vt 0.625000 0.688440
vt 0.548284 0.695147
vt 0.373591 0.751909
vt 0.373591 0.935591
vt 0.548284 0.992353
vt 0.656250 0.843750
vt 0.500000 0.150000
vt 0.500000 0.837500
vn -0.232363 -0.357605 -0.904503
vn -0.232363 -0.357605 -0.904503
vn -0.232363 -0.357605 -0.904503
vn -0.232363 -0.357605 -0.904503
vn -0.989239 -0.136661 0.052250
vn -0.989239 -0.136661 0.052250
vn -0.989239 -0.136661 0.052250
vn -0.989239 -0.136661 0.052250
vn -0.226890 0.137371 0.964184
vn -0.226890 0.137371 0.964184
vn -0.226890 0.137371 0.964184
vn -0.226890 0.137371 0.964184
vn 0.699063 0.073910 0.711230
vn 0.699063 0.073910 0.711230
vn 0.699063 0.073910 0.711230
vn 0.699063 0.073910 0.711230
vn 0.710932 -0.282322 -0.644104
vn 0.710932 -0.282322 -0.644104
vn 0.710932 -0.282321 -0.644104
vn 0.710932 -0.282321 -0.644104
vn 0.000000 -1.000000 0.000000
vn 0.000000 -1.000000 0.000000
vn 0.000000 -1.000000 0.000000
vn 0.000000 -1.000000 0.000000
vn 0.000000 -1.000000 0.000000
vn 0.000000 -1.000000 0.000000
vn -0.000000 0.852483 -0.522755
vn 0.000000 0.852483 -0.522755
vn -0.000000 0.852483 -0.522755
vn 0.000000 0.852483 -0.522755
vn -0.000000 0.852483 -0.522755
vn -0.000001 0.852483 -0.522755
s off
g pot_grp potLeg1_geo
usemtl initialShadingGroup
f 25/54/65 26/55/66 31/61/67 30/60/68
f 26/55/69 27/56/70 32/62/71 31/61/72
f 27/56/73 28/57/74 33/63/75 32/62/76
f 28/57/77 29/58/78 34/64/79 33/63/80
f 29/58/81 25/59/82 30/65/83 34/64/84
s 1
f 26/50/85 25/49/86 35/71/87
f 27/51/88 26/50/85 35/71/87
f 28/52/89 27/51/88 35/71/87
f 29/53/90 28/52/89 35/71/87
f 25/49/86 29/53/90 35/71/87
s 2
f 30/69/91 31/68/92 36/72/93
f 31/68/92 32/67/94 36/72/93
f 32/67/94 33/66/95 36/72/93
f 33/66/95 34/70/96 36/72/93
f 34/70/96 30/69/91 36/72/93
g default
v 1.012675 2.531412 -1.082819
v -0.032393 2.531412 -1.515700
v -1.077461 2.531412 -1.082819
v -1.510343 2.531412 -0.037751
v -1.077461 2.531412 1.007318
v -0.032393 2.531412 1.440199
v 1.012675 2.531412 1.007318
v 1.445556 2.531412 -0.037751
v 0.953308 2.531412 -1.023452
v -0.032393 2.531412 -1.431743
v -1.018095 2.531412 -1.023452
v -1.426385 2.531412 -0.037751
v -1.018095 2.531412 0.947951
v -0.032393 2.531412 1.356242
v 0.953309 2.531412 0.947951
v 1.361599 2.531412 -0.037751
v 0.916137 0.786905 -0.986281
v -0.032393 0.786905 -1.379175
v -0.980924 0.786905 -0.986281
v -1.373817 0.786905 -0.037751
v -0.980924 0.786905 0.910780
v -0.032393 0.786905 1.303674
v 0.916137 0.786905 0.910780
v 1.309031 0.786905 -0.037751
v 0.739142 0.378689 -0.809285
v -0.032393 0.378689 -1.128865
v -0.032393 0.254014 -0.037751
v -0.803928 0.378689 -0.809285
v -1.123507 0.378689 -0.037751
v -0.803928 0.378689 0.733784
v -0.032393 0.378689 1.053364
v 0.739142 0.378689 0.733784
v 1.058721 0.378689 -0.037751
v 0.695313 0.432919 -0.765457
v -0.032393 0.432919 -1.066882
v -0.032393 0.308244 -0.037751
v -0.760099 0.432919 -0.765457
v -1.061525 0.432919 -0.037751
v -0.760099 0.432919 0.689955
v -0.032393 0.432919 0.991381
v 0.695313 0.432919 0.689956
v 0.996739 0.432919 -0.037751
v 1.191752 1.225156 -1.261896
v -0.032393 1.225156 -1.768954
v -1.256539 1.225156 -1.261896
v -1.763597 1.225156 -0.037751
v -1.256539 1.225156 1.186395
v -0.032393 1.225156 1.693453
v 1.191752 1.225156 1.186395
v 1.698810 1.225156 -0.037751
v 1.122213 1.225156 -1.192357
v -0.032393 1.225156 -1.670610
v -1.187000 1.225156 -1.192357
v -1.665253 1.225156 -0.037751
v -1.187000 1.225156 1.116856
v -0.032393 1.225156 1.595109
v 1.122213 1.225156 1.116856
v 1.600467 1.225156 -0.037751
v 0.882414 2.300632 -0.952557
v -0.032393 2.300632 -1.331482
v -0.947200 2.300632 -0.952557
v -1.326125 2.300632 -0.037751
v -0.947200 2.300632 0.877056
v -0.032393 2.300632 1.255981
v 0.882414 2.300632 0.877056
v 1.261339 2.300632 -0.037751
v 0.937510 2.300632 -1.007654
v -0.032393 2.300632 -1.409401
v -1.002297 2.300632 -1.007654
v -1.404044 2.300632 -0.037751
v -1.002297 2.300632 0.932153
v -0.032393 2.300632 1.333900
v 0.937510 2.300632 0.932153
v 1.339257 2.300632 -0.037751
vt 0.375000 0.688440
vt 0.406250 0.688440
vt 0.437500 0.688440
vt 0.468750 0.688440
vt 0.500000 0.688440
vt 0.531250 0.688440
vt 0.562500 0.688440
vt 0.593750 0.688440
vt 0.625000 0.688440
vt 0.610485 0.733265
vt 0.500000 0.687500
vt 0.389515 0.733265
vt 0.343750 0.843750
vt 0.389515 0.954235
vt 0.500000 1.000000
vt 0.610485 0.954235
vt 0.656250 0.843750
vt 0.500000 0.150000
vt 0.500000 0.837500
vt 0.610485 0.954235
vt 0.500000 1.000000
vt 0.389515 0.954235
vt 0.343750 0.843750
vt 0.389515 0.733265
vt 0.500000 0.687500
vt 0.610485 0.733265
vt 0.656250 0.843750
vt 0.610485 0.954235
vt 0.500000 1.000000
vt 0.389515 0.954235
vt 0.343750 0.843750
vt 0.389515 0.733265
vt 0.500000 0.687500
vt 0.610485 0.733265
vt 0.656250 0.843750
vt 0.500000 0.000000
vt 0.610485 0.045765
vt 0.389515 0.045765
vt 0.343750 0.156250
vt 0.389515 0.266735
vt 0.500000 0.312500
vt 0.610485 0.266735
vt 0.656250 0.156250
vt 0.610485 0.954235
vt 0.500000 1.000000
vt 0.389515 0.954235
vt 0.343750 0.843750
vt 0.389515 0.733265
vt 0.500000 0.687500
vt 0.610485 0.733265
vt 0.656250 0.843750
vt 0.625000 0.414459
vt 0.375000 0.414459
vt 0.406250 0.414459
vt 0.437500 0.414459
vt 0.468750 0.414459
vt 0.500000 0.414459
vt 0.531250 0.414459
vt 0.562500 0.414459
vt 0.593750 0.414459
vt 0.610485 0.954235
vt 0.500000 1.000000
vt 0.389515 0.954235
vt 0.343750 0.843750
vt 0.389515 0.733265
vt 0.500000 0.687500
vt 0.610485 0.733265
vt 0.656250 0.843750
vt 0.610485 0.954235
vt 0.500000 1.000000
vt 0.389515 0.954235
vt 0.343750 0.843750
vt 0.389515 0.733265
vt 0.500000 0.687500
vt 0.610485 0.733265
vt 0.656250 0.843750
vt 0.625000 0.627214
vt 0.375000 0.627214
vt 0.406250 0.627214
vt 0.437500 0.627214
vt 0.468750 0.627214
vt 0.500000 0.627214
vt 0.531250 0.627214
vt 0.562500 0.627214
vt 0.593750 0.627214
vn 0.381073 -0.091652 -0.919991
vn 0.381072 -0.091652 -0.919991
vn 0.313708 -0.572707 -0.757360
vn 0.313708 -0.572707 -0.757360
vn -0.381073 -0.091652 -0.919991
vn -0.381073 -0.091652 -0.919991
vn -0.313708 -0.572707 -0.757360
vn -0.313708 -0.572707 -0.757360
vn -0.919991 -0.091652 -0.381073
vn -0.919991 -0.091652 -0.381073
vn -0.757360 -0.572707 -0.313708
vn -0.757360 -0.572707 -0.313708
vn -0.919991 -0.091653 0.381072
vn -0.919991 -0.091652 0.381072
vn -0.757360 -0.572707 0.313708
vn -0.757360 -0.572707 0.313708
vn -0.381073 -0.091652 0.919991
vn -0.381073 -0.091652 0.919991
vn -0.313709 -0.572707 0.757360
vn -0.313709 -0.572707 0.757360
vn 0.381073 -0.091652 0.919991
vn 0.381073 -0.091652 0.919991
vn 0.313709 -0.572707 0.757360
vn 0.313709 -0.572707 0.757360
vn 0.919991 -0.091652 0.381073
vn 0.919991 -0.091652 0.381073
vn 0.757360 -0.572707 0.313708
vn 0.757360 -0.572707 0.313708
vn 0.919991 -0.091652 -0.381073
vn 0.919991 -0.091652 -0.381073
vn 0.757360 -0.572707 -0.313709
vn 0.757360 -0.572707 -0.313708
vn 0.000000 -0.993535 -0.113524
vn 0.080274 -0.993535 -0.080274
vn -0.000000 -1.000000 -0.000000
vn -0.080274 -0.993535 -0.080274
vn -0.113524 -0.993535 0.000000
vn -0.080274 -0.993535 0.080274
vn 0.000000 -0.993535 0.113524
vn 0.080274 -0.993535 0.080274
vn 0.113524 -0.993535 0.000000
vn -0.085041 0.992742 0.085041
vn 0.000000 0.992742 0.120266
vn 0.000000 1.000000 -0.000000
vn 0.085041 0.992742 0.085041
vn 0.120266 0.992742 0.000000
vn 0.085041 0.992742 -0.085041
vn 0.000000 0.992742 -0.120266
vn -0.085041 0.992742 -0.085041
vn -0.120266 0.992742 0.000000
vn 0.000004 1.000000 -0.000012
vn 0.000004 1.000000 -0.000012
vn 0.000004 1.000000 -0.000012
vn 0.000004 1.000000 -0.000012
vn -0.000004 1.000000 -0.000005
vn -0.000004 1.000000 -0.000005
vn -0.000004 1.000000 -0.000005
vn -0.000004 1.000000 -0.000005
vn -0.000009 1.000000 -0.000002
vn -0.000009 1.000000 -0.000002
vn -0.000009 1.000000 -0.000002
vn -0.000009 1.000000 -0.000002
vn -0.000009 1.000000 0.000003
vn -0.000009 1.000000 0.000003
vn -0.000009 1.000000 0.000003
vn -0.000009 1.000000 0.000003
vn -0.000004 1.000000 0.000006
vn -0.000004 1.000000 0.000006
vn -0.000004 1.000000 0.000006
vn -0.000004 1.000000 0.000006
vn 0.000004 1.000000 0.000011
vn 0.000004 1.000000 0.000011
vn 0.000004 1.000000 0.000011
vn 0.000004 1.000000 0.000011
vn 0.000009 1.000000 0.000004
vn 0.000009 1.000000 0.000004
vn 0.000009 1.000000 0.000004
vn 0.000009 1.000000 0.000004
vn 0.000009 1.000000 -0.000004
vn 0.000009 1.000000 -0.000004
vn 0.000009 1.000000 -0.000004
vn 0.000009 1.000000 -0.000004
vn -0.355144 0.372488 0.857395
vn -0.355144 0.372488 0.857395
vn -0.376944 -0.172537 0.910024
vn -0.376944 -0.172537 0.910024
vn 0.355144 0.372488 0.857395
vn 0.355144 0.372488 0.857395
vn 0.376944 -0.172537 0.910024
vn 0.376944 -0.172537 0.910024
vn 0.857395 0.372488 0.355144
vn 0.857395 0.372488 0.355144
vn 0.910024 -0.172537 0.376944
vn 0.910024 -0.172537 0.376944
vn 0.857395 0.372488 -0.355144
vn 0.857395 0.372488 -0.355144
vn 0.910024 -0.172537 -0.376944
vn 0.910024 -0.172537 -0.376944
vn 0.355144 0.372488 -0.857394
vn 0.355144 0.372488 -0.857394
vn 0.376944 -0.172537 -0.910024
vn 0.376944 -0.172537 -0.910024
vn -0.355144 0.372488 -0.857395
vn -0.355144 0.372488 -0.857395
vn -0.376944 -0.172537 -0.910024
vn -0.376944 -0.172537 -0.910024
vn -0.857394 0.372488 -0.355144
vn -0.857394 0.372488 -0.355144
vn -0.910024 -0.172537 -0.376944
vn -0.910024 -0.172537 -0.376944
vn -0.857394 0.372488 0.355144
vn -0.857394 0.372488 0.355145
vn -0.910024 -0.172537 0.376944
vn -0.910024 -0.172537 0.376944
vn -0.296634 0.631788 0.716138
vn -0.296634 0.631788 0.716138
vn -0.296634 0.631788 0.716138
vn -0.296634 0.631788 0.716138
vn 0.296634 0.631788 0.716137
vn 0.296634 0.631788 0.716137
vn 0.296634 0.631788 0.716137
vn 0.296634 0.631788 0.716137
vn 0.716138 0.631788 0.296634
vn 0.716138 0.631788 0.296634
vn 0.716138 0.631788 0.296634
vn 0.716138 0.631788 0.296634
vn 0.716138 0.631788 -0.296634
vn 0.716138 0.631788 -0.296634
vn 0.716138 0.631788 -0.296634
vn 0.716138 0.631788 -0.296634
vn 0.296634 0.631788 -0.716137
vn 0.296634 0.631788 -0.716137
vn 0.296634 0.631788 -0.716137
vn 0.296634 0.631788 -0.716137
vn -0.296634 0.631788 -0.716137
vn -0.296634 0.631788 -0.716137
vn -0.296634 0.631788 -0.716137
vn -0.296634 0.631788 -0.716137
vn -0.716137 0.631788 -0.296634
vn -0.716137 0.631788 -0.296634
vn -0.716137 0.631788 -0.296634
vn -0.716137 0.631788 -0.296634
vn -0.716137 0.631788 0.296634
vn -0.716137 0.631788 0.296634
vn -0.716137 0.631788 0.296634
vn -0.716137 0.631788 0.296634
vn 0.376255 0.182520 -0.908360
vn 0.376255 0.182520 -0.908360
vn -0.376255 0.182520 -0.908360
vn -0.376255 0.182520 -0.908360
vn -0.908360 0.182520 -0.376255
vn -0.908360 0.182520 -0.376255
vn -0.908360 0.182520 0.376255
vn -0.908360 0.182520 0.376255
vn -0.376255 0.182520 0.908360
vn -0.376255 0.182520 0.908360
vn 0.376255 0.182520 0.908360
vn 0.376255 0.182520 0.908360
vn 0.908360 0.182521 0.376255
vn 0.908360 0.182521 0.376255
vn 0.908360 0.182520 -0.376255
vn 0.908360 0.182520 -0.376255
vn -0.382392 -0.038965 0.923178
vn -0.382392 -0.038965 0.923178
vn -0.326062 0.523474 0.787184
vn -0.326062 0.523474 0.787184
vn 0.382392 -0.038965 0.923178
vn 0.382392 -0.038965 0.923178
vn 0.326062 0.523475 0.787184
vn 0.326062 0.523475 0.787184
vn 0.923178 -0.038965 0.382392
vn 0.923178 -0.038965 0.382392
vn 0.787184 0.523475 0.326062
vn 0.787184 0.523475 0.326062
vn 0.923178 -0.038965 -0.382392
vn 0.923178 -0.038965 -0.382392
vn 0.787184 0.523475 -0.326062
vn 0.787184 0.523475 -0.326062
vn 0.382393 -0.038965 -0.923178
vn 0.382393 -0.038965 -0.923178
vn 0.326062 0.523475 -0.787183
vn 0.326062 0.523475 -0.787183
vn -0.382393 -0.038965 -0.923178
vn -0.382393 -0.038965 -0.923178
vn -0.326062 0.523474 -0.787184
vn -0.326062 0.523475 -0.787184
vn -0.923178 -0.038965 -0.382393
vn -0.923178 -0.038965 -0.382393
vn -0.787184 0.523475 -0.326062
vn -0.787184 0.523475 -0.326062
vn -0.923178 -0.038965 0.382393
vn -0.923178 -0.038965 0.382393
vn -0.787183 0.523475 0.326062
vn -0.787183 0.523475 0.326062
vn 0.352126 -0.391568 -0.850107
vn 0.352126 -0.391568 -0.850107
vn -0.352125 -0.391567 -0.850107
vn -0.352125 -0.391567 -0.850108
vn -0.850107 -0.391568 -0.352126
vn -0.850107 -0.391568 -0.352126
vn -0.850107 -0.391567 0.352126
vn -0.850107 -0.391567 0.352126
vn -0.352126 -0.391567 0.850108
vn -0.352126 -0.391567 0.850108
vn 0.352126 -0.391567 0.850107
vn 0.352126 -0.391567 0.850107
vn 0.850108 -0.391567 0.352126
vn 0.850108 -0.391567 0.352126
vn 0.850107 -0.391567 -0.352126
vn 0.850107 -0.391567 -0.352126
s 1
g pot_grp potBody_geo
usemtl initialShadingGroup
f 80/126/97 79/125/98 61/109/99 62/108/100
s 2
f 81/127/101 80/126/102 62/108/103 64/110/104
s 3
f 82/128/105 81/127/106 64/110/107 65/111/108
s 4
f 83/129/109 82/128/110 65/111/111 66/112/112
s 5
f 84/130/113 83/129/114 66/112/115 67/113/116
s 6
f 85/131/117 84/130/118 67/113/119 68/114/120
s 7
f 86/132/121 85/131/122 68/114/123 69/115/124
s 8
f 79/124/125 86/132/126 69/115/127 61/109/128
s 9
f 62/108/129 61/109/130 63/90/131
f 64/110/132 62/108/129 63/90/131
f 65/111/133 64/110/132 63/90/131
f 66/112/134 65/111/133 63/90/131
f 67/113/135 66/112/134 63/90/131
f 68/114/136 67/113/135 63/90/131
f 69/115/137 68/114/136 63/90/131
f 61/109/130 69/115/137 63/90/131
s 10
f 70/116/138 71/117/139 72/91/140
f 71/117/139 73/118/141 72/91/140
f 73/118/141 74/119/142 72/91/140
f 74/119/142 75/120/143 72/91/140
f 75/120/143 76/121/144 72/91/140
f 76/121/144 77/122/145 72/91/140
f 77/122/145 78/123/146 72/91/140
f 78/123/146 70/116/138 72/91/140
s off
f 37/88/147 38/87/148 46/93/149 45/92/150
f 38/87/151 39/86/152 47/94/153 46/93/154
f 39/86/155 40/85/156 48/95/157 47/94/158
f 40/85/159 41/84/160 49/96/161 48/95/162
f 41/84/163 42/83/164 50/97/165 49/96/166
f 42/83/167 43/82/168 51/98/169 50/97/170
f 43/82/171 44/89/172 52/99/173 51/98/174
f 44/89/175 37/88/176 45/92/177 52/99/178
s 11
f 45/92/179 46/93/180 96/142/181 95/141/182
s 12
f 46/93/183 47/94/184 97/143/185 96/142/186
s 13
f 47/94/187 48/95/188 98/144/189 97/143/190
s 14
f 48/95/191 49/96/192 99/145/193 98/144/194
s 15
f 49/96/195 50/97/196 100/146/197 99/145/198
s 16
f 50/97/199 51/98/200 101/147/201 100/146/202
s 17
f 51/98/203 52/99/204 102/148/205 101/147/206
s 18
f 52/99/207 45/92/208 95/141/209 102/148/210
s off
f 53/100/211 54/101/212 71/117/213 70/116/214
f 54/101/215 55/102/216 73/118/217 71/117/218
f 55/102/219 56/103/220 74/119/221 73/118/222
f 56/103/223 57/104/224 75/120/225 74/119/226
f 57/104/227 58/105/228 76/121/229 75/120/230
f 58/105/231 59/106/232 77/122/233 76/121/234
f 59/106/235 60/107/236 78/123/237 77/122/238
f 60/107/239 53/100/240 70/116/241 78/123/242
s 1
f 79/125/98 80/126/97 104/151/243 103/150/244
s 2
f 80/126/102 81/127/101 105/152/245 104/151/246
s 3
f 81/127/106 82/128/105 106/153/247 105/152/248
s 4
f 82/128/110 83/129/109 107/154/249 106/153/250
s 5
f 83/129/114 84/130/113 108/155/251 107/154/252
s 6
f 84/130/118 85/131/117 109/156/253 108/155/254
s 7
f 85/131/122 86/132/121 110/157/255 109/156/256
s 8
f 86/132/126 79/124/125 103/149/257 110/157/258
s 11
f 87/133/259 88/134/260 54/101/261 53/100/262
s 12
f 88/134/263 89/135/264 55/102/265 54/101/266
s 13
f 89/135/267 90/136/268 56/103/269 55/102/270
s 14
f 90/136/271 91/137/272 57/104/273 56/103/274
s 15
f 91/137/275 92/138/276 58/105/277 57/104/278
s 16
f 92/138/279 93/139/280 59/106/281 58/105/282
s 17
f 93/139/283 94/140/284 60/107/285 59/106/286
s 18
f 94/140/287 87/133/288 53/100/289 60/107/290
s 11
f 95/141/182 96/142/181 88/134/260 87/133/259
s 12
f 96/142/186 97/143/185 89/135/264 88/134/263
s 13
f 97/143/190 98/144/189 90/136/268 89/135/267
s 14
f 98/144/194 99/145/193 91/137/272 90/136/271
s 15
f 99/145/198 100/146/197 92/138/276 91/137/275
s 16
f 100/146/202 101/147/201 93/139/280 92/138/279
s 17
f 101/147/206 102/148/205 94/140/284 93/139/283
s 18
f 102/148/210 95/141/209 87/133/288 94/140/287
s 1
f 103/150/244 104/151/243 38/74/291 37/73/292
s 2
f 104/151/246 105/152/245 39/75/293 38/74/294
s 3
f 105/152/248 106/153/247 40/76/295 39/75/296
s 4
f 106/153/250 107/154/249 41/77/297 40/76/298
s 5
f 107/154/252 108/155/251 42/78/299 41/77/300
s 6
f 108/155/254 109/156/253 43/79/301 42/78/302
s 7
f 109/156/256 110/157/255 44/80/303 43/79/304
s 8
f 110/157/258 103/149/257 37/81/305 44/80/306
