# This file uses centimeters as units for non-parametric coordinates.

mtllib potato.mtl
g default
v -0.283448 0.009178 -0.004247
v -0.289713 0.010013 -0.010818
v -0.306865 0.009591 0.004326
v -0.291369 0.012533 0.040881
v -0.283448 0.007633 0.011932
v -0.281232 0.008332 0.003798
v -0.261053 0.016051 -0.013313
v -0.331957 0.019668 -0.029619
v -0.377183 0.031804 -0.007299
v -0.331939 0.009383 0.008949
v -0.241034 0.029254 -0.022430
v -0.246552 0.049429 -0.056758
v -0.278856 0.052426 -0.071263
v -0.377989 0.052471 -0.038769
v -0.394344 0.047528 0.018070
v -0.380311 0.046040 0.043900
v -0.352713 0.045235 0.061843
v -0.278552 0.043900 0.069874
v -0.245890 0.043704 0.054938
v -0.224204 0.043920 0.030768
v -0.216641 0.044879 0.000201
v -0.224505 0.046766 -0.031121
v -0.354823 0.082725 -0.072014
v -0.403770 0.079808 -0.015161
v -0.212513 0.075118 -0.037711
v -0.272593 0.115434 -0.093657
v -0.316607 0.082699 -0.085584
v -0.318026 0.074803 0.079095
v -0.273939 0.074732 0.078211
v -0.204852 0.109816 -0.040648
v -0.232420 0.112558 -0.075227
v -0.391371 0.151140 -0.058842
v -0.399686 0.150284 0.052822
v -0.226709 0.149072 0.071191
v -0.199392 0.181063 0.041192
v -0.190119 0.145061 0.001303
v -0.200720 0.145932 -0.040974
v -0.271154 0.184475 -0.097394
v -0.316086 0.184657 -0.099415
v -0.356773 0.184674 -0.086151
v -0.412109 0.185070 -0.021550
v -0.414637 0.185070 0.019729
v -0.367054 0.185063 0.075722
v -0.200720 0.180852 -0.039386
v -0.229368 0.183210 -0.076442
v -0.319122 0.218906 0.088038
v -0.273932 0.250608 0.083351
v -0.230059 0.217716 0.070463
v -0.204941 0.215181 -0.036009
v -0.275139 0.249671 -0.082282
v -0.316011 0.249492 -0.085183
v -0.353539 0.249423 -0.074514
v -0.384184 0.249547 -0.051902
v -0.402206 0.249666 -0.018766
v -0.359819 0.250315 0.071943
v -0.212912 0.246504 -0.031656
v -0.247062 0.271555 -0.053248
v -0.403827 0.249666 0.018375
v -0.389579 0.249547 0.050030
v -0.316443 0.275674 0.075057
v -0.246111 0.271555 0.057576
v -0.224694 0.269860 0.033072
v -0.217290 0.268555 0.003505
v -0.225200 0.269975 -0.026866
v -0.279250 0.272199 -0.069793
v -0.375714 0.272173 -0.044608
v -0.241510 0.288141 -0.021359
v -0.375985 0.289445 0.012709
v -0.343166 0.291035 0.052009
v -0.291382 0.302068 -0.038039
v -0.319742 0.308553 -0.018005
v -0.332017 0.308366 -0.004339
v -0.284471 0.291122 0.058580
v -0.283448 0.308103 -0.007796
v -0.306865 0.308943 0.000321
v -0.281232 0.307637 0.000787
vt 0.000000 0.066667
vt 0.066667 0.066667
vt 0.100000 0.000000
vt 0.500000 0.000000
vt 0.733333 0.133333
vt 0.866667 0.066667
vt 0.933333 0.066667
vt 1.000000 0.066667
vt 0.000000 0.133333
vt 0.266667 0.133333
vt 0.400000 0.200000
vt 0.466667 0.066667
vt 1.000000 0.133333
vt 0.000000 0.200000
vt 0.066667 0.266667
vt 0.133333 0.266667
vt 0.333333 0.266667
vt 0.466667 0.266667
vt 0.533333 0.266667
vt 0.600000 0.266667
vt 0.733333 0.266667
vt 0.800000 0.266667
vt 0.866667 0.266667
vt 0.933333 0.266667
vt 1.000000 0.200000
vt 0.000000 0.266667
vt 0.266667 0.333333
vt 0.400000 0.333333
vt 1.000000 0.266667
vt 0.000000 0.333333
vt 0.133333 0.400000
vt 0.200000 0.333333
vt 0.666667 0.333333
vt 0.733333 0.333333
vt 1.000000 0.333333
vt 0.000000 0.400000
vt 0.066667 0.400000
vt 0.333333 0.466667
vt 0.533333 0.466667
vt 0.800000 0.466667
vt 0.866667 0.533333
vt 0.933333 0.466667
vt 1.000000 0.400000
vt 0.000000 0.466667
vt 0.133333 0.533333
vt 0.200000 0.533333
vt 0.266667 0.533333
vt 0.400000 0.533333
vt 0.466667 0.533333
vt 0.600000 0.533333
vt 1.000000 0.466667
vt 0.000000 0.533333
vt 0.066667 0.533333
vt 0.666667 0.600000
vt 0.733333 0.666667
vt 0.800000 0.600000
vt 1.000000 0.533333
vt 0.000000 0.600000
vt 0.133333 0.666667
vt 0.200000 0.666667
vt 0.266667 0.666667
vt 0.333333 0.666667
vt 0.400000 0.666667
vt 0.600000 0.666667
vt 1.000000 0.600000
vt 0.000000 0.666667
vt 0.066667 0.733333
vt 0.466667 0.666667
vt 0.533333 0.666667
vt 0.666667 0.733333
vt 0.800000 0.733333
vt 0.866667 0.733333
vt 0.933333 0.733333
vt 1.000000 0.666667
vt 0.000000 0.733333
vt 0.133333 0.733333
vt 0.333333 0.733333
vt 1.000000 0.733333
vt 0.000000 0.800000
vt 0.466667 0.800000
vt 0.600000 0.800000
vt 1.000000 0.800000
vt 0.133333 0.866667
vt 0.266667 0.933333
vt 0.400000 0.933333
vt 0.733333 0.800000
vt 0.000000 0.933333
vt 0.100000 1.000000
vt 0.233333 1.000000
vt 0.366667 1.000000
vt 0.566667 1.000000
vt 0.766667 1.000000
vt 0.933333 0.933333
vt 1.000000 0.933333
vt 0.033333 0.000000
vt 0.433333 0.000000
vt 0.833333 0.000000
vt 0.900000 0.000000
vt 0.966667 0.000000
vt 0.966667 1.000000
vn 0.023992 -0.892403 -0.450600
vn 0.279813 -0.902486 -0.327450
vn 0.096350 -0.980412 -0.171780
vn -0.131318 -0.988697 -0.072350
vn -0.197512 -0.798145 -0.569169
vn -0.599660 -0.780791 -0.175424
vn -0.299417 -0.940687 0.159552
vn 0.018472 -0.836754 0.547267
vn 0.349947 -0.914846 0.201481
vn 0.140577 -0.987213 -0.075153
vn 0.432352 -0.534204 -0.726428
vn 0.487626 -0.814095 -0.315390
vn 0.061522 -0.623891 -0.779086
vn -0.621434 -0.456240 -0.636918
vn -0.889542 -0.401031 0.218837
vn -0.651655 -0.457474 0.605031
vn -0.377053 -0.417196 0.826909
vn 0.091599 -0.540885 0.836094
vn 0.566282 -0.455998 0.686579
vn 0.786282 -0.459914 0.412602
vn 0.876703 -0.475760 0.071018
vn 0.714691 -0.561437 -0.417139
vn -0.433227 -0.343490 -0.833264
vn -0.956654 -0.207405 -0.204442
vn 0.839062 -0.281737 -0.465402
vn 0.170753 -0.178881 -0.968940
vn -0.187077 -0.283570 -0.940527
vn -0.152304 -0.148698 0.977084
vn 0.207936 -0.119077 0.970867
vn 0.903715 -0.231663 -0.360044
vn 0.582470 -0.195464 -0.789001
vn -0.754595 -0.065383 -0.652925
vn -0.760257 -0.095136 0.642619
vn 0.572323 -0.102425 0.813607
vn 0.928201 0.041270 0.369783
vn 0.989132 -0.064947 0.131905
vn 0.873698 -0.044876 -0.484395
vn 0.252527 0.088744 -0.963512
vn -0.155627 0.021518 -0.987582
vn -0.477917 0.018749 -0.878205
vn -0.954190 0.020019 -0.298532
vn -0.981323 0.005093 0.192302
vn -0.384955 -0.032991 0.922346
vn 0.602599 0.117718 -0.789314
vn 0.908303 0.094451 -0.407510
vn -0.049158 0.014042 0.998692
vn 0.208332 0.108536 0.972017
vn 0.481699 0.095688 0.871097
vn 0.949795 0.226485 -0.215854
vn 0.325783 0.310726 -0.892925
vn -0.128271 0.368742 -0.920639
vn -0.386534 0.410122 -0.826070
vn -0.735399 0.227875 -0.638170
vn -0.883244 0.381742 -0.272310
vn -0.446360 0.247411 0.859971
vn 0.791622 0.335259 -0.510818
vn 0.552733 0.483487 -0.678768
vn -0.928539 0.303968 0.213117
vn -0.742348 0.278046 0.609598
vn -0.111049 0.463439 0.879143
vn 0.534465 0.532667 0.656211
vn 0.711148 0.626117 0.319759
vn 0.921057 0.382514 0.073057
vn 0.735364 0.577900 -0.353936
vn 0.032465 0.702279 -0.711161
vn -0.452601 0.722989 -0.521958
vn -0.563935 0.821508 0.084274
vn 0.488181 0.869096 -0.079696
vn -0.301156 0.844228 0.443379
vn 0.212441 0.855076 0.472984
vn 0.072364 0.839667 -0.538259
vn -0.175377 0.815418 -0.551667
vn -0.363745 0.930153 -0.050038
vn 0.231179 0.952919 -0.196216
vn -0.061573 0.978622 0.196232
vn 0.394017 0.886055 0.244247
s 1
g pSphere3
usemtl initialShadingGroup
f 2/2/1 7/9/2 1/1/3
f 3/3/4 8/10/5 2/2/1
f 2/2/1 8/10/5 7/9/2
f 8/10/5 3/96/4 9/11/6
f 3/96/4 10/12/7 9/11/6
f 3/4/4 4/5/8 10/12/7
f 3/97/4 5/6/9 4/5/8
f 1/8/3 7/13/2 6/7/10
f 6/7/10 7/13/2 5/6/9
f 7/9/2 12/15/11 11/14/12
f 8/10/5 13/16/13 7/9/2
f 7/9/2 13/16/13 12/15/11
f 8/10/5 9/11/6 14/17/14
f 10/12/7 15/18/15 9/11/6
f 10/12/7 16/19/16 15/18/15
f 4/5/8 17/20/17 10/12/7
f 10/12/7 17/20/17 16/19/16
f 18/21/18 4/5/8 19/22/19
f 4/5/8 5/6/9 19/22/19
f 19/22/19 5/6/9 20/23/20
f 20/23/20 5/6/9 21/24/21
f 5/6/9 7/13/2 21/24/21
f 21/24/21 7/13/2 11/25/12
f 11/14/12 12/15/11 22/26/22
f 8/10/5 23/27/23 13/16/13
f 8/10/5 14/17/14 23/27/23
f 14/17/14 9/11/6 24/28/24
f 9/11/6 15/18/15 24/28/24
f 4/5/8 18/21/18 17/20/17
f 21/24/21 11/25/12 22/29/22
f 22/26/22 12/15/11 25/30/25
f 12/15/11 13/16/13 26/31/26
f 13/16/13 27/32/27 26/31/26
f 13/16/13 23/27/23 27/32/27
f 18/21/18 28/33/28 17/20/17
f 28/33/28 18/21/18 29/34/29
f 18/21/18 19/22/19 29/34/29
f 21/24/21 22/29/22 25/35/25
f 25/30/25 12/15/11 30/36/30
f 30/36/30 12/15/11 31/37/31
f 12/15/11 26/31/26 31/37/31
f 14/17/14 32/38/32 23/27/23
f 14/17/14 24/28/24 32/38/32
f 16/19/16 33/39/33 15/18/15
f 16/19/16 17/20/17 33/39/33
f 29/34/29 19/22/19 34/40/34
f 19/22/19 20/23/20 34/40/34
f 34/40/34 20/23/20 35/41/35
f 21/24/21 36/42/36 20/23/20
f 20/23/20 36/42/36 35/41/35
f 25/35/25 30/43/30 21/24/21
f 21/24/21 30/43/30 36/42/36
f 30/36/30 31/37/31 37/44/37
f 31/37/31 26/31/26 38/45/38
f 27/32/27 39/46/39 26/31/26
f 26/31/26 39/46/39 38/45/38
f 23/27/23 40/47/40 27/32/27
f 27/32/27 40/47/40 39/46/39
f 23/27/23 32/38/32 40/47/40
f 24/28/24 41/48/41 32/38/32
f 15/18/15 42/49/42 24/28/24
f 24/28/24 42/49/42 41/48/41
f 15/18/15 33/39/33 42/49/42
f 17/20/17 43/50/43 33/39/33
f 17/20/17 28/33/28 43/50/43
f 30/43/30 37/51/37 36/42/36
f 31/37/31 45/53/44 37/44/37
f 37/44/37 45/53/44 44/52/45
f 31/37/31 38/45/38 45/53/44
f 43/50/43 28/33/28 46/54/46
f 28/33/28 29/34/29 46/54/46
f 46/54/46 29/34/29 47/55/47
f 34/40/34 48/56/48 29/34/29
f 29/34/29 48/56/48 47/55/47
f 34/40/34 35/41/35 48/56/48
f 37/51/37 44/57/45 36/42/36
f 44/52/45 45/53/44 49/58/49
f 45/53/44 38/45/38 50/59/50
f 38/45/38 39/46/39 50/59/50
f 50/59/50 39/46/39 51/60/51
f 39/46/39 40/47/40 51/60/51
f 51/60/51 40/47/40 52/61/52
f 40/47/40 32/38/32 52/61/52
f 52/61/52 32/38/32 53/62/53
f 32/38/32 41/48/41 53/62/53
f 53/62/53 41/48/41 54/63/54
f 41/48/41 42/49/42 54/63/54
f 33/39/33 43/50/43 55/64/55
f 43/50/43 46/54/46 55/64/55
f 44/57/45 49/65/49 36/42/36
f 49/58/49 45/53/44 56/66/56
f 56/66/56 45/53/44 57/67/57
f 45/53/44 50/59/50 57/67/57
f 54/63/54 42/49/42 58/68/58
f 42/49/42 33/39/33 58/68/58
f 58/68/58 33/39/33 59/69/59
f 33/39/33 55/64/55 59/69/59
f 55/64/55 46/54/46 60/70/60
f 46/54/46 47/55/47 60/70/60
f 48/56/48 61/71/61 47/55/47
f 35/41/35 62/72/62 48/56/48
f 48/56/48 62/72/62 61/71/61
f 36/42/36 63/73/63 35/41/35
f 35/41/35 63/73/63 62/72/62
f 36/42/36 49/65/49 63/73/63
f 63/73/63 49/65/49 56/74/56
f 56/66/56 57/67/57 64/75/64
f 57/67/57 50/59/50 65/76/65
f 50/59/50 51/60/51 65/76/65
f 51/60/51 52/61/52 65/76/65
f 65/76/65 52/61/52 66/77/66
f 52/61/52 53/62/53 66/77/66
f 54/63/54 68/80/67 53/62/53
f 53/62/53 68/80/67 66/77/66
f 54/63/54 58/68/58 68/80/67
f 63/73/63 56/74/56 64/78/64
f 64/75/64 57/67/57 67/79/68
f 58/68/58 59/69/59 68/80/67
f 68/80/67 59/69/59 69/81/69
f 59/69/59 55/64/55 69/81/69
f 55/64/55 60/70/60 69/81/69
f 69/81/69 60/70/60 73/86/70
f 47/55/47 73/86/70 60/70/60
f 47/55/47 61/71/61 73/86/70
f 63/73/63 64/78/64 67/82/68
f 67/79/68 57/67/57 70/83/71
f 57/67/57 65/76/65 70/83/71
f 70/83/71 65/76/65 71/84/72
f 66/77/66 71/84/72 65/76/65
f 66/77/66 72/85/73 71/84/72
f 68/80/67 72/85/73 66/77/66
f 62/72/62 73/86/70 61/71/61
f 63/73/63 67/82/68 62/72/62
f 62/72/62 67/82/68 73/86/70
f 67/79/68 70/83/71 74/87/74
f 74/87/74 70/83/71 75/88/75
f 70/83/71 71/84/72 75/89/75
f 72/85/73 75/90/75 71/84/72
f 68/80/67 75/91/75 72/85/73
f 68/80/67 69/81/69 75/91/75
f 69/81/69 73/86/70 75/92/75
f 67/82/68 76/93/76 73/86/70
f 73/86/70 76/93/76 75/92/75
f 76/93/76 67/82/68 74/94/74
f 2/2/1 1/1/3 3/95/4
f 6/7/10 5/6/9 3/98/4
f 1/8/3 6/7/10 3/99/4
f 76/93/76 74/94/74 75/100/75
