# This file uses centimeters as units for non-parametric coordinates.

mtllib potato.mtl
g default
v 0.017067 -0.019785 -0.005075
v 0.009579 -0.018788 -0.012927
v -0.010918 -0.019291 0.005170
v 0.007600 -0.015776 0.048854
v 0.017067 -0.021632 0.014258
v 0.019715 -0.020796 0.004538
v 0.043828 -0.011571 -0.015910
v -0.040903 -0.007250 -0.035395
v -0.094949 0.007253 -0.008722
v -0.040882 -0.019540 0.010694
v 0.067752 0.004206 -0.026804
v 0.061158 0.028316 -0.067827
v 0.022554 0.031898 -0.085160
v -0.095913 0.031951 -0.046330
v -0.115457 0.026044 0.021594
v -0.098687 0.024266 0.052462
v -0.065706 0.023304 0.073903
v 0.022917 0.021708 0.083500
v 0.061949 0.021474 0.065653
v 0.087864 0.021732 0.036768
v 0.096902 0.022878 0.000240
v 0.087504 0.025133 -0.037190
v -0.068229 0.068105 -0.086058
v -0.126720 0.064619 -0.018117
v 0.101835 0.059014 -0.045065
v 0.030039 0.107193 -0.111922
v -0.022560 0.068073 -0.102274
v -0.024256 0.058637 0.094520
v 0.028429 0.058553 0.093463
v 0.110990 0.100479 -0.048575
v 0.078046 0.103756 -0.089898
v -0.111903 0.149862 -0.070318
v -0.121840 0.148839 0.063124
v 0.084870 0.147391 0.085074
v 0.117515 0.185621 0.049226
v 0.128596 0.142598 0.001558
v 0.115927 0.143639 -0.048965
v 0.031757 0.189698 -0.116387
v -0.021936 0.189916 -0.118803
v -0.070558 0.189936 -0.102952
v -0.136686 0.190409 -0.025753
v -0.139707 0.190409 0.023576
v -0.082845 0.190400 0.090489
v 0.115927 0.185368 -0.047067
v 0.081693 0.188186 -0.091349
v -0.025565 0.230844 0.105207
v 0.028438 0.268728 0.099605
v 0.080867 0.229421 0.084204
v 0.110883 0.226393 -0.043032
v 0.026995 0.267608 -0.098329
v -0.021847 0.267395 -0.101795
v -0.066694 0.267312 -0.089045
v -0.103316 0.267460 -0.062024
v -0.124851 0.267602 -0.022425
v -0.074198 0.268378 0.085973
v 0.101358 0.263824 -0.037829
v 0.060549 0.293761 -0.063632
v -0.126788 0.267602 0.021958
v -0.109762 0.267460 0.059787
v -0.022363 0.298683 0.089695
v 0.061685 0.293761 0.068804
v 0.087279 0.291734 0.039522
v 0.096127 0.290175 0.004188
v 0.086674 0.291872 -0.032106
v 0.022083 0.294530 -0.083404
v -0.093193 0.294498 -0.053307
v 0.067183 0.313581 -0.025524
v -0.093517 0.315139 0.015187
v -0.054298 0.317039 0.062151
v 0.007585 0.330223 -0.045457
v -0.026306 0.337973 -0.021516
v -0.040975 0.337750 -0.005185
v 0.015844 0.317143 0.070004
v 0.017067 0.337435 -0.009316
v -0.010918 0.338439 0.000383
v 0.019715 0.336879 0.000941
vt 0.679288 0.150350
vt 0.643524 0.120751
vt 0.569871 0.091092
vt 0.422604 0.069887
vt 0.377298 0.153901
vt 0.504938 0.121415
vt 0.577442 0.162656
vt 0.614871 0.128609
vt 0.630790 0.127486
vt 0.782933 0.200100
vt 0.713016 0.188760
vt 0.306953 0.158990
vt 0.377175 0.201965
vt 0.421479 0.214584
vt 0.470132 0.217740
vt 0.573602 0.228279
vt 0.620727 0.233563
vt 0.663488 0.235776
vt 0.702947 0.230955
vt 0.739072 0.222724
vt 0.209461 0.157081
vt 0.314318 0.225083
vt 0.758742 0.261867
vt 0.127585 0.139758
vt 0.513429 0.263231
vt 0.570511 0.269037
vt 0.776079 0.306957
vt 0.832883 0.293882
vt 0.206279 0.300718
vt 0.379043 0.339894
vt 0.624470 0.361548
vt 0.674512 0.401386
vt 0.727470 0.359397
vt 0.780518 0.354613
vt 0.906492 0.399123
vt 0.053646 0.319939
vt 0.129985 0.338926
vt 0.262892 0.368108
vt 0.321616 0.376143
vt 0.430895 0.387175
vt 0.842331 0.402929
vt 0.775836 0.399848
vt 0.494958 0.435246
vt 0.554232 0.478378
vt 0.616066 0.440110
vt 0.767127 0.445090
vt 0.868053 0.523699
vt 0.052302 0.443228
vt 0.133105 0.462732
vt 0.211473 0.476790
vt 0.275581 0.463264
vt 0.433427 0.467769
vt 0.755018 0.488926
vt 0.790101 0.544771
vt 0.330949 0.461956
vt 0.381176 0.463188
vt 0.496071 0.506917
vt 0.603668 0.506072
vt 0.653847 0.509491
vt 0.699449 0.514691
vt 0.739399 0.527186
vt 0.241146 0.525461
vt 0.361401 0.539970
vt 0.717889 0.569251
vt 0.449572 0.536265
vt 0.545301 0.548902
vt 0.438384 0.652002
vt 0.441117 0.616861
vt 0.638407 0.624162
vt 0.521232 0.645060
vt 0.616503 0.612946
vt 0.652084 0.109445
vt 0.698166 0.035744
vt 0.816706 0.164177
vt 0.886265 0.056508
vt 0.895430 0.145530
vt 0.887451 0.268462
vt 0.988999 0.401371
vt 0.919402 0.565627
vt 0.947075 0.639746
vt 0.835151 0.564971
vt 0.913559 0.726181
vt 0.761143 0.632022
vt 0.719510 0.696150
vt 0.705696 0.649734
vt 0.765299 0.697482
vn 0.023992 -0.892404 -0.450599
vn 0.279813 -0.902486 -0.327450
vn 0.096350 -0.980412 -0.171780
vn -0.131318 -0.988697 -0.072350
vn -0.197512 -0.798145 -0.569169
vn -0.599660 -0.780791 -0.175424
vn -0.299417 -0.940687 0.159552
vn 0.018472 -0.836754 0.547267
vn 0.349947 -0.914846 0.201481
vn 0.140576 -0.987213 -0.075153
vn 0.432352 -0.534204 -0.726428
vn 0.487626 -0.814095 -0.315390
vn 0.061522 -0.623891 -0.779086
vn -0.621434 -0.456240 -0.636918
vn -0.889542 -0.401031 0.218837
vn -0.651655 -0.457474 0.605031
vn -0.377053 -0.417196 0.826909
vn 0.091599 -0.540885 0.836094
vn 0.566282 -0.455998 0.686579
vn 0.786281 -0.459914 0.412602
vn 0.876703 -0.475760 0.071018
vn 0.714692 -0.561437 -0.417139
vn -0.433227 -0.343490 -0.833264
vn -0.956654 -0.207405 -0.204442
vn 0.839062 -0.281737 -0.465402
vn 0.170753 -0.178881 -0.968940
vn -0.187077 -0.283570 -0.940527
vn -0.152303 -0.148698 0.977084
vn 0.207936 -0.119077 0.970867
vn 0.903715 -0.231663 -0.360045
vn 0.582470 -0.195464 -0.789001
vn -0.754595 -0.065383 -0.652925
vn -0.760257 -0.095136 0.642619
vn 0.572323 -0.102425 0.813607
vn 0.928201 0.041270 0.369783
vn 0.989132 -0.064947 0.131905
vn 0.873698 -0.044876 -0.484395
vn 0.252527 0.088744 -0.963512
vn -0.155627 0.021518 -0.987581
vn -0.477917 0.018749 -0.878205
vn -0.954190 0.020019 -0.298532
vn -0.981323 0.005093 0.192302
vn -0.384955 -0.032991 0.922345
vn 0.602599 0.117718 -0.789314
vn 0.908303 0.094451 -0.407510
vn -0.049158 0.014042 0.998692
vn 0.208332 0.108536 0.972018
vn 0.481699 0.095688 0.871097
vn 0.949795 0.226485 -0.215854
vn 0.325783 0.310726 -0.892925
vn -0.128271 0.368743 -0.920639
vn -0.386533 0.410122 -0.826070
vn -0.735399 0.227876 -0.638170
vn -0.883244 0.381742 -0.272310
vn -0.446360 0.247411 0.859971
vn 0.791622 0.335259 -0.510818
vn 0.552733 0.483487 -0.678768
vn -0.928539 0.303968 0.213118
vn -0.742348 0.278046 0.609598
vn -0.111049 0.463439 0.879143
vn 0.534465 0.532667 0.656211
vn 0.711148 0.626117 0.319758
vn 0.921057 0.382514 0.073057
vn 0.735364 0.577900 -0.353936
vn 0.032465 0.702279 -0.711161
vn -0.452601 0.722989 -0.521958
vn -0.563934 0.821508 0.084275
vn 0.488181 0.869096 -0.079696
vn -0.301156 0.844228 0.443379
vn 0.212441 0.855076 0.472984
vn 0.072365 0.839667 -0.538259
vn -0.175377 0.815418 -0.551667
vn -0.363745 0.930154 -0.050038
vn 0.231179 0.952919 -0.196216
vn -0.061573 0.978622 0.196232
vn 0.394017 0.886055 0.244247
s 1
g PotatoeWhole Potatoe1
usemtl vegetables:potatoSG
f 2/72/1 7/1/2 1/2/3
f 3/3/4 8/73/5 2/72/1
f 2/72/1 8/73/5 7/1/2
f 8/4/5 3/3/4 9/5/6
f 3/3/4 10/6/7 9/5/6
f 3/3/4 4/7/8 10/6/7
f 3/3/4 5/8/9 4/7/8
f 1/2/3 7/1/2 6/9/10
f 6/9/10 7/1/2 5/8/9
f 7/1/2 12/10/11 11/11/12
f 8/73/5 13/74/13 7/1/2
f 7/1/2 13/74/13 12/10/11
f 8/4/5 9/5/6 14/12/14
f 10/6/7 15/13/15 9/5/6
f 10/6/7 16/14/16 15/13/15
f 4/7/8 17/15/17 10/6/7
f 10/6/7 17/15/17 16/14/16
f 18/16/18 4/7/8 19/17/19
f 4/7/8 5/8/9 19/17/19
f 19/17/19 5/8/9 20/18/20
f 20/18/20 5/8/9 21/19/21
f 5/8/9 7/1/2 21/19/21
f 21/19/21 7/1/2 11/11/12
f 11/11/12 12/10/11 22/20/22
f 8/73/5 23/75/23 13/74/13
f 8/4/5 14/12/14 23/21/23
f 14/12/14 9/5/6 24/22/24
f 9/5/6 15/13/15 24/22/24
f 4/7/8 18/16/18 17/15/17
f 21/19/21 11/11/12 22/20/22
f 22/20/22 12/10/11 25/23/25
f 12/10/11 13/74/13 26/77/26
f 13/74/13 27/76/27 26/77/26
f 13/74/13 23/75/23 27/76/27
f 18/16/18 28/25/28 17/15/17
f 28/25/28 18/16/18 29/26/29
f 18/16/18 19/17/19 29/26/29
f 21/19/21 22/20/22 25/23/25
f 25/23/25 12/10/11 30/27/30
f 30/27/30 12/10/11 31/28/31
f 12/10/11 26/77/26 31/28/31
f 14/12/14 32/29/32 23/21/23
f 14/12/14 24/22/24 32/29/32
f 16/14/16 33/30/33 15/13/15
f 16/14/16 17/15/17 33/30/33
f 29/26/29 19/17/19 34/31/34
f 19/17/19 20/18/20 34/31/34
f 34/31/34 20/18/20 35/32/35
f 21/19/21 36/33/36 20/18/20
f 20/18/20 36/33/36 35/32/35
f 25/23/25 30/27/30 21/19/21
f 21/19/21 30/27/30 36/33/36
f 30/27/30 31/28/31 37/34/37
f 31/28/31 26/77/26 38/35/38
f 27/76/27 39/78/39 26/77/26
f 26/77/26 39/78/39 38/35/38
f 23/21/23 40/37/40 27/24/27
f 27/24/27 40/37/40 39/36/39
f 23/21/23 32/29/32 40/37/40
f 24/22/24 41/38/41 32/29/32
f 15/13/15 42/39/42 24/22/24
f 24/22/24 42/39/42 41/38/41
f 15/13/15 33/30/33 42/39/42
f 17/15/17 43/40/43 33/30/33
f 17/15/17 28/25/28 43/40/43
f 30/27/30 37/34/37 36/33/36
f 31/28/31 45/41/44 37/34/37
f 37/34/37 45/41/44 44/42/45
f 31/28/31 38/35/38 45/41/44
f 43/40/43 28/25/28 46/43/46
f 28/25/28 29/26/29 46/43/46
f 46/43/46 29/26/29 47/44/47
f 34/31/34 48/45/48 29/26/29
f 29/26/29 48/45/48 47/44/47
f 34/31/34 35/32/35 48/45/48
f 37/34/37 44/42/45 36/33/36
f 44/42/45 45/41/44 49/46/49
f 45/41/44 38/35/38 50/47/50
f 38/35/38 39/78/39 50/47/50
f 50/47/50 39/78/39 51/79/51
f 39/36/39 40/37/40 51/48/51
f 51/48/51 40/37/40 52/49/52
f 40/37/40 32/29/32 52/49/52
f 52/49/52 32/29/32 53/50/53
f 32/29/32 41/38/41 53/50/53
f 53/50/53 41/38/41 54/51/54
f 41/38/41 42/39/42 54/51/54
f 33/30/33 43/40/43 55/52/55
f 43/40/43 46/43/46 55/52/55
f 44/42/45 49/46/49 36/33/36
f 49/46/49 45/41/44 56/53/56
f 56/53/56 45/41/44 57/54/57
f 45/41/44 50/47/50 57/54/57
f 54/51/54 42/39/42 58/55/58
f 42/39/42 33/30/33 58/55/58
f 58/55/58 33/30/33 59/56/59
f 33/30/33 55/52/55 59/56/59
f 55/52/55 46/43/46 60/57/60
f 46/43/46 47/44/47 60/57/60
f 48/45/48 61/58/61 47/44/47
f 35/32/35 62/59/62 48/45/48
f 48/45/48 62/59/62 61/58/61
f 36/33/36 63/60/63 35/32/35
f 35/32/35 63/60/63 62/59/62
f 36/33/36 49/46/49 63/60/63
f 63/60/63 49/46/49 56/53/56
f 56/53/56 57/54/57 64/61/64
f 57/54/57 50/47/50 65/81/65
f 50/47/50 51/79/51 65/81/65
f 51/79/51 52/80/52 65/81/65
f 65/81/65 52/80/52 66/82/66
f 52/49/52 53/50/53 66/62/66
f 54/51/54 68/63/67 53/50/53
f 53/50/53 68/63/67 66/62/66
f 54/51/54 58/55/58 68/63/67
f 63/60/63 56/53/56 64/61/64
f 64/61/64 57/54/57 67/64/68
f 58/55/58 59/56/59 68/63/67
f 68/63/67 59/56/59 69/65/69
f 59/56/59 55/52/55 69/65/69
f 55/52/55 60/57/60 69/65/69
f 69/65/69 60/57/60 73/66/70
f 47/44/47 73/66/70 60/57/60
f 47/44/47 61/58/61 73/66/70
f 63/60/63 64/61/64 67/64/68
f 67/64/68 57/54/57 70/83/71
f 57/54/57 65/81/65 70/83/71
f 70/83/71 65/81/65 71/86/72
f 66/82/66 71/86/72 65/81/65
f 66/62/66 72/68/73 71/67/72
f 68/63/67 72/68/73 66/62/66
f 62/59/62 73/66/70 61/58/61
f 63/60/63 67/64/68 62/59/62
f 62/59/62 67/64/68 73/66/70
f 67/64/68 70/83/71 74/69/74
f 74/85/74 70/83/71 75/84/75
f 70/83/71 71/86/72 75/84/75
f 72/68/73 75/70/75 71/67/72
f 68/63/67 75/70/75 72/68/73
f 68/63/67 69/65/69 75/70/75
f 69/65/69 73/66/70 75/70/75
f 67/64/68 76/71/76 73/66/70
f 73/66/70 76/71/76 75/70/75
f 76/71/76 67/64/68 74/69/74
f 2/72/1 1/2/3 3/3/4
f 6/9/10 5/8/9 3/3/4
f 1/2/3 6/9/10 3/3/4
f 76/71/76 74/69/74 75/70/75
