# This file uses centimeters as units for non-parametric coordinates.

mtllib potato_chop_1.mtl
g default
v -0.443934 0.006345 0.037466
v -0.497724 0.006345 0.051806
v -0.443934 0.062013 0.037466
v -0.497724 0.062013 0.051806
v -0.429594 0.062013 0.091254
v -0.483384 0.062013 0.105596
v -0.429594 0.006345 0.091254
v -0.483384 0.006345 0.105596
vt 0.075346 0.845769
vt 0.075726 0.707321
vt 0.213795 0.846148
vt 0.214174 0.707700
vt 0.352243 0.846527
vt 0.352622 0.708079
vt 0.490691 0.846907
vt 0.491071 0.708459
vt 0.629140 0.847286
vt 0.629519 0.708838
vt 0.076105 0.568872
vt 0.214553 0.569252
vt 0.074967 0.984217
vt 0.213415 0.984596
vn -0.257604 0.000000 -0.966251
vn -0.257604 0.000000 -0.966251
vn -0.257604 0.000000 -0.966251
vn -0.257604 0.000000 -0.966251
vn 0.000000 1.000000 -0.000000
vn 0.000000 1.000000 -0.000000
vn 0.000000 1.000000 -0.000000
vn 0.000000 1.000000 -0.000000
vn 0.257614 0.000000 0.966248
vn 0.257614 0.000000 0.966248
vn 0.257614 0.000000 0.966248
vn 0.257614 0.000000 0.966248
vn -0.000000 -1.000000 0.000000
vn -0.000000 -1.000000 0.000000
vn -0.000000 -1.000000 0.000000
vn -0.000000 -1.000000 0.000000
vn -0.966253 0.000000 0.257593
vn -0.966253 0.000000 0.257593
vn -0.966253 0.000000 0.257593
vn -0.966253 0.000000 0.257593
vn 0.966251 0.000000 -0.257602
vn 0.966251 0.000000 -0.257602
vn 0.966251 0.000000 -0.257602
vn 0.966251 0.000000 -0.257602
s off
g pCube28 Potatoe_chop_1 Potatoe1
usemtl initialShadingGroup
f 1/1/1 2/2/2 4/4/3 3/3/4
f 3/3/5 4/4/6 6/6/7 5/5/8
f 5/5/9 6/6/10 8/8/11 7/7/12
f 7/7/13 8/8/14 2/10/15 1/9/16
f 2/2/17 8/11/18 6/12/19 4/4/20
f 7/13/21 1/1/22 3/3/23 5/14/24
g default
v -0.321949 0.006345 0.022258
v -0.373456 0.006345 0.001137
v -0.321949 0.062013 0.022258
v -0.373456 0.062013 0.001137
v -0.343070 0.062013 0.073764
v -0.394575 0.062013 0.052642
v -0.343070 0.006345 0.073764
v -0.394575 0.006345 0.052642
vt 0.075346 0.845769
vt 0.075726 0.707321
vt 0.213795 0.846148
vt 0.214174 0.707700
vt 0.352243 0.846527
vt 0.352622 0.708079
vt 0.490691 0.846907
vt 0.491071 0.708459
vt 0.629140 0.847286
vt 0.629519 0.708838
vt 0.076105 0.568872
vt 0.214553 0.569252
vt 0.074967 0.984217
vt 0.213415 0.984596
vn 0.379400 0.000000 -0.925233
vn 0.379400 0.000000 -0.925233
vn 0.379400 0.000000 -0.925233
vn 0.379400 0.000000 -0.925233
vn 0.000000 1.000000 -0.000000
vn 0.000000 1.000000 -0.000000
vn 0.000000 1.000000 -0.000000
vn 0.000000 1.000000 -0.000000
vn -0.379425 0.000000 0.925222
vn -0.379425 0.000000 0.925222
vn -0.379425 0.000000 0.925222
vn -0.379425 0.000000 0.925222
vn 0.000000 -1.000000 0.000000
vn 0.000000 -1.000000 0.000000
vn 0.000000 -1.000000 0.000000
vn 0.000000 -1.000000 0.000000
vn -0.925235 0.000000 -0.379395
vn -0.925235 0.000000 -0.379395
vn -0.925235 0.000000 -0.379395
vn -0.925235 0.000000 -0.379395
vn 0.925229 0.000000 0.379410
vn 0.925229 0.000000 0.379410
vn 0.925229 0.000000 0.379410
vn 0.925229 0.000000 0.379410
s off
g Potatoe_chop_1 Potatoe1 pCube29
usemtl initialShadingGroup
f 9/15/25 10/16/26 12/18/27 11/17/28
f 11/17/29 12/18/30 14/20/31 13/19/32
f 13/19/33 14/20/34 16/22/35 15/21/36
f 15/21/37 16/22/38 10/24/39 9/23/40
f 10/16/41 16/25/42 14/26/43 12/18/44
f 15/27/45 9/15/46 11/17/47 13/28/48
g default
v -0.376166 0.006345 0.010976
v -0.377306 0.006345 -0.044681
v -0.376166 0.062013 0.010976
v -0.377306 0.062013 -0.044681
v -0.431822 0.062013 0.012115
v -0.432962 0.062013 -0.043540
v -0.431822 0.006345 0.012115
v -0.432962 0.006345 -0.043540
vt 0.075346 0.845769
vt 0.075726 0.707321
vt 0.213795 0.846148
vt 0.214174 0.707700
vt 0.352243 0.846527
vt 0.352622 0.708079
vt 0.490691 0.846907
vt 0.491071 0.708459
vt 0.629140 0.847286
vt 0.629519 0.708838
vt 0.076105 0.568872
vt 0.214553 0.569252
vt 0.074967 0.984217
vt 0.213415 0.984596
vn 0.999790 0.000000 -0.020481
vn 0.999790 0.000000 -0.020481
vn 0.999790 0.000000 -0.020481
vn 0.999790 0.000000 -0.020481
vn 0.000000 1.000000 0.000000
vn 0.000000 1.000000 0.000000
vn 0.000000 1.000000 0.000000
vn 0.000000 1.000000 0.000000
vn -0.999790 0.000000 0.020482
vn -0.999790 0.000000 0.020482
vn -0.999790 0.000000 0.020482
vn -0.999790 0.000000 0.020482
vn 0.000000 -1.000000 0.000000
vn 0.000000 -1.000000 0.000000
vn 0.000000 -1.000000 0.000000
vn 0.000000 -1.000000 0.000000
vn -0.020494 0.000000 -0.999790
vn -0.020494 0.000000 -0.999790
vn -0.020494 0.000000 -0.999790
vn -0.020494 0.000000 -0.999790
vn 0.020466 0.000000 0.999791
vn 0.020466 0.000000 0.999791
vn 0.020466 0.000000 0.999791
vn 0.020466 0.000000 0.999791
s off
g Potatoe_chop_1 Potatoe1 pCube30
usemtl initialShadingGroup
f 17/29/49 18/30/50 20/32/51 19/31/52
f 19/31/53 20/32/54 22/34/55 21/33/56
f 21/33/57 22/34/58 24/36/59 23/35/60
f 23/35/61 24/36/62 18/38/63 17/37/64
f 18/30/65 24/39/66 22/40/67 20/32/68
f 23/41/69 17/29/70 19/31/71 21/42/72
g default
v -0.021072 0.191352 -0.086058
v -0.021071 0.249709 -0.018117
v -0.021072 0.094331 -0.111922
v -0.021072 0.145704 -0.102274
v -0.021072 0.147109 0.094520
v -0.021072 0.094447 0.093463
v -0.023179 0.013212 -0.048575
v -0.021072 0.046241 -0.089898
v -0.021072 0.237516 -0.070318
v -0.021072 0.247417 0.063124
v -0.021072 0.040760 0.085074
v -0.021072 0.009304 0.049226
v -0.021072 -0.003092 0.001558
v -0.015649 0.009602 -0.048965
v 0.022382 0.095146 -0.116387
v 0.020952 0.148821 -0.118803
v 0.019479 0.197421 -0.102952
v 0.017922 0.263532 -0.025753
v -0.021072 0.266551 0.023576
v -0.021072 0.209716 0.090489
v 0.020638 0.010883 -0.047067
v 0.022404 0.045187 -0.091349
v 0.061749 0.153705 0.105207
v 0.101273 0.100890 0.099605
v 0.063595 0.047279 0.084204
v 0.061489 0.017184 -0.043032
v 0.100109 0.102298 -0.098329
v 0.098397 0.151111 -0.101795
v 0.096937 0.195934 -0.089045
v 0.095961 0.232543 -0.062024
v 0.095442 0.254073 -0.022425
v 0.097773 0.203468 0.085973
v 0.098610 0.027854 -0.037829
v 0.127279 0.069563 -0.063632
v 0.095383 0.256009 0.021958
v 0.095763 0.238986 0.059787
v 0.129654 0.152587 0.089695
v 0.127314 0.068428 0.068804
v 0.126075 0.042783 0.039522
v 0.124788 0.033892 0.004188
v 0.126194 0.043392 -0.032106
v 0.126868 0.108034 -0.083404
v 0.123297 0.223255 -0.053307
v 0.147294 0.063540 -0.025524
v 0.143918 0.224212 0.015187
v 0.147022 0.185070 0.062151
v 0.162099 0.123621 -0.045457
v 0.168805 0.157734 -0.021516
v 0.168131 0.172389 -0.005185
v 0.149279 0.114965 0.070004
v 0.169599 0.114365 -0.009316
v 0.169743 0.142368 0.000383
v 0.169125 0.111701 0.000941
vt 0.209461 0.157081
vt 0.314318 0.225083
vt 0.127585 0.139758
vt 0.513429 0.263231
vt 0.570511 0.269037
vt 0.776079 0.306957
vt 0.832883 0.293882
vt 0.206279 0.300718
vt 0.379043 0.339894
vt 0.624470 0.361548
vt 0.674512 0.401386
vt 0.727470 0.359397
vt 0.780518 0.354613
vt 0.906492 0.399123
vt 0.053646 0.319939
vt 0.129985 0.338926
vt 0.262892 0.368108
vt 0.321616 0.376143
vt 0.430895 0.387175
vt 0.842331 0.402929
vt 0.775836 0.399848
vt 0.494958 0.435246
vt 0.554232 0.478378
vt 0.616066 0.440110
vt 0.767127 0.445090
vt 0.868053 0.523699
vt 0.052302 0.443228
vt 0.133105 0.462732
vt 0.211473 0.476790
vt 0.275581 0.463264
vt 0.433427 0.467769
vt 0.755018 0.488926
vt 0.790101 0.544771
vt 0.330949 0.461956
vt 0.381176 0.463188
vt 0.496071 0.506917
vt 0.603668 0.506072
vt 0.653847 0.509491
vt 0.699449 0.514691
vt 0.739399 0.527186
vt 0.241146 0.525461
vt 0.361401 0.539970
vt 0.717889 0.569251
vt 0.449572 0.536265
vt 0.545301 0.548902
vt 0.438384 0.652002
vt 0.441117 0.616861
vt 0.638407 0.624162
vt 0.521232 0.645060
vt 0.616503 0.612946
vt 0.895430 0.145530
vt 0.887451 0.268462
vt 0.988999 0.401371
vt 0.919402 0.565627
vt 0.947075 0.639746
vt 0.835151 0.564971
vt 0.913559 0.726181
vt 0.761143 0.632022
vt 0.719510 0.696150
vt 0.705696 0.649734
vt 0.765299 0.697482
vn -0.404116 -0.793655 -0.454755
vn -0.051082 -0.599747 -0.798558
vn -0.034531 -0.886636 -0.461176
vn -0.148889 -0.195595 -0.969317
vn 0.126925 -0.246960 -0.960677
vn -0.377694 0.230657 -0.896741
vn 0.019176 0.153615 -0.987945
vn -0.404781 0.300551 -0.863609
vn 0.007464 0.498375 -0.866929
vn -0.000573 0.756072 -0.654488
vn -0.368916 0.886579 -0.279068
vn 0.014746 0.954521 -0.297777
vn 0.056882 0.971768 0.228980
vn 0.224740 -0.964058 0.141719
vn 0.176904 -0.598471 -0.781369
vn 0.129208 -0.906085 -0.402884
vn 0.012781 0.405942 0.913809
vn -0.129778 0.023367 0.991268
vn 0.025465 0.088105 0.995786
vn -0.042562 -0.149559 0.987836
vn 0.162374 -0.208184 0.964517
vn 0.045517 -0.473709 0.879504
vn 0.150798 -0.625550 0.765471
vn 0.203070 -0.908371 0.365547
vn 0.256102 -0.941826 -0.217659
vn 0.320581 -0.316091 -0.892925
vn 0.364631 0.139530 -0.920639
vn 0.398756 0.398339 -0.826026
vn 0.205986 0.742328 -0.637589
vn 0.325100 0.913883 -0.243161
vn 0.075871 0.766804 0.637381
vn 0.202348 0.446285 0.871714
vn 0.359403 -0.780957 -0.510818
vn 0.500228 -0.537630 -0.678768
vn 0.235740 0.954877 0.180656
vn 0.258104 0.749999 0.609002
vn 0.459811 0.125224 0.879143
vn 0.548823 -0.517861 0.656211
vn 0.571980 -0.759419 0.310034
vn 0.376195 -0.917516 0.129006
vn 0.600202 -0.717277 -0.353936
vn 0.702945 -0.010890 -0.711161
vn 0.708754 0.474582 -0.521958
vn 0.803809 0.588888 0.084275
vn 0.883673 -0.461271 -0.079696
vn 0.834585 0.326930 0.443379
vn 0.861195 -0.186091 0.472984
vn 0.841493 -0.046554 -0.538259
vn 0.809650 0.200327 -0.551667
vn 0.918549 0.392128 -0.050038
vn 0.959567 -0.201817 -0.196216
vn 0.976271 0.091586 0.196232
vn 0.897733 -0.366631 0.244247
vn -1.000000 -0.000000 0.000000
vn -1.000000 0.000000 0.000000
vn -1.000000 0.000000 -0.000000
vn -1.000000 -0.000000 -0.000000
vn -1.000000 0.000000 -0.000000
vn -1.000000 -0.000000 0.000000
vn -0.999996 0.001549 0.002452
vn -0.999722 -0.011976 0.020326
vn -1.000000 -0.000000 -0.000000
vn -0.999944 0.010261 -0.002698
vn -1.000000 0.000000 0.000000
vn -0.997259 -0.071614 0.018624
vn -0.999469 0.032304 -0.004336
vn -1.000000 0.000000 -0.000000
vn -1.000000 0.000000 -0.000000
s 1
g Potatoe_chop_1 Potatoe1 PotatoeWhole1
usemtl vegetables:potatoSG
f 31/48/73 32/49/74 38/55/75
f 32/49/74 27/94/76 39/56/77
f 28/93/78 40/95/79 27/94/76
f 27/94/76 40/95/79 39/56/77
f 25/43/80 41/58/81 28/45/78
f 28/45/78 41/58/81 40/57/79
f 25/43/80 33/50/82 41/58/81
f 26/44/83 42/59/84 33/50/82
f 26/44/83 43/60/85 42/59/84
f 31/48/73 38/55/75 37/54/86
f 32/49/74 46/62/87 38/55/75
f 38/55/75 46/62/87 45/63/88
f 32/49/74 39/56/77 46/62/87
f 44/61/89 29/46/90 47/64/91
f 29/46/90 30/47/92 47/64/91
f 47/64/91 30/47/92 48/65/93
f 35/52/94 49/66/95 30/47/92
f 30/47/92 49/66/95 48/65/93
f 35/52/94 36/53/96 49/66/95
f 38/55/75 45/63/88 37/54/86
f 45/63/88 46/62/87 50/67/97
f 46/62/87 39/56/77 51/68/98
f 39/56/77 40/95/79 51/68/98
f 51/68/98 40/95/79 52/96/99
f 40/57/79 41/58/81 52/69/99
f 52/69/99 41/58/81 53/70/100
f 41/58/81 33/50/82 53/70/100
f 53/70/100 33/50/82 54/71/101
f 33/50/82 42/59/84 54/71/101
f 54/71/101 42/59/84 55/72/102
f 42/59/84 43/60/85 55/72/102
f 34/51/103 44/61/89 56/73/104
f 44/61/89 47/64/91 56/73/104
f 45/63/88 50/67/97 37/54/86
f 50/67/97 46/62/87 57/74/105
f 57/74/105 46/62/87 58/75/106
f 46/62/87 51/68/98 58/75/106
f 55/72/102 43/60/85 59/76/107
f 43/60/85 34/51/103 59/76/107
f 59/76/107 34/51/103 60/77/108
f 34/51/103 56/73/104 60/77/108
f 56/73/104 47/64/91 61/78/109
f 47/64/91 48/65/93 61/78/109
f 49/66/95 62/79/110 48/65/93
f 36/53/96 63/80/111 49/66/95
f 49/66/95 63/80/111 62/79/110
f 37/54/86 64/81/112 36/53/96
f 36/53/96 64/81/112 63/80/111
f 37/54/86 50/67/97 64/81/112
f 64/81/112 50/67/97 57/74/105
f 57/74/105 58/75/106 65/82/113
f 58/75/106 51/68/98 66/98/114
f 51/68/98 52/96/99 66/98/114
f 52/96/99 53/97/100 66/98/114
f 66/98/114 53/97/100 67/99/115
f 53/70/100 54/71/101 67/83/115
f 55/72/102 69/84/116 54/71/101
f 54/71/101 69/84/116 67/83/115
f 55/72/102 59/76/107 69/84/116
f 64/81/112 57/74/105 65/82/113
f 65/82/113 58/75/106 68/85/117
f 59/76/107 60/77/108 69/84/116
f 69/84/116 60/77/108 70/86/118
f 60/77/108 56/73/104 70/86/118
f 56/73/104 61/78/109 70/86/118
f 70/86/118 61/78/109 74/87/119
f 48/65/93 74/87/119 61/78/109
f 48/65/93 62/79/110 74/87/119
f 64/81/112 65/82/113 68/85/117
f 68/85/117 58/75/106 71/100/120
f 58/75/106 66/98/114 71/100/120
f 71/100/120 66/98/114 72/103/121
f 67/99/115 72/103/121 66/98/114
f 67/83/115 73/89/122 72/88/121
f 69/84/116 73/89/122 67/83/115
f 63/80/111 74/87/119 62/79/110
f 64/81/112 68/85/117 63/80/111
f 63/80/111 68/85/117 74/87/119
f 68/85/117 71/100/120 75/90/123
f 75/102/123 71/100/120 76/101/124
f 71/100/120 72/103/121 76/101/124
f 73/89/122 76/91/124 72/88/121
f 69/84/116 76/91/124 73/89/122
f 69/84/116 70/86/118 76/91/124
f 70/86/118 74/87/119 76/91/124
f 68/85/117 77/92/125 74/87/119
f 74/87/119 77/92/125 76/91/124
f 77/92/125 68/85/117 75/90/123
f 77/92/125 75/90/123 76/91/124
s 8
f 33/50/126 25/43/127 26/44/128
f 43/60/129 26/44/128 34/51/130
f 35/52/131 30/47/132 36/53/133
f 27/94/134 32/49/135 28/93/136
f 37/54/137 36/53/133 31/48/138
f 36/53/133 30/47/132 31/48/138
f 31/48/138 30/47/132 32/49/135
f 32/49/135 30/47/132 28/93/136
f 30/47/132 29/46/139 28/93/136
f 28/93/136 29/46/139 25/43/127
f 25/43/127 29/46/139 26/44/128
f 29/46/139 44/61/140 26/44/128
f 44/61/140 34/51/130 26/44/128
g default
v -0.393906 0.006345 -0.107671
v -0.439229 0.006345 -0.139991
v -0.393906 0.062013 -0.107671
v -0.439229 0.062013 -0.139991
v -0.426229 0.062013 -0.062347
v -0.471551 0.062013 -0.094669
v -0.426229 0.006345 -0.062347
v -0.471551 0.006345 -0.094669
vt 0.075346 0.845769
vt 0.075726 0.707321
vt 0.213795 0.846148
vt 0.214174 0.707700
vt 0.352243 0.846527
vt 0.352622 0.708079
vt 0.490691 0.846907
vt 0.491071 0.708459
vt 0.629140 0.847286
vt 0.629519 0.708838
vt 0.076105 0.568872
vt 0.214553 0.569252
vt 0.074967 0.984217
vt 0.213415 0.984596
vn 0.580612 0.000000 -0.814180
vn 0.580612 0.000000 -0.814180
vn 0.580612 0.000000 -0.814180
vn 0.580612 0.000000 -0.814180
vn 0.000000 1.000000 -0.000000
vn 0.000000 1.000000 -0.000000
vn 0.000000 1.000000 -0.000000
vn 0.000000 1.000000 -0.000000
vn -0.580624 0.000000 0.814172
vn -0.580624 0.000000 0.814172
vn -0.580624 0.000000 0.814172
vn -0.580624 0.000000 0.814172
vn 0.000000 -1.000000 0.000000
vn 0.000000 -1.000000 0.000000
vn 0.000000 -1.000000 0.000000
vn 0.000000 -1.000000 0.000000
vn -0.814169 0.000000 -0.580627
vn -0.814169 0.000000 -0.580627
vn -0.814169 0.000000 -0.580627
vn -0.814169 0.000000 -0.580627
vn 0.814166 0.000000 0.580632
vn 0.814166 0.000000 0.580632
vn 0.814166 0.000000 0.580632
vn 0.814166 0.000000 0.580632
s off
g Potatoe_chop_1 Potatoe1 pCube33
usemtl initialShadingGroup
f 78/104/141 79/105/142 81/107/143 80/106/144
f 80/106/145 81/107/146 83/109/147 82/108/148
f 82/108/149 83/109/150 85/111/151 84/110/152
f 84/110/153 85/111/154 79/113/155 78/112/156
f 79/105/157 85/114/158 83/115/159 81/107/160
f 84/116/161 78/104/162 80/106/163 82/117/164
g default
v -0.457606 0.006345 -0.121880
v -0.446009 0.006345 -0.176326
v -0.457606 0.062013 -0.121880
v -0.446009 0.062013 -0.176326
v -0.512052 0.062013 -0.133477
v -0.500455 0.062013 -0.187922
v -0.512052 0.006345 -0.133477
v -0.500455 0.006345 -0.187922
vt 0.075346 0.845769
vt 0.075726 0.707321
vt 0.213795 0.846148
vt 0.214174 0.707700
vt 0.352243 0.846527
vt 0.352622 0.708079
vt 0.490691 0.846907
vt 0.491071 0.708459
vt 0.629140 0.847286
vt 0.629519 0.708838
vt 0.076105 0.568872
vt 0.214553 0.569252
vt 0.074967 0.984217
vt 0.213415 0.984596
vn 0.978061 0.000000 0.208320
vn 0.978061 0.000000 0.208320
vn 0.978061 0.000000 0.208320
vn 0.978061 0.000000 0.208320
vn 0.000000 1.000000 0.000000
vn 0.000000 1.000000 0.000000
vn 0.000000 1.000000 0.000000
vn 0.000000 1.000000 0.000000
vn -0.978060 0.000000 -0.208325
vn -0.978060 0.000000 -0.208325
vn -0.978060 0.000000 -0.208325
vn -0.978060 0.000000 -0.208325
vn 0.000000 -1.000000 0.000000
vn 0.000000 -1.000000 0.000000
vn 0.000000 -1.000000 0.000000
vn 0.000000 -1.000000 0.000000
vn 0.208315 0.000000 -0.978062
vn 0.208315 0.000000 -0.978062
vn 0.208315 0.000000 -0.978062
vn 0.208315 0.000000 -0.978062
vn -0.208333 0.000000 0.978058
vn -0.208333 0.000000 0.978058
vn -0.208333 0.000000 0.978058
vn -0.208333 0.000000 0.978058
s off
g Potatoe_chop_1 Potatoe1 pCube34
usemtl initialShadingGroup
f 86/118/165 87/119/166 89/121/167 88/120/168
f 88/120/169 89/121/170 91/123/171 90/122/172
f 90/122/173 91/123/174 93/125/175 92/124/176
f 92/124/177 93/125/178 87/127/179 86/126/180
f 87/119/181 93/128/182 91/129/183 89/121/184
f 92/130/185 86/118/186 88/120/187 90/131/188
g default
v -0.376550 0.006345 -0.149728
v -0.334379 0.006345 -0.186066
v -0.376550 0.062013 -0.149728
v -0.334379 0.062013 -0.186066
v -0.412888 0.062013 -0.191898
v -0.370717 0.062013 -0.228236
v -0.412888 0.006345 -0.191898
v -0.370717 0.006345 -0.228236
vt 0.075346 0.845769
vt 0.075726 0.707321
vt 0.213795 0.846148
vt 0.214174 0.707700
vt 0.352243 0.846528
vt 0.352622 0.708079
vt 0.490691 0.846907
vt 0.491071 0.708459
vt 0.629140 0.847286
vt 0.629519 0.708838
vt 0.076105 0.568872
vt 0.214553 0.569252
vt 0.074967 0.984217
vt 0.213415 0.984596
vn 0.652773 0.000000 0.757554
vn 0.652773 0.000000 0.757554
vn 0.652773 0.000000 0.757554
vn 0.652773 0.000000 0.757554
vn 0.000000 1.000000 0.000000
vn 0.000000 1.000000 0.000000
vn 0.000000 1.000000 0.000000
vn 0.000000 1.000000 0.000000
vn -0.652775 0.000000 -0.757552
vn -0.652775 0.000000 -0.757552
vn -0.652775 0.000000 -0.757552
vn -0.652775 0.000000 -0.757552
vn 0.000000 -1.000000 -0.000000
vn 0.000000 -1.000000 -0.000000
vn 0.000000 -1.000000 -0.000000
vn 0.000000 -1.000000 -0.000000
vn 0.757548 0.000000 -0.652779
vn 0.757548 0.000000 -0.652779
vn 0.757548 0.000000 -0.652779
vn 0.757548 0.000000 -0.652779
vn -0.757547 0.000000 0.652781
vn -0.757547 0.000000 0.652781
vn -0.757547 0.000000 0.652781
vn -0.757547 0.000000 0.652781
s off
g Potatoe_chop_1 Potatoe1 pCube35
usemtl initialShadingGroup
f 94/132/189 95/133/190 97/135/191 96/134/192
f 96/134/193 97/135/194 99/137/195 98/136/196
f 98/136/197 99/137/198 101/139/199 100/138/200
f 100/138/201 101/139/202 95/141/203 94/140/204
f 95/133/205 101/142/206 99/143/207 97/135/208
f 100/144/209 94/132/210 96/134/211 98/145/212
g default
v -0.464082 0.006345 0.001725
v -0.452486 0.006345 -0.052723
v -0.464082 0.062013 0.001725
v -0.452486 0.062013 -0.052723
v -0.518528 0.062013 -0.009873
v -0.506932 0.062013 -0.064319
v -0.518528 0.006345 -0.009873
v -0.506932 0.006345 -0.064319
vt 0.075346 0.845769
vt 0.075726 0.707321
vt 0.213795 0.846148
vt 0.214174 0.707700
vt 0.352243 0.846527
vt 0.352622 0.708079
vt 0.490691 0.846907
vt 0.491071 0.708459
vt 0.629140 0.847286
vt 0.629519 0.708838
vt 0.076105 0.568872
vt 0.214553 0.569252
vt 0.074967 0.984217
vt 0.213415 0.984596
vn 0.978064 0.000000 0.208303
vn 0.978064 0.000000 0.208303
vn 0.978064 0.000000 0.208303
vn 0.978064 0.000000 0.208303
vn 0.000000 1.000000 0.000000
vn 0.000000 1.000000 0.000000
vn 0.000000 1.000000 0.000000
vn 0.000000 1.000000 0.000000
vn -0.978062 0.000000 -0.208313
vn -0.978062 0.000000 -0.208313
vn -0.978062 0.000000 -0.208313
vn -0.978062 0.000000 -0.208313
vn 0.000000 -1.000000 0.000000
vn 0.000000 -1.000000 0.000000
vn 0.000000 -1.000000 0.000000
vn 0.000000 -1.000000 0.000000
vn 0.208316 0.000000 -0.978062
vn 0.208316 0.000000 -0.978062
vn 0.208316 0.000000 -0.978062
vn 0.208316 0.000000 -0.978062
vn -0.208348 0.000000 0.978055
vn -0.208348 0.000000 0.978055
vn -0.208348 0.000000 0.978055
vn -0.208348 0.000000 0.978055
s off
g Potatoe_chop_1 Potatoe1 pCube31
usemtl initialShadingGroup
f 102/146/213 103/147/214 105/149/215 104/148/216
f 104/148/217 105/149/218 107/151/219 106/150/220
f 106/150/221 107/151/222 109/153/223 108/152/224
f 108/152/225 109/153/226 103/155/227 102/154/228
f 103/147/229 109/156/230 107/157/231 105/149/232
f 108/158/233 102/146/234 104/148/235 106/159/236
g default
v -0.315471 0.006345 -0.101346
v -0.366978 0.006345 -0.122467
v -0.315471 0.062013 -0.101346
v -0.366978 0.062013 -0.122467
v -0.336593 0.062013 -0.049841
v -0.388098 0.062013 -0.070961
v -0.336593 0.006345 -0.049841
v -0.388098 0.006345 -0.070961
vt 0.075346 0.845769
vt 0.075726 0.707321
vt 0.213795 0.846148
vt 0.214174 0.707700
vt 0.352243 0.846527
vt 0.352622 0.708079
vt 0.490691 0.846907
vt 0.491071 0.708459
vt 0.629140 0.847286
vt 0.629519 0.708838
vt 0.076105 0.568872
vt 0.214553 0.569252
vt 0.074967 0.984217
vt 0.213415 0.984596
vn 0.379399 0.000000 -0.925233
vn 0.379399 0.000000 -0.925233
vn 0.379399 0.000000 -0.925233
vn 0.379399 0.000000 -0.925233
vn 0.000000 1.000000 -0.000000
vn 0.000000 1.000000 -0.000000
vn 0.000000 1.000000 -0.000000
vn 0.000000 1.000000 -0.000000
vn -0.379397 0.000000 0.925234
vn -0.379397 0.000000 0.925234
vn -0.379397 0.000000 0.925234
vn -0.379397 0.000000 0.925234
vn 0.000000 -1.000000 -0.000000
vn 0.000000 -1.000000 -0.000000
vn 0.000000 -1.000000 -0.000000
vn 0.000000 -1.000000 -0.000000
vn -0.925233 0.000000 -0.379398
vn -0.925233 0.000000 -0.379398
vn -0.925233 0.000000 -0.379398
vn -0.925233 0.000000 -0.379398
vn 0.925221 0.000000 0.379428
vn 0.925221 0.000000 0.379428
vn 0.925221 0.000000 0.379428
vn 0.925221 0.000000 0.379428
s off
g Potatoe_chop_1 Potatoe1 pCube32
usemtl initialShadingGroup
f 110/160/237 111/161/238 113/163/239 112/162/240
f 112/162/241 113/163/242 115/165/243 114/164/244
f 114/164/245 115/165/246 117/167/247 116/166/248
f 116/166/249 117/167/250 111/169/251 110/168/252
f 111/161/253 117/170/254 115/171/255 113/163/256
f 116/172/257 110/160/258 112/162/259 114/173/260
