# This file uses centimeters as units for non-parametric coordinates.

mtllib speechBubble.mtl
g default
v -0.592893 0.450644 0.035535
v -0.648172 0.427747 0.035535
v -0.695642 0.391322 0.035535
v -0.732067 0.343852 0.035535
v -0.754964 0.288572 0.035535
v -0.762774 0.229250 0.035535
v -0.533570 0.458454 0.035535
v -0.762774 0.229250 -0.035535
v -0.754964 0.288572 -0.035535
v -0.732067 0.343852 -0.035535
v -0.695642 0.391322 -0.035535
v -0.648172 0.427747 -0.035535
v -0.592893 0.450644 -0.035535
v -0.533570 0.458454 -0.035535
v 0.754964 0.288572 0.035535
v 0.732067 0.343852 0.035535
v 0.695642 0.391322 0.035535
v 0.648172 0.427747 0.035535
v 0.592893 0.450644 0.035535
v 0.533570 0.458454 0.035535
v 0.762774 0.229250 0.035535
v 0.762774 0.229250 -0.035535
v 0.533570 0.458454 -0.035535
v 0.592893 0.450644 -0.035535
v 0.648172 0.427747 -0.035535
v 0.695642 0.391322 -0.035535
v 0.732067 0.343852 -0.035535
v 0.754964 0.288572 -0.035535
v -0.754964 -0.288572 0.035535
v -0.732067 -0.343852 0.035535
v -0.695642 -0.391322 0.035535
v -0.648172 -0.427747 0.035535
v -0.617222 -0.450644 0.035535
v -0.587715 -0.458454 0.035535
v -0.762774 -0.229250 0.035535
v -0.617222 -0.450644 -0.035535
v -0.648172 -0.427747 -0.035535
v -0.695642 -0.391322 -0.035535
v -0.732067 -0.343852 -0.035535
v -0.754964 -0.288572 -0.035535
v -0.762774 -0.229250 -0.035535
v -0.587715 -0.458454 -0.035535
v 0.592893 -0.450644 0.035535
v 0.648172 -0.427747 0.035535
v 0.695642 -0.391322 0.035535
v 0.732067 -0.343852 0.035535
v 0.754964 -0.288572 0.035535
v 0.762774 -0.229250 0.035535
v 0.533570 -0.458454 0.035535
v 0.754964 -0.288572 -0.035535
v 0.732067 -0.343852 -0.035535
v 0.695642 -0.391322 -0.035535
v 0.648172 -0.427747 -0.035535
v 0.592893 -0.450644 -0.035535
v 0.533570 -0.458454 -0.035535
v 0.762774 -0.229250 -0.035535
v -0.200632 -0.458454 0.035535
v -0.200632 -0.458454 -0.035535
v -0.710122 -0.694605 0.030586
v -0.710122 -0.694605 -0.030586
vt 0.867952 0.113616
vt 0.888973 0.122298
vt 0.907030 0.136114
vt 0.920891 0.154123
vt 0.929614 0.175096
vt 0.932603 0.197606
vt 0.932756 0.371588
vt 0.929807 0.394099
vt 0.921121 0.415078
vt 0.907291 0.433096
vt 0.889259 0.446923
vt 0.868253 0.455618
vt 0.845705 0.458589
vt 0.440055 0.458717
vt 0.417502 0.455761
vt 0.396481 0.447079
vt 0.378424 0.433263
vt 0.364562 0.415255
vt 0.355839 0.394281
vt 0.352851 0.371772
vt 0.352698 0.197790
vt 0.355647 0.175278
vt 0.364332 0.154299
vt 0.378163 0.136282
vt 0.396195 0.122455
vt 0.407953 0.113762
vt 0.419166 0.110795
vt 0.566308 0.110748
vt 0.845399 0.110660
vt 0.372554 0.017982
vt 0.932673 0.808247
vt 0.923948 0.829220
vt 0.910083 0.847228
vt 0.892025 0.861043
vt 0.871002 0.869724
vt 0.848449 0.872679
vt 0.569358 0.872576
vt 0.422216 0.872522
vt 0.411003 0.869554
vt 0.399247 0.860861
vt 0.381217 0.847033
vt 0.367389 0.829015
vt 0.358706 0.808035
vt 0.355761 0.785524
vt 0.355939 0.611542
vt 0.358930 0.589033
vt 0.367656 0.568059
vt 0.381520 0.550052
vt 0.399579 0.536237
vt 0.420601 0.527556
vt 0.443155 0.524601
vt 0.848805 0.524750
vt 0.871352 0.527722
vt 0.892357 0.536418
vt 0.910387 0.550246
vt 0.924215 0.568264
vt 0.932897 0.589244
vt 0.935843 0.611755
vt 0.935665 0.785737
vt 0.375591 0.965332
vt 0.094716 0.650767
vt 0.122395 0.650767
vt 0.122395 0.857528
vt 0.094716 0.857528
vt 0.094716 0.624016
vt 0.122395 0.624016
vt 0.094716 0.884279
vt 0.122395 0.884279
vt 0.094716 0.599087
vt 0.122395 0.599087
vt 0.094716 0.909208
vt 0.122395 0.909208
vt 0.094716 0.577681
vt 0.122395 0.577681
vt 0.094716 0.930614
vt 0.122395 0.930614
vt 0.094716 0.561255
vt 0.122395 0.561255
vt 0.094716 0.947040
vt 0.122395 0.947040
vt 0.094716 0.550929
vt 0.122395 0.550929
vt 0.094716 0.957366
vt 0.122395 0.957366
vt 0.125276 0.650767
vt 0.152955 0.650767
vt 0.152955 0.857528
vt 0.125276 0.857528
vt 0.152955 0.624016
vt 0.125276 0.624016
vt 0.152955 0.884279
vt 0.125276 0.884279
vt 0.152955 0.599087
vt 0.125276 0.599087
vt 0.152955 0.909208
vt 0.125276 0.909208
vt 0.152955 0.577681
vt 0.125276 0.577681
vt 0.152955 0.930614
vt 0.125276 0.930614
vt 0.152955 0.561255
vt 0.125276 0.561255
vt 0.152955 0.947040
vt 0.125276 0.947040
vt 0.152955 0.550929
vt 0.125276 0.550929
vt 0.152955 0.957366
vt 0.125276 0.957366
vt 0.244387 0.657422
vt 0.216708 0.657422
vt 0.218636 0.550929
vt 0.242460 0.550929
vt 0.213910 0.856243
vt 0.186231 0.856243
vt 0.186231 0.567008
vt 0.213910 0.567008
vt 0.186231 0.872321
vt 0.213910 0.872321
vt 0.186231 0.550929
vt 0.213910 0.550929
vt 0.183433 0.766004
vt 0.155753 0.766004
vt 0.155753 0.567008
vt 0.183433 0.567008
vt 0.181505 0.904095
vt 0.157681 0.904095
vt 0.183433 0.550929
vt 0.155753 0.550929
vt 0.256242 0.575373
vt 0.247186 0.575373
vt 0.247186 0.550929
vt 0.256242 0.550929
vn -0.006933 0.999976 0.000000
vn -0.006933 0.999976 0.000000
vn 0.006933 0.999976 0.000000
vn 0.006933 0.999976 0.000000
vn 0.000000 -1.000000 0.000000
vn 0.000000 -1.000000 0.000000
vn 0.009842 -0.999952 0.000000
vn 0.009842 -0.999952 0.000000
vn 0.999886 -0.015081 0.000000
vn 0.999886 -0.015081 0.000000
vn 0.999886 0.015081 0.000000
vn 0.999886 0.015081 0.000000
vn -0.999886 -0.015081 0.000000
vn -0.999886 -0.015081 0.000000
vn -0.999886 0.015081 0.000000
vn -0.999886 0.015081 0.000000
vn -0.965926 0.258820 0.000000
vn -0.965926 0.258820 0.000000
vn -0.866026 0.500000 0.000000
vn -0.866026 0.500000 0.000000
vn -0.707107 0.707106 0.000000
vn -0.707107 0.707106 0.000000
vn -0.500000 0.866025 0.000000
vn -0.500000 0.866025 0.000000
vn -0.258819 0.965926 0.000000
vn -0.258819 0.965926 0.000000
vn 0.258819 0.965926 -0.000000
vn 0.258819 0.965926 -0.000000
vn 0.500000 0.866025 -0.000000
vn 0.500000 0.866025 -0.000000
vn 0.707107 0.707106 -0.000000
vn 0.707107 0.707106 -0.000000
vn 0.866026 0.500000 0.000000
vn 0.866026 0.500000 0.000000
vn 0.965926 0.258820 0.000000
vn 0.965926 0.258820 0.000000
vn -0.255873 -0.966710 0.000000
vn -0.452857 -0.891583 -0.000000
vn -0.452857 -0.891583 -0.000000
vn -0.255873 -0.966710 0.000000
vn -0.603296 -0.797517 -0.000000
vn -0.603296 -0.797517 -0.000000
vn -0.707107 -0.707106 -0.000000
vn -0.707107 -0.707106 -0.000000
vn -0.866026 -0.500000 0.000000
vn -0.866026 -0.500000 0.000000
vn -0.965926 -0.258820 0.000000
vn -0.965926 -0.258820 0.000000
vn 0.965926 -0.258820 0.000000
vn 0.965926 -0.258820 0.000000
vn 0.866026 -0.500000 0.000000
vn 0.866026 -0.500000 0.000000
vn 0.707107 -0.707106 0.000000
vn 0.707107 -0.707106 0.000000
vn 0.500000 -0.866025 0.000000
vn 0.500000 -0.866025 0.000000
vn 0.258819 -0.965926 0.000000
vn 0.258819 -0.965926 0.000000
vn 0.000000 0.000000 1.000000
vn 0.000000 0.000000 1.000000
vn 0.000000 0.000000 1.000000
vn 0.000000 0.000000 1.000000
vn 0.000000 0.000000 1.000000
vn 0.000000 0.000000 1.000000
vn 0.000000 0.000000 1.000000
vn 0.000000 0.000000 1.000000
vn 0.000000 0.000000 1.000000
vn 0.000000 0.000000 1.000000
vn 0.000000 0.000000 1.000000
vn 0.000000 0.000000 1.000000
vn 0.000000 0.000000 1.000000
vn 0.000000 0.000000 1.000000
vn 0.000000 0.000000 1.000000
vn 0.000000 0.000000 1.000000
vn 0.000000 0.000000 1.000000
vn 0.000000 0.000000 1.000000
vn 0.000000 0.000000 1.000000
vn 0.000000 0.000000 1.000000
vn 0.000000 0.000000 1.000000
vn 0.000000 0.000000 1.000000
vn 0.000000 0.000000 1.000000
vn 0.000000 0.000000 1.000000
vn 0.000000 0.000000 1.000000
vn 0.000000 0.000000 1.000000
vn 0.000000 -0.000473 1.000000
vn 0.000000 -0.000151 1.000000
vn 0.000000 0.000000 1.000000
vn -0.000000 0.000000 -1.000000
vn -0.000000 0.000000 -1.000000
vn -0.000000 0.000000 -1.000000
vn -0.000000 0.000000 -1.000000
vn -0.000000 0.000000 -1.000000
vn -0.000000 0.000000 -1.000000
vn -0.000000 -0.000151 -1.000000
vn -0.000000 -0.000473 -1.000000
vn -0.000000 0.000000 -1.000000
vn -0.000000 0.000000 -1.000000
vn -0.000000 0.000000 -1.000000
vn -0.000000 0.000000 -1.000000
vn -0.000000 0.000000 -1.000000
vn -0.000000 0.000000 -1.000000
vn -0.000000 0.000000 -1.000000
vn -0.000000 0.000000 -1.000000
vn -0.000000 0.000000 -1.000000
vn -0.000000 0.000000 -1.000000
vn -0.000000 0.000000 -1.000000
vn -0.000000 0.000000 -1.000000
vn -0.000000 0.000000 -1.000000
vn -0.000000 0.000000 -1.000000
vn -0.000000 0.000000 -1.000000
vn -0.000000 0.000000 -1.000000
vn -0.000000 0.000000 -1.000000
vn -0.000000 0.000000 -1.000000
vn -0.000000 0.000000 -1.000000
vn -0.000000 0.000000 -1.000000
vn -0.000000 0.000000 -1.000000
vn -0.887819 0.460193 0.000000
vn -0.887819 0.460193 0.000000
vn -0.887819 0.460193 0.000000
vn -0.887819 0.460193 0.000000
vn 0.000000 -0.020954 -0.999780
vn 0.420528 -0.907280 0.000000
vn 0.420528 -0.907280 0.000000
vn 0.420528 -0.907280 0.000000
vn 0.420528 -0.907280 0.000000
vn 0.000000 -0.020954 0.999780
s 1
g pCube1
usemtl initialShadingGroup
f 14/113/1 7/114/2 20/115/3 23/116/4
f 57/121/5 58/122/6 55/123/7 49/124/8
f 48/61/9 56/62/10 22/63/11 21/64/12
f 41/85/13 35/86/14 6/87/15 8/88/16
f 6/87/15 5/91/17 9/92/18 8/88/16
f 5/91/17 4/95/19 10/96/20 9/92/18
f 4/95/19 3/99/21 11/100/22 10/96/20
f 3/99/21 2/103/23 12/104/24 11/100/22
f 2/103/23 1/107/25 13/108/26 12/104/24
f 1/117/25 7/114/2 14/113/1 13/118/26
f 20/115/3 19/119/27 24/120/28 23/116/4
f 19/83/27 18/79/29 25/80/30 24/84/28
f 18/79/29 17/75/31 26/76/32 25/80/30
f 17/75/31 16/71/33 27/72/34 26/76/32
f 16/71/33 15/67/35 28/68/36 27/72/34
f 15/67/35 21/64/12 22/63/11 28/68/36
f 34/129/37 33/130/38 36/131/39 42/132/40
f 33/105/38 32/101/41 37/102/42 36/106/39
f 32/101/41 31/97/43 38/98/44 37/102/42
f 31/97/43 30/93/45 39/94/46 38/98/44
f 30/93/45 29/89/47 40/90/48 39/94/46
f 29/89/47 35/86/14 41/85/13 40/90/48
f 48/61/9 47/65/49 50/66/50 56/62/10
f 47/65/49 46/69/51 51/70/52 50/66/50
f 46/69/51 45/73/53 52/74/54 51/70/52
f 45/73/53 44/77/55 53/78/56 52/74/54
f 44/77/55 43/81/57 54/82/58 53/78/56
f 43/127/57 49/124/8 55/123/7 54/128/58
s 6
f 43/1/59 44/2/60 45/3/61 46/4/62 47/5/63 48/6/64 21/7/65 15/8/66 16/9/67 17/10/68 18/11/69 19/12/70 20/13/71 7/14/72 1/15/73 2/16/74 3/17/75 4/18/76 5/19/77 6/20/78 35/21/79 29/22/80 30/23/81 31/24/82 32/25/83 33/26/84 34/27/85 57/28/86 49/29/87
s 7
f 50/31/88 51/32/89 52/33/90 53/34/91 54/35/92 55/36/93 58/37/94 42/38/95 36/39/96 37/40/97 38/41/98 39/42/99 40/43/100 41/44/101 8/45/102 9/46/103 10/47/104 11/48/105 12/49/106 13/50/107 14/51/108 23/52/109 24/53/110 25/54/111 26/55/112 27/56/113 28/57/114 22/58/115 56/59/116
s off
f 34/109/117 42/110/118 60/111/119 59/112/120
s 7
f 42/38/95 58/37/94 60/60/121
s off
f 58/122/122 57/121/123 59/125/124 60/126/125
s 6
f 57/28/86 34/27/85 59/30/126
