# This file uses centimeters as units for non-parametric coordinates.

mtllib timer.mtl
g default
v -0.252706 0.000813 0.011217
v 0.252706 0.000813 0.011217
v -0.252706 0.000813 -0.022454
v 0.252706 0.000813 -0.022454
v -0.252706 0.378642 -0.023535
v 0.252706 0.378642 -0.023535
v 0.252706 0.378642 -0.057206
v -0.252706 0.378642 -0.057206
v -0.252706 0.758817 0.011217
v 0.252706 0.758817 0.011217
v -0.252706 0.758817 -0.022454
v 0.252706 0.758817 -0.022454
v -0.252706 0.380989 -0.023535
v 0.252706 0.380989 -0.023535
v 0.252706 0.380989 -0.057206
v -0.252706 0.380989 -0.057206
vt 0.961823 0.498948
vt 0.961823 0.000000
vt 0.995063 0.000000
vt 0.995063 0.498948
vt 0.005809 0.996342
vt 0.005809 0.503658
vt 0.374123 0.503658
vt 0.374123 0.996342
vt 0.754848 0.000000
vt 0.788089 0.000000
vt 0.822396 0.372997
vt 0.789156 0.372997
vt 0.000000 0.500000
vt 0.000000 0.000000
vt 0.373783 0.000000
vt 0.373783 0.500000
vt 0.858147 0.000000
vt 0.891388 0.000000
vt 0.857080 0.372997
vt 0.823840 0.372997
vt 0.754848 0.372997
vt 0.788089 0.372997
vt 0.788089 0.871945
vt 0.754848 0.871945
vt 0.375346 0.996342
vt 0.375346 0.503658
vt 0.743660 0.503658
vt 0.743660 0.996342
vt 0.937473 0.997897
vt 0.937473 0.498948
vt 0.970713 0.498948
vt 0.970713 0.997897
vt 0.377424 0.500000
vt 0.377424 0.000000
vt 0.751207 0.000000
vt 0.751207 0.500000
vt 0.878439 0.220442
vt 0.911679 0.220442
vt 0.877372 0.593438
vt 0.844131 0.593438
vt 0.892831 0.000000
vt 0.926072 0.000000
vt 0.960379 0.372997
vt 0.927139 0.372997
vt 0.934188 0.372997
vt 0.934188 0.871945
vt 0.900948 0.871945
vt 0.900948 0.372997
vn 0.000000 -1.000000 0.000000
vn 0.000000 -1.000000 0.000000
vn 0.000000 -1.000000 0.000000
vn 0.000000 -1.000000 0.000000
vn 0.000000 0.091591 0.995797
vn 0.000000 0.091591 0.995797
vn 0.000000 0.091591 0.995797
vn 0.000000 0.091591 0.995797
vn 1.000000 0.000000 0.000000
vn 1.000000 0.000000 0.000000
vn 1.000000 0.000000 0.000000
vn 1.000000 0.000000 0.000000
vn 0.000000 -0.091591 -0.995797
vn 0.000000 -0.091591 -0.995797
vn 0.000000 -0.091591 -0.995797
vn 0.000000 -0.091591 -0.995797
vn -1.000000 0.000000 0.000000
vn -1.000000 0.000000 0.000000
vn -1.000000 0.000000 0.000000
vn -1.000000 0.000000 0.000000
vn 0.000000 1.000000 0.000000
vn 0.000000 1.000000 0.000000
vn 0.000000 1.000000 0.000000
vn 0.000000 1.000000 0.000000
vn 0.000000 -0.091591 0.995797
vn 0.000000 -0.091591 0.995797
vn 0.000000 -0.091591 0.995797
vn 0.000000 -0.091591 0.995797
vn 0.000000 1.000000 0.000000
vn 0.000000 1.000000 0.000000
vn 0.000000 1.000000 0.000000
vn 0.000000 1.000000 0.000000
vn 0.000000 0.091591 -0.995797
vn 0.000000 0.091591 -0.995797
vn 0.000000 0.091591 -0.995797
vn 0.000000 0.091591 -0.995797
vn 1.000000 0.000000 0.000000
vn 1.000000 0.000000 0.000000
vn 1.000000 0.000000 0.000000
vn 1.000000 0.000000 0.000000
vn -1.000000 0.000000 0.000000
vn -1.000000 0.000000 0.000000
vn -1.000000 0.000000 0.000000
vn -1.000000 0.000000 0.000000
vn 0.000000 -1.000000 0.000000
vn 0.000000 -1.000000 0.000000
vn 0.000000 -1.000000 0.000000
vn 0.000000 -1.000000 0.000000
s 1
g timer:pCube3
usemtl timer:initialShadingGroup
f 3/1/1 4/2/2 1/4/3
f 1/4/3 4/2/2 2/3/4
s 2
f 1/5/5 2/6/6 5/8/7
f 5/8/7 2/6/6 6/7/8
s 3
f 2/9/9 4/10/10 6/12/11
f 6/12/11 4/10/10 7/11/12
s 4
f 8/13/13 7/14/14 3/16/15
f 3/16/15 7/14/14 4/15/16
s 5
f 1/18/17 5/19/18 3/17/19
f 3/17/19 5/19/18 8/20/20
s 6
f 6/21/21 7/22/22 5/24/23
f 5/24/23 7/22/22 8/23/24
s 7
f 13/25/25 14/26/26 9/28/27
f 9/28/27 14/26/26 10/27/28
s 8
f 9/29/29 10/30/30 11/32/31
f 11/32/31 10/30/30 12/31/32
s 9
f 11/33/33 12/34/34 16/36/35
f 16/36/35 12/34/34 15/35/36
s 10
f 15/38/37 12/39/38 14/37/39
f 14/37/39 12/39/38 10/40/40
s 11
f 16/41/41 13/42/42 11/44/43
f 11/44/43 13/42/42 9/43/44
s 12
f 14/45/45 13/46/46 15/48/47
f 15/48/47 13/46/46 16/47/48
g default
v -0.252706 0.000813 0.011217
v 0.252706 0.000813 0.011217
v -0.252706 0.000813 -0.022454
v 0.252706 0.000813 -0.022454
v -0.252706 0.378642 -0.023535
v 0.252706 0.378642 -0.023535
v 0.252706 0.378642 -0.057206
v -0.252706 0.378642 -0.057206
v -0.252706 0.758817 0.011217
v 0.252706 0.758817 0.011217
v -0.252706 0.758817 -0.022454
v 0.252706 0.758817 -0.022454
v -0.252706 0.380989 -0.023535
v 0.252706 0.380989 -0.023535
v 0.252706 0.380989 -0.057206
v -0.252706 0.380989 -0.057206
vt 0.961823 0.498948
vt 0.961823 0.000000
vt 0.995063 0.000000
vt 0.995063 0.498948
vt 0.005809 0.996342
vt 0.005809 0.503658
vt 0.374123 0.503658
vt 0.374123 0.996342
vt 0.754848 0.000000
vt 0.788089 0.000000
vt 0.822396 0.372997
vt 0.789156 0.372997
vt 0.000000 0.500000
vt 0.000000 0.000000
vt 0.373783 0.000000
vt 0.373783 0.500000
vt 0.858147 0.000000
vt 0.891388 0.000000
vt 0.857080 0.372997
vt 0.823840 0.372997
vt 0.754848 0.372997
vt 0.788089 0.372997
vt 0.788089 0.871945
vt 0.754848 0.871945
vt 0.375346 0.996342
vt 0.375346 0.503658
vt 0.743660 0.503658
vt 0.743660 0.996342
vt 0.937473 0.997897
vt 0.937473 0.498948
vt 0.970713 0.498948
vt 0.970713 0.997897
vt 0.377424 0.500000
vt 0.377424 0.000000
vt 0.751207 0.000000
vt 0.751207 0.500000
vt 0.878439 0.220442
vt 0.911679 0.220442
vt 0.877372 0.593438
vt 0.844131 0.593438
vt 0.892831 0.000000
vt 0.926072 0.000000
vt 0.960379 0.372997
vt 0.927139 0.372997
vt 0.934188 0.372997
vt 0.934188 0.871945
vt 0.900948 0.871945
vt 0.900948 0.372997
vn 0.000000 -1.000000 0.000000
vn 0.000000 -1.000000 0.000000
vn 0.000000 -1.000000 0.000000
vn 0.000000 -1.000000 0.000000
vn 0.000000 0.091591 0.995797
vn 0.000000 0.091591 0.995797
vn 0.000000 0.091591 0.995797
vn 0.000000 0.091591 0.995797
vn 1.000000 0.000000 0.000000
vn 1.000000 0.000000 0.000000
vn 1.000000 0.000000 0.000000
vn 1.000000 0.000000 0.000000
vn 0.000000 -0.091591 -0.995797
vn 0.000000 -0.091591 -0.995797
vn 0.000000 -0.091591 -0.995797
vn 0.000000 -0.091591 -0.995797
vn -1.000000 0.000000 0.000000
vn -1.000000 0.000000 0.000000
vn -1.000000 0.000000 0.000000
vn -1.000000 0.000000 0.000000
vn 0.000000 1.000000 0.000000
vn 0.000000 1.000000 0.000000
vn 0.000000 1.000000 0.000000
vn 0.000000 1.000000 0.000000
vn 0.000000 -0.091591 0.995797
vn 0.000000 -0.091591 0.995797
vn 0.000000 -0.091591 0.995797
vn 0.000000 -0.091591 0.995797
vn 0.000000 1.000000 0.000000
vn 0.000000 1.000000 0.000000
vn 0.000000 1.000000 0.000000
vn 0.000000 1.000000 0.000000
vn 0.000000 0.091591 -0.995797
vn 0.000000 0.091591 -0.995797
vn 0.000000 0.091591 -0.995797
vn 0.000000 0.091591 -0.995797
vn 1.000000 0.000000 0.000000
vn 1.000000 0.000000 0.000000
vn 1.000000 0.000000 0.000000
vn 1.000000 0.000000 0.000000
vn -1.000000 0.000000 0.000000
vn -1.000000 0.000000 0.000000
vn -1.000000 0.000000 0.000000
vn -1.000000 0.000000 0.000000
vn 0.000000 -1.000000 0.000000
vn 0.000000 -1.000000 0.000000
vn 0.000000 -1.000000 0.000000
vn 0.000000 -1.000000 0.000000
s 1
g timer:pCube3
f 19/49/49 20/50/50 17/52/51
f 17/52/51 20/50/50 18/51/52
s 2
f 17/53/53 18/54/54 21/56/55
f 21/56/55 18/54/54 22/55/56
s 3
f 18/57/57 20/58/58 22/60/59
f 22/60/59 20/58/58 23/59/60
s 4
f 24/61/61 23/62/62 19/64/63
f 19/64/63 23/62/62 20/63/64
s 5
f 17/66/65 21/67/66 19/65/67
f 19/65/67 21/67/66 24/68/68
s 6
f 22/69/69 23/70/70 21/72/71
f 21/72/71 23/70/70 24/71/72
s 7
f 29/73/73 30/74/74 25/76/75
f 25/76/75 30/74/74 26/75/76
s 8
f 25/77/77 26/78/78 27/80/79
f 27/80/79 26/78/78 28/79/80
s 9
f 27/81/81 28/82/82 32/84/83
f 32/84/83 28/82/82 31/83/84
s 10
f 31/86/85 28/87/86 30/85/87
f 30/85/87 28/87/86 26/88/88
s 11
f 32/89/89 29/90/90 27/92/91
f 27/92/91 29/90/90 25/91/92
s 12
f 30/93/93 29/94/94 31/96/95
f 31/96/95 29/94/94 32/95/96
