<svg xmlns="http://www.w3.org/2000/svg" xmlns:xlink="http://www.w3.org/1999/xlink" viewBox="0 0 206.37 194.04"><defs><style>.cls-1{isolation:isolate;}.cls-2{fill:url(#linear-gradient);}.cls-3{fill:url(#linear-gradient-2);}.cls-4,.cls-5{opacity:0.4;mix-blend-mode:overlay;}.cls-4{fill:url(#radial-gradient);}.cls-5{fill:url(#radial-gradient-2);}</style><linearGradient id="linear-gradient" x1="80.56" y1="97.02" x2="206.37" y2="97.02" gradientUnits="userSpaceOnUse"><stop offset="0" stop-color="#81ae34"/><stop offset="1" stop-color="#97cb2d"/></linearGradient><linearGradient id="linear-gradient-2" x1="75.55" y1="149.79" x2="-23.88" y2="12.01" xlink:href="#linear-gradient"/><radialGradient id="radial-gradient" cx="179.55" cy="99.29" r="64.43" gradientTransform="translate(158.62 -331.8) rotate(21.8) scale(1 3.95)" gradientUnits="userSpaceOnUse"><stop offset="0" stop-color="#fff"/><stop offset="0.19" stop-color="#fff" stop-opacity="0.75"/><stop offset="0.41" stop-color="#fff" stop-opacity="0.48"/><stop offset="0.61" stop-color="#fff" stop-opacity="0.28"/><stop offset="0.78" stop-color="#fff" stop-opacity="0.13"/><stop offset="0.91" stop-color="#fff" stop-opacity="0.03"/><stop offset="1" stop-color="#fff" stop-opacity="0"/></radialGradient><radialGradient id="radial-gradient-2" cx="74.7" cy="91.42" r="49.86" gradientTransform="translate(-144.48 -205.46) rotate(-24.76) scale(1 3.95)" xlink:href="#radial-gradient"/></defs><title>Asset 1</title><g class="cls-1"><g id="Layer_2" data-name="Layer 2"><g id="Layer_1-2" data-name="Layer 1"><path class="cls-2" d="M164.8,0S182,41,118.43,84.6c-27.57,18.9-36.51,43.87-37.8,66.08a41.74,41.74,0,0,0,1.92,15.24c26.21-11,79.94-34.25,88.06-93.13,0,0,10.27,66.25-81.47,108.59,10.87,9.27,32.35,16.26,47.48,10.65C275,140.77,164.8,0,164.8,0Z"/><path class="cls-3" d="M56.29,154.65c-17.88-24.47-40.69-70-33.64-91.19,0,0,12.78,59.2,44.3,83.66a53.5,53.5,0,0,1,15.91,19.12C89.8,145.92,96.07,111.49,73,84.62,38,43.9,23.22,19,26.24,10.67S-57.26,120,68.53,180.22C67,173.23,63.51,164.53,56.29,154.65Z"/><path class="cls-4" d="M136.62,192C275,140.77,164.8,0,164.8,0s59.34,93.9,21,150.94c0,0-34.29,50.8-96.64,30.44C100,190.65,121.49,197.64,136.62,192Z"/><path class="cls-5" d="M73,84.62C40.83,47.2,25.75,23.16,25.86,13c-.49,5.17,0,18.6,13.56,37.82,18,25.57,56.69,59.89,43.44,115.4C89.8,145.92,96.07,111.49,73,84.62Z"/></g></g></g></svg>