# This file uses centimeters as units for non-parametric coordinates.

mtllib ladle_model.mtl
g default
v -0.024208 1.277526 -0.320084
v 0.024208 1.277526 -0.320084
v 0.048416 1.254001 -0.354792
v 0.024208 1.230475 -0.389500
v -0.024208 1.230475 -0.389500
v -0.048416 1.254001 -0.354792
v -0.027679 1.549415 -0.497111
v 0.027679 1.549415 -0.497111
v 0.055358 1.522516 -0.536796
v 0.027679 1.495618 -0.576480
v -0.027679 1.495618 -0.576480
v -0.055358 1.522516 -0.536796
v -0.000000 1.254001 -0.354792
v -0.000000 1.538497 -0.547628
vt 0.578125 0.020934
vt 0.421875 0.020934
vt 0.343750 0.156250
vt 0.421875 0.291566
vt 0.578125 0.291566
vt 0.656250 0.156250
vt 0.375000 0.312500
vt 0.416667 0.312500
vt 0.458333 0.312500
vt 0.500000 0.312500
vt 0.541667 0.312500
vt 0.583333 0.312500
vt 0.625000 0.312500
vt 0.375000 0.688440
vt 0.416667 0.688440
vt 0.458333 0.688440
vt 0.500000 0.688440
vt 0.541667 0.688440
vt 0.583333 0.688440
vt 0.625000 0.688440
vt 0.578125 0.708434
vt 0.421875 0.708434
vt 0.343750 0.843750
vt 0.421875 0.979066
vt 0.578125 0.979066
vt 0.656250 0.843750
vt 0.500000 0.150000
vt 0.500000 0.837500
vn 0.000000 0.545636 0.838022
vn 0.000000 0.545636 0.838022
vn 0.000000 0.545636 0.838022
vn 0.000000 0.545636 0.838022
vn 0.865876 0.265149 0.424210
vn 0.865876 0.265149 0.424210
vn 0.865876 0.265149 0.424210
vn 0.865876 0.265149 0.424210
vn 0.865877 -0.295827 -0.403415
vn 0.865877 -0.295827 -0.403415
vn 0.865877 -0.295827 -0.403415
vn 0.865877 -0.295827 -0.403415
vn -0.000000 -0.576316 -0.817227
vn -0.000000 -0.576316 -0.817227
vn -0.000000 -0.576316 -0.817227
vn -0.000000 -0.576316 -0.817227
vn -0.865877 -0.295828 -0.403415
vn -0.865877 -0.295828 -0.403415
vn -0.865877 -0.295828 -0.403415
vn -0.865877 -0.295828 -0.403415
vn -0.865877 0.265148 0.424210
vn -0.865877 0.265148 0.424210
vn -0.865877 0.265148 0.424210
vn -0.865877 0.265148 0.424210
vn 0.000000 -0.827766 0.561073
vn 0.000000 -0.827767 0.561072
vn 0.000000 -0.827766 0.561073
vn 0.000000 -0.827766 0.561074
vn 0.000000 -0.827766 0.561073
vn 0.000000 -0.827767 0.561073
vn 0.000000 -0.827767 0.561072
vn -0.164646 0.941605 -0.293721
vn 0.164646 0.941605 -0.293721
vn 0.000000 0.827767 -0.561073
vn 0.329291 0.781600 -0.529782
vn 0.164645 0.621597 -0.765839
vn -0.164645 0.621596 -0.765839
vn -0.329291 0.781600 -0.529782
s off
g ladleHandle_geo ladle_grp
usemtl initialShadingGroup
f 1/7/1 2/8/2 8/15/3 7/14/4
f 2/8/5 3/9/6 9/16/7 8/15/8
f 3/9/9 4/10/10 10/17/11 9/16/12
f 4/10/13 5/11/14 11/18/15 10/17/16
f 5/11/17 6/12/18 12/19/19 11/18/20
f 6/12/21 1/13/22 7/20/23 12/19/24
s 1
f 2/2/25 1/1/26 13/27/27
f 3/3/28 2/2/25 13/27/27
f 4/4/29 3/3/28 13/27/27
f 5/5/30 4/4/29 13/27/27
f 6/6/31 5/5/30 13/27/27
f 1/1/26 6/6/31 13/27/27
s 2
f 7/25/32 8/24/33 14/28/34
f 8/24/33 9/23/35 14/28/34
f 9/23/35 10/22/36 14/28/34
f 10/22/36 11/21/37 14/28/34
f 11/21/37 12/26/38 14/28/34
f 12/26/38 7/25/32 14/28/34
g default
v 0.033283 0.209244 -0.202838
v -0.033283 0.209244 -0.202838
v 0.033283 1.250146 -0.359301
v -0.033283 1.250146 -0.359301
v 0.033283 1.261353 -0.346683
v -0.033283 1.261353 -0.346683
v 0.033283 0.209244 -0.185962
v -0.033283 0.209244 -0.185962
v 0.033283 0.442854 -0.195433
v -0.033283 0.442854 -0.195433
v -0.033283 0.442854 -0.178557
v 0.033283 0.442854 -0.178557
v 0.033283 0.673796 -0.166095
v -0.033283 0.673796 -0.166095
v -0.033283 0.669165 -0.182323
v 0.033283 0.669165 -0.182323
v 0.033283 0.997273 -0.236556
v -0.033283 0.997273 -0.236556
v -0.033283 0.991877 -0.252545
v 0.033283 0.991877 -0.252545
vt 0.375000 0.000000
vt 0.625000 0.000000
vt 0.375000 0.250000
vt 0.625000 0.250000
vt 0.375000 0.500000
vt 0.625000 0.500000
vt 0.375000 0.750000
vt 0.625000 0.750000
vt 0.375000 1.000000
vt 0.625000 1.000000
vt 0.875000 0.000000
vt 0.875000 0.250000
vt 0.125000 0.000000
vt 0.125000 0.250000
vt 0.375000 0.057303
vt 0.625000 0.057303
vt 0.625000 0.692697
vt 0.875000 0.057303
vt 0.125000 0.057303
vt 0.375000 0.692697
vt 0.125000 0.113384
vt 0.375000 0.636616
vt 0.625000 0.636616
vt 0.875000 0.113384
vt 0.625000 0.113384
vt 0.375000 0.113384
vt 0.125000 0.192638
vt 0.375000 0.557362
vt 0.625000 0.557362
vt 0.875000 0.192638
vt 0.625000 0.192638
vt 0.375000 0.192638
vn 0.000000 0.044562 -0.999007
vn 0.000000 0.044562 -0.999007
vn 0.000000 -0.103467 -0.994633
vn 0.000000 -0.103467 -0.994633
vn -0.000000 0.747663 -0.664079
vn -0.000000 0.747663 -0.664079
vn -0.000000 0.747663 -0.664079
vn -0.000000 0.747663 -0.664079
vn 0.000000 0.104044 0.994573
vn 0.000000 0.104044 0.994573
vn 0.000000 -0.042728 0.999087
vn 0.000000 -0.042728 0.999087
vn 0.000000 -1.000000 0.000000
vn 0.000000 -1.000000 0.000000
vn 0.000000 -1.000000 0.000000
vn 0.000000 -1.000000 0.000000
vn -1.000000 -0.000000 0.000000
vn -1.000000 0.000000 0.000000
vn -1.000000 0.000000 0.000000
vn -1.000000 0.000000 0.000000
vn 1.000000 -0.000000 -0.000000
vn 1.000000 -0.000000 -0.000000
vn 1.000000 0.000000 -0.000000
vn 1.000000 0.000000 -0.000000
vn -0.000000 0.031684 -0.999498
vn -0.000000 0.031684 -0.999498
vn -1.000000 -0.000000 0.000000
vn -1.000000 -0.000000 0.000000
vn 0.000000 -0.031684 0.999498
vn 0.000000 -0.031684 0.999498
vn 1.000000 -0.000000 -0.000000
vn 1.000000 -0.000000 -0.000000
vn 0.000000 0.293791 0.955870
vn 0.000000 0.293791 0.955870
vn -1.000000 0.000000 0.000000
vn -1.000000 0.000000 0.000000
vn 0.000000 -0.291399 -0.956602
vn 0.000000 -0.291399 -0.956602
vn 1.000000 0.000000 -0.000000
vn 1.000000 0.000000 -0.000000
vn 0.000000 0.384897 0.922960
vn 0.000000 0.384897 0.922960
vn -1.000000 0.000000 0.000000
vn -1.000000 0.000000 0.000000
vn -0.000000 -0.382001 -0.924162
vn -0.000000 -0.382001 -0.924162
vn 1.000000 0.000000 -0.000000
vn 1.000000 0.000000 -0.000000
s 1
g ladle_grp ladleNeck_geo
usemtl initialShadingGroup
f 23/43/39 24/44/40 29/53/41 30/54/42
s off
f 17/31/43 18/32/44 20/34/45 19/33/46
s 2
f 27/50/47 28/51/48 25/45/49 26/48/50
s off
f 21/35/51 22/36/52 16/38/53 15/37/54
s 3
f 24/44/55 25/46/56 28/52/57 29/53/58
s 4
f 26/47/59 23/43/60 30/54/61 27/49/62
s 1
f 15/29/63 16/30/64 24/44/40 23/43/39
s 3
f 16/30/65 22/39/66 25/46/56 24/44/55
s 2
f 26/48/50 25/45/49 22/36/67 21/35/68
s 4
f 21/41/69 15/29/70 23/43/60 26/47/59
s 2
f 31/56/71 32/57/72 28/51/48 27/50/47
s 3
f 29/53/58 28/52/57 32/58/73 33/59/74
s 1
f 30/54/42 29/53/41 33/59/75 34/60/76
s 4
f 27/49/62 30/54/61 34/60/77 31/55/78
s 2
f 19/33/79 20/34/80 32/57/72 31/56/71
s 3
f 33/59/74 32/58/73 20/40/81 18/32/82
s 1
f 34/60/76 33/59/75 18/32/83 17/31/84
s 4
f 31/55/78 34/60/77 17/31/85 19/42/86
g default
v -0.067315 0.031528 0.116593
v 0.067315 0.031528 0.116593
v 0.134630 0.031528 0.000000
v 0.067315 0.031528 -0.116593
v -0.067315 0.031528 -0.116593
v -0.134630 0.031528 -0.000000
v -0.120574 0.211987 0.208841
v 0.120574 0.211987 0.208841
v 0.241149 0.211987 0.000000
v 0.120574 0.211987 -0.208841
v -0.120574 0.211987 -0.208841
v -0.241149 0.211987 -0.000000
v 0.000000 0.000000 0.000000
v -0.106990 0.211987 0.185312
v 0.106990 0.211987 0.185312
v 0.213980 0.211987 0.000000
v 0.106990 0.211987 -0.185312
v -0.106990 0.211987 -0.185312
v -0.213980 0.211987 0.000000
v -0.059731 0.042369 0.103458
v 0.059731 0.042369 0.103458
v 0.000000 0.010840 -0.000000
v 0.119463 0.042369 -0.000000
v 0.059731 0.042369 -0.103458
v -0.059731 0.042369 -0.103458
v -0.119463 0.042369 0.000000
v -0.115796 0.143456 0.200564
v 0.115796 0.143456 0.200564
v 0.231592 0.143456 0.000000
v 0.115796 0.143456 -0.200564
v -0.115796 0.143456 -0.200564
v -0.231592 0.143456 -0.000000
v -0.101426 0.143456 0.175676
v 0.101426 0.143456 0.175676
v 0.202853 0.143456 -0.000000
v 0.101426 0.143456 -0.175676
v -0.101426 0.143456 -0.175676
v -0.202853 0.143456 0.000000
vt 0.578125 0.020934
vt 0.421875 0.020934
vt 0.343750 0.156250
vt 0.421875 0.291566
vt 0.578125 0.291566
vt 0.656250 0.156250
vt 0.375000 0.312500
vt 0.416667 0.312500
vt 0.458333 0.312500
vt 0.500000 0.312500
vt 0.541667 0.312500
vt 0.583333 0.312500
vt 0.625000 0.312500
vt 0.375000 0.688440
vt 0.416667 0.688440
vt 0.458333 0.688440
vt 0.500000 0.688440
vt 0.541667 0.688440
vt 0.583333 0.688440
vt 0.625000 0.688440
vt 0.578125 0.708434
vt 0.421875 0.708434
vt 0.343750 0.843750
vt 0.421875 0.979066
vt 0.578125 0.979066
vt 0.656250 0.843750
vt 0.500000 0.150000
vt 0.500000 0.837500
vt 0.578125 0.979066
vt 0.421875 0.979066
vt 0.343750 0.843750
vt 0.421875 0.708434
vt 0.578125 0.708434
vt 0.656250 0.843750
vt 0.578125 0.979066
vt 0.421875 0.979066
vt 0.343750 0.843750
vt 0.421875 0.708434
vt 0.578125 0.708434
vt 0.656250 0.843750
vt 0.625000 0.545672
vt 0.375000 0.545672
vt 0.416667 0.545672
vt 0.458333 0.545672
vt 0.500000 0.545672
vt 0.541667 0.545672
vt 0.583333 0.545672
vt 0.578125 0.979066
vt 0.421875 0.979066
vt 0.343750 0.843750
vt 0.421875 0.708434
vt 0.578125 0.708434
vt 0.656250 0.843750
vn -0.000000 -0.600117 0.799912
vn -0.000000 -0.600117 0.799912
vn -0.000000 -0.393620 0.919273
vn -0.000000 -0.393620 0.919273
vn 0.692744 -0.600117 0.399956
vn 0.692744 -0.600117 0.399956
vn 0.796114 -0.393620 0.459637
vn 0.796114 -0.393620 0.459637
vn 0.692744 -0.600117 -0.399956
vn 0.692744 -0.600117 -0.399956
vn 0.796114 -0.393620 -0.459637
vn 0.796114 -0.393620 -0.459636
vn 0.000000 -0.600117 -0.799912
vn 0.000000 -0.600117 -0.799912
vn 0.000000 -0.393620 -0.919273
vn 0.000000 -0.393620 -0.919273
vn -0.692744 -0.600117 -0.399956
vn -0.692744 -0.600117 -0.399956
vn -0.796114 -0.393620 -0.459637
vn -0.796114 -0.393620 -0.459637
vn -0.692744 -0.600117 0.399956
vn -0.692744 -0.600117 0.399956
vn -0.796114 -0.393620 0.459637
vn -0.796114 -0.393620 0.459637
vn 0.114007 -0.973658 0.197466
vn -0.114007 -0.973658 0.197466
vn 0.000000 -1.000000 0.000000
vn 0.228014 -0.973658 0.000000
vn 0.114007 -0.973658 -0.197466
vn -0.114007 -0.973658 -0.197466
vn -0.228014 -0.973658 -0.000000
vn 0.127590 0.966894 -0.220991
vn -0.127589 0.966894 -0.220991
vn 0.000000 1.000000 0.000000
vn -0.255179 0.966894 -0.000000
vn -0.127589 0.966894 0.220991
vn 0.127590 0.966894 0.220991
vn 0.255179 0.966894 0.000000
vn 0.000000 1.000000 -0.000000
vn 0.000000 1.000000 -0.000000
vn 0.000000 1.000000 -0.000000
vn 0.000000 1.000000 -0.000000
vn -0.000001 1.000000 -0.000001
vn -0.000001 1.000000 -0.000001
vn -0.000001 1.000000 -0.000001
vn -0.000001 1.000000 -0.000001
vn -0.000001 1.000000 0.000000
vn -0.000001 1.000000 0.000000
vn -0.000001 1.000000 0.000000
vn -0.000001 1.000000 0.000000
vn 0.000000 1.000000 0.000001
vn 0.000000 1.000000 0.000001
vn 0.000000 1.000000 0.000001
vn 0.000000 1.000000 0.000001
vn 0.000000 1.000000 0.000000
vn 0.000000 1.000000 0.000000
vn 0.000000 1.000000 0.000000
vn 0.000000 1.000000 0.000000
vn 0.000000 1.000000 -0.000000
vn 0.000000 1.000000 -0.000000
vn 0.000000 1.000000 -0.000000
vn 0.000000 1.000000 -0.000000
vn 0.000000 0.139245 -0.990258
vn 0.000000 0.139245 -0.990258
vn 0.000000 0.376308 -0.926495
vn 0.000000 0.376308 -0.926495
vn -0.857588 0.139246 -0.495129
vn -0.857588 0.139246 -0.495129
vn -0.802368 0.376309 -0.463247
vn -0.802368 0.376309 -0.463247
vn -0.857588 0.139246 0.495129
vn -0.857588 0.139246 0.495129
vn -0.802368 0.376309 0.463247
vn -0.802368 0.376309 0.463247
vn 0.000000 0.139245 0.990258
vn 0.000000 0.139245 0.990258
vn 0.000000 0.376308 0.926495
vn 0.000000 0.376308 0.926495
vn 0.857588 0.139246 0.495129
vn 0.857588 0.139246 0.495129
vn 0.802368 0.376309 0.463247
vn 0.802368 0.376309 0.463247
vn 0.857589 0.139246 -0.495129
vn 0.857589 0.139246 -0.495129
vn 0.802368 0.376309 -0.463247
vn 0.802368 0.376309 -0.463247
vn -0.000000 -0.119900 0.992786
vn -0.000000 -0.119900 0.992786
vn 0.859778 -0.119900 0.496393
vn 0.859778 -0.119900 0.496393
vn 0.859778 -0.119900 -0.496393
vn 0.859778 -0.119900 -0.496393
vn -0.000000 -0.119900 -0.992786
vn -0.000000 -0.119900 -0.992786
vn -0.859778 -0.119900 -0.496393
vn -0.859778 -0.119900 -0.496393
vn -0.859778 -0.119900 0.496393
vn -0.859778 -0.119900 0.496393
vn -0.000000 0.581308 -0.813684
vn -0.000000 0.581308 -0.813684
vn -0.704671 0.581308 -0.406842
vn -0.704671 0.581308 -0.406842
vn -0.704671 0.581308 0.406842
vn -0.704671 0.581308 0.406841
vn 0.000000 0.581308 0.813684
vn 0.000000 0.581308 0.813684
vn 0.704671 0.581308 0.406841
vn 0.704671 0.581308 0.406841
vn 0.704671 0.581308 -0.406841
vn 0.704671 0.581308 -0.406841
s 1
g ladle_grp ladleCup_geo
usemtl initialShadingGroup
f 35/67/87 36/68/88 62/103/89 61/102/90
s 2
f 36/68/91 37/69/92 63/104/93 62/103/94
s 3
f 37/69/95 38/70/96 64/105/97 63/104/98
s 4
f 38/70/99 39/71/100 65/106/101 64/105/102
s 5
f 39/71/103 40/72/104 66/107/105 65/106/106
s 6
f 40/72/107 35/73/108 61/101/109 66/107/110
s 7
f 36/62/111 35/61/112 47/87/113
f 37/63/114 36/62/111 47/87/113
f 38/64/115 37/63/114 47/87/113
f 39/65/116 38/64/115 47/87/113
f 40/66/117 39/65/116 47/87/113
f 35/61/112 40/66/117 47/87/113
s 8
f 54/95/118 55/96/119 56/88/120
f 55/96/119 57/97/121 56/88/120
f 57/97/121 58/98/122 56/88/120
f 58/98/122 59/99/123 56/88/120
f 59/99/123 60/100/124 56/88/120
f 60/100/124 54/95/118 56/88/120
s off
f 41/85/125 42/84/126 49/90/127 48/89/128
f 42/84/129 43/83/130 50/91/131 49/90/132
f 43/83/133 44/82/134 51/92/135 50/91/136
f 44/82/137 45/81/138 52/93/139 51/92/140
f 45/81/141 46/86/142 53/94/143 52/93/144
f 46/86/145 41/85/146 48/89/147 53/94/148
s 9
f 48/89/149 49/90/150 68/109/151 67/108/152
s 10
f 49/90/153 50/91/154 69/110/155 68/109/156
s 11
f 50/91/157 51/92/158 70/111/159 69/110/160
s 12
f 51/92/161 52/93/162 71/112/163 70/111/164
s 13
f 52/93/165 53/94/166 72/113/167 71/112/168
s 14
f 53/94/169 48/89/170 67/108/171 72/113/172
s 1
f 61/102/90 62/103/89 42/75/173 41/74/174
s 2
f 62/103/94 63/104/93 43/76/175 42/75/176
s 3
f 63/104/98 64/105/97 44/77/177 43/76/178
s 4
f 64/105/102 65/106/101 45/78/179 44/77/180
s 5
f 65/106/106 66/107/105 46/79/181 45/78/182
s 6
f 66/107/110 61/101/109 41/80/183 46/79/184
s 9
f 67/108/152 68/109/151 55/96/185 54/95/186
s 10
f 68/109/156 69/110/155 57/97/187 55/96/188
s 11
f 69/110/160 70/111/159 58/98/189 57/97/190
s 12
f 70/111/164 71/112/163 59/99/191 58/98/192
s 13
f 71/112/168 72/113/167 60/100/193 59/99/194
s 14
f 72/113/172 67/108/171 54/95/195 60/100/196
