# This file uses centimeters as units for non-parametric coordinates.

mtllib mushroom.mtl
g default
v 0.030376 -0.000261 0.093994
v 0.014000 0.000238 0.103422
v -0.003597 -0.000324 0.102564
v -0.020105 -0.000250 0.092249
v -0.028767 0.000365 0.072375
v -0.019625 -0.000021 0.054461
v 0.027603 -0.000089 0.056149
v 0.036553 0.000364 0.075316
v 0.004169 -0.000338 0.071812
v 0.029976 0.111317 0.055449
v 0.014196 0.111420 0.045199
v -0.002694 0.111395 0.044693
v -0.017486 0.111455 0.055020
v -0.023780 0.111325 0.072537
v -0.018635 0.111345 0.090896
v -0.003513 0.111353 0.104145
v 0.017146 0.111239 0.103493
v 0.033115 0.111443 0.091478
v 0.035740 0.111292 0.074242
v 0.057643 0.122126 0.036974
v 0.024370 0.121469 0.020524
v -0.012029 0.121059 0.023064
v -0.042998 0.121613 0.040380
v -0.056580 0.121977 0.071884
v -0.047156 0.122269 0.109361
v -0.015209 0.122407 0.138602
v 0.028311 0.122628 0.141363
v 0.060038 0.121894 0.114858
v 0.065787 0.121694 0.075162
v 0.070925 0.104203 0.024940
v 0.031202 0.103780 0.001601
v -0.018794 0.103303 0.006623
v -0.061417 0.103879 0.029126
v -0.078818 0.104116 0.072297
v -0.064683 0.104291 0.121386
v -0.020805 0.104310 0.155630
v 0.033851 0.104383 0.159452
v 0.076362 0.104075 0.127138
v 0.084180 0.104036 0.075549
v 0.041099 0.125331 -0.020805
v -0.030695 0.125199 -0.017317
v -0.086044 0.125571 0.011459
v -0.090260 0.125716 0.132220
v 0.036494 0.125771 0.183132
v 0.108579 0.125729 0.075781
v 0.039836 0.162874 -0.021401
v -0.034066 0.186432 -0.019239
v -0.096806 0.165274 0.033498
v -0.098476 0.165208 0.126752
v -0.015718 0.176659 0.181966
v 0.028084 0.152849 0.182349
v 0.112273 0.165425 0.075541
v 0.102754 0.190412 0.074572
v 0.065335 0.201178 0.139955
v 0.031602 0.208508 -0.005082
v -0.067182 0.232982 0.064550
v -0.081387 0.215731 0.115167
v -0.030286 0.216020 0.159456
v 0.072764 0.228669 0.070958
v 0.004556 0.247155 0.074804
v 0.055793 0.234688 0.116259
v 0.027630 0.040795 0.056910
v 0.012417 -0.000371 0.045576
v -0.004148 -0.000379 0.044835
v -0.014423 0.040889 0.055418
v -0.021934 0.041085 0.072053
v -0.014397 0.040703 0.088075
v -0.000504 0.040660 0.097165
v 0.015448 0.040973 0.097607
v 0.029982 0.040732 0.089744
v 0.023250 0.076823 0.056461
v 0.034372 0.041072 0.074337
v 0.030776 0.076856 0.088491
v 0.015600 0.076870 0.096777
v -0.001943 0.076775 0.096839
v -0.016149 0.076792 0.087450
vt 0.100000 0.900000
vt 0.000000 0.900000
vt 0.200000 0.900000
vt 0.300000 0.900000
vt 0.400000 0.900000
vt 0.500000 0.900000
vt 0.600000 0.900000
vt 0.700000 0.900000
vt 0.800000 0.900000
vt 0.900000 0.900000
vt 1.000000 0.900000
vt 0.050000 1.000000
vt 0.150000 1.000000
vt 0.250000 1.000000
vt 0.350000 1.000000
vt 0.450000 1.000000
vt 0.550000 1.000000
vt 0.650000 1.000000
vt 0.750000 1.000000
vt 0.850000 1.000000
vt 0.950000 1.000000
vt 0.000000 0.100000
vt 0.100000 0.100000
vt 0.100000 0.200000
vt 0.000000 0.200000
vt 0.200000 0.100000
vt 0.200000 0.200000
vt 0.300000 0.100000
vt 0.300000 0.200000
vt 0.400000 0.100000
vt 0.400000 0.200000
vt 0.500000 0.100000
vt 0.500000 0.200000
vt 0.600000 0.100000
vt 0.600000 0.200000
vt 0.700000 0.100000
vt 0.700000 0.200000
vt 0.800000 0.100000
vt 0.800000 0.200000
vt 0.900000 0.100000
vt 0.900000 0.200000
vt 1.000000 0.100000
vt 1.000000 0.200000
vt 0.100000 0.300000
vt 0.000000 0.300000
vt 0.200000 0.300000
vt 0.300000 0.300000
vt 0.400000 0.300000
vt 0.500000 0.300000
vt 0.600000 0.300000
vt 0.700000 0.300000
vt 0.800000 0.300000
vt 0.900000 0.300000
vt 1.000000 0.300000
vt 0.100000 0.400000
vt 0.200000 0.400000
vt 0.300000 0.400000
vt 0.500000 0.400000
vt 0.700000 0.400000
vt 0.900000 0.400000
vt 1.000000 0.400000
vt 0.100000 0.500000
vt 0.000000 0.500000
vt 0.200000 0.600000
vt 0.400000 0.500000
vt 0.500000 0.500000
vt 0.600000 0.500000
vt 0.800000 0.500000
vt 0.900000 0.500000
vt 0.000000 0.600000
vt 0.700000 0.600000
vt 0.900000 0.600000
vt 0.100000 0.700000
vt 0.400000 0.800000
vt 0.500000 0.700000
vt 0.600000 0.700000
vt 0.000000 0.800000
vt 0.250000 1.000000
vt 0.800000 0.800000
vt 1.000000 0.800000
vt 0.050000 1.000000
vt 0.450000 1.000000
vt 0.550000 1.000000
vt 0.650000 1.000000
vt 0.850000 1.000000
vt 0.000000 0.000000
vt 1.000000 0.000000
vt 1.000000 1.000000
vt 0.000000 0.000000
vt 1.000000 0.000000
vt 0.000000 0.000000
vt 1.000000 0.000000
vt 0.000000 1.000000
vt 0.000000 0.000000
vt 1.000000 0.000000
vt 1.000000 1.000000
vt 0.000000 1.000000
vt 0.000000 0.000000
vt 1.000000 0.000000
vt 1.000000 1.000000
vt 0.000000 1.000000
vt 0.000000 0.000000
vt 1.000000 0.000000
vt 1.000000 1.000000
vt 0.000000 1.000000
vt 0.000000 0.000000
vt 1.000000 0.000000
vt 1.000000 1.000000
vt 0.000000 1.000000
vt 0.000000 0.000000
vt 1.000000 0.000000
vt 1.000000 1.000000
vt 0.000000 1.000000
vt 0.000000 0.000000
vt 1.000000 0.000000
vt 1.000000 1.000000
vt 0.000000 1.000000
vt 0.000000 0.000000
vt 1.000000 0.000000
vt 1.000000 1.000000
vt 0.000000 1.000000
vt 1.000000 0.633017
vt 0.000000 0.633017
vt 1.000000 1.000000
vt 0.000000 1.000000
vt 1.000000 1.000000
vt 0.000000 1.000000
vt 1.000000 0.633017
vt 0.000000 0.633017
vt 1.000000 0.633017
vt 0.000000 0.633017
vt 1.000000 0.633017
vt 0.000000 0.633017
vt 1.000000 0.633017
vt 0.000000 0.633017
vt 1.000000 0.633017
vt 0.000000 0.633017
vt 1.000000 0.633017
vt 0.000000 0.633017
vt 1.000000 0.309627
vt 0.000000 0.309627
vt 1.000000 0.633017
vt 0.000000 0.633017
vt 1.000000 0.309627
vt 0.000000 0.309627
vt 1.000000 0.309627
vt 0.000000 0.309627
vt 1.000000 0.309627
vt 0.000000 0.309627
vt 1.000000 0.309627
vt 0.000000 0.309627
vn -0.016955 -0.999581 0.023481
vn -0.016955 -0.999580 0.023481
vn -0.016955 -0.999580 0.023481
vn 0.031499 -0.999468 0.008410
vn 0.031499 -0.999468 0.008410
vn 0.031499 -0.999468 0.008410
vn -0.004106 -0.999991 -0.000581
vn -0.004106 -0.999991 -0.000581
vn -0.004106 -0.999991 -0.000581
vn -0.021682 -0.999535 -0.021458
vn -0.021682 -0.999535 -0.021458
vn -0.021682 -0.999535 -0.021458
vn -0.021135 -0.999719 0.010739
vn -0.021135 -0.999719 0.010739
vn -0.021135 -0.999719 0.010739
vn -0.018609 -0.999800 0.007273
vn -0.018609 -0.999800 0.007273
vn -0.018609 -0.999800 0.007273
vn 0.000464 -0.999999 0.001392
vn 0.000464 -0.999999 0.001392
vn 0.000464 -0.999999 0.001392
vn 0.014479 -0.999878 0.005798
vn 0.014479 -0.999878 0.005798
vn 0.014479 -0.999878 0.005798
vn 0.020112 -0.999696 0.014228
vn 0.020112 -0.999696 0.014228
vn 0.020112 -0.999697 0.014228
vn 0.024390 -0.999381 -0.025364
vn 0.024390 -0.999381 -0.025364
vn 0.024390 -0.999381 -0.025364
vn 0.190125 -0.934145 -0.302035
vn 0.171417 -0.938332 -0.300248
vn 0.173092 -0.937972 -0.300412
vn 0.166760 -0.939318 -0.299787
vn 0.013680 -0.910719 -0.412801
vn -0.010658 -0.921348 -0.388593
vn -0.010280 -0.921192 -0.388973
vn -0.016325 -0.923653 -0.382882
vn -0.223900 -0.922175 -0.315376
vn -0.199559 -0.928509 -0.313124
vn -0.198404 -0.928794 -0.313013
vn -0.191279 -0.930522 -0.312315
vn -0.308273 -0.943979 -0.117777
vn -0.305713 -0.944594 -0.119502
vn -0.305254 -0.944704 -0.119812
vn -0.304464 -0.944891 -0.120343
vn -0.306712 -0.947819 0.086990
vn -0.308770 -0.947284 0.085526
vn -0.308496 -0.947355 0.085720
vn -0.309289 -0.947148 0.085156
vn -0.205400 -0.950034 0.235045
vn -0.210044 -0.948995 0.235137
vn -0.209589 -0.949098 0.235129
vn -0.211142 -0.948746 0.235158
vn 0.004415 -0.951758 0.306818
vn -0.008875 -0.955246 0.295680
vn -0.010696 -0.955701 0.294146
vn -0.013654 -0.956427 0.291652
vn 0.179259 -0.958424 0.222013
vn 0.175705 -0.956354 0.233484
vn 0.176260 -0.956686 0.231700
vn 0.174956 -0.955901 0.235888
vn 0.325029 -0.943939 0.057752
vn 0.322755 -0.945025 0.052514
vn 0.323038 -0.944891 0.053165
vn 0.322282 -0.945246 0.051428
vn 0.328236 -0.939078 -0.101948
vn 0.319965 -0.943652 -0.084516
vn 0.319189 -0.944059 -0.082892
vn 0.316979 -0.945197 -0.078278
vn -0.314664 -0.678723 0.663568
vn -0.327630 -0.729991 0.599810
vn -0.323252 -0.712235 0.623081
vn -0.331451 -0.745959 0.577655
vn 0.058116 -0.690102 0.721375
vn 0.067226 -0.702158 0.708840
vn 0.072718 -0.709312 0.701134
vn 0.076675 -0.714412 0.695512
vn 0.336134 -0.705640 0.623767
vn 0.320913 -0.716879 0.618950
vn 0.326487 -0.712805 0.620737
vn 0.316238 -0.720258 0.617431
vn 0.582559 -0.770068 0.260039
vn 0.601907 -0.757575 0.252563
vn 0.596028 -0.761442 0.254864
vn 0.609192 -0.752695 0.249672
vn 0.652037 -0.741499 -0.158199
vn 0.633764 -0.755465 -0.166179
vn 0.623760 -0.762807 -0.170440
vn 0.614662 -0.769303 -0.174250
vn 0.444236 -0.755345 -0.481776
vn 0.449386 -0.700994 -0.553768
vn 0.447291 -0.728665 -0.518631
vn 0.450283 -0.681758 -0.576586
vn 0.049185 -0.692461 -0.719777
vn 0.050647 -0.694653 -0.717560
vn 0.049943 -0.693598 -0.718629
vn 0.051056 -0.695265 -0.716938
vn -0.436824 -0.746298 -0.502219
vn -0.437403 -0.726279 -0.530281
vn -0.437489 -0.709121 -0.552947
vn -0.437336 -0.696632 -0.568719
vn -0.688295 -0.719042 -0.096067
vn -0.691677 -0.715271 -0.099857
vn -0.694398 -0.712193 -0.102925
vn -0.696193 -0.710140 -0.104960
vn -0.687394 -0.712946 0.138555
vn -0.716660 -0.674685 0.176628
vn -0.703671 -0.692421 0.159376
vn -0.724697 -0.663033 0.187621
vn 0.342005 -0.748187 -0.568551
vn 0.342005 -0.748187 -0.568550
vn 0.342005 -0.748186 -0.568551
vn -0.058888 -0.751015 -0.657654
vn -0.047441 -0.734743 -0.676684
vn -0.038252 -0.721317 -0.691548
vn -0.032723 -0.713083 -0.700316
vn -0.304117 -0.773393 -0.556216
vn -0.295313 -0.779086 -0.553006
vn -0.298618 -0.776963 -0.554217
vn -0.292152 -0.781102 -0.551840
vn -0.552243 -0.804628 -0.218177
vn -0.552243 -0.804628 -0.218177
vn -0.552243 -0.804628 -0.218177
vn -0.588633 -0.789824 0.172306
vn -0.745724 -0.659404 0.095298
vn -0.889495 -0.456915 -0.005143
vn -0.916776 -0.398156 -0.031533
vn -0.406945 -0.749697 0.521871
vn -0.406945 -0.749697 0.521871
vn -0.406945 -0.749697 0.521871
vn -0.046039 -0.738757 0.672398
vn -0.176134 -0.563799 0.806912
vn -0.340356 -0.252148 0.905858
vn -0.365803 -0.190720 0.910941
vn 0.433518 -0.692275 0.576903
vn 0.433518 -0.692275 0.576903
vn 0.433518 -0.692275 0.576903
vn 0.660538 -0.744014 0.100664
vn 0.818140 -0.485148 0.308673
vn 0.848597 -0.007945 0.528979
vn 0.827097 0.086589 0.555350
vn 0.655228 -0.735113 -0.174026
vn 0.824744 -0.165471 -0.540755
vn 0.769360 -0.540118 -0.341113
vn 0.817164 -0.081787 -0.570573
vn 0.800725 0.017444 -0.598779
vn 0.800725 0.017444 -0.598779
vn 0.800725 0.017444 -0.598779
vn -0.048491 -0.017481 -0.998671
vn -0.041683 -0.030226 -0.998674
vn -0.043840 -0.026191 -0.998695
vn -0.039905 -0.033551 -0.998640
vn -0.460910 -0.053188 -0.885852
vn -0.599669 0.112506 -0.792300
vn -0.555325 0.055738 -0.829763
vn -0.669783 0.213256 -0.711275
vn -0.977530 -0.208058 -0.033882
vn -0.976026 -0.215409 -0.031192
vn -0.971416 -0.236212 -0.023543
vn -0.967429 -0.252537 -0.017500
vn -0.554965 -0.000274 0.831874
vn -0.554965 -0.000274 0.831874
vn -0.554965 -0.000274 0.831874
vn -0.371218 -0.088555 0.924313
vn -0.333476 -0.233150 0.913474
vn -0.297507 -0.346190 0.889743
vn -0.255963 -0.457185 0.851742
vn 0.827929 -0.073676 0.555972
vn 0.823428 -0.037346 0.566191
vn 0.771045 0.182118 0.610182
vn 0.746013 0.249551 0.617405
vn 0.817311 -0.079513 -0.570684
vn 0.817311 -0.079513 -0.570684
vn 0.817311 -0.079513 -0.570684
vn 0.767897 0.269990 -0.580895
vn 0.767897 0.269990 -0.580895
vn 0.767897 0.269990 -0.580895
vn 0.269626 0.509158 0.817349
vn 0.269626 0.509158 0.817350
vn 0.269626 0.509158 0.817349
vn 0.787425 -0.069683 0.612459
vn 0.828250 0.091259 0.552877
vn 0.793538 -0.050744 0.606402
vn 0.840117 0.336511 0.425398
vn 0.738206 0.341271 -0.581882
vn 0.738206 0.341271 -0.581882
vn 0.738206 0.341271 -0.581882
vn 0.083928 0.348921 -0.933386
vn 0.083928 0.348921 -0.933386
vn 0.083928 0.348921 -0.933386
vn -0.642403 0.533427 -0.550249
vn -0.642403 0.533427 -0.550249
vn -0.642403 0.533427 -0.550249
vn -0.913302 0.406966 -0.016063
vn -0.921241 0.386702 -0.042137
vn -0.919831 0.390542 -0.037244
vn -0.944721 0.280680 -0.169471
vn -0.561336 0.244409 0.790675
vn -0.575700 0.277568 0.769107
vn -0.591949 0.317625 0.740750
vn -0.610339 0.367373 0.701800
vn 0.247993 0.548465 0.798552
vn 0.247993 0.548465 0.798552
vn 0.247993 0.548465 0.798552
vn 0.699251 0.499869 -0.511056
vn 0.699251 0.499869 -0.511056
vn 0.699251 0.499869 -0.511056
vn -0.185516 0.858478 -0.478121
vn -0.185516 0.858478 -0.478121
vn -0.185516 0.858478 -0.478121
vn -0.095466 0.853667 -0.511995
vn -0.095466 0.853667 -0.511995
vn -0.095466 0.853667 -0.511995
vn 0.248199 0.605412 0.756223
vn 0.248199 0.605412 0.756223
vn 0.248199 0.605412 0.756223
vn 0.731008 0.603189 0.319047
vn 0.759535 0.572010 0.309695
vn 0.782052 0.545416 0.301523
vn 0.861546 0.432880 0.265243
vn 0.224828 0.904815 -0.361609
vn 0.224828 0.904815 -0.361609
vn 0.224828 0.904815 -0.361609
vn -0.222611 0.940162 0.257952
vn -0.222611 0.940162 0.257952
vn -0.222611 0.940162 0.257952
vn -0.224974 0.940828 0.253437
vn -0.224974 0.940828 0.253437
vn -0.224974 0.940828 0.253437
vn -0.038381 0.942856 0.330982
vn -0.038381 0.942856 0.330982
vn -0.038381 0.942856 0.330982
vn 0.259833 0.965159 -0.030896
vn 0.259833 0.965159 -0.030896
vn 0.259833 0.965159 -0.030896
vn 0.647231 -0.077502 -0.758344
vn 0.732668 -0.019132 -0.680318
vn 0.607732 0.013680 -0.794024
vn 0.513470 0.046160 -0.856865
vn 0.029898 -0.001652 -0.999552
vn 0.031274 -0.001878 -0.999509
vn 0.043247 -0.003844 -0.999057
vn 0.044693 -0.004082 -0.998992
vn -0.572376 0.006409 -0.819966
vn -0.575111 0.052185 -0.816409
vn -0.581855 0.004669 -0.813279
vn -0.763800 -0.024766 -0.644978
vn -0.940145 -0.042724 -0.338086
vn -0.911694 0.037380 -0.409165
vn -0.936001 -0.039328 -0.349794
vn -0.910404 0.042425 -0.411539
vn -0.943010 -0.067688 0.325808
vn -0.904751 0.057820 0.421998
vn -0.918714 -0.034968 0.393373
vn -0.904013 0.074151 0.421025
vn -0.570325 -0.081847 0.817331
vn -0.549647 -0.068183 0.832610
vn -0.546277 0.075477 0.834197
vn -0.542694 0.078160 0.836286
vn 0.008948 -0.094070 0.995525
vn 0.000211 -0.097320 0.995253
vn -0.024470 0.079391 0.996543
vn -0.032515 0.080761 0.996203
vn 0.477389 -0.086100 0.874464
vn 0.476030 0.067443 0.876839
vn 0.501147 -0.074499 0.862149
vn 0.479587 0.064766 0.875101
vn 0.960530 0.020262 0.277439
vn 0.961203 -0.023724 0.274821
vn 0.959112 0.025341 0.281892
vn 0.856807 -0.022766 -0.515134
vn 0.906594 0.041791 -0.419929
vn 0.925815 0.066190 -0.372137
vn 0.571126 0.014900 -0.820727
vn -0.524726 0.086532 -0.846862
vn -0.887595 0.129169 -0.442144
vn -0.882893 0.122872 -0.453214
vn -0.900073 0.163420 0.403934
vn -0.902046 0.166310 0.398314
vn -0.526671 0.156436 0.835551
vn -0.522731 0.158227 0.837685
vn -0.047753 0.136033 0.989553
vn -0.052502 0.134328 0.989545
vn 0.493492 0.097170 0.864306
vn 0.498878 0.094112 0.861547
vn 0.950649 0.045007 0.306985
vn 0.948183 0.041752 0.314968
vn 0.912892 0.015772 -0.407896
vn 0.906006 0.007285 -0.423203
vn 0.938286 -0.191410 -0.288066
vn 0.894515 -0.099307 -0.435868
vn 0.985354 -0.079680 0.150763
vn 0.977510 -0.056908 0.203064
vn 0.598512 -0.109026 0.793660
vn 0.565600 -0.131036 0.814203
vn 0.029904 -0.192987 0.980745
vn 0.023145 -0.196618 0.980207
vn -0.647475 -0.185557 0.739151
vn -0.623621 -0.169933 0.763034
vn -0.958453 -0.095766 0.268694
vn 0.539571 -0.129620 -0.831902
s off
g pDisc7
usemtl aiStandardSurface1SG
f 1/2/1 2/1/2 9/12/3
f 2/1/4 3/3/5 9/13/6
f 3/3/7 4/4/8 9/14/9
f 4/4/10 5/5/11 9/15/12
f 5/5/13 6/6/14 9/16/15
f 6/6/16 64/7/17 9/17/18
f 64/7/19 63/8/20 9/18/21
f 63/8/22 7/9/23 9/19/24
f 7/9/25 8/10/26 9/20/27
f 8/10/28 1/11/29 9/21/30
s 1
f 11/23/31 21/24/32 10/22/33
f 10/22/33 21/24/32 20/25/34
s 2
f 12/26/35 22/27/36 11/23/37
f 11/23/37 22/27/36 21/24/38
s 3
f 12/26/39 13/28/40 22/27/41
f 22/27/41 13/28/40 23/29/42
s 4
f 13/28/43 14/30/44 23/29/45
f 23/29/45 14/30/44 24/31/46
s 5
f 15/32/47 25/33/48 14/30/49
f 14/30/49 25/33/48 24/31/50
s 6
f 16/34/51 26/35/52 15/32/53
f 15/32/53 26/35/52 25/33/54
s 7
f 16/34/55 17/36/56 26/35/57
f 26/35/57 17/36/56 27/37/58
s 8
f 18/38/59 28/39/60 17/36/61
f 17/36/61 28/39/60 27/37/62
s 9
f 19/40/63 29/41/64 18/38/65
f 18/38/65 29/41/64 28/39/66
s 10
f 19/40/67 10/42/68 29/41/69
f 29/41/69 10/42/68 20/43/70
s 11
f 20/25/71 21/24/72 30/45/73
f 30/45/73 21/24/72 31/44/74
s 12
f 22/27/75 32/46/76 21/24/77
f 21/24/77 32/46/76 31/44/78
s 13
f 22/27/79 23/29/80 32/46/81
f 32/46/81 23/29/80 33/47/82
s 14
f 23/29/83 24/31/84 33/47/85
f 33/47/85 24/31/84 34/48/86
s 15
f 25/33/87 35/49/88 24/31/89
f 24/31/89 35/49/88 34/48/90
s 16
f 25/33/91 26/35/92 35/49/93
f 35/49/93 26/35/92 36/50/94
s 17
f 26/35/95 27/37/96 36/50/97
f 36/50/97 27/37/96 37/51/98
s 18
f 28/39/99 38/52/100 27/37/101
f 27/37/101 38/52/100 37/51/102
s 19
f 29/41/103 39/53/104 28/39/105
f 28/39/105 39/53/104 38/52/106
s 20
f 29/41/107 20/43/108 39/53/109
f 39/53/109 20/43/108 30/54/110
s off
f 31/44/111 40/55/112 30/45/113
s 21
f 32/46/114 41/56/115 31/44/116
f 31/44/116 41/56/115 40/55/117
s 22
f 32/46/118 33/47/119 41/56/120
f 41/56/120 33/47/119 42/57/121
s off
f 33/47/122 34/48/123 42/57/124
s 23
f 35/49/125 43/58/126 34/48/127
f 34/48/127 43/58/126 42/57/128
s off
f 36/50/129 43/58/130 35/49/131
s 24
f 37/51/132 44/59/133 36/50/134
f 36/50/134 44/59/133 43/58/135
s off
f 38/52/136 44/59/137 37/51/138
s 25
f 39/53/139 45/60/140 38/52/141
f 38/52/141 45/60/140 44/59/142
s 26
f 39/53/143 30/54/144 45/60/145
f 45/60/145 30/54/144 40/61/146
s off
f 40/55/147 46/62/148 52/63/149
s 27
f 40/55/150 41/56/151 46/62/152
f 46/62/152 41/56/151 47/64/153
s 28
f 41/56/154 42/57/155 47/64/156
f 47/64/156 42/57/155 48/65/157
s 29
f 43/58/158 49/66/159 42/57/160
f 42/57/160 49/66/159 48/65/161
s off
f 43/58/162 50/67/163 49/66/164
s 30
f 44/59/165 51/68/166 43/58/167
f 43/58/167 51/68/166 50/67/168
s 31
f 45/60/169 52/69/170 44/59/171
f 44/59/171 52/69/170 51/68/172
s off
f 45/60/173 40/61/174 52/69/175
f 52/63/176 46/62/177 53/70/178
f 51/68/179 54/71/180 50/67/181
s 32
f 51/68/182 52/69/183 54/71/184
f 54/71/184 52/69/183 53/72/185
s off
f 46/62/186 55/73/187 53/70/188
f 46/62/189 47/64/190 55/73/191
f 48/65/192 56/74/193 47/64/194
s 33
f 48/65/195 49/66/196 56/74/197
f 56/74/197 49/66/196 57/75/198
s 34
f 50/67/199 58/76/200 49/66/201
f 49/66/201 58/76/200 57/75/202
s off
f 50/67/203 54/71/204 58/76/205
f 53/70/206 55/73/207 59/77/208
f 47/64/209 60/78/210 55/73/211
f 47/64/212 56/74/213 60/78/214
f 58/76/215 54/71/216 61/79/217
s 35
f 53/72/218 59/80/219 54/71/220
f 54/71/220 59/80/219 61/79/221
s off
f 59/77/222 55/73/223 60/81/224
f 56/74/225 57/75/226 60/82/227
f 57/75/228 58/76/229 60/83/230
f 58/76/231 61/79/232 60/84/233
f 61/79/234 59/80/235 60/85/236
s 36
f 11/86/237 71/140/238 63/125/239
f 63/125/239 71/140/238 62/122/240
s 37
f 12/89/241 11/90/242 64/127/243
f 64/127/243 11/90/242 63/124/244
s 38
f 12/92/245 64/126/246 13/91/247
f 13/91/247 64/126/246 65/129/248
s 39
f 13/95/249 65/128/250 14/94/251
f 14/94/251 65/128/250 66/131/252
s 40
f 14/99/253 66/130/254 76/151/255
f 76/151/255 66/130/254 67/133/256
s 41
f 75/149/257 76/150/258 68/135/259
f 68/135/259 76/150/258 67/132/260
s 42
f 74/147/261 75/148/262 69/137/263
f 69/137/263 75/148/262 68/134/264
s 43
f 74/146/265 69/136/266 73/145/267
f 73/145/267 69/136/266 70/139/268
s 44
f 72/143/269 73/144/270 70/138/271
s 45
f 71/141/272 72/142/273 62/123/274
s 36
f 63/125/239 62/122/240 7/88/275
s 38
f 65/129/248 64/126/246 6/93/276
s 39
f 66/131/252 65/128/250 5/97/277
f 5/97/277 65/128/250 6/96/278
s 40
f 66/130/254 5/100/279 67/133/256
f 67/133/256 5/100/279 4/101/280
s 41
f 68/135/259 67/132/260 3/105/281
f 3/105/281 67/132/260 4/104/282
s 42
f 69/137/263 68/134/264 2/109/283
f 2/109/283 68/134/264 3/108/284
s 43
f 69/136/266 2/112/285 70/139/268
f 70/139/268 2/112/285 1/113/286
s 44
f 72/143/269 70/138/271 8/117/287
f 8/117/287 70/138/271 1/116/288
s 45
f 72/142/273 8/120/289 62/123/274
f 62/123/274 8/120/289 7/121/290
f 10/118/291 19/119/292 71/141/272
f 71/141/272 19/119/292 72/142/273
s 44
f 18/115/293 73/144/270 19/114/294
f 19/114/294 73/144/270 72/143/269
s 43
f 18/110/295 17/111/296 73/145/267
f 73/145/267 17/111/296 74/146/265
s 42
f 17/106/297 16/107/298 74/147/261
f 74/147/261 16/107/298 75/148/262
s 41
f 16/102/299 15/103/300 75/149/257
f 75/149/257 15/103/300 76/150/258
s 40
f 15/98/301 14/99/253 76/151/255
s 36
f 11/86/237 10/87/302 71/140/238
